  0
SECTION
  2
HEADER
  9
$ACADVER
  1
AC1014
  9
$ACADMAINTVER
 70
     9
  9
$DWGCODEPAGE
  3
MAC-ROMAN
  9
$INSBASE
 10
0.0
 20
0.0
 30
0.0
  9
$EXTMIN
 10
1.000000000000000E+20
 20
1.000000000000000E+20
 30
1.000000000000000E+20
  9
$EXTMAX
 10
-1.000000000000000E+20
 20
-1.000000000000000E+20
 30
-1.000000000000000E+20
  9
$LIMMIN
 10
0.0
 20
0.0
  9
$LIMMAX
 10
12.0
 20
9.0
  9
$ORTHOMODE
 70
     0
  9
$REGENMODE
 70
     1
  9
$FILLMODE
 70
     1
  9
$QTEXTMODE
 70
     0
  9
$MIRRTEXT
 70
     1
  9
$DRAGMODE
 70
     2
  9
$LTSCALE
 40
1.0
  9
$OSMODE
 70
    37
  9
$ATTMODE
 70
     1
  9
$TEXTSIZE
 40
0.2
  9
$TRACEWID
 40
0.05
  9
$TEXTSTYLE
  7
STANDARD
  9
$CLAYER
  8
0
  9
$CELTYPE
  6
BYLAYER
  9
$CECOLOR
 62
   256
  9
$CELTSCALE
 40
1.0
  9
$DELOBJ
 70
     1
  9
$DISPSILH
 70
     0
  9
$DIMSCALE
 40
1.0
  9
$DIMASZ
 40
0.18
  9
$DIMEXO
 40
0.0625
  9
$DIMDLI
 40
0.38
  9
$DIMRND
 40
0.0
  9
$DIMDLE
 40
0.0
  9
$DIMEXE
 40
0.18
  9
$DIMTP
 40
0.0
  9
$DIMTM
 40
0.0
  9
$DIMTXT
 40
0.18
  9
$DIMCEN
 40
0.09
  9
$DIMTSZ
 40
0.0
  9
$DIMTOL
 70
     0
  9
$DIMLIM
 70
     0
  9
$DIMTIH
 70
     1
  9
$DIMTOH
 70
     1
  9
$DIMSE1
 70
     0
  9
$DIMSE2
 70
     0
  9
$DIMTAD
 70
     0
  9
$DIMZIN
 70
     0
  9
$DIMBLK
  1

  9
$DIMASO
 70
     1
  9
$DIMSHO
 70
     1
  9
$DIMPOST
  1

  9
$DIMAPOST
  1

  9
$DIMALT
 70
     0
  9
$DIMALTD
 70
     2
  9
$DIMALTF
 40
25.4
  9
$DIMLFAC
 40
1.0
  9
$DIMTOFL
 70
     0
  9
$DIMTVP
 40
0.0
  9
$DIMTIX
 70
     0
  9
$DIMSOXD
 70
     0
  9
$DIMSAH
 70
     0
  9
$DIMBLK1
  1

  9
$DIMBLK2
  1

  9
$DIMSTYLE
  2
STANDARD
  9
$DIMCLRD
 70
     0
  9
$DIMCLRE
 70
     0
  9
$DIMCLRT
 70
     0
  9
$DIMTFAC
 40
1.0
  9
$DIMGAP
 40
0.09
  9
$DIMJUST
 70
     0
  9
$DIMSD1
 70
     0
  9
$DIMSD2
 70
     0
  9
$DIMTOLJ
 70
     1
  9
$DIMTZIN
 70
     0
  9
$DIMALTZ
 70
     0
  9
$DIMALTTZ
 70
     0
  9
$DIMFIT
 70
     3
  9
$DIMUPT
 70
     0
  9
$DIMUNIT
 70
     2
  9
$DIMDEC
 70
     4
  9
$DIMTDEC
 70
     4
  9
$DIMALTU
 70
     2
  9
$DIMALTTD
 70
     2
  9
$DIMTXSTY
  7
STANDARD
  9
$DIMAUNIT
 70
     0
  9
$LUNITS
 70
     2
  9
$LUPREC
 70
     4
  9
$SKETCHINC
 40
0.1
  9
$FILLETRAD
 40
0.5
  9
$AUNITS
 70
     0
  9
$AUPREC
 70
     0
  9
$MENU
  1
.
  9
$ELEVATION
 40
0.0
  9
$PELEVATION
 40
0.0
  9
$THICKNESS
 40
0.0
  9
$LIMCHECK
 70
     0
  9
$CHAMFERA
 40
0.0
  9
$CHAMFERB
 40
0.0
  9
$CHAMFERC
 40
0.0
  9
$CHAMFERD
 40
0.0
  9
$SKPOLY
 70
     0
  9
$TDCREATE
 40
2459548.356660382
  9
$TDUPDATE
 40
2459548.356660521
  9
$TDINDWG
 40
0.0000000116
  9
$TDUSRTIMER
 40
0.0000000116
  9
$USRTIMER
 70
     1
  9
$ANGBASE
 50
0.0
  9
$ANGDIR
 70
     0
  9
$PDMODE
 70
     0
  9
$PDSIZE
 40
0.0
  9
$PLINEWID
 40
0.0
  9
$COORDS
 70
     1
  9
$SPLFRAME
 70
     0
  9
$SPLINETYPE
 70
     6
  9
$SPLINESEGS
 70
     8
  9
$ATTDIA
 70
     0
  9
$ATTREQ
 70
     1
  9
$HANDLING
 70
     1
  9
$HANDSEED
  5
297
  9
$SURFTAB1
 70
     6
  9
$SURFTAB2
 70
     6
  9
$SURFTYPE
 70
     6
  9
$SURFU
 70
     6
  9
$SURFV
 70
     6
  9
$UCSNAME
  2

  9
$UCSORG
 10
0.0
 20
0.0
 30
0.0
  9
$UCSXDIR
 10
1.0
 20
0.0
 30
0.0
  9
$UCSYDIR
 10
0.0
 20
1.0
 30
0.0
  9
$PUCSNAME
  2

  9
$PUCSORG
 10
0.0
 20
0.0
 30
0.0
  9
$PUCSXDIR
 10
1.0
 20
0.0
 30
0.0
  9
$PUCSYDIR
 10
0.0
 20
1.0
 30
0.0
  9
$USERI1
 70
     0
  9
$USERI2
 70
     0
  9
$USERI3
 70
     0
  9
$USERI4
 70
     0
  9
$USERI5
 70
     0
  9
$USERR1
 40
0.0
  9
$USERR2
 40
0.0
  9
$USERR3
 40
0.0
  9
$USERR4
 40
0.0
  9
$USERR5
 40
0.0
  9
$WORLDVIEW
 70
     1
  9
$SHADEDGE
 70
     3
  9
$SHADEDIF
 70
    70
  9
$TILEMODE
 70
     1
  9
$MAXACTVP
 70
    64
  9
$PINSBASE
 10
0.0
 20
0.0
 30
0.0
  9
$PLIMCHECK
 70
     0
  9
$PEXTMIN
 10
1.000000000000000E+20
 20
1.000000000000000E+20
 30
1.000000000000000E+20
  9
$PEXTMAX
 10
-1.000000000000000E+20
 20
-1.000000000000000E+20
 30
-1.000000000000000E+20
  9
$PLIMMIN
 10
0.0
 20
0.0
  9
$PLIMMAX
 10
12.0
 20
9.0
  9
$UNITMODE
 70
     0
  9
$VISRETAIN
 70
     1
  9
$PLINEGEN
 70
     0
  9
$PSLTSCALE
 70
     1
  9
$TREEDEPTH
 70
  3020
  9
$PICKSTYLE
 70
     1
  9
$CMLSTYLE
  2
STANDARD
  9
$CMLJUST
 70
     0
  9
$CMLSCALE
 40
1.0
  9
$PROXYGRAPHICS
 70
     1
  9
$MEASUREMENT
 70
     0
  0
ENDSEC
  0
SECTION
  2
CLASSES
  0
CLASS
  1
ACDBDICTIONARYWDFLT
  2
AcDbDictionaryWithDefault
  3
ObjectDBX Classes
 90
        0
280
     0
281
     0
  0
CLASS
  1
VISUALSTYLE
  2
AcDbVisualStyle
  3
ObjectDBX Classes
 90
     4095
280
     0
281
     0
  0
CLASS
  1
MATERIAL
  2
AcDbMaterial
  3
ObjectDBX Classes
 90
     1153
280
     0
281
     0
  0
CLASS
  1
SCALE
  2
AcDbScale
  3
ObjectDBX Classes
 90
     1153
280
     0
281
     0
  0
CLASS
  1
TABLESTYLE
  2
AcDbTableStyle
  3
ObjectDBX Classes
 90
     4095
280
     0
281
     0
  0
CLASS
  1
MLEADERSTYLE
  2
AcDbMLeaderStyle
  3
ACDB_MLEADERSTYLE_CLASS
 90
     4095
280
     0
281
     0
  0
CLASS
  1
SUN
  2
AcDbSun
  3
SCENEOE
 90
     1153
280
     0
281
     0
  0
CLASS
  1
DICTIONARYVAR
  2
AcDbDictionaryVar
  3
ObjectDBX Classes
 90
        0
280
     0
281
     0
  0
CLASS
  1
XRECORD
  2
AcDbXrecord
  3
ObjectDBX Classes
 90
        0
280
     0
281
     0
  0
CLASS
  1
LWPOLYLINE
  2
AcDbPolyline
  3
ObjectDBX Classes
 90
        0
280
     0
281
     1
  0
CLASS
  1
HATCH
  2
AcDbHatch
  3
ObjectDBX Classes
 90
        0
280
     0
281
     1
  0
CLASS
  1
ACDBPLACEHOLDER
  2
AcDbPlaceHolder
  3
ObjectDBX Classes
 90
        0
280
     0
281
     0
  0
CLASS
  1
LAYOUT
  2
AcDbLayout
  3
ObjectDBX Classes
 90
        0
280
     0
281
     0
  0
ENDSEC
  0
SECTION
  2
TABLES
  0
TABLE
  2
VPORT
  5
8
102
{ACAD_XDICTIONARY
360
28C
102
}
330
0
100
AcDbSymbolTable
 70
     1
  0
VPORT
  5
29
330
8
100
AcDbSymbolTableRecord
100
AcDbViewportTableRecord
  2
*ACTIVE
 70
     0
 10
0.0
 20
0.0
 11
1.0
 21
1.0
 12
0.0
 22
0.0
 13
0.0
 23
0.0
 14
0.5
 24
0.5
 15
0.5
 25
0.5
 16
0.0
 26
0.0
 36
1.0
 17
0.0
 27
0.0
 37
-1000.0
 40
58.94005326493807
 41
1.721421709894332
 42
50.0
 43
241.3050944962678
 44
331.778448836927
 50
0.0
 51
0.0
 71
     0
 72
   100
 73
     1
 74
     3
 75
     0
 76
     0
 77
     0
 78
     0
  0
ENDTAB
  0
TABLE
  2
LTYPE
  5
5
330
0
100
AcDbSymbolTable
 70
     1
  0
LTYPE
  5
14
330
5
100
AcDbSymbolTableRecord
100
AcDbLinetypeTableRecord
  2
BYBLOCK
 70
     0
  3

 72
    65
 73
     0
 40
0.0
  0
LTYPE
  5
15
330
5
100
AcDbSymbolTableRecord
100
AcDbLinetypeTableRecord
  2
BYLAYER
 70
     0
  3

 72
    65
 73
     0
 40
0.0
  0
LTYPE
  5
16
330
5
100
AcDbSymbolTableRecord
100
AcDbLinetypeTableRecord
  2
CONTINUOUS
 70
     0
  3
Solid line
 72
    65
 73
     0
 40
0.0
  0
ENDTAB
  0
TABLE
  2
LAYER
  5
2
330
0
100
AcDbSymbolTable
 70
     3
  0
LAYER
  5
10
330
2
100
AcDbSymbolTableRecord
100
AcDbLayerTableRecord
  2
0
 70
     0
 62
     7
  6
CONTINUOUS
  0
LAYER
  5
6E
330
2
100
AcDbSymbolTableRecord
100
AcDbLayerTableRecord
  2
PROFILEEDGES
 70
     0
 62
     7
  6
CONTINUOUS
  0
LAYER
  5
6F
330
2
100
AcDbSymbolTableRecord
100
AcDbLayerTableRecord
  2
SECTIONCUTEDGES
 70
     0
 62
     7
  6
CONTINUOUS
  0
ENDTAB
  0
TABLE
  2
STYLE
  5
3
330
0
100
AcDbSymbolTable
 70
     1
  0
STYLE
  5
11
330
3
100
AcDbSymbolTableRecord
100
AcDbTextStyleTableRecord
  2
STANDARD
 70
     0
 40
0.0
 41
1.0
 50
0.0
 71
     0
 42
0.2
  3
txt
  4

  0
ENDTAB
  0
TABLE
  2
VIEW
  5
6
330
0
100
AcDbSymbolTable
 70
     0
  0
ENDTAB
  0
TABLE
  2
UCS
  5
7
330
0
100
AcDbSymbolTable
 70
     0
  0
ENDTAB
  0
TABLE
  2
APPID
  5
9
330
0
100
AcDbSymbolTable
 70
     2
  0
APPID
  5
12
330
9
100
AcDbSymbolTableRecord
100
AcDbRegAppTableRecord
  2
ACAD
 70
     0
  0
APPID
  5
296
330
9
100
AcDbSymbolTableRecord
100
AcDbRegAppTableRecord
  2
ACAD_MLEADERVER
 70
     0
  0
ENDTAB
  0
TABLE
  2
DIMSTYLE
  5
A
330
0
100
AcDbSymbolTable
 70
     1
  0
DIMSTYLE
105
27
330
A
100
AcDbSymbolTableRecord
100
AcDbDimStyleTableRecord
  2
STANDARD
 70
     0
  3

  4

  5

  6

  7

 40
1.0
 41
0.18
 42
0.0625
 43
0.38
 44
0.18
 45
0.0
 46
0.0
 47
0.0
 48
0.0
140
0.18
141
0.09
142
0.0
143
25.4
144
1.0
145
0.0
146
1.0
147
0.09
 71
     0
 72
     0
 73
     1
 74
     1
 75
     0
 76
     0
 77
     0
 78
     0
170
     0
171
     2
172
     0
173
     0
174
     0
175
     0
176
     0
177
     0
178
     0
270
     2
271
     4
272
     4
273
     2
274
     2
340
11
275
     0
280
     0
281
     0
282
     0
283
     1
284
     0
285
     0
286
     0
287
     3
288
     0
  0
ENDTAB
  0
TABLE
  2
BLOCK_RECORD
  5
1
330
0
100
AcDbSymbolTable
 70
     0
  0
BLOCK_RECORD
  5
1F
330
1
100
AcDbSymbolTableRecord
100
AcDbBlockTableRecord
  2
*MODEL_SPACE
  0
BLOCK_RECORD
  5
1B
330
1
100
AcDbSymbolTableRecord
100
AcDbBlockTableRecord
  2
*PAPER_SPACE
  0
ENDTAB
  0
ENDSEC
  0
SECTION
  2
BLOCKS
  0
BLOCK
  5
20
330
1F
100
AcDbEntity
  8
0
100
AcDbBlockBegin
  2
*MODEL_SPACE
 70
     0
 10
0.0
 20
0.0
 30
0.0
  3
*MODEL_SPACE
  1

  0
ENDBLK
  5
21
330
1F
100
AcDbEntity
  8
0
100
AcDbBlockEnd
  0
BLOCK
  5
1C
330
1B
100
AcDbEntity
 67
     1
  8
0
100
AcDbBlockBegin
  2
*PAPER_SPACE
 70
     0
 10
0.0
 20
0.0
 30
0.0
  3
*PAPER_SPACE
  1

  0
ENDBLK
  5
1D
330
1B
100
AcDbEntity
 67
     1
  8
0
100
AcDbBlockEnd
  0
ENDSEC
  0
SECTION
  2
ENTITIES
  0
LINE
  5
70
330
1F
100
AcDbEntity
  8
0
100
AcDbLine
 10
-46.08846777986871
 20
3.047804323293166
 30
0.0
 11
49.91153222013129
 21
3.047804323293166
 31
0.0
  0
LINE
  5
71
330
1F
100
AcDbEntity
  8
0
100
AcDbLine
 10
-46.08846777986871
 20
-4.952195676706834
 30
0.0
 11
-46.08846777986871
 21
3.047804323293166
 31
0.0
  0
LINE
  5
72
330
1F
100
AcDbEntity
  8
0
100
AcDbLine
 10
49.91153222013129
 20
-4.952195676706834
 30
0.0
 11
-46.08846777986871
 21
-4.952195676706834
 31
0.0
  0
LINE
  5
73
330
1F
100
AcDbEntity
  8
0
100
AcDbLine
 10
49.91153222013129
 20
3.047804323293166
 30
0.0
 11
49.91153222013129
 21
-4.952195676706834
 31
0.0
  0
LINE
  5
74
330
1F
100
AcDbEntity
  8
0
100
AcDbLine
 10
-27.57668995044359
 20
0.4568958244173147
 30
0.0
 11
-27.57668963291443
 21
2.286440643898894
 31
0.0
  0
LINE
  5
75
330
1F
100
AcDbEntity
  8
0
100
AcDbLine
 10
-27.5852080810875
 20
2.354086454341415
 30
0.0
 11
-27.57668963291443
 21
2.286440643898894
 31
0.0
  0
LINE
  5
76
330
1F
100
AcDbEntity
  8
0
100
AcDbLine
 10
-27.57668995044359
 20
0.4568958244173147
 30
0.0
 11
-27.58520844946463
 21
0.3892498357039593
 31
0.0
  0
LINE
  5
77
330
1F
100
AcDbEntity
  8
0
100
AcDbLine
 10
-27.82668963323636
 20
2.547804279901167
 30
0.0
 11
-31.13918956496216
 21
2.547804350979826
 31
0.0
  0
LINE
  5
78
330
1F
100
AcDbEntity
  8
0
100
AcDbLine
 10
-31.13918956496216
 20
2.547804350979826
 30
0.0
 11
-31.63918956431833
 21
2.025077077743594
 31
0.0
  0
LINE
  5
79
330
1F
100
AcDbEntity
  8
0
100
AcDbLine
 10
-27.82668963323636
 20
2.547804279901167
 30
0.0
 11
-27.76198477661177
 21
2.538898453714195
 31
0.0
  0
LINE
  5
7A
330
1F
100
AcDbEntity
  8
0
100
AcDbLine
 10
-45.5766895417167
 20
2.286440545406986
 30
0.0
 11
-45.56817099837228
 21
2.354086432191806
 31
0.0
  0
LINE
  5
7B
330
1F
100
AcDbEntity
  8
0
100
AcDbLine
 10
-45.57668953356253
 20
0.4568952238612733
 30
0.0
 11
-45.5766895417167
 21
2.286440545406986
 31
0.0
  0
LINE
  5
7C
330
1F
100
AcDbEntity
  8
0
100
AcDbLine
 10
-45.56817099837228
 20
2.354086432191806
 30
0.0
 11
-45.54319589282377
 21
2.417122363603337
 31
0.0
  0
LINE
  5
7D
330
1F
100
AcDbEntity
  8
0
100
AcDbLine
 10
-31.63918956431833
 20
2.025077077743594
 30
0.0
 11
-41.51418950301699
 21
2.025077065580551
 31
0.0
  0
LINE
  5
7E
330
1F
100
AcDbEntity
  8
0
100
AcDbLine
 10
-31.1391895007636
 20
0.1955320344666164
 30
0.0
 11
-27.82668995012165
 21
0.1955321877991976
 31
0.0
  0
LINE
  5
7F
330
1F
100
AcDbEntity
  8
0
100
AcDbLine
 10
-31.63918953251044
 20
-0.3271952555610529
 30
0.0
 11
-31.1391895007636
 21
0.1955320344666164
 31
0.0
  0
LINE
  5
80
330
1F
100
AcDbEntity
  8
0
100
AcDbLine
 10
-42.01418943384969
 20
0.1955316559435872
 30
0.0
 11
-41.51418955954384
 21
-0.3271954671888855
 31
0.0
  0
LINE
  5
81
330
1F
100
AcDbEntity
  8
0
100
AcDbLine
 10
-45.32668960273945
 20
0.1955316952383681
 30
0.0
 11
-42.01418943384969
 21
0.1955316559435872
 31
0.0
  0
LINE
  5
82
330
1F
100
AcDbEntity
  8
0
100
AcDbLine
 10
-45.56817099005148
 20
0.3892493370974379
 30
0.0
 11
-45.57668953356253
 21
0.4568952238612733
 31
0.0
  0
LINE
  5
83
330
1F
100
AcDbEntity
  8
0
100
AcDbLine
 10
-45.54319589282377
 20
2.417122363603337
 30
0.0
 11
-45.50346623724096
 21
2.471252545087687
 31
0.0
  0
LINE
  5
84
330
1F
100
AcDbEntity
  8
0
100
AcDbLine
 10
-45.39139430330328
 20
2.538898432000053
 30
0.0
 11
-45.32668954203861
 21
2.547804182025104
 31
0.0
  0
LINE
  5
85
330
1F
100
AcDbEntity
  8
0
100
AcDbLine
 10
-45.45168954199548
 20
2.512788094231053
 30
0.0
 11
-45.39139430330328
 21
2.538898432000053
 31
0.0
  0
LINE
  5
86
330
1F
100
AcDbEntity
  8
0
100
AcDbLine
 10
-45.32668954203861
 20
2.547804182025104
 30
0.0
 11
-42.01418950366082
 21
2.547804186105105
 31
0.0
  0
LINE
  5
87
330
1F
100
AcDbEntity
  8
0
100
AcDbLine
 10
-45.50346623724096
 20
2.471252545087687
 30
0.0
 11
-45.45168954199548
 21
2.512788094231053
 31
0.0
  0
LINE
  5
88
330
1F
100
AcDbEntity
  8
0
100
AcDbLine
 10
-42.01418950366082
 20
2.547804186105105
 30
0.0
 11
-41.51418950301699
 21
2.025077065580551
 31
0.0
  0
LINE
  5
89
330
1F
100
AcDbEntity
  8
0
100
AcDbLine
 10
-45.45168953328374
 20
0.2305476753451283
 30
0.0
 11
-45.50346622863154
 21
0.2720832243609488
 31
0.0
  0
LINE
  5
8A
330
1F
100
AcDbEntity
  8
0
100
AcDbLine
 10
-45.39139429452721
 20
0.2044373377246598
 30
0.0
 11
-45.45168953328374
 21
0.2305476753451283
 31
0.0
  0
LINE
  5
8B
330
1F
100
AcDbEntity
  8
0
100
AcDbLine
 10
-45.50346622863154
 20
0.2720832243609488
 30
0.0
 11
-45.54319588434768
 21
0.32621340574743
 31
0.0
  0
LINE
  5
8C
330
1F
100
AcDbEntity
  8
0
100
AcDbLine
 10
-45.32668960273945
 20
0.1955316952383681
 30
0.0
 11
-45.39139429452721
 21
0.2044373377246598
 31
0.0
  0
LINE
  5
8D
330
1F
100
AcDbEntity
  8
0
100
AcDbLine
 10
-45.54319588434768
 20
0.32621340574743
 30
0.0
 11
-45.56817099005148
 21
0.3892493370974379
 31
0.0
  0
LINE
  5
8E
330
1F
100
AcDbEntity
  8
0
100
AcDbLine
 10
-27.58520844946463
 20
0.3892498357039593
 30
0.0
 11
-27.61018355501315
 21
0.326213904292429
 31
0.0
  0
LINE
  5
8F
330
1F
100
AcDbEntity
  8
0
100
AcDbLine
 10
-27.6101831867913
 20
2.417122385691425
 30
0.0
 11
-27.5852080810875
 21
2.354086454341415
 31
0.0
  0
LINE
  5
90
330
1F
100
AcDbEntity
  8
0
100
AcDbLine
 10
-27.64991321059595
 20
0.2720837228080786
 30
0.0
 11
-27.70168990584146
 21
0.2305481736647121
 31
0.0
  0
LINE
  5
91
330
1F
100
AcDbEntity
  8
0
100
AcDbLine
 10
-27.61018355501315
 20
0.326213904292429
 30
0.0
 11
-27.64991321059595
 21
0.2720837228080786
 31
0.0
  0
LINE
  5
92
330
1F
100
AcDbEntity
  8
0
100
AcDbLine
 10
-27.70168990584146
 20
0.2305481736647121
 30
0.0
 11
-27.76198514453367
 21
0.2044378358957126
 31
0.0
  0
LINE
  5
93
330
1F
100
AcDbEntity
  8
0
100
AcDbLine
 10
-27.76198514453367
 20
0.2044378358957126
 30
0.0
 11
-27.82668995012165
 21
0.1955321877991976
 31
0.0
  0
LINE
  5
94
330
1F
100
AcDbEntity
  8
0
100
AcDbLine
 10
-27.76198477661177
 20
2.538898453714195
 30
0.0
 11
-27.70168953785523
 21
2.512788116093726
 31
0.0
  0
LINE
  5
95
330
1F
100
AcDbEntity
  8
0
100
AcDbLine
 10
-27.70168953785523
 20
2.512788116093726
 30
0.0
 11
-27.64991284250744
 21
2.471252567077908
 31
0.0
  0
LINE
  5
96
330
1F
100
AcDbEntity
  8
0
100
AcDbLine
 10
-27.64991284250744
 20
2.471252567077908
 30
0.0
 11
-27.6101831867913
 21
2.417122385691425
 31
0.0
  0
LINE
  5
97
330
1F
100
AcDbEntity
  8
0
100
AcDbLine
 10
-41.51418955954384
 20
-0.3271954671888855
 30
0.0
 11
-31.63918953251044
 21
-0.3271952555610529
 31
0.0
  0
LINE
  5
98
330
1F
100
AcDbEntity
  8
0
100
AcDbLine
 10
-13.57668923991415
 20
1.371668144147747
 30
0.0
 11
9.100260555782619
 21
1.37167365054026
 31
0.0
  0
LINE
  5
99
330
1F
100
AcDbEntity
  8
0
100
AcDbLine
 10
9.556543670373067
 20
0.4160559116440843
 30
0.0
 11
9.390732934381258
 21
0.4878587855281489
 31
0.0
  0
LINE
  5
9A
330
1F
100
AcDbEntity
  8
0
100
AcDbLine
 10
-12.8891893091007
 20
1.633031947812252
 30
0.0
 11
-12.92154168372461
 21
1.637484813936115
 31
0.0
  0
LINE
  5
9B
330
1F
100
AcDbEntity
  8
0
100
AcDbLine
 10
-12.95168931336123
 20
1.650539976426707
 30
0.0
 11
-12.97757765682325
 21
1.671307737258473
 31
0.0
  0
LINE
  5
9C
330
1F
100
AcDbEntity
  8
0
100
AcDbLine
 10
-12.9775773162524
 20
0.2338077446709698
 30
0.0
 11
-12.99744214299881
 21
0.2608728201175396
 31
0.0
  0
LINE
  5
9D
330
1F
100
AcDbEntity
  8
0
100
AcDbLine
 10
-12.88918895928979
 20
0.195531947812314
 30
0.0
 11
-12.92154133391369
 21
0.1999848139361839
 31
0.0
  0
LINE
  5
9E
330
1F
100
AcDbEntity
  8
0
100
AcDbLine
 10
-12.88918904910822
 20
0.5875774023577653
 30
0.0
 11
9.266420588434336
 21
0.5875827818838448
 31
0.0
  0
LINE
  5
9F
330
1F
100
AcDbEntity
  8
0
100
AcDbLine
 10
-13.00993006095712
 20
1.729890793218121
 30
0.0
 11
-13.01418933933077
 21
1.763713723101028
 31
0.0
  0
LINE
  5
A0
330
1F
100
AcDbEntity
  8
0
100
AcDbLine
 10
-12.99744250047425
 20
1.698372830560101
 30
0.0
 11
-13.00993006095712
 21
1.729890793218121
 31
0.0
  0
LINE
  5
A1
330
1F
100
AcDbEntity
  8
0
100
AcDbLine
 10
-13.00993010921952
 20
1.928218498188093
 30
0.0
 11
-12.99744256741737
 21
1.959736458490854
 31
0.0
  0
LINE
  5
A2
330
1F
100
AcDbEntity
  8
0
100
AcDbLine
 10
-13.01418937270268
 20
1.894395553757533
 30
0.0
 11
-13.00993010921952
 21
1.928218498188093
 31
0.0
  0
LINE
  5
A3
330
1F
100
AcDbEntity
  8
0
100
AcDbLine
 10
-13.01418902289177
 20
0.4568955537576028
 30
0.0
 11
-13.00992976080517
 21
0.4907184870980195
 31
0.0
  0
LINE
  5
A4
330
1F
100
AcDbEntity
  8
0
100
AcDbLine
 10
9.100260682986594
 20
0.8489463778130131
 30
0.0
 11
-13.57668911271018
 21
0.8489408714204993
 31
0.0
  0
LINE
  5
A5
330
1F
100
AcDbEntity
  8
0
100
AcDbLine
 10
-13.60904162118898
 20
1.367215261833136
 30
0.0
 11
-13.57668923991415
 21
1.371668144147747
 31
0.0
  0
LINE
  5
A6
330
1F
100
AcDbEntity
  8
0
100
AcDbLine
 10
-13.63918924090019
 20
1.354160085261308
 30
0.0
 11
-13.60904162118898
 21
1.367215261833136
 31
0.0
  0
LINE
  5
A7
330
1F
100
AcDbEntity
  8
0
100
AcDbLine
 10
-13.66507758383272
 20
1.333392304271065
 30
0.0
 11
-13.63918924090019
 21
1.354160085261308
 31
0.0
  0
LINE
  5
A8
330
1F
100
AcDbEntity
  8
0
100
AcDbLine
 10
-12.99744256741737
 20
1.959736458490854
 30
0.0
 11
-12.9775777465919
 21
1.986801557366053
 31
0.0
  0
LINE
  5
A9
330
1F
100
AcDbEntity
  8
0
100
AcDbLine
 10
-12.95168939990517
 20
2.007569343471249
 30
0.0
 11
-12.9215417840579
 21
2.020624519511257
 31
0.0
  0
LINE
  5
AA
330
1F
100
AcDbEntity
  8
0
100
AcDbLine
 10
-12.9775777465919
 20
1.986801557366053
 30
0.0
 11
-12.95168939990517
 21
2.007569343471249
 31
0.0
  0
LINE
  5
AB
330
1F
100
AcDbEntity
  8
0
100
AcDbLine
 10
-13.69742995021454
 20
1.274809239978152
 30
0.0
 11
-13.68494240841239
 21
1.306327200280912
 31
0.0
  0
LINE
  5
AC
330
1F
100
AcDbEntity
  8
0
100
AcDbLine
 10
-13.7016892136977
 20
1.240986295547591
 30
0.0
 11
-13.69742995021454
 21
1.274809239978152
 31
0.0
  0
LINE
  5
AD
330
1F
100
AcDbEntity
  8
0
100
AcDbLine
 10
-13.70168915009572
 20
0.9796226591839676
 30
0.0
 11
-13.7016892136977
 21
1.240986295547591
 31
0.0
  0
LINE
  5
AE
330
1F
100
AcDbEntity
  8
0
100
AcDbLine
 10
-13.69742987015115
 20
0.9457997168263672
 30
0.0
 11
-13.70168915009572
 21
0.9796226591839676
 31
0.0
  0
LINE
  5
AF
330
1F
100
AcDbEntity
  8
0
100
AcDbLine
 10
-13.68494230966828
 20
0.9142817541683468
 30
0.0
 11
-13.69742987015115
 21
0.9457997168263672
 31
0.0
  0
LINE
  5
B0
330
1F
100
AcDbEntity
  8
0
100
AcDbLine
 10
-13.66507747525734
 20
0.8872166682791465
 30
0.0
 11
-13.68494230966828
 21
0.9142817541683468
 31
0.0
  0
LINE
  5
B1
330
1F
100
AcDbEntity
  8
0
100
AcDbLine
 10
-13.63918912255525
 20
0.8664489000349531
 30
0.0
 11
-13.66507747525734
 21
0.8872166682791465
 31
0.0
  0
LINE
  5
B2
330
1F
100
AcDbEntity
  8
0
100
AcDbLine
 10
-13.60904150001614
 20
0.8533937385212358
 30
0.0
 11
-13.63918912255525
 21
0.8664489000349531
 31
0.0
  0
LINE
  5
B3
330
1F
100
AcDbEntity
  8
0
100
AcDbLine
 10
-13.57668911271018
 20
0.8489408714204993
 30
0.0
 11
-13.60904150001614
 21
0.8533937385212358
 31
0.0
  0
LINE
  5
B4
330
1F
100
AcDbEntity
  8
0
100
AcDbLine
 10
-13.68494240841239
 20
1.306327200280912
 30
0.0
 11
-13.66507758383272
 21
1.333392304271065
 31
0.0
  0
LINE
  5
B5
330
1F
100
AcDbEntity
  8
0
100
AcDbLine
 10
-12.92154168372461
 20
1.637484813936115
 30
0.0
 11
-12.95168931336123
 21
1.650539976426707
 31
0.0
  0
LINE
  5
B6
330
1F
100
AcDbEntity
  8
0
100
AcDbLine
 10
-12.95168896355031
 20
0.2130399764267689
 30
0.0
 11
-12.9775773162524
 21
0.2338077446709698
 31
0.0
  0
LINE
  5
B7
330
1F
100
AcDbEntity
  8
0
100
AcDbLine
 10
9.734480494988482
 20
0.3915653180561625
 30
0.0
 11
9.556543670373067
 21
0.4160559116440843
 31
0.0
  0
LINE
  5
B8
330
1F
100
AcDbEntity
  8
0
100
AcDbLine
 10
-12.97757765682325
 20
1.671307737258473
 30
0.0
 11
-12.99744250047425
 21
1.698372830560101
 31
0.0
  0
LINE
  5
B9
330
1F
100
AcDbEntity
  8
0
100
AcDbLine
 10
-12.92154133391369
 20
0.1999848139361839
 30
0.0
 11
-12.95168896355031
 21
0.2130399764267689
 31
0.0
  0
LINE
  5
BA
330
1F
100
AcDbEntity
  8
0
100
AcDbLine
 10
9.2664203340264
 20
1.63303732733834
 30
0.0
 11
9.39073263143829
 21
1.732761384196032
 31
0.0
  0
LINE
  5
BB
330
1F
100
AcDbEntity
  8
0
100
AcDbLine
 10
-12.9215417840579
 20
2.020624519511257
 30
0.0
 11
-12.88918940450368
 21
2.025077402357687
 31
0.0
  0
LINE
  5
BC
330
1F
100
AcDbEntity
  8
0
100
AcDbLine
 10
9.100260682986594
 20
0.8489463778130131
 30
0.0
 11
9.070411117592585
 21
0.9242851510455308
 31
0.0
  0
LINE
  5
BD
330
1F
100
AcDbEntity
  8
0
100
AcDbLine
 10
-12.97757739302679
 20
0.549301562481076
 30
0.0
 11
-12.95168905287652
 21
0.5700693413641477
 31
0.0
  0
LINE
  5
BE
330
1F
100
AcDbEntity
  8
0
100
AcDbLine
 10
9.070411117592585
 20
0.9242851510455308
 30
0.0
 11
9.046985245735272
 21
1.110310001212249
 31
0.0
  0
LINE
  5
BF
330
1F
100
AcDbEntity
  8
0
100
AcDbLine
 10
9.046985245735272
 20
1.110310001212249
 30
0.0
 11
9.07041102705551
 21
1.296334862780163
 31
0.0
  0
LINE
  5
C0
330
1F
100
AcDbEntity
  8
0
100
AcDbLine
 10
9.07041102705551
 20
1.296334862780163
 30
0.0
 11
9.100260555782619
 21
1.37167365054026
 31
0.0
  0
LINE
  5
C1
330
1F
100
AcDbEntity
  8
0
100
AcDbLine
 10
-13.01418899109078
 20
0.3262137355757909
 30
0.0
 11
-13.01418902289177
 21
0.4568955537576028
 31
0.0
  0
LINE
  5
C2
330
1F
100
AcDbEntity
  8
0
100
AcDbLine
 10
-13.00992971114621
 20
0.2923907932181904
 30
0.0
 11
-13.01418899109078
 21
0.3262137355757909
 31
0.0
  0
LINE
  5
C3
330
1F
100
AcDbEntity
  8
0
100
AcDbLine
 10
-12.99744214299881
 20
0.2608728201175396
 30
0.0
 11
-13.00992971114621
 21
0.2923907932181904
 31
0.0
  0
LINE
  5
C4
330
1F
100
AcDbEntity
  8
0
100
AcDbLine
 10
-12.99744221426532
 20
0.5222364669237933
 30
0.0
 11
-12.97757739302679
 21
0.549301562481076
 31
0.0
  0
LINE
  5
C5
330
1F
100
AcDbEntity
  8
0
100
AcDbLine
 10
-13.00992976080517
 20
0.4907184870980195
 30
0.0
 11
-12.99744221426532
 21
0.5222364669237933
 31
0.0
  0
LINE
  5
C6
330
1F
100
AcDbEntity
  8
0
100
AcDbLine
 10
9.39073263143829
 20
1.732761384196032
 30
0.0
 11
9.556543332484093
 21
1.804564338779092
 31
0.0
  0
LINE
  5
C7
330
1F
100
AcDbEntity
  8
0
100
AcDbLine
 10
9.556543332484093
 20
1.804564338779092
 30
0.0
 11
9.734480145180076
 21
1.829055018967702
 31
0.0
  0
LINE
  5
C8
330
1F
100
AcDbEntity
  8
0
100
AcDbLine
 10
-12.92154143038305
 20
0.5831245200431471
 30
0.0
 11
-12.88918904910822
 21
0.5875774023577653
 31
0.0
  0
LINE
  5
C9
330
1F
100
AcDbEntity
  8
0
100
AcDbLine
 10
9.390732934381258
 20
0.4878587855281489
 30
0.0
 11
9.266420588434336
 21
0.5875827818838448
 31
0.0
  0
LINE
  5
CA
330
1F
100
AcDbEntity
  8
0
100
AcDbLine
 10
-12.95168905287652
 20
0.5700693413641477
 30
0.0
 11
-12.92154143038305
 21
0.5831245200431471
 31
0.0
  0
LINE
  5
CB
330
1F
100
AcDbEntity
  8
0
100
AcDbLine
 10
9.266420588434336
 20
0.5875827818838448
 30
0.0
 11
9.24834801465569
 21
0.6020806925130039
 31
0.0
  0
LINE
  5
CC
330
1F
100
AcDbEntity
  8
0
100
AcDbLine
 10
9.24834801465569
 20
0.6020806925130039
 30
0.0
 11
9.139092208173466
 21
0.7509375983982713
 31
0.0
  0
LINE
  5
CD
330
1F
100
AcDbEntity
  8
0
100
AcDbLine
 10
9.139092208173466
 20
0.7509375983982713
 30
0.0
 11
9.100260682986594
 21
0.8489463778130131
 31
0.0
  0
LINE
  5
CE
330
1F
100
AcDbEntity
  8
0
100
AcDbLine
 10
9.100260555782619
 20
1.37167365054026
 30
0.0
 11
9.139092033269261
 21
1.469682448854041
 31
0.0
  0
LINE
  5
CF
330
1F
100
AcDbEntity
  8
0
100
AcDbLine
 10
9.139092033269261
 20
1.469682448854041
 30
0.0
 11
9.248347767303795
 21
1.618539407913379
 31
0.0
  0
LINE
  5
D0
330
1F
100
AcDbEntity
  8
0
100
AcDbLine
 10
9.248347767303795
 20
1.618539407913379
 30
0.0
 11
9.2664203340264
 21
1.63303732733834
 31
0.0
  0
LINE
  5
D1
330
1F
100
AcDbEntity
  8
0
100
AcDbLine
 10
9.734480145180076
 20
1.829055018967702
 30
0.0
 11
9.912416969795487
 21
1.80456442537978
 31
0.0
  0
LINE
  5
D2
330
1F
100
AcDbEntity
  8
0
100
AcDbLine
 10
9.912416969795487
 20
1.80456442537978
 30
0.0
 11
10.0782277057873
 21
1.732761551495717
 31
0.0
  0
LINE
  5
D3
330
1F
100
AcDbEntity
  8
0
100
AcDbLine
 10
10.0782277057873
 20
1.732761551495717
 30
0.0
 11
10.22061262551286
 21
1.618539644510861
 31
0.0
  0
LINE
  5
D4
330
1F
100
AcDbEntity
  8
0
100
AcDbLine
 10
10.22061262551286
 20
1.618539644510861
 30
0.0
 11
10.32986843199509
 21
1.469682738625594
 31
0.0
  0
LINE
  5
D5
330
1F
100
AcDbEntity
  8
0
100
AcDbLine
 10
10.32986843199509
 20
1.469682738625594
 30
0.0
 11
10.39854952257597
 21
1.296335185978335
 31
0.0
  0
LINE
  5
D6
330
1F
100
AcDbEntity
  8
0
100
AcDbLine
 10
10.39854952257597
 20
1.296335185978335
 30
0.0
 11
10.42197539443329
 21
1.110310335811617
 31
0.0
  0
LINE
  5
D7
330
1F
100
AcDbEntity
  8
0
100
AcDbLine
 10
10.42197539443329
 20
1.110310335811617
 30
0.0
 11
10.39854961311305
 21
0.9242854742437023
 31
0.0
  0
LINE
  5
D8
330
1F
100
AcDbEntity
  8
0
100
AcDbLine
 10
10.39854961311305
 20
0.9242854742437023
 30
0.0
 11
10.32986860689929
 21
0.7509378881698245
 31
0.0
  0
LINE
  5
D9
330
1F
100
AcDbEntity
  8
0
100
AcDbLine
 10
10.32986860689929
 20
0.7509378881698245
 30
0.0
 11
10.22061287286476
 21
0.6020809291104863
 31
0.0
  0
LINE
  5
DA
330
1F
100
AcDbEntity
  8
0
100
AcDbLine
 10
10.22061287286476
 20
0.6020809291104863
 30
0.0
 11
10.07822800873027
 21
0.4878589528278331
 31
0.0
  0
LINE
  5
DB
330
1F
100
AcDbEntity
  8
0
100
AcDbLine
 10
10.07822800873027
 20
0.4878589528278331
 30
0.0
 11
9.91241730768446
 21
0.4160559982447732
 31
0.0
  0
LINE
  5
DC
330
1F
100
AcDbEntity
  8
0
100
AcDbLine
 10
9.91241730768446
 20
0.4160559982447732
 30
0.0
 11
9.734480494988482
 21
0.3915653180561625
 31
0.0
  0
LINE
  5
DD
330
1F
100
AcDbEntity
  8
0
100
AcDbLine
 10
12.92331073623418
 20
1.469686068910936
 30
0.0
 11
13.92331067459427
 21
1.46968631225766
 31
0.0
  0
LINE
  5
DE
330
1F
100
AcDbEntity
  8
0
100
AcDbLine
 10
12.92331084949974
 20
0.7509360689109636
 30
0.0
 11
12.92331073623418
 21
1.469686068910936
 31
0.0
  0
LINE
  5
DF
330
1F
100
AcDbEntity
  8
0
100
AcDbLine
 10
-12.8891893091007
 20
1.633031947812252
 30
0.0
 11
9.2664203340264
 21
1.63303732733834
 31
0.0
  0
LINE
  5
E0
330
1F
100
AcDbEntity
  8
0
100
AcDbLine
 10
9.734480542691223
 20
0.1955374412392492
 30
0.0
 11
-12.88918895928979
 21
0.195531947812314
 31
0.0
  0
LINE
  5
E1
330
1F
100
AcDbEntity
  8
0
100
AcDbLine
 10
-14.82668952612304
 20
2.547804191631366
 30
0.0
 11
-14.82668882650121
 21
-0.3271958083684954
 31
0.0
  0
LINE
  5
E2
330
1F
100
AcDbEntity
  8
0
100
AcDbLine
 10
-14.82668882650121
 20
-0.3271958083684954
 30
0.0
 11
13.67331117349784
 21
-0.3271888729864408
 31
0.0
  0
LINE
  5
E3
330
1F
100
AcDbEntity
  8
0
100
AcDbLine
 10
13.92331091113965
 20
0.7509361802766483
 30
0.0
 11
12.92331084949974
 21
0.7509360689109636
 31
0.0
  0
LINE
  5
E4
330
1F
100
AcDbEntity
  8
0
100
AcDbLine
 10
13.92331067459427
 20
1.46968631225766
 30
0.0
 11
13.92331053472394
 21
2.297764964312697
 31
0.0
  0
LINE
  5
E5
330
1F
100
AcDbEntity
  8
0
100
AcDbLine
 10
-13.01418937270268
 20
1.894395553757533
 30
0.0
 11
-13.01418933933077
 21
1.763713723101028
 31
0.0
  0
LINE
  5
E6
330
1F
100
AcDbEntity
  8
0
100
AcDbLine
 10
9.734480097477334
 20
2.025082895784616
 30
0.0
 11
-12.88918940450368
 21
2.025077402357687
 31
0.0
  0
LINE
  5
E7
330
1F
100
AcDbEntity
  8
0
100
AcDbLine
 10
9.734480145180076
 20
1.829055018967702
 30
0.0
 11
9.734480097477334
 21
2.025082895784616
 31
0.0
  0
LINE
  5
E8
330
1F
100
AcDbEntity
  8
0
100
AcDbLine
 10
9.734480494988482
 20
0.3915653180561625
 30
0.0
 11
9.734480542691223
 21
0.1955374412392492
 31
0.0
  0
LINE
  5
E9
330
1F
100
AcDbEntity
  8
0
100
AcDbLine
 10
13.91479258497077
 20
-0.1418593154927513
 30
0.0
 11
13.88981749401998
 21
-0.2021657085316225
 31
0.0
  0
LINE
  5
EA
330
1F
100
AcDbEntity
  8
0
100
AcDbLine
 10
13.9233111126499
 20
-0.0771425886123482
 30
0.0
 11
13.91479258497077
 21
-0.1418593154927513
 31
0.0
  0
LINE
  5
EB
330
1F
100
AcDbEntity
  8
0
100
AcDbLine
 10
13.79831116534576
 20
-0.2936890007344483
 30
0.0
 11
13.73801593270013
 21
-0.3186687387841719
 31
0.0
  0
LINE
  5
EC
330
1F
100
AcDbEntity
  8
0
100
AcDbLine
 10
13.88981749401998
 20
-0.2021657085316225
 30
0.0
 11
13.85008785097252
 21
-0.2539519867043893
 31
0.0
  0
LINE
  5
ED
330
1F
100
AcDbEntity
  8
0
100
AcDbLine
 10
13.73801593270013
 20
-0.3186687387841719
 30
0.0
 11
13.67331117349784
 21
-0.3271888729864408
 31
0.0
  0
LINE
  5
EE
330
1F
100
AcDbEntity
  8
0
100
AcDbLine
 10
13.85008785097252
 20
-0.2539519867043893
 30
0.0
 11
13.79831116534576
 21
-0.2936890007344483
 31
0.0
  0
LINE
  5
EF
330
1F
100
AcDbEntity
  8
0
100
AcDbLine
 10
13.9233111126499
 20
-0.0771425886123482
 30
0.0
 11
13.92331091113965
 21
0.7509361802766483
 31
0.0
  0
LINE
  5
F0
330
1F
100
AcDbEntity
  8
0
100
AcDbLine
 10
13.67331047387601
 20
2.54781112701342
 30
0.0
 11
13.73801523722499
 21
2.539291024302536
 31
0.0
  0
LINE
  5
F1
330
1F
100
AcDbEntity
  8
0
100
AcDbLine
 10
13.73801523722499
 20
2.539291024302536
 30
0.0
 11
13.79831048202809
 21
2.514311315598112
 31
0.0
  0
LINE
  5
F2
330
1F
100
AcDbEntity
  8
0
100
AcDbLine
 10
13.79831048202809
 20
2.514311315598112
 30
0.0
 11
13.85008718699459
 21
2.474574326767432
 31
0.0
  0
LINE
  5
F3
330
1F
100
AcDbEntity
  8
0
100
AcDbLine
 10
13.85008718699459
 20
2.474574326767432
 30
0.0
 11
13.88981685524608
 21
2.42278806793083
 31
0.0
  0
LINE
  5
F4
330
1F
100
AcDbEntity
  8
0
100
AcDbLine
 10
13.88981685524608
 20
2.42278806793083
 30
0.0
 11
13.9147919755476
 21
2.36248168704718
 31
0.0
  0
LINE
  5
F5
330
1F
100
AcDbEntity
  8
0
100
AcDbLine
 10
13.9147919755476
 20
2.36248168704718
 30
0.0
 11
13.92331053472394
 21
2.297764964312697
 31
0.0
  0
LINE
  5
F6
330
1F
100
AcDbEntity
  8
0
100
AcDbLine
 10
13.67331047387601
 20
2.54781112701342
 30
0.0
 11
-14.82668952612304
 21
2.547804191631366
 31
0.0
  0
LINE
  5
F7
330
1F
100
AcDbEntity
  8
0
100
AcDbLine
 10
-27.57668995044359
 20
-3.668104456378374
 30
0.0
 11
-27.57668963291443
 21
-1.838559636896795
 31
0.0
  0
LINE
  5
F8
330
1F
100
AcDbEntity
  8
0
100
AcDbLine
 10
-27.5852080810875
 20
-1.770913826454274
 30
0.0
 11
-27.57668963291443
 21
-1.838559636896795
 31
0.0
  0
LINE
  5
F9
330
1F
100
AcDbEntity
  8
0
100
AcDbLine
 10
-27.57668995044359
 20
-3.668104456378374
 30
0.0
 11
-27.58520844946463
 21
-3.73575044509173
 31
0.0
  0
LINE
  5
FA
330
1F
100
AcDbEntity
  8
0
100
AcDbLine
 10
-27.82668963323636
 20
-1.577196000894522
 30
0.0
 11
-31.13918956496216
 21
-1.577195929815863
 31
0.0
  0
LINE
  5
FB
330
1F
100
AcDbEntity
  8
0
100
AcDbLine
 10
-31.13918956496216
 20
-1.577195929815863
 30
0.0
 11
-31.63918956431833
 21
-2.099923203052095
 31
0.0
  0
LINE
  5
FC
330
1F
100
AcDbEntity
  8
0
100
AcDbLine
 10
-27.82668963323636
 20
-1.577196000894522
 30
0.0
 11
-27.76198477661177
 21
-1.586101827081493
 31
0.0
  0
LINE
  5
FD
330
1F
100
AcDbEntity
  8
0
100
AcDbLine
 10
-45.5766895417167
 20
-1.838559735388703
 30
0.0
 11
-45.56817099837228
 21
-1.770913848603883
 31
0.0
  0
LINE
  5
FE
330
1F
100
AcDbEntity
  8
0
100
AcDbLine
 10
-45.57668953356253
 20
-3.668105056934416
 30
0.0
 11
-45.5766895417167
 21
-1.838559735388703
 31
0.0
  0
LINE
  5
FF
330
1F
100
AcDbEntity
  8
0
100
AcDbLine
 10
-45.56817099837228
 20
-1.770913848603883
 30
0.0
 11
-45.54319589282377
 21
-1.707877917192352
 31
0.0
  0
LINE
  5
100
330
1F
100
AcDbEntity
  8
0
100
AcDbLine
 10
-31.63918956431833
 20
-2.099923203052095
 30
0.0
 11
-41.51418950301699
 21
-2.099923215215138
 31
0.0
  0
LINE
  5
101
330
1F
100
AcDbEntity
  8
0
100
AcDbLine
 10
-31.1391895007636
 20
-3.929468246329073
 30
0.0
 11
-27.82668995012165
 21
-3.929468092996491
 31
0.0
  0
LINE
  5
102
330
1F
100
AcDbEntity
  8
0
100
AcDbLine
 10
-31.63918953251044
 20
-4.452195536356742
 30
0.0
 11
-31.1391895007636
 21
-3.929468246329073
 31
0.0
  0
LINE
  5
103
330
1F
100
AcDbEntity
  8
0
100
AcDbLine
 10
-42.01418943384969
 20
-3.929468624852102
 30
0.0
 11
-41.51418955954384
 21
-4.452195747984574
 31
0.0
  0
LINE
  5
104
330
1F
100
AcDbEntity
  8
0
100
AcDbLine
 10
-45.32668960273945
 20
-3.929468585557321
 30
0.0
 11
-42.01418943384969
 21
-3.929468624852102
 31
0.0
  0
LINE
  5
105
330
1F
100
AcDbEntity
  8
0
100
AcDbLine
 10
-45.56817099005148
 20
-3.735750943698251
 30
0.0
 11
-45.57668953356253
 21
-3.668105056934416
 31
0.0
  0
LINE
  5
106
330
1F
100
AcDbEntity
  8
0
100
AcDbLine
 10
-45.54319589282377
 20
-1.707877917192352
 30
0.0
 11
-45.50346623724096
 21
-1.653747735708002
 31
0.0
  0
LINE
  5
107
330
1F
100
AcDbEntity
  8
0
100
AcDbLine
 10
-45.39139430330328
 20
-1.586101848795636
 30
0.0
 11
-45.32668954203861
 21
-1.577196098770585
 31
0.0
  0
LINE
  5
108
330
1F
100
AcDbEntity
  8
0
100
AcDbLine
 10
-45.45168954199548
 20
-1.612212186564636
 30
0.0
 11
-45.39139430330328
 21
-1.586101848795636
 31
0.0
  0
LINE
  5
109
330
1F
100
AcDbEntity
  8
0
100
AcDbLine
 10
-45.32668954203861
 20
-1.577196098770585
 30
0.0
 11
-42.01418950366082
 21
-1.577196094690584
 31
0.0
  0
LINE
  5
10A
330
1F
100
AcDbEntity
  8
0
100
AcDbLine
 10
-45.50346623724096
 20
-1.653747735708002
 30
0.0
 11
-45.45168954199548
 21
-1.612212186564636
 31
0.0
  0
LINE
  5
10B
330
1F
100
AcDbEntity
  8
0
100
AcDbLine
 10
-42.01418950366082
 20
-1.577196094690584
 30
0.0
 11
-41.51418950301699
 21
-2.099923215215138
 31
0.0
  0
LINE
  5
10C
330
1F
100
AcDbEntity
  8
0
100
AcDbLine
 10
-45.45168953328374
 20
-3.894452605450561
 30
0.0
 11
-45.50346622863154
 21
-3.85291705643474
 31
0.0
  0
LINE
  5
10D
330
1F
100
AcDbEntity
  8
0
100
AcDbLine
 10
-45.39139429452721
 20
-3.920562943071029
 30
0.0
 11
-45.45168953328374
 21
-3.894452605450561
 31
0.0
  0
LINE
  5
10E
330
1F
100
AcDbEntity
  8
0
100
AcDbLine
 10
-45.50346622863154
 20
-3.85291705643474
 30
0.0
 11
-45.54319588434768
 21
-3.798786875048259
 31
0.0
  0
LINE
  5
10F
330
1F
100
AcDbEntity
  8
0
100
AcDbLine
 10
-45.32668960273945
 20
-3.929468585557321
 30
0.0
 11
-45.39139429452721
 21
-3.920562943071029
 31
0.0
  0
LINE
  5
110
330
1F
100
AcDbEntity
  8
0
100
AcDbLine
 10
-45.54319588434768
 20
-3.798786875048259
 30
0.0
 11
-45.56817099005148
 21
-3.735750943698251
 31
0.0
  0
LINE
  5
111
330
1F
100
AcDbEntity
  8
0
100
AcDbLine
 10
-27.58520844946463
 20
-3.73575044509173
 30
0.0
 11
-27.61018355501315
 21
-3.79878637650326
 31
0.0
  0
LINE
  5
112
330
1F
100
AcDbEntity
  8
0
100
AcDbLine
 10
-27.6101831867913
 20
-1.707877895104263
 30
0.0
 11
-27.5852080810875
 21
-1.770913826454274
 31
0.0
  0
LINE
  5
113
330
1F
100
AcDbEntity
  8
0
100
AcDbLine
 10
-27.64991321059595
 20
-3.85291655798761
 30
0.0
 11
-27.70168990584146
 21
-3.894452107130977
 31
0.0
  0
LINE
  5
114
330
1F
100
AcDbEntity
  8
0
100
AcDbLine
 10
-27.61018355501315
 20
-3.79878637650326
 30
0.0
 11
-27.64991321059595
 21
-3.85291655798761
 31
0.0
  0
LINE
  5
115
330
1F
100
AcDbEntity
  8
0
100
AcDbLine
 10
-27.70168990584146
 20
-3.894452107130977
 30
0.0
 11
-27.76198514453367
 21
-3.920562444899976
 31
0.0
  0
LINE
  5
116
330
1F
100
AcDbEntity
  8
0
100
AcDbLine
 10
-27.76198514453367
 20
-3.920562444899976
 30
0.0
 11
-27.82668995012165
 21
-3.929468092996491
 31
0.0
  0
LINE
  5
117
330
1F
100
AcDbEntity
  8
0
100
AcDbLine
 10
-27.76198477661177
 20
-1.586101827081493
 30
0.0
 11
-27.70168953785523
 21
-1.612212164701963
 31
0.0
  0
LINE
  5
118
330
1F
100
AcDbEntity
  8
0
100
AcDbLine
 10
-27.70168953785523
 20
-1.612212164701963
 30
0.0
 11
-27.64991284250744
 21
-1.653747713717782
 31
0.0
  0
LINE
  5
119
330
1F
100
AcDbEntity
  8
0
100
AcDbLine
 10
-27.64991284250744
 20
-1.653747713717782
 30
0.0
 11
-27.6101831867913
 21
-1.707877895104263
 31
0.0
  0
LINE
  5
11A
330
1F
100
AcDbEntity
  8
0
100
AcDbLine
 10
-41.51418955954384
 20
-4.452195747984574
 30
0.0
 11
-31.63918953251044
 21
-4.452195536356742
 31
0.0
  0
LINE
  5
11B
330
1F
100
AcDbEntity
  8
0
100
AcDbLine
 10
-13.57668854029232
 20
-2.753331724190592
 30
0.0
 11
9.100261255404455
 21
-2.753326217798079
 31
0.0
  0
LINE
  5
11C
330
1F
100
AcDbEntity
  8
0
100
AcDbLine
 10
9.556544369994903
 20
-3.708943956694255
 30
0.0
 11
9.390733634003094
 21
-3.63714108281019
 31
0.0
  0
LINE
  5
11D
330
1F
100
AcDbEntity
  8
0
100
AcDbLine
 10
-12.88918860947887
 20
-2.491967920526087
 30
0.0
 11
-12.92154098410277
 21
-2.487515054402224
 31
0.0
  0
LINE
  5
11E
330
1F
100
AcDbEntity
  8
0
100
AcDbLine
 10
-12.95168861373939
 20
-2.474459891911632
 30
0.0
 11
-12.97757695720141
 21
-2.453692131079866
 31
0.0
  0
LINE
  5
11F
330
1F
100
AcDbEntity
  8
0
100
AcDbLine
 10
-12.97757661663056
 20
-3.891192123667369
 30
0.0
 11
-12.99744144337697
 21
-3.864127048220799
 31
0.0
  0
LINE
  5
120
330
1F
100
AcDbEntity
  8
0
100
AcDbLine
 10
-12.88918825966795
 20
-3.929467920526025
 30
0.0
 11
-12.92154063429185
 21
-3.925015054402155
 31
0.0
  0
LINE
  5
121
330
1F
100
AcDbEntity
  8
0
100
AcDbLine
 10
-12.88918834948638
 20
-3.537422465980574
 30
0.0
 11
9.266421288056172
 21
-3.537417086454494
 31
0.0
  0
LINE
  5
122
330
1F
100
AcDbEntity
  8
0
100
AcDbLine
 10
-13.00992936133529
 20
-2.395109075120218
 30
0.0
 11
-13.01418863970893
 21
-2.361286145237311
 31
0.0
  0
LINE
  5
123
330
1F
100
AcDbEntity
  8
0
100
AcDbLine
 10
-12.99744180085242
 20
-2.426627037778238
 30
0.0
 11
-13.00992936133529
 21
-2.395109075120218
 31
0.0
  0
LINE
  5
124
330
1F
100
AcDbEntity
  8
0
100
AcDbLine
 10
-13.00992940959769
 20
-2.196781370150246
 30
0.0
 11
-12.99744186779554
 21
-2.165263409847485
 31
0.0
  0
LINE
  5
125
330
1F
100
AcDbEntity
  8
0
100
AcDbLine
 10
-13.01418867308085
 20
-2.230604314580806
 30
0.0
 11
-13.00992940959769
 21
-2.196781370150246
 31
0.0
  0
LINE
  5
126
330
1F
100
AcDbEntity
  8
0
100
AcDbLine
 10
-13.01418832326994
 20
-3.668104314580736
 30
0.0
 11
-13.00992906118334
 21
-3.634281381240319
 31
0.0
  0
LINE
  5
127
330
1F
100
AcDbEntity
  8
0
100
AcDbLine
 10
9.10026138260843
 20
-3.276053490525326
 30
0.0
 11
-13.57668841308834
 21
-3.276058996917839
 31
0.0
  0
LINE
  5
128
330
1F
100
AcDbEntity
  8
0
100
AcDbLine
 10
-13.60904092156714
 20
-2.757784606505203
 30
0.0
 11
-13.57668854029232
 21
-2.753331724190592
 31
0.0
  0
LINE
  5
129
330
1F
100
AcDbEntity
  8
0
100
AcDbLine
 10
-13.63918854127835
 20
-2.770839783077031
 30
0.0
 11
-13.60904092156714
 21
-2.757784606505203
 31
0.0
  0
LINE
  5
12A
330
1F
100
AcDbEntity
  8
0
100
AcDbLine
 10
-13.66507688421088
 20
-2.791607564067274
 30
0.0
 11
-13.63918854127835
 21
-2.770839783077031
 31
0.0
  0
LINE
  5
12B
330
1F
100
AcDbEntity
  8
0
100
AcDbLine
 10
-12.99744186779554
 20
-2.165263409847485
 30
0.0
 11
-12.97757704697006
 21
-2.138198310972286
 31
0.0
  0
LINE
  5
12C
330
1F
100
AcDbEntity
  8
0
100
AcDbLine
 10
-12.95168870028334
 20
-2.11743052486709
 30
0.0
 11
-12.92154108443607
 21
-2.104375348827082
 31
0.0
  0
LINE
  5
12D
330
1F
100
AcDbEntity
  8
0
100
AcDbLine
 10
-12.97757704697006
 20
-2.138198310972286
 30
0.0
 11
-12.95168870028334
 21
-2.11743052486709
 31
0.0
  0
LINE
  5
12E
330
1F
100
AcDbEntity
  8
0
100
AcDbLine
 10
-13.6974292505927
 20
-2.850190628360187
 30
0.0
 11
-13.68494170879055
 21
-2.818672668057427
 31
0.0
  0
LINE
  5
12F
330
1F
100
AcDbEntity
  8
0
100
AcDbLine
 10
-13.70168851407587
 20
-2.884013572790748
 30
0.0
 11
-13.6974292505927
 21
-2.850190628360187
 31
0.0
  0
LINE
  5
130
330
1F
100
AcDbEntity
  8
0
100
AcDbLine
 10
-13.70168845047388
 20
-3.145377209154371
 30
0.0
 11
-13.70168851407587
 21
-2.884013572790748
 31
0.0
  0
LINE
  5
131
330
1F
100
AcDbEntity
  8
0
100
AcDbLine
 10
-13.69742917052931
 20
-3.179200151511972
 30
0.0
 11
-13.70168845047388
 21
-3.145377209154371
 31
0.0
  0
LINE
  5
132
330
1F
100
AcDbEntity
  8
0
100
AcDbLine
 10
-13.68494161004644
 20
-3.210718114169992
 30
0.0
 11
-13.69742917052931
 21
-3.179200151511972
 31
0.0
  0
LINE
  5
133
330
1F
100
AcDbEntity
  8
0
100
AcDbLine
 10
-13.6650767756355
 20
-3.237783200059193
 30
0.0
 11
-13.68494161004644
 21
-3.210718114169992
 31
0.0
  0
LINE
  5
134
330
1F
100
AcDbEntity
  8
0
100
AcDbLine
 10
-13.63918842293342
 20
-3.258550968303386
 30
0.0
 11
-13.6650767756355
 21
-3.237783200059193
 31
0.0
  0
LINE
  5
135
330
1F
100
AcDbEntity
  8
0
100
AcDbLine
 10
-13.6090408003943
 20
-3.271606129817103
 30
0.0
 11
-13.63918842293342
 21
-3.258550968303386
 31
0.0
  0
LINE
  5
136
330
1F
100
AcDbEntity
  8
0
100
AcDbLine
 10
-13.57668841308834
 20
-3.276058996917839
 30
0.0
 11
-13.6090408003943
 21
-3.271606129817103
 31
0.0
  0
LINE
  5
137
330
1F
100
AcDbEntity
  8
0
100
AcDbLine
 10
-13.68494170879055
 20
-2.818672668057427
 30
0.0
 11
-13.66507688421088
 21
-2.791607564067274
 31
0.0
  0
LINE
  5
138
330
1F
100
AcDbEntity
  8
0
100
AcDbLine
 10
-12.92154098410277
 20
-2.487515054402224
 30
0.0
 11
-12.95168861373939
 21
-2.474459891911632
 31
0.0
  0
LINE
  5
139
330
1F
100
AcDbEntity
  8
0
100
AcDbLine
 10
-12.95168826392848
 20
-3.91195989191157
 30
0.0
 11
-12.97757661663056
 21
-3.891192123667369
 31
0.0
  0
LINE
  5
13A
330
1F
100
AcDbEntity
  8
0
100
AcDbLine
 10
9.734481194610318
 20
-3.733434550282176
 30
0.0
 11
9.556544369994903
 21
-3.708943956694255
 31
0.0
  0
LINE
  5
13B
330
1F
100
AcDbEntity
  8
0
100
AcDbLine
 10
-12.97757695720141
 20
-2.453692131079866
 30
0.0
 11
-12.99744180085242
 21
-2.426627037778238
 31
0.0
  0
LINE
  5
13C
330
1F
100
AcDbEntity
  8
0
100
AcDbLine
 10
-12.92154063429185
 20
-3.925015054402155
 30
0.0
 11
-12.95168826392848
 21
-3.91195989191157
 31
0.0
  0
LINE
  5
13D
330
1F
100
AcDbEntity
  8
0
100
AcDbLine
 10
9.266421033648236
 20
-2.491962540999999
 30
0.0
 11
9.390733331060126
 21
-2.392238484142307
 31
0.0
  0
LINE
  5
13E
330
1F
100
AcDbEntity
  8
0
100
AcDbLine
 10
-12.92154108443607
 20
-2.104375348827082
 30
0.0
 11
-12.88918870488184
 21
-2.099922465980652
 31
0.0
  0
LINE
  5
13F
330
1F
100
AcDbEntity
  8
0
100
AcDbLine
 10
9.10026138260843
 20
-3.276053490525326
 30
0.0
 11
9.07041181721442
 21
-3.200714717292808
 31
0.0
  0
LINE
  5
140
330
1F
100
AcDbEntity
  8
0
100
AcDbLine
 10
-12.97757669340495
 20
-3.575698305857263
 30
0.0
 11
-12.95168835325469
 21
-3.554930526974191
 31
0.0
  0
LINE
  5
141
330
1F
100
AcDbEntity
  8
0
100
AcDbLine
 10
9.07041181721442
 20
-3.200714717292808
 30
0.0
 11
9.046985945357108
 21
-3.01468986712609
 31
0.0
  0
LINE
  5
142
330
1F
100
AcDbEntity
  8
0
100
AcDbLine
 10
9.046985945357108
 20
-3.01468986712609
 30
0.0
 11
9.070411726677346
 21
-2.828665005558176
 31
0.0
  0
LINE
  5
143
330
1F
100
AcDbEntity
  8
0
100
AcDbLine
 10
9.070411726677346
 20
-2.828665005558176
 30
0.0
 11
9.100261255404455
 21
-2.753326217798079
 31
0.0
  0
LINE
  5
144
330
1F
100
AcDbEntity
  8
0
100
AcDbLine
 10
-13.01418829146894
 20
-3.798786132762548
 30
0.0
 11
-13.01418832326994
 21
-3.668104314580736
 31
0.0
  0
LINE
  5
145
330
1F
100
AcDbEntity
  8
0
100
AcDbLine
 10
-13.00992901152437
 20
-3.832609075120148
 30
0.0
 11
-13.01418829146894
 21
-3.798786132762548
 31
0.0
  0
LINE
  5
146
330
1F
100
AcDbEntity
  8
0
100
AcDbLine
 10
-12.99744144337697
 20
-3.864127048220799
 30
0.0
 11
-13.00992901152437
 21
-3.832609075120148
 31
0.0
  0
LINE
  5
147
330
1F
100
AcDbEntity
  8
0
100
AcDbLine
 10
-12.99744151464349
 20
-3.602763401414546
 30
0.0
 11
-12.97757669340495
 21
-3.575698305857263
 31
0.0
  0
LINE
  5
148
330
1F
100
AcDbEntity
  8
0
100
AcDbLine
 10
-13.00992906118334
 20
-3.634281381240319
 30
0.0
 11
-12.99744151464349
 21
-3.602763401414546
 31
0.0
  0
LINE
  5
149
330
1F
100
AcDbEntity
  8
0
100
AcDbLine
 10
9.390733331060126
 20
-2.392238484142307
 30
0.0
 11
9.55654403210593
 21
-2.320435529559247
 31
0.0
  0
LINE
  5
14A
330
1F
100
AcDbEntity
  8
0
100
AcDbLine
 10
9.55654403210593
 20
-2.320435529559247
 30
0.0
 11
9.734480844801912
 21
-2.295944849370637
 31
0.0
  0
LINE
  5
14B
330
1F
100
AcDbEntity
  8
0
100
AcDbLine
 10
-12.92154073076121
 20
-3.541875348295192
 30
0.0
 11
-12.88918834948638
 21
-3.537422465980574
 31
0.0
  0
LINE
  5
14C
330
1F
100
AcDbEntity
  8
0
100
AcDbLine
 10
9.390733634003094
 20
-3.63714108281019
 30
0.0
 11
9.266421288056172
 21
-3.537417086454494
 31
0.0
  0
LINE
  5
14D
330
1F
100
AcDbEntity
  8
0
100
AcDbLine
 10
-12.95168835325469
 20
-3.554930526974191
 30
0.0
 11
-12.92154073076121
 21
-3.541875348295192
 31
0.0
  0
LINE
  5
14E
330
1F
100
AcDbEntity
  8
0
100
AcDbLine
 10
9.266421288056172
 20
-3.537417086454494
 30
0.0
 11
9.248348714277526
 21
-3.522919175825335
 31
0.0
  0
LINE
  5
14F
330
1F
100
AcDbEntity
  8
0
100
AcDbLine
 10
9.248348714277526
 20
-3.522919175825335
 30
0.0
 11
9.139092907795302
 21
-3.374062269940068
 31
0.0
  0
LINE
  5
150
330
1F
100
AcDbEntity
  8
0
100
AcDbLine
 10
9.139092907795302
 20
-3.374062269940068
 30
0.0
 11
9.10026138260843
 21
-3.276053490525326
 31
0.0
  0
LINE
  5
151
330
1F
100
AcDbEntity
  8
0
100
AcDbLine
 10
9.100261255404455
 20
-2.753326217798079
 30
0.0
 11
9.139092732891097
 21
-2.655317419484298
 31
0.0
  0
LINE
  5
152
330
1F
100
AcDbEntity
  8
0
100
AcDbLine
 10
9.139092732891097
 20
-2.655317419484298
 30
0.0
 11
9.24834846692563
 21
-2.50646046042496
 31
0.0
  0
LINE
  5
153
330
1F
100
AcDbEntity
  8
0
100
AcDbLine
 10
9.24834846692563
 20
-2.50646046042496
 30
0.0
 11
9.266421033648236
 21
-2.491962540999999
 31
0.0
  0
LINE
  5
154
330
1F
100
AcDbEntity
  8
0
100
AcDbLine
 10
9.734480844801912
 20
-2.295944849370637
 30
0.0
 11
9.912417669417323
 21
-2.320435442958559
 31
0.0
  0
LINE
  5
155
330
1F
100
AcDbEntity
  8
0
100
AcDbLine
 10
9.912417669417323
 20
-2.320435442958559
 30
0.0
 11
10.07822840540913
 21
-2.392238316842622
 31
0.0
  0
LINE
  5
156
330
1F
100
AcDbEntity
  8
0
100
AcDbLine
 10
10.07822840540913
 20
-2.392238316842622
 30
0.0
 11
10.2206133251347
 21
-2.506460223827478
 31
0.0
  0
LINE
  5
157
330
1F
100
AcDbEntity
  8
0
100
AcDbLine
 10
10.2206133251347
 20
-2.506460223827478
 30
0.0
 11
10.32986913161692
 21
-2.655317129712745
 31
0.0
  0
LINE
  5
158
330
1F
100
AcDbEntity
  8
0
100
AcDbLine
 10
10.32986913161692
 20
-2.655317129712745
 30
0.0
 11
10.39855022219781
 21
-2.828664682360004
 31
0.0
  0
LINE
  5
159
330
1F
100
AcDbEntity
  8
0
100
AcDbLine
 10
10.39855022219781
 20
-2.828664682360004
 30
0.0
 11
10.42197609405512
 21
-3.014689532526722
 31
0.0
  0
LINE
  5
15A
330
1F
100
AcDbEntity
  8
0
100
AcDbLine
 10
10.42197609405512
 20
-3.014689532526722
 30
0.0
 11
10.39855031273488
 21
-3.200714394094637
 31
0.0
  0
LINE
  5
15B
330
1F
100
AcDbEntity
  8
0
100
AcDbLine
 10
10.39855031273488
 20
-3.200714394094637
 30
0.0
 11
10.32986930652113
 21
-3.374061980168515
 31
0.0
  0
LINE
  5
15C
330
1F
100
AcDbEntity
  8
0
100
AcDbLine
 10
10.32986930652113
 20
-3.374061980168515
 30
0.0
 11
10.2206135724866
 21
-3.522918939227853
 31
0.0
  0
LINE
  5
15D
330
1F
100
AcDbEntity
  8
0
100
AcDbLine
 10
10.2206135724866
 20
-3.522918939227853
 30
0.0
 11
10.0782287083521
 21
-3.637140915510506
 31
0.0
  0
LINE
  5
15E
330
1F
100
AcDbEntity
  8
0
100
AcDbLine
 10
10.0782287083521
 20
-3.637140915510506
 30
0.0
 11
9.912418007306297
 21
-3.708943870093566
 31
0.0
  0
LINE
  5
15F
330
1F
100
AcDbEntity
  8
0
100
AcDbLine
 10
9.912418007306297
 20
-3.708943870093566
 30
0.0
 11
9.734481194610318
 21
-3.733434550282176
 31
0.0
  0
LINE
  5
160
330
1F
100
AcDbEntity
  8
0
100
AcDbLine
 10
12.92331143585601
 20
-2.655313799427403
 30
0.0
 11
13.9233113742161
 21
-2.655313556080679
 31
0.0
  0
LINE
  5
161
330
1F
100
AcDbEntity
  8
0
100
AcDbLine
 10
12.92331154912157
 20
-3.374063799427375
 30
0.0
 11
12.92331143585601
 21
-2.655313799427403
 31
0.0
  0
LINE
  5
162
330
1F
100
AcDbEntity
  8
0
100
AcDbLine
 10
-12.88918860947887
 20
-2.491967920526087
 30
0.0
 11
9.266421033648236
 21
-2.491962540999999
 31
0.0
  0
LINE
  5
163
330
1F
100
AcDbEntity
  8
0
100
AcDbLine
 10
9.73448124231306
 20
-3.929462427099089
 30
0.0
 11
-12.88918825966795
 21
-3.929467920526025
 31
0.0
  0
LINE
  5
164
330
1F
100
AcDbEntity
  8
0
100
AcDbLine
 10
-14.8266888265012
 20
-1.577195676706973
 30
0.0
 11
-14.82668812687938
 21
-4.452195676706834
 31
0.0
  0
LINE
  5
165
330
1F
100
AcDbEntity
  8
0
100
AcDbLine
 10
-14.82668812687938
 20
-4.452195676706834
 30
0.0
 11
13.67331187311968
 21
-4.45218874132478
 31
0.0
  0
LINE
  5
166
330
1F
100
AcDbEntity
  8
0
100
AcDbLine
 10
13.92331161076148
 20
-3.374063688061691
 30
0.0
 11
12.92331154912157
 21
-3.374063799427375
 31
0.0
  0
LINE
  5
167
330
1F
100
AcDbEntity
  8
0
100
AcDbLine
 10
13.9233113742161
 20
-2.655313556080679
 30
0.0
 11
13.92331123434577
 21
-1.827234904025642
 31
0.0
  0
LINE
  5
168
330
1F
100
AcDbEntity
  8
0
100
AcDbLine
 10
-13.01418867308085
 20
-2.230604314580806
 30
0.0
 11
-13.01418863970893
 21
-2.361286145237311
 31
0.0
  0
LINE
  5
169
330
1F
100
AcDbEntity
  8
0
100
AcDbLine
 10
9.73448079709917
 20
-2.099916972553723
 30
0.0
 11
-12.88918870488184
 21
-2.099922465980652
 31
0.0
  0
LINE
  5
16A
330
1F
100
AcDbEntity
  8
0
100
AcDbLine
 10
9.734480844801912
 20
-2.295944849370637
 30
0.0
 11
9.73448079709917
 21
-2.099916972553723
 31
0.0
  0
LINE
  5
16B
330
1F
100
AcDbEntity
  8
0
100
AcDbLine
 10
9.734481194610318
 20
-3.733434550282176
 30
0.0
 11
9.73448124231306
 21
-3.929462427099089
 31
0.0
  0
LINE
  5
16C
330
1F
100
AcDbEntity
  8
0
100
AcDbLine
 10
13.91479328459261
 20
-4.26685918383109
 30
0.0
 11
13.88981819364181
 21
-4.327165576869962
 31
0.0
  0
LINE
  5
16D
330
1F
100
AcDbEntity
  8
0
100
AcDbLine
 10
13.92331181227174
 20
-4.202142456950687
 30
0.0
 11
13.91479328459261
 21
-4.26685918383109
 31
0.0
  0
LINE
  5
16E
330
1F
100
AcDbEntity
  8
0
100
AcDbLine
 10
13.79831186496759
 20
-4.418688869072787
 30
0.0
 11
13.73801663232196
 21
-4.443668607122511
 31
0.0
  0
LINE
  5
16F
330
1F
100
AcDbEntity
  8
0
100
AcDbLine
 10
13.88981819364181
 20
-4.327165576869962
 30
0.0
 11
13.85008855059436
 21
-4.378951855042728
 31
0.0
  0
LINE
  5
170
330
1F
100
AcDbEntity
  8
0
100
AcDbLine
 10
13.73801663232196
 20
-4.443668607122511
 30
0.0
 11
13.67331187311968
 21
-4.45218874132478
 31
0.0
  0
LINE
  5
171
330
1F
100
AcDbEntity
  8
0
100
AcDbLine
 10
13.85008855059436
 20
-4.378951855042728
 30
0.0
 11
13.79831186496759
 21
-4.418688869072787
 31
0.0
  0
LINE
  5
172
330
1F
100
AcDbEntity
  8
0
100
AcDbLine
 10
13.92331181227174
 20
-4.202142456950687
 30
0.0
 11
13.92331161076148
 21
-3.374063688061691
 31
0.0
  0
LINE
  5
173
330
1F
100
AcDbEntity
  8
0
100
AcDbLine
 10
13.67331117349785
 20
-1.577188741324919
 30
0.0
 11
13.73801593684682
 21
-1.585708844035803
 31
0.0
  0
LINE
  5
174
330
1F
100
AcDbEntity
  8
0
100
AcDbLine
 10
13.73801593684682
 20
-1.585708844035803
 30
0.0
 11
13.79831118164993
 21
-1.610688552740227
 31
0.0
  0
LINE
  5
175
330
1F
100
AcDbEntity
  8
0
100
AcDbLine
 10
13.79831118164993
 20
-1.610688552740227
 30
0.0
 11
13.85008788661643
 21
-1.650425541570907
 31
0.0
  0
LINE
  5
176
330
1F
100
AcDbEntity
  8
0
100
AcDbLine
 10
13.85008788661643
 20
-1.650425541570907
 30
0.0
 11
13.88981755486792
 21
-1.702211800407509
 31
0.0
  0
LINE
  5
177
330
1F
100
AcDbEntity
  8
0
100
AcDbLine
 10
13.88981755486792
 20
-1.702211800407509
 30
0.0
 11
13.91479267516944
 21
-1.762518181291159
 31
0.0
  0
LINE
  5
178
330
1F
100
AcDbEntity
  8
0
100
AcDbLine
 10
13.91479267516944
 20
-1.762518181291159
 30
0.0
 11
13.92331123434577
 21
-1.827234904025642
 31
0.0
  0
LINE
  5
179
330
1F
100
AcDbEntity
  8
0
100
AcDbLine
 10
13.67331117349785
 20
-1.577188741324919
 30
0.0
 11
-14.8266888265012
 21
-1.577195676706973
 31
0.0
  0
LINE
  5
17A
330
1F
100
AcDbEntity
  8
0
100
AcDbLine
 10
23.81932225249487
 20
-3.406740909638838
 30
0.0
 11
24.5068222506838
 21
-3.406740912242248
 31
0.0
  0
LINE
  5
17B
330
1F
100
AcDbEntity
  8
0
100
AcDbLine
 10
24.5068222506838
 20
-3.406740912242248
 30
0.0
 11
24.50682225538423
 21
-4.452195677050652
 31
0.0
  0
LINE
  5
17C
330
1F
100
AcDbEntity
  8
0
100
AcDbLine
 10
45.00682218435178
 20
-3.406740912242244
 30
0.0
 11
45.69432228258084
 21
-3.406740909638782
 31
0.0
  0
LINE
  5
17D
330
1F
100
AcDbEntity
  8
0
100
AcDbLine
 10
45.69432228258084
 20
-3.406740909638782
 30
0.0
 11
45.69432218013976
 21
-4.452195677050655
 31
0.0
  0
LINE
  5
17E
330
1F
100
AcDbEntity
  8
0
100
AcDbLine
 10
48.49830363911298
 20
-1.770913463256053
 30
0.0
 11
48.50682218254071
 21
-1.838559364405906
 31
0.0
  0
LINE
  5
17F
330
1F
100
AcDbEntity
  8
0
100
AcDbLine
 10
48.47332853348682
 20
-1.707877518479428
 30
0.0
 11
48.49830363911298
 21
-1.770913463256053
 31
0.0
  0
LINE
  5
180
330
1F
100
AcDbEntity
  8
0
100
AcDbLine
 10
48.43359887783735
 20
-1.653747325540729
 30
0.0
 11
48.47332853348682
 21
-1.707877518479428
 31
0.0
  0
LINE
  5
181
330
1F
100
AcDbEntity
  8
0
100
AcDbLine
 10
48.38182218254071
 20
-1.61221176763436
 30
0.0
 11
48.43359887783735
 21
-1.653747325540729
 31
0.0
  0
LINE
  5
182
330
1F
100
AcDbEntity
  8
0
100
AcDbLine
 10
48.32152694381634
 20
-1.58610142439088
 30
0.0
 11
48.38182218254071
 21
-1.61221176763436
 31
0.0
  0
LINE
  5
183
330
1F
100
AcDbEntity
  8
0
100
AcDbLine
 10
48.25682218254071
 20
-1.577195672552951
 30
0.0
 11
48.32152694381634
 21
-1.58610142439088
 31
0.0
  0
LINE
  5
184
330
1F
100
AcDbEntity
  8
0
100
AcDbLine
 10
39.91417456685664
 20
-3.402288087006987
 30
0.0
 11
39.94432218621883
 21
-3.389232915385248
 31
0.0
  0
LINE
  5
185
330
1F
100
AcDbEntity
  8
0
100
AcDbLine
 10
29.56932225009625
 20
-3.389232867368256
 30
0.0
 11
29.59946986945844
 21
-3.402288038989995
 31
0.0
  0
LINE
  5
186
330
1F
100
AcDbEntity
  8
0
100
AcDbLine
 10
39.88182218621883
 20
-3.406740962925951
 30
0.0
 11
39.91417456685664
 21
-3.402288087006987
 31
0.0
  0
LINE
  5
187
330
1F
100
AcDbEntity
  8
0
100
AcDbLine
 10
39.88182218864598
 20
-2.535528630203839
 30
0.0
 11
40.88182218435178
 21
-2.535528634888424
 31
0.0
  0
LINE
  5
188
330
1F
100
AcDbEntity
  8
0
100
AcDbLine
 10
28.54343390303548
 20
-2.932858917369431
 30
0.0
 11
28.5693222506838
 21
-2.953626696322617
 31
0.0
  0
LINE
  5
189
330
1F
100
AcDbEntity
  8
0
100
AcDbLine
 10
40.00256291450496
 20
-3.309882067574399
 30
0.0
 11
40.00682218621883
 21
-3.276059116999474
 31
0.0
  0
LINE
  5
18A
330
1F
100
AcDbEntity
  8
0
100
AcDbLine
 10
33.9092498195266
 20
-2.535528602224819
 30
0.0
 11
33.91163711770379
 21
-2.516571025981939
 31
0.0
  0
LINE
  5
18B
330
1F
100
AcDbEntity
  8
0
100
AcDbLine
 10
35.60439460952709
 20
-2.971134776526925
 30
0.0
 11
35.60200731370966
 21
-2.990092334030897
 31
0.0
  0
LINE
  5
18C
330
1F
100
AcDbEntity
  8
0
100
AcDbLine
 10
29.52356906992277
 20
-2.165263338789031
 30
0.0
 11
29.51108151710969
 21
-2.196781311177346
 31
0.0
  0
LINE
  5
18D
330
1F
100
AcDbEntity
  8
0
100
AcDbLine
 10
29.59946986475801
 20
-2.104375291744757
 30
0.0
 11
29.56932224539582
 21
-2.117430463366496
 31
0.0
  0
LINE
  5
18E
330
1F
100
AcDbEntity
  8
0
100
AcDbLine
 10
34.75682221570673
 20
-3.668104601491759
 30
0.0
 11
34.53035555124202
 21
-3.636934470059012
 31
0.0
  0
LINE
  5
18F
330
1F
100
AcDbEntity
  8
0
100
AcDbLine
 10
34.31932221570673
 20
-3.545548268706832
 30
0.0
 11
34.14629011189507
 21
-3.406740936057366
 31
0.0
  0
LINE
  5
190
330
1F
100
AcDbEntity
  8
0
100
AcDbLine
 10
33.91163711770379
 20
-2.990092334030897
 30
0.0
 11
33.90924982088636
 21
-2.971134768585877
 31
0.0
  0
LINE
  5
191
330
1F
100
AcDbEntity
  8
0
100
AcDbLine
 10
28.5068222506838
 20
-2.840452897936843
 30
0.0
 11
28.51108152239767
 21
-2.874275848511767
 31
0.0
  0
LINE
  5
192
330
1F
100
AcDbEntity
  8
0
100
AcDbLine
 10
28.59946987004599
 20
-2.966681867944356
 30
0.0
 11
28.6318222506838
 21
-2.97113474386332
 31
0.0
  0
LINE
  5
193
330
1F
100
AcDbEntity
  8
0
100
AcDbLine
 10
35.60200731370966
 20
-2.990092334030897
 30
0.0
 11
35.51459444401811
 21
-3.210718140749088
 31
0.0
  0
LINE
  5
194
330
1F
100
AcDbEntity
  8
0
100
AcDbLine
 10
35.37554064924495
 20
-3.400173816034533
 30
0.0
 11
35.36735431238782
 21
-3.406740941777544
 31
0.0
  0
LINE
  5
195
330
1F
100
AcDbEntity
  8
0
100
AcDbLine
 10
33.99904998739534
 20
-3.210718140749088
 30
0.0
 11
33.91163711770379
 21
-2.990092334030897
 31
0.0
  0
LINE
  5
196
330
1F
100
AcDbEntity
  8
0
100
AcDbLine
 10
34.98328888017143
 20
-3.636934470059012
 30
0.0
 11
34.75682221570673
 21
-3.668104601491759
 31
0.0
  0
LINE
  5
197
330
1F
100
AcDbEntity
  8
0
100
AcDbLine
 10
35.37554064924495
 20
-2.106489543978303
 30
0.0
 11
35.51459444401811
 21
-2.295945219263748
 31
0.0
  0
LINE
  5
198
330
1F
100
AcDbEntity
  8
0
100
AcDbLine
 10
34.1381037821685
 20
-2.106489543978307
 30
0.0
 11
34.1462900956664
 21
-2.0999224369742
 31
0.0
  0
LINE
  5
199
330
1F
100
AcDbEntity
  8
0
100
AcDbLine
 10
35.36735434287762
 20
-2.099922442694378
 30
0.0
 11
39.88182218995291
 21
-2.099922463842785
 31
0.0
  0
LINE
  5
19A
330
1F
100
AcDbEntity
  8
0
100
AcDbLine
 10
40.0068221893928
 20
-2.230604310354836
 30
0.0
 11
40.0025629178239
 21
-2.196781359759958
 31
0.0
  0
LINE
  5
19B
330
1F
100
AcDbEntity
  8
0
100
AcDbLine
 10
39.9443221867039
 20
-2.98864284439839
 30
0.0
 11
39.91417456739767
 21
-2.975587672635423
 31
0.0
  0
LINE
  5
19C
330
1F
100
AcDbEntity
  8
0
100
AcDbLine
 10
40.0025629178239
 20
-2.196781359759958
 30
0.0
 11
39.99007536514591
 21
-2.165263387313146
 31
0.0
  0
LINE
  5
19D
330
1F
100
AcDbEntity
  8
0
100
AcDbLine
 10
34.53035555124202
 20
-3.636934470059012
 30
0.0
 11
34.31932221570673
 21
-3.545548268706832
 31
0.0
  0
LINE
  5
19E
330
1F
100
AcDbEntity
  8
0
100
AcDbLine
 10
39.97021053743718
 20
-2.138198290750737
 30
0.0
 11
39.94432218987787
 21
-2.117430511676274
 31
0.0
  0
LINE
  5
19F
330
1F
100
AcDbEntity
  8
0
100
AcDbLine
 10
40.00682218621883
 20
-3.101816643076951
 30
0.0
 11
40.00682218621883
 21
-3.276059116999474
 31
0.0
  0
LINE
  5
1A0
330
1F
100
AcDbEntity
  8
0
100
AcDbLine
 10
34.75682221570673
 20
-1.838558758521077
 30
0.0
 11
34.98328888017143
 21
-1.869728889953824
 31
0.0
  0
LINE
  5
1A1
330
1F
100
AcDbEntity
  8
0
100
AcDbLine
 10
39.99007536514591
 20
-2.165263387313146
 30
0.0
 11
39.97021053743718
 21
-2.138198290750737
 31
0.0
  0
LINE
  5
1A2
330
1F
100
AcDbEntity
  8
0
100
AcDbLine
 10
39.91417457057165
 20
-2.104375339913307
 30
0.0
 11
39.88182218995291
 21
-2.099922463842785
 31
0.0
  0
LINE
  5
1A3
330
1F
100
AcDbEntity
  8
0
100
AcDbLine
 10
39.9702105342632
 20
-3.009410623472852
 30
0.0
 11
39.9443221867039
 21
-2.98864284439839
 31
0.0
  0
LINE
  5
1A4
330
1F
100
AcDbEntity
  8
0
100
AcDbLine
 10
39.94432218621883
 20
-3.389232915385248
 30
0.0
 11
39.97021053386715
 21
-3.368465136432062
 31
0.0
  0
LINE
  5
1A5
330
1F
100
AcDbEntity
  8
0
100
AcDbLine
 10
39.91417456739767
 20
-2.975587672635423
 30
0.0
 11
39.88182218677894
 21
-2.9711347965649
 31
0.0
  0
LINE
  5
1A6
330
1F
100
AcDbEntity
  8
0
100
AcDbLine
 10
29.63182225009625
 20
-3.406740914908959
 30
0.0
 11
34.14629011189507
 21
-3.406740936057366
 31
0.0
  0
LINE
  5
1A7
330
1F
100
AcDbEntity
  8
0
100
AcDbLine
 10
33.99904998739534
 20
-2.295945219263748
 30
0.0
 11
34.1381037821685
 21
-2.106489543978307
 31
0.0
  0
LINE
  5
1A8
330
1F
100
AcDbEntity
  8
0
100
AcDbLine
 10
33.91163711770379
 20
-2.516571025981939
 30
0.0
 11
33.99904998739534
 21
-2.295945219263748
 31
0.0
  0
LINE
  5
1A9
330
1F
100
AcDbEntity
  8
0
100
AcDbLine
 10
29.59946986945844
 20
-3.402288038989995
 30
0.0
 11
29.63182225009625
 21
-3.406740914908959
 31
0.0
  0
LINE
  5
1AA
330
1F
100
AcDbEntity
  8
0
100
AcDbLine
 10
40.9702105320001
 20
-2.932858974755593
 30
0.0
 11
40.99007535982483
 21
-2.905793878286246
 31
0.0
  0
LINE
  5
1AB
330
1F
100
AcDbEntity
  8
0
100
AcDbLine
 10
39.99007536169188
 20
-3.341400039962712
 30
0.0
 11
40.00256291450496
 21
-3.309882067574399
 31
0.0
  0
LINE
  5
1AC
330
1F
100
AcDbEntity
  8
0
100
AcDbLine
 10
35.36735434287762
 20
-2.099922442694378
 30
0.0
 11
35.37554064924495
 21
-2.106489543978303
 31
0.0
  0
LINE
  5
1AD
330
1F
100
AcDbEntity
  8
0
100
AcDbLine
 10
35.51459444401811
 20
-2.295945219263748
 30
0.0
 11
35.60200731370966
 21
-2.516571025981939
 31
0.0
  0
LINE
  5
1AE
330
1F
100
AcDbEntity
  8
0
100
AcDbLine
 10
35.19432221570673
 20
-1.961115091306004
 30
0.0
 11
35.36735434287762
 21
-2.099922442694378
 31
0.0
  0
LINE
  5
1AF
330
1F
100
AcDbEntity
  8
0
100
AcDbLine
 10
29.54343390244793
 20
-3.36846508841507
 30
0.0
 11
29.56932225009625
 21
-3.389232867368256
 31
0.0
  0
LINE
  5
1B0
330
1F
100
AcDbEntity
  8
0
100
AcDbLine
 10
35.60200731370966
 20
-2.516571025981939
 30
0.0
 11
35.60439461288685
 21
-2.535528610165867
 31
0.0
  0
LINE
  5
1B1
330
1F
100
AcDbEntity
  8
0
100
AcDbLine
 10
33.88182221570673
 20
-2.753331680006418
 30
0.0
 11
33.9092498195266
 21
-2.535528602224819
 31
0.0
  0
LINE
  5
1B2
330
1F
100
AcDbEntity
  8
0
100
AcDbLine
 10
34.1381037821685
 20
-3.400173816034533
 30
0.0
 11
33.99904998739534
 21
-3.210718140749088
 31
0.0
  0
LINE
  5
1B3
330
1F
100
AcDbEntity
  8
0
100
AcDbLine
 10
34.98328888017143
 20
-1.869728889953824
 30
0.0
 11
35.19432221570673
 21
-1.961115091306004
 31
0.0
  0
LINE
  5
1B4
330
1F
100
AcDbEntity
  8
0
100
AcDbLine
 10
35.51459444401811
 20
-3.210718140749088
 30
0.0
 11
35.37554064924495
 21
-3.400173816034533
 31
0.0
  0
LINE
  5
1B5
330
1F
100
AcDbEntity
  8
0
100
AcDbLine
 10
29.5235690746232
 20
-3.34139999194572
 30
0.0
 11
29.54343390244793
 21
-3.36846508841507
 31
0.0
  0
LINE
  5
1B6
330
1F
100
AcDbEntity
  8
0
100
AcDbLine
 10
40.91417456498959
 20
-2.966681925330517
 30
0.0
 11
40.94432218435178
 21
-2.953626753708779
 31
0.0
  0
LINE
  5
1B7
330
1F
100
AcDbEntity
  8
0
100
AcDbLine
 10
28.51108152239767
 20
-2.874275848511767
 30
0.0
 11
28.52356907521075
 21
-2.905793820900081
 31
0.0
  0
LINE
  5
1B8
330
1F
100
AcDbEntity
  8
0
100
AcDbLine
 10
28.52356907521075
 20
-2.905793820900081
 30
0.0
 11
28.54343390303548
 21
-2.932858917369431
 31
0.0
  0
LINE
  5
1B9
330
1F
100
AcDbEntity
  8
0
100
AcDbLine
 10
28.5693222506838
 20
-2.953626696322617
 30
0.0
 11
28.59946987004599
 21
-2.966681867944356
 31
0.0
  0
LINE
  5
1BA
330
1F
100
AcDbEntity
  8
0
100
AcDbLine
 10
34.14629011189507
 20
-3.406740936057366
 30
0.0
 11
34.1381037821685
 21
-3.400173816034533
 31
0.0
  0
LINE
  5
1BB
330
1F
100
AcDbEntity
  8
0
100
AcDbLine
 10
29.50682224617923
 20
-2.404846736874628
 30
0.0
 11
29.51108151804516
 21
-2.438669687428627
 31
0.0
  0
LINE
  5
1BC
330
1F
100
AcDbEntity
  8
0
100
AcDbLine
 10
29.63182224931285
 20
-2.971134748547905
 30
0.0
 11
29.59946986867503
 21
-2.975587624466869
 31
0.0
  0
LINE
  5
1BD
330
1F
100
AcDbEntity
  8
0
100
AcDbLine
 10
28.59946987004599
 20
-2.539981453421226
 30
0.0
 11
28.5693222506838
 21
-2.553036625042965
 31
0.0
  0
LINE
  5
1BE
330
1F
100
AcDbEntity
  8
0
100
AcDbLine
 10
29.59946986610895
 20
-2.531075706426865
 30
0.0
 11
29.63182224676678
 21
-2.535528582186847
 31
0.0
  0
LINE
  5
1BF
330
1F
100
AcDbEntity
  8
0
100
AcDbLine
 10
28.6318222506838
 20
-2.535528577502262
 30
0.0
 11
29.63182224676678
 21
-2.535528582186847
 31
0.0
  0
LINE
  5
1C0
330
1F
100
AcDbEntity
  8
0
100
AcDbLine
 10
29.54343390166453
 20
-3.009410575041794
 30
0.0
 11
29.52356907383979
 21
-3.036475671511143
 31
0.0
  0
LINE
  5
1C1
330
1F
100
AcDbEntity
  8
0
100
AcDbLine
 10
28.5068222506838
 20
-2.666210423428739
 30
0.0
 11
28.5068222506838
 21
-2.840452897936843
 31
0.0
  0
LINE
  5
1C2
330
1F
100
AcDbEntity
  8
0
100
AcDbLine
 10
29.56932224668806
 20
-2.518020534953271
 30
0.0
 11
29.59946986610895
 21
-2.531075706426865
 31
0.0
  0
LINE
  5
1C3
330
1F
100
AcDbEntity
  8
0
100
AcDbLine
 10
39.9141745692838
 20
-2.531075754284875
 30
0.0
 11
39.94432218864598
 21
-2.518020582663136
 31
0.0
  0
LINE
  5
1C4
330
1F
100
AcDbEntity
  8
0
100
AcDbLine
 10
29.59946986867503
 20
-2.975587624466869
 30
0.0
 11
29.56932224931285
 21
-2.988642796088608
 31
0.0
  0
LINE
  5
1C5
330
1F
100
AcDbEntity
  8
0
100
AcDbLine
 10
29.51108152102671
 20
-3.067993643899458
 30
0.0
 11
29.50682224931285
 21
-3.101816594474382
 31
0.0
  0
LINE
  5
1C6
330
1F
100
AcDbEntity
  8
0
100
AcDbLine
 10
29.56932224931285
 20
-2.988642796088608
 30
0.0
 11
29.54343390166453
 21
-3.009410575041794
 31
0.0
  0
LINE
  5
1C7
330
1F
100
AcDbEntity
  8
0
100
AcDbLine
 10
29.63182224931285
 20
-2.971134748547905
 30
0.0
 11
33.90924982088636
 21
-2.971134768585877
 31
0.0
  0
LINE
  5
1C8
330
1F
100
AcDbEntity
  8
0
100
AcDbLine
 10
29.52356907099995
 20
-2.470187659755575
 30
0.0
 11
29.54343389894637
 21
-2.497252756127304
 31
0.0
  0
LINE
  5
1C9
330
1F
100
AcDbEntity
  8
0
100
AcDbLine
 10
29.50682224931285
 20
-3.101816594474382
 30
0.0
 11
29.50682225009625
 21
-3.276059068982482
 31
0.0
  0
LINE
  5
1CA
330
1F
100
AcDbEntity
  8
0
100
AcDbLine
 10
40.94432215690623
 20
-2.553036674740841
 30
0.0
 11
40.91417455078273
 21
-2.539981508852002
 31
0.0
  0
LINE
  5
1CB
330
1F
100
AcDbEntity
  8
0
100
AcDbLine
 10
28.5693222506838
 20
-2.553036625042965
 30
0.0
 11
28.54343390303548
 21
-2.573804403996151
 31
0.0
  0
LINE
  5
1CC
330
1F
100
AcDbEntity
  8
0
100
AcDbLine
 10
41.00682212946068
 20
-2.666210423428739
 30
0.0
 11
41.00682218435178
 21
-2.840452955323012
 31
0.0
  0
LINE
  5
1CD
330
1F
100
AcDbEntity
  8
0
100
AcDbLine
 10
39.99007536411904
 20
-2.470187707240604
 30
0.0
 11
40.00256291693211
 21
-2.43866973485229
 31
0.0
  0
LINE
  5
1CE
330
1F
100
AcDbEntity
  8
0
100
AcDbLine
 10
41.00682212946068
 20
-2.666210423428739
 30
0.0
 11
41.00256285961719
 21
-2.632387487706445
 31
0.0
  0
LINE
  5
1CF
330
1F
100
AcDbEntity
  8
0
100
AcDbLine
 10
40.00256291693211
 20
-2.43866973485229
 30
0.0
 11
40.00682218864598
 21
-2.404846784277366
 31
0.0
  0
LINE
  5
1D0
330
1F
100
AcDbEntity
  8
0
100
AcDbLine
 10
41.00256285961719
 20
-2.632387487706445
 30
0.0
 11
40.99007531228774
 21
-2.600869529158583
 31
0.0
  0
LINE
  5
1D1
330
1F
100
AcDbEntity
  8
0
100
AcDbLine
 10
40.97021049318623
 20
-2.573804444574296
 30
0.0
 11
40.94432215690623
 21
-2.553036674740841
 31
0.0
  0
LINE
  5
1D2
330
1F
100
AcDbEntity
  8
0
100
AcDbLine
 10
40.99007531228774
 20
-2.600869529158583
 30
0.0
 11
40.97021049318623
 21
-2.573804444574296
 31
0.0
  0
LINE
  5
1D3
330
1F
100
AcDbEntity
  8
0
100
AcDbLine
 10
40.91417455078273
 20
-2.539981508852002
 30
0.0
 11
40.88182218435178
 21
-2.535528634888424
 31
0.0
  0
LINE
  5
1D4
330
1F
100
AcDbEntity
  8
0
100
AcDbLine
 10
28.52356907521075
 20
-2.6008695004655
 30
0.0
 11
28.51108152239767
 21
-2.632387472853814
 31
0.0
  0
LINE
  5
1D5
330
1F
100
AcDbEntity
  8
0
100
AcDbLine
 10
28.51108152239767
 20
-2.632387472853814
 30
0.0
 11
28.5068222506838
 21
-2.666210423428739
 31
0.0
  0
LINE
  5
1D6
330
1F
100
AcDbEntity
  8
0
100
AcDbLine
 10
28.6318222506838
 20
-2.535528577502262
 30
0.0
 11
28.59946987004599
 21
-2.539981453421226
 31
0.0
  0
LINE
  5
1D7
330
1F
100
AcDbEntity
  8
0
100
AcDbLine
 10
39.9702105362943
 20
-2.49725280370995
 30
0.0
 11
39.99007536411904
 21
-2.470187707240604
 31
0.0
  0
LINE
  5
1D8
330
1F
100
AcDbEntity
  8
0
100
AcDbLine
 10
34.31932221570673
 20
-1.961115091306004
 30
0.0
 11
34.53035555124202
 21
-1.869728889953824
 31
0.0
  0
LINE
  5
1D9
330
1F
100
AcDbEntity
  8
0
100
AcDbLine
 10
28.54343390303548
 20
-2.573804403996151
 30
0.0
 11
28.52356907521075
 21
-2.6008695004655
 31
0.0
  0
LINE
  5
1DA
330
1F
100
AcDbEntity
  8
0
100
AcDbLine
 10
35.36735431238782
 20
-3.406740941777544
 30
0.0
 11
39.88182218621883
 21
-3.406740962925951
 31
0.0
  0
LINE
  5
1DB
330
1F
100
AcDbEntity
  8
0
100
AcDbLine
 10
40.00256291464993
 20
-3.067993692482074
 30
0.0
 11
39.99007536197194
 21
-3.036475720035261
 31
0.0
  0
LINE
  5
1DC
330
1F
100
AcDbEntity
  8
0
100
AcDbLine
 10
40.00682218621883
 20
-3.101816643076951
 30
0.0
 11
40.00256291464993
 21
-3.067993692482074
 31
0.0
  0
LINE
  5
1DD
330
1F
100
AcDbEntity
  8
0
100
AcDbLine
 10
35.60439460952709
 20
-2.971134776526925
 30
0.0
 11
39.88182218677894
 21
-2.9711347965649
 31
0.0
  0
LINE
  5
1DE
330
1F
100
AcDbEntity
  8
0
100
AcDbLine
 10
35.19432221570673
 20
-3.545548268706832
 30
0.0
 11
34.98328888017143
 21
-3.636934470059012
 31
0.0
  0
LINE
  5
1DF
330
1F
100
AcDbEntity
  8
0
100
AcDbLine
 10
41.00256291263791
 20
-2.874275905897936
 30
0.0
 11
41.00682218435178
 21
-2.840452955323012
 31
0.0
  0
LINE
  5
1E0
330
1F
100
AcDbEntity
  8
0
100
AcDbLine
 10
40.88182218435178
 20
-2.971134801249482
 30
0.0
 11
40.91417456498959
 21
-2.966681925330517
 31
0.0
  0
LINE
  5
1E1
330
1F
100
AcDbEntity
  8
0
100
AcDbLine
 10
39.99007536197194
 20
-3.036475720035261
 30
0.0
 11
39.9702105342632
 21
-3.009410623472852
 31
0.0
  0
LINE
  5
1E2
330
1F
100
AcDbEntity
  8
0
100
AcDbLine
 10
29.50682224539582
 20
-2.23060426175227
 30
0.0
 11
29.50682224617923
 21
-2.404846736874628
 31
0.0
  0
LINE
  5
1E3
330
1F
100
AcDbEntity
  8
0
100
AcDbLine
 10
35.63182221570673
 20
-2.753331680006418
 30
0.0
 11
35.60439460952709
 21
-2.971134776526925
 31
0.0
  0
LINE
  5
1E4
330
1F
100
AcDbEntity
  8
0
100
AcDbLine
 10
29.51108151710969
 20
-2.196781311177346
 30
0.0
 11
29.50682224539582
 21
-2.23060426175227
 31
0.0
  0
LINE
  5
1E5
330
1F
100
AcDbEntity
  8
0
100
AcDbLine
 10
29.54343389774751
 20
-2.138198242319682
 30
0.0
 11
29.52356906992277
 21
-2.165263338789031
 31
0.0
  0
LINE
  5
1E6
330
1F
100
AcDbEntity
  8
0
100
AcDbLine
 10
40.94432218435178
 20
-2.953626753708779
 30
0.0
 11
40.9702105320001
 21
-2.932858974755593
 31
0.0
  0
LINE
  5
1E7
330
1F
100
AcDbEntity
  8
0
100
AcDbLine
 10
40.99007535982483
 20
-2.905793878286246
 30
0.0
 11
41.00256291263791
 21
-2.874275905897936
 31
0.0
  0
LINE
  5
1E8
330
1F
100
AcDbEntity
  8
0
100
AcDbLine
 10
29.50682225009625
 20
-3.276059068982482
 30
0.0
 11
29.51108152181012
 21
-3.309882019557406
 31
0.0
  0
LINE
  5
1E9
330
1F
100
AcDbEntity
  8
0
100
AcDbLine
 10
29.51108152181012
 20
-3.309882019557406
 30
0.0
 11
29.5235690746232
 21
-3.34139999194572
 31
0.0
  0
LINE
  5
1EA
330
1F
100
AcDbEntity
  8
0
100
AcDbLine
 10
29.63182224539582
 20
-2.099922415825793
 30
0.0
 11
34.1462900956664
 21
-2.0999224369742
 31
0.0
  0
LINE
  5
1EB
330
1F
100
AcDbEntity
  8
0
100
AcDbLine
 10
28.6318222506838
 20
-2.97113474386332
 30
0.0
 11
29.63182224931285
 21
-2.971134748547905
 31
0.0
  0
LINE
  5
1EC
330
1F
100
AcDbEntity
  8
0
100
AcDbLine
 10
29.63182224539582
 20
-2.099922415825793
 30
0.0
 11
29.59946986475801
 21
-2.104375291744757
 31
0.0
  0
LINE
  5
1ED
330
1F
100
AcDbEntity
  8
0
100
AcDbLine
 10
39.88182218677894
 20
-2.9711347965649
 30
0.0
 11
40.88182218435178
 21
-2.971134801249482
 31
0.0
  0
LINE
  5
1EE
330
1F
100
AcDbEntity
  8
0
100
AcDbLine
 10
29.56932224539582
 20
-2.117430463366496
 30
0.0
 11
29.54343389774751
 21
-2.138198242319682
 31
0.0
  0
LINE
  5
1EF
330
1F
100
AcDbEntity
  8
0
100
AcDbLine
 10
35.60439461288685
 20
-2.535528610165867
 30
0.0
 11
39.88182218864598
 21
-2.535528630203839
 31
0.0
  0
LINE
  5
1F0
330
1F
100
AcDbEntity
  8
0
100
AcDbLine
 10
33.90924982088636
 20
-2.971134768585877
 30
0.0
 11
33.88182221570673
 21
-2.753331680006418
 31
0.0
  0
LINE
  5
1F1
330
1F
100
AcDbEntity
  8
0
100
AcDbLine
 10
29.51108151804516
 20
-2.438669687428627
 30
0.0
 11
29.52356907099995
 21
-2.470187659755575
 31
0.0
  0
LINE
  5
1F2
330
1F
100
AcDbEntity
  8
0
100
AcDbLine
 10
29.63182224676678
 20
-2.535528582186847
 30
0.0
 11
33.9092498195266
 21
-2.535528602224819
 31
0.0
  0
LINE
  5
1F3
330
1F
100
AcDbEntity
  8
0
100
AcDbLine
 10
39.88182218864598
 20
-2.535528630203839
 30
0.0
 11
39.9141745692838
 21
-2.531075754284875
 31
0.0
  0
LINE
  5
1F4
330
1F
100
AcDbEntity
  8
0
100
AcDbLine
 10
29.54343389894637
 20
-2.497252756127304
 30
0.0
 11
29.56932224668806
 21
-2.518020534953271
 31
0.0
  0
LINE
  5
1F5
330
1F
100
AcDbEntity
  8
0
100
AcDbLine
 10
35.36735431238782
 20
-3.406740941777544
 30
0.0
 11
35.19432221570673
 21
-3.545548268706832
 31
0.0
  0
LINE
  5
1F6
330
1F
100
AcDbEntity
  8
0
100
AcDbLine
 10
29.52356907383979
 20
-3.036475671511143
 30
0.0
 11
29.51108152102671
 21
-3.067993643899458
 31
0.0
  0
LINE
  5
1F7
330
1F
100
AcDbEntity
  8
0
100
AcDbLine
 10
39.94432218864598
 20
-2.518020582663136
 30
0.0
 11
39.9702105362943
 21
-2.49725280370995
 31
0.0
  0
LINE
  5
1F8
330
1F
100
AcDbEntity
  8
0
100
AcDbLine
 10
39.97021053386715
 20
-3.368465136432062
 30
0.0
 11
39.99007536169188
 21
-3.341400039962712
 31
0.0
  0
LINE
  5
1F9
330
1F
100
AcDbEntity
  8
0
100
AcDbLine
 10
34.1462900956664
 20
-2.0999224369742
 30
0.0
 11
34.31932221570673
 21
-1.961115091306004
 31
0.0
  0
LINE
  5
1FA
330
1F
100
AcDbEntity
  8
0
100
AcDbLine
 10
39.94432218987787
 20
-2.117430511676274
 30
0.0
 11
39.91417457057165
 21
-2.104375339913307
 31
0.0
  0
LINE
  5
1FB
330
1F
100
AcDbEntity
  8
0
100
AcDbLine
 10
35.60439461288685
 20
-2.535528610165867
 30
0.0
 11
35.63182221570673
 21
-2.753331680006418
 31
0.0
  0
LINE
  5
1FC
330
1F
100
AcDbEntity
  8
0
100
AcDbLine
 10
34.53035555124202
 20
-1.869728889953824
 30
0.0
 11
34.75682221570673
 21
-1.838558758521077
 31
0.0
  0
LINE
  5
1FD
330
1F
100
AcDbEntity
  8
0
100
AcDbLine
 10
40.0068221893928
 20
-2.230604310354836
 30
0.0
 11
40.00682218864598
 21
-2.404846784277366
 31
0.0
  0
LINE
  5
1FE
330
1F
100
AcDbEntity
  8
0
100
AcDbLine
 10
48.47332853348682
 20
-4.321513831124179
 30
0.0
 11
48.43359887783735
 21
-4.375644024062878
 31
0.0
  0
LINE
  5
1FF
330
1F
100
AcDbEntity
  8
0
100
AcDbLine
 10
48.49830363911298
 20
-4.258477886347554
 30
0.0
 11
48.47332853348682
 21
-4.321513831124179
 31
0.0
  0
LINE
  5
200
330
1F
100
AcDbEntity
  8
0
100
AcDbLine
 10
48.43359887783735
 20
-4.375644024062878
 30
0.0
 11
48.38182218254071
 21
-4.417179581969246
 31
0.0
  0
LINE
  5
201
330
1F
100
AcDbEntity
  8
0
100
AcDbLine
 10
48.38182218254071
 20
-4.417179581969246
 30
0.0
 11
48.32152694381634
 21
-4.443289925212727
 31
0.0
  0
LINE
  5
202
330
1F
100
AcDbEntity
  8
0
100
AcDbLine
 10
48.32152694381634
 20
-4.443289925212727
 30
0.0
 11
48.25682218254071
 21
-4.452195677050655
 31
0.0
  0
LINE
  5
203
330
1F
100
AcDbEntity
  8
0
100
AcDbLine
 10
24.50682225538423
 20
-4.452195677050652
 30
0.0
 11
26.98093389551937
 21
-4.452195675785005
 31
0.0
  0
LINE
  5
204
330
1F
100
AcDbEntity
  8
0
100
AcDbLine
 10
26.98093389551937
 20
-4.452195675785005
 30
0.0
 11
26.99711008583806
 21
-4.449969237823767
 31
0.0
  0
LINE
  5
205
330
1F
100
AcDbEntity
  8
0
100
AcDbLine
 10
27.53271059456845
 20
-3.929468293073345
 30
0.0
 11
41.98093383652397
 21
-3.929468293073345
 31
0.0
  0
LINE
  5
206
330
1F
100
AcDbEntity
  8
0
100
AcDbLine
 10
27.51653440424954
 20
-3.931694731032825
 30
0.0
 11
27.53271059456845
 21
-3.929468293073345
 31
0.0
  0
LINE
  5
207
330
1F
100
AcDbEntity
  8
0
100
AcDbLine
 10
42.02512801065226
 20
-3.948606206459932
 30
0.0
 11
42.48851635816969
 21
-4.433057763535117
 31
0.0
  0
LINE
  5
208
330
1F
100
AcDbEntity
  8
0
100
AcDbLine
 10
42.48851635816969
 20
-4.433057763535117
 30
0.0
 11
42.50146053199384
 21
-4.443441653011708
 31
0.0
  0
LINE
  5
209
330
1F
100
AcDbEntity
  8
0
100
AcDbLine
 10
42.02512801065226
 20
-3.948606206459932
 30
0.0
 11
42.01218383652398
 21
-3.938222317274235
 31
0.0
  0
LINE
  5
20A
330
1F
100
AcDbEntity
  8
0
100
AcDbLine
 10
48.25682218254071
 20
-1.577195672552951
 30
0.0
 11
21.25682212466511
 21
-1.577195672178506
 31
0.0
  0
LINE
  5
20B
330
1F
100
AcDbEntity
  8
0
100
AcDbLine
 10
21.25682212466511
 20
-1.577195672178506
 30
0.0
 11
21.19211736338936
 21
-1.586101424015506
 31
0.0
  0
LINE
  5
20C
330
1F
100
AcDbEntity
  8
0
100
AcDbLine
 10
45.69432218013976
 20
-4.452195677050655
 30
0.0
 11
48.25682218254071
 21
-4.452195677050655
 31
0.0
  0
LINE
  5
20D
330
1F
100
AcDbEntity
  8
0
100
AcDbLine
 10
41.99711002684289
 20
-3.931694731463362
 30
0.0
 11
41.98093383652397
 21
-3.929468293073345
 31
0.0
  0
LINE
  5
20E
330
1F
100
AcDbEntity
  8
0
100
AcDbLine
 10
42.53271053178521
 20
-4.452195677299247
 30
0.0
 11
45.00682217987088
 21
-4.452195677050648
 31
0.0
  0
LINE
  5
20F
330
1F
100
AcDbEntity
  8
0
100
AcDbLine
 10
42.5165343414663
 20
-4.449969239339767
 30
0.0
 11
42.53271053178521
 21
-4.452195677299247
 31
0.0
  0
LINE
  5
210
330
1F
100
AcDbEntity
  8
0
100
AcDbLine
 10
48.50682218296403
 20
-4.190831985191879
 30
0.0
 11
48.49830363911298
 21
-4.258477886347554
 31
0.0
  0
LINE
  5
211
330
1F
100
AcDbEntity
  8
0
100
AcDbLine
 10
21.25682212465525
 20
-4.452195676706834
 30
0.0
 11
23.81932225489582
 21
-4.452195677050439
 31
0.0
  0
LINE
  5
212
330
1F
100
AcDbEntity
  8
0
100
AcDbLine
 10
21.19211736337962
 20
-4.443289924868905
 30
0.0
 11
21.25682212465525
 21
-4.452195676706834
 31
0.0
  0
LINE
  5
213
330
1F
100
AcDbEntity
  8
0
100
AcDbLine
 10
21.00682212462983
 20
-1.838559363987044
 30
0.0
 11
21.00682212476486
 21
-4.190831984774483
 31
0.0
  0
LINE
  5
214
330
1F
100
AcDbEntity
  8
0
100
AcDbLine
 10
21.01534066805845
 20
-1.770913462837314
 30
0.0
 11
21.00682212462983
 21
-1.838559363987044
 31
0.0
  0
LINE
  5
215
330
1F
100
AcDbEntity
  8
0
100
AcDbLine
 10
21.00682212476486
 20
-4.190831984774483
 30
0.0
 11
21.01534066819259
 21
-4.258477885924336
 31
0.0
  0
LINE
  5
216
330
1F
100
AcDbEntity
  8
0
100
AcDbLine
 10
21.01534066819259
 20
-4.258477885924336
 30
0.0
 11
21.04031577370914
 21
-4.321513830780357
 31
0.0
  0
LINE
  5
217
330
1F
100
AcDbEntity
  8
0
100
AcDbLine
 10
21.04031577370914
 20
-4.321513830780357
 30
0.0
 11
21.08004542935861
 21
-4.375644023719056
 31
0.0
  0
LINE
  5
218
330
1F
100
AcDbEntity
  8
0
100
AcDbLine
 10
21.08004542935861
 20
-4.375644023719056
 30
0.0
 11
21.13182212465525
 21
-4.417179581625425
 31
0.0
  0
LINE
  5
219
330
1F
100
AcDbEntity
  8
0
100
AcDbLine
 10
21.13182212465525
 20
-4.417179581625425
 30
0.0
 11
21.19211736337962
 21
-4.443289924868905
 31
0.0
  0
LINE
  5
21A
330
1F
100
AcDbEntity
  8
0
100
AcDbLine
 10
21.19211736338936
 20
-1.586101424015506
 30
0.0
 11
21.13182212466465
 21
-1.612211767258121
 31
0.0
  0
LINE
  5
21B
330
1F
100
AcDbEntity
  8
0
100
AcDbLine
 10
21.13182212466465
 20
-1.612211767258121
 30
0.0
 11
21.08004542936747
 21
-1.653747325163747
 31
0.0
  0
LINE
  5
21C
330
1F
100
AcDbEntity
  8
0
100
AcDbLine
 10
21.08004542936747
 20
-1.653747325163747
 30
0.0
 11
21.04031577371728
 21
-1.707877518101874
 31
0.0
  0
LINE
  5
21D
330
1F
100
AcDbEntity
  8
0
100
AcDbLine
 10
21.04031577371728
 20
-1.707877518101874
 30
0.0
 11
21.01534066805845
 21
-1.770913462837314
 31
0.0
  0
LINE
  5
21E
330
1F
100
AcDbEntity
  8
0
100
AcDbLine
 10
42.01218383652398
 20
-3.938222317274235
 30
0.0
 11
41.99711002684289
 21
-3.931694731463362
 31
0.0
  0
LINE
  5
21F
330
1F
100
AcDbEntity
  8
0
100
AcDbLine
 10
42.50146053199384
 20
-4.443441653011708
 30
0.0
 11
42.5165343414663
 21
-4.449969239339767
 31
0.0
  0
LINE
  5
220
330
1F
100
AcDbEntity
  8
0
100
AcDbLine
 10
26.99711008583806
 20
-4.449969237823767
 30
0.0
 11
27.0121838955185
 21
-4.443441652011264
 31
0.0
  0
LINE
  5
221
330
1F
100
AcDbEntity
  8
0
100
AcDbLine
 10
27.0121838955185
 20
-4.443441652011264
 30
0.0
 11
27.02512806934163
 21
-4.433057762533265
 31
0.0
  0
LINE
  5
222
330
1F
100
AcDbEntity
  8
0
100
AcDbLine
 10
27.02512806934163
 20
-4.433057762533265
 30
0.0
 11
27.48851642074429
 21
-3.948606206320365
 31
0.0
  0
LINE
  5
223
330
1F
100
AcDbEntity
  8
0
100
AcDbLine
 10
27.48851642074429
 20
-3.948606206320365
 30
0.0
 11
27.50146059456845
 21
-3.938222316843774
 31
0.0
  0
LINE
  5
224
330
1F
100
AcDbEntity
  8
0
100
AcDbLine
 10
27.50146059456845
 20
-3.938222316843774
 30
0.0
 11
27.51653440424954
 21
-3.931694731032825
 31
0.0
  0
LINE
  5
225
330
1F
100
AcDbEntity
  8
0
100
AcDbLine
 10
45.00682217987088
 20
-4.452195677050648
 30
0.0
 11
45.00682218435178
 21
-3.406740912242244
 31
0.0
  0
LINE
  5
226
330
1F
100
AcDbEntity
  8
0
100
AcDbLine
 10
23.81932225489582
 20
-4.452195677050439
 30
0.0
 11
23.81932225249487
 21
-3.406740909638838
 31
0.0
  0
LINE
  5
227
330
1F
100
AcDbEntity
  8
0
100
AcDbLine
 10
33.03538104788928
 20
2.038886140752922
 30
0.0
 11
33.01920486469455
 21
2.036659700587406
 31
0.0
  0
LINE
  5
228
330
1F
100
AcDbEntity
  8
0
100
AcDbLine
 10
48.25682208206079
 20
-0.3156168585102672
 30
0.0
 11
43.49443580063948
 21
-0.3156163427948078
 31
0.0
  0
LINE
  5
229
330
1F
100
AcDbEntity
  8
0
100
AcDbLine
 10
43.47825961032058
 20
-0.3133899016160081
 30
0.0
 11
43.49443580063948
 21
-0.3156163427948078
 31
0.0
  0
LINE
  5
22A
330
1F
100
AcDbEntity
  8
0
100
AcDbLine
 10
48.2568222268376
 20
2.036659800264973
 30
0.0
 11
43.49443580591901
 21
2.036659678262078
 31
0.0
  0
LINE
  5
22B
330
1F
100
AcDbEntity
  8
0
100
AcDbLine
 10
43.49443580591901
 20
2.036659678262078
 30
0.0
 11
43.47825960585522
 21
2.038886117287838
 31
0.0
  0
LINE
  5
22C
330
1F
100
AcDbEntity
  8
0
100
AcDbLine
 10
33.05045486331727
 20
2.045413736350161
 30
0.0
 11
33.03538104788928
 21
2.038886140752922
 31
0.0
  0
LINE
  5
22D
330
1F
100
AcDbEntity
  8
0
100
AcDbLine
 10
33.06339903855353
 20
2.055797641418908
 30
0.0
 11
33.05045486331727
 21
2.045413736350161
 31
0.0
  0
LINE
  5
22E
330
1F
100
AcDbEntity
  8
0
100
AcDbLine
 10
42.91342962661943
 20
2.557161341115727
 30
0.0
 11
42.89725343630052
 21
2.559387782294527
 31
0.0
  0
LINE
  5
22F
330
1F
100
AcDbEntity
  8
0
100
AcDbLine
 10
42.94144761012468
 20
2.54024984137512
 30
0.0
 11
42.92850343630052
 21
2.550633745866296
 31
0.0
  0
LINE
  5
230
330
1F
100
AcDbEntity
  8
0
100
AcDbLine
 10
43.4502415857398
 20
2.055797639145647
 30
0.0
 11
42.94144761012468
 21
2.54024984137512
 31
0.0
  0
LINE
  5
231
330
1F
100
AcDbEntity
  8
0
100
AcDbLine
 10
42.92850343630052
 20
2.550633745866296
 30
0.0
 11
42.91342962661943
 21
2.557161341115727
 31
0.0
  0
LINE
  5
232
330
1F
100
AcDbEntity
  8
0
100
AcDbLine
 10
43.47825960585522
 20
2.038886117287838
 30
0.0
 11
43.46318578053123
 21
2.045413714690308
 31
0.0
  0
LINE
  5
233
330
1F
100
AcDbEntity
  8
0
100
AcDbLine
 10
43.46318578053123
 20
2.045413714690308
 30
0.0
 11
43.4502415857398
 21
2.055797639145647
 31
0.0
  0
LINE
  5
234
330
1F
100
AcDbEntity
  8
0
100
AcDbLine
 10
33.01920488098136
 20
-0.3156163400180705
 30
0.0
 11
33.03538107130027
 21
-0.3133898988392708
 31
0.0
  0
LINE
  5
235
330
1F
100
AcDbEntity
  8
0
100
AcDbLine
 10
33.03538107130027
 20
-0.3133898988392708
 30
0.0
 11
33.05045488098136
 21
-0.30686230358984
 31
0.0
  0
LINE
  5
236
330
1F
100
AcDbEntity
  8
0
100
AcDbLine
 10
33.05045488098136
 20
-0.30686230358984
 30
0.0
 11
33.06339905480552
 21
-0.2964783990986639
 31
0.0
  0
LINE
  5
237
330
1F
100
AcDbEntity
  8
0
100
AcDbLine
 10
33.57219305792756
 20
0.1879738596468727
 30
0.0
 11
33.58513722772612
 21
0.1983577609086912
 31
0.0
  0
LINE
  5
238
330
1F
100
AcDbEntity
  8
0
100
AcDbLine
 10
33.58513722772612
 20
0.1983577609086912
 30
0.0
 11
33.60021103611855
 21
0.204885355600076
 31
0.0
  0
LINE
  5
239
330
1F
100
AcDbEntity
  8
0
100
AcDbLine
 10
33.60021103611855
 20
0.204885355600076
 30
0.0
 11
33.61638721982661
 21
0.2071117962496563
 31
0.0
  0
LINE
  5
23A
330
1F
100
AcDbEntity
  8
0
100
AcDbLine
 10
42.91342964338742
 20
0.2048853232399259
 30
0.0
 11
42.92850345025848
 21
0.1983577292073584
 31
0.0
  0
LINE
  5
23B
330
1F
100
AcDbEntity
  8
0
100
AcDbLine
 10
42.89725346247443
 20
0.207111763124124
 30
0.0
 11
42.91342964338742
 21
0.2048853232399259
 31
0.0
  0
LINE
  5
23C
330
1F
100
AcDbEntity
  8
0
100
AcDbLine
 10
42.92850345025848
 20
0.1983577292073584
 30
0.0
 11
42.94144761503755
 21
0.1879738330095776
 31
0.0
  0
LINE
  5
23D
330
1F
100
AcDbEntity
  8
0
100
AcDbLine
 10
43.45024162681532
 20
-0.2964784018754012
 30
0.0
 11
42.94144761503755
 21
0.1879738330095776
 31
0.0
  0
LINE
  5
23E
330
1F
100
AcDbEntity
  8
0
100
AcDbLine
 10
33.61638721982661
 20
0.2071117962496563
 30
0.0
 11
42.89725346247443
 21
0.207111763124124
 31
0.0
  0
LINE
  5
23F
330
1F
100
AcDbEntity
  8
0
100
AcDbLine
 10
43.45024162681532
 20
-0.2964784018754012
 30
0.0
 11
43.46318678480874
 21
-0.3068597793262233
 31
0.0
  0
LINE
  5
240
330
1F
100
AcDbEntity
  8
0
100
AcDbLine
 10
43.46318678480874
 20
-0.3068597793262233
 30
0.0
 11
43.47825961032058
 21
-0.3133899016160081
 31
0.0
  0
LINE
  5
241
330
1F
100
AcDbEntity
  8
0
100
AcDbLine
 10
48.32152684333648
 20
-0.3067105977281367
 30
0.0
 11
48.25682208206079
 21
-0.3156168585102672
 31
0.0
  0
LINE
  5
242
330
1F
100
AcDbEntity
  8
0
100
AcDbLine
 10
48.38182208206086
 20
-0.28060021673041
 30
0.0
 11
48.32152684333648
 21
-0.3067105977281367
 31
0.0
  0
LINE
  5
243
330
1F
100
AcDbEntity
  8
0
100
AcDbLine
 10
48.43359877735748
 20
-0.2390645987657053
 30
0.0
 11
48.38182208206086
 21
-0.28060021673041
 31
0.0
  0
LINE
  5
244
330
1F
100
AcDbEntity
  8
0
100
AcDbLine
 10
48.47332843300696
 20
-0.184934327557463
 30
0.0
 11
48.43359877735748
 21
-0.2390645987657053
 31
0.0
  0
LINE
  5
245
330
1F
100
AcDbEntity
  8
0
100
AcDbLine
 10
48.49830353863311
 20
-0.1218982916340237
 30
0.0
 11
48.47332843300696
 21
-0.184934327557463
 31
0.0
  0
LINE
  5
246
330
1F
100
AcDbEntity
  8
0
100
AcDbLine
 10
48.50682208206086
 20
-0.0542522926715942
 30
0.0
 11
48.49830353863311
 21
-0.1218982916340237
 31
0.0
  0
LINE
  5
247
330
1F
100
AcDbEntity
  8
0
100
AcDbLine
 10
48.50682204336309
 20
1.775295643796932
 30
0.0
 11
48.50682208206086
 21
-0.0542522926715942
 31
0.0
  0
LINE
  5
248
330
1F
100
AcDbEntity
  8
0
100
AcDbLine
 10
48.49830350144649
 20
1.842941630775742
 30
0.0
 11
48.50682204336309
 21
1.775295643796932
 31
0.0
  0
LINE
  5
249
330
1F
100
AcDbEntity
  8
0
100
AcDbLine
 10
48.47332840024674
 20
1.905977655532787
 30
0.0
 11
48.49830350144649
 21
1.842941630775742
 31
0.0
  0
LINE
  5
24A
330
1F
100
AcDbEntity
  8
0
100
AcDbLine
 10
48.43359875163724
 20
1.960107917152828
 30
0.0
 11
48.47332840024674
 21
1.905977655532787
 31
0.0
  0
LINE
  5
24B
330
1F
100
AcDbEntity
  8
0
100
AcDbLine
 10
48.38182206551441
 20
2.00164352776095
 30
0.0
 11
48.43359875163724
 21
1.960107917152828
 31
0.0
  0
LINE
  5
24C
330
1F
100
AcDbEntity
  8
0
100
AcDbLine
 10
48.3215268374725
 20
2.027753904135048
 30
0.0
 11
48.38182206551441
 21
2.00164352776095
 31
0.0
  0
LINE
  5
24D
330
1F
100
AcDbEntity
  8
0
100
AcDbLine
 10
48.2568222268376
 20
2.036659800264973
 30
0.0
 11
48.3215268374725
 21
2.027753904135048
 31
0.0
  0
LINE
  5
24E
330
1F
100
AcDbEntity
  8
0
100
AcDbLine
 10
42.89725343630052
 20
2.559387782294527
 30
0.0
 11
33.61638680000657
 21
2.559388864305532
 31
0.0
  0
LINE
  5
24F
330
1F
100
AcDbEntity
  8
0
100
AcDbLine
 10
33.61638680000657
 20
2.559388864305532
 30
0.0
 11
33.60021060968766
 21
2.557162423126732
 31
0.0
  0
LINE
  5
250
330
1F
100
AcDbEntity
  8
0
100
AcDbLine
 10
33.60021060968766
 20
2.557162423126732
 30
0.0
 11
33.58513680000657
 21
2.550634827877301
 31
0.0
  0
LINE
  5
251
330
1F
100
AcDbEntity
  8
0
100
AcDbLine
 10
33.58513680000657
 20
2.550634827877301
 30
0.0
 11
33.57219262618241
 21
2.540250923386125
 31
0.0
  0
LINE
  5
252
330
1F
100
AcDbEntity
  8
0
100
AcDbLine
 10
33.57219262618241
 20
2.540250923386125
 30
0.0
 11
33.06339903855353
 21
2.055797641418908
 31
0.0
  0
LINE
  5
253
330
1F
100
AcDbEntity
  8
0
100
AcDbLine
 10
33.01920486469455
 20
2.036659700587406
 30
0.0
 11
28.25682216422058
 21
2.036659713576902
 31
0.0
  0
LINE
  5
254
330
1F
100
AcDbEntity
  8
0
100
AcDbLine
 10
28.19211740294495
 20
2.027753948861703
 30
0.0
 11
28.25682216422058
 21
2.036659713576902
 31
0.0
  0
LINE
  5
255
330
1F
100
AcDbEntity
  8
0
100
AcDbLine
 10
28.13182216422058
 20
2.001643567863979
 30
0.0
 11
28.19211740294495
 21
2.027753948861703
 31
0.0
  0
LINE
  5
256
330
1F
100
AcDbEntity
  8
0
100
AcDbLine
 10
28.08004546892395
 20
1.960107949899274
 30
0.0
 11
28.13182216422058
 21
2.001643567863979
 31
0.0
  0
LINE
  5
257
330
1F
100
AcDbEntity
  8
0
100
AcDbLine
 10
28.04031581327447
 20
1.905977678691033
 30
0.0
 11
28.08004546892395
 21
1.960107949899274
 31
0.0
  0
LINE
  5
258
330
1F
100
AcDbEntity
  8
0
100
AcDbLine
 10
28.01534070764832
 20
1.842941642767594
 30
0.0
 11
28.04031581327447
 21
1.905977678691033
 31
0.0
  0
LINE
  5
259
330
1F
100
AcDbEntity
  8
0
100
AcDbLine
 10
28.00682216422058
 20
1.775295643805165
 30
0.0
 11
28.01534070764832
 21
1.842941642767594
 31
0.0
  0
LINE
  5
25A
330
1F
100
AcDbEntity
  8
0
100
AcDbLine
 10
28.00682216422058
 20
1.775295643805165
 30
0.0
 11
28.0068221642757
 21
-0.0542522217420773
 31
0.0
  0
LINE
  5
25B
330
1F
100
AcDbEntity
  8
0
100
AcDbLine
 10
28.01534070770547
 20
-0.1218982207042264
 30
0.0
 11
28.0068221642757
 21
-0.0542522217420773
 31
0.0
  0
LINE
  5
25C
330
1F
100
AcDbEntity
  8
0
100
AcDbLine
 10
28.04031581333353
 20
-0.184934256626843
 30
0.0
 11
28.01534070770547
 21
-0.1218982207042264
 31
0.0
  0
LINE
  5
25D
330
1F
100
AcDbEntity
  8
0
100
AcDbLine
 10
28.08004546898463
 20
-0.2390645278337761
 30
0.0
 11
28.04031581333353
 21
-0.184934256626843
 31
0.0
  0
LINE
  5
25E
330
1F
100
AcDbEntity
  8
0
100
AcDbLine
 10
28.13182216428252
 20
-0.2806001457967741
 30
0.0
 11
28.08004546898463
 21
-0.2390645278337761
 31
0.0
  0
LINE
  5
25F
330
1F
100
AcDbEntity
  8
0
100
AcDbLine
 10
28.19211740300768
 20
-0.3067105267925155
 30
0.0
 11
28.13182216428252
 21
-0.2806001457967741
 31
0.0
  0
LINE
  5
260
330
1F
100
AcDbEntity
  8
0
100
AcDbLine
 10
28.25682216428358
 20
-0.3156162915055825
 30
0.0
 11
28.19211740300768
 21
-0.3067105267925155
 31
0.0
  0
LINE
  5
261
330
1F
100
AcDbEntity
  8
0
100
AcDbLine
 10
28.25682216428358
 20
-0.3156162915055825
 30
0.0
 11
33.01920488098136
 21
-0.3156163400180705
 31
0.0
  0
LINE
  5
262
330
1F
100
AcDbEntity
  8
0
100
AcDbLine
 10
33.06339905480552
 20
-0.2964783990986639
 30
0.0
 11
33.57219305792756
 21
0.1879738596468727
 31
0.0
  0
LINE
  5
263
330
1F
100
AcDbEntity
  8
0
100
AcDbLine
 10
48.50682218254071
 20
-1.838559364405906
 30
0.0
 11
48.50682218296403
 21
-4.190831985191879
 31
0.0
  0
ENDSEC
  0
SECTION
  2
OBJECTS
  0
DICTIONARY
  5
C
330
0
100
AcDbDictionary
  3
ACAD_GROUP
350
D
  3
ACAD_LAYOUT
350
1A
  3
ACAD_MATERIAL
350
43
  3
ACAD_MLEADERSTYLE
350
6B
  3
ACAD_MLINESTYLE
350
17
  3
ACAD_PLOTSETTINGS
350
19
  3
ACAD_SCALELIST
350
47
  3
ACAD_VISUALSTYLE
350
2A
  3
ACDBHEADERROUNDTRIPXREC
350
264
  3
ACDBVARIABLEDICTIONARY
350
285
  0
DICTIONARY
  5
28C
330
8
100
AcDbDictionary
280
     1
  3
ACAD_XREC_ROUNDTRIP
360
28D
  0
DICTIONARY
  5
D
102
{ACAD_REACTORS
330
C
102
}
330
C
100
AcDbDictionary
  0
DICTIONARY
  5
1A
102
{ACAD_REACTORS
330
C
102
}
330
C
100
AcDbDictionary
  0
DICTIONARY
  5
43
102
{ACAD_REACTORS
330
C
102
}
330
C
100
AcDbDictionary
  3
BYBLOCK
350
45
  3
BYLAYER
350
44
  3
GLOBAL
350
46
  0
DICTIONARY
  5
6B
102
{ACAD_REACTORS
330
C
102
}
330
C
100
AcDbDictionary
  3
STANDARD
350
6C
  0
DICTIONARY
  5
17
102
{ACAD_REACTORS
330
C
102
}
330
C
100
AcDbDictionary
  3
STANDARD
350
18
  0
DICTIONARY
  5
19
102
{ACAD_REACTORS
330
C
102
}
330
C
100
AcDbDictionary
  0
DICTIONARY
  5
47
102
{ACAD_REACTORS
330
C
102
}
330
C
100
AcDbDictionary
  3
A0
350
48
  3
A1
350
49
  3
A2
350
4A
  3
A3
350
4B
  3
A4
350
4C
  3
A5
350
4D
  3
A6
350
4E
  3
A7
350
4F
  3
A8
350
50
  3
A9
350
51
  3
B0
350
52
  3
B1
350
53
  3
B2
350
54
  3
B3
350
55
  3
B4
350
56
  3
B5
350
57
  3
B6
350
58
  3
B7
350
59
  3
B8
350
5A
  3
B9
350
5B
  3
C0
350
5C
  3
C1
350
5D
  3
C2
350
5E
  3
C3
350
5F
  3
C4
350
60
  3
C5
350
61
  3
C6
350
62
  3
C7
350
63
  3
C8
350
64
  3
C9
350
65
  3
D0
350
66
  3
D1
350
67
  3
D2
350
68
  0
DICTIONARY
  5
2A
102
{ACAD_REACTORS
330
C
102
}
330
C
100
AcDbDictionary
  3
2DWIREFRAME
350
2F
  3
BASIC
350
32
  3
BRIGHTEN
350
36
  3
COLORCHANGE
350
3A
  3
CONCEPTUAL
350
34
  3
DIM
350
35
  3
EDGECOLOROFF
350
3D
  3
FACEPATTERN
350
39
  3
FLAT
350
2B
  3
FLATWITHEDGES
350
2C
  3
GOURAUD
350
2D
  3
GOURAUDWITHEDGES
350
2E
  3
HIDDEN
350
31
  3
JITTEROFF
350
3B
  3
LINEPATTERN
350
38
  3
OVERHANGOFF
350
3C
  3
REALISTIC
350
33
  3
SHADED
350
42
  3
SHADED_WITH_EDGES
350
41
  3
SHADES_OF_GRAY
350
3E
  3
SKETCHY
350
3F
  3
THICKEN
350
37
  3
WIREFRAME
350
30
  3
X-RAY
350
40
  0
DICTIONARY
  5
264
102
{ACAD_REACTORS
330
C
102
}
330
C
100
AcDbDictionary
  3
CEPSNID
350
26E
  3
CEPSNTYPE
350
26D
  3
DIMSTYLEDATA
350
284
  3
FINGERPRINTGUID
350
26F
  3
HYPERLINKBASE
350
267
  3
INSUNITS
350
26C
  3
LAYOUTDICT
350
269
  3
LWETCUNION
350
26B
  3
PLOTSETDICT
350
26A
  3
PSVPSCALE
350
271
  3
PUCSBASE
350
274
  3
PUCSORGBACK
350
27A
  3
PUCSORGBOTTOM
350
276
  3
PUCSORGFRONT
350
279
  3
PUCSORGLEFT
350
277
  3
PUCSORGRIGHT
350
278
  3
PUCSORGTOP
350
275
  3
PUCSORTHOREF
350
272
  3
PUCSORTHOVIEW
350
273
  3
STYLESHEET
350
268
  3
TSTACKALIGN
350
265
  3
TSTACKSIZE
350
266
  3
UCSBASE
350
27D
  3
UCSORGBACK
350
283
  3
UCSORGBOTTOM
350
27F
  3
UCSORGFRONT
350
282
  3
UCSORGLEFT
350
280
  3
UCSORGRIGHT
350
281
  3
UCSORGTOP
350
27E
  3
UCSORTHOREF
350
27B
  3
UCSORTHOVIEW
350
27C
  3
VERSIONGUID
350
270
  0
DICTIONARY
  5
285
102
{ACAD_REACTORS
330
C
102
}
330
C
100
AcDbDictionary
  3
CANNOSCALE
350
28E
  3
CMLEADERSTYLE
350
287
  3
CTABLESTYLE
350
286
  3
DIMASSOC
350
28A
  3
HIDETEXT
350
28B
  3
MSLTSCALE
350
28F
  0
XRECORD
  5
28D
102
{ACAD_REACTORS
330
28C
102
}
330
28C
100
AcDbXrecord
102
VTR_0.000_0.000_1.000_1.000_VISUALSTYLE
340
2F
102
VTR_0.000_0.000_1.000_1.000_GRIDDISPLAY
 70
     3
102
VTR_0.000_0.000_1.000_1.000_GRIDMAJOR
 70
     5
102
VTR_0.000_0.000_1.000_1.000_DEFAULTLIGHTING
280
     1
102
VTR_0.000_0.000_1.000_1.000_DEFAULTLIGHTINGTYPE
 70
     1
102
VTR_0.000_0.000_1.000_1.000_BRIGHTNESS
141
0.0
102
VTR_0.000_0.000_1.000_1.000_CONTRAST
142
0.0
  0
MATERIAL
  5
45
102
{ACAD_REACTORS
330
43
102
}
102
{ACAD_XDICTIONARY
360
292
102
}
330
43
100
AcDbMaterial
  1
BYBLOCK
  0
MATERIAL
  5
44
102
{ACAD_REACTORS
330
43
102
}
102
{ACAD_XDICTIONARY
360
290
102
}
330
43
100
AcDbMaterial
  1
BYLAYER
  0
MATERIAL
  5
46
102
{ACAD_REACTORS
330
43
102
}
102
{ACAD_XDICTIONARY
360
294
102
}
330
43
100
AcDbMaterial
  1
GLOBAL
  0
ACAD_PROXY_OBJECT
  5
6C
102
{ACAD_REACTORS
330
6B
102
}
330
6B
100
AcDbProxyObject
 90
      499
 91
      505
 93
      610
310
40901902A4063FBFFFFFE056BD1B81E855B9FC0AD7A3703D0AD73F4214DD185B99185C9900AD7A3703D0AC73F90141901A02B5E8DC0F42B1CFC02B5E8DC0F42B1CFE5764000000000000300FC0
340
14
340
0
340
11
340
0
 94
        0
1001
ACAD_MLEADERVER
1070
     2
  0
MLINESTYLE
  5
18
102
{ACAD_REACTORS
330
17
102
}
330
17
100
AcDbMlineStyle
  2
Standard
 70
     0
  3

 62
   256
 51
90.0
 52
90.0
 71
     2
 49
0.5
 62
   256
  6
BYLAYER
 49
-0.5
 62
   256
  6
BYLAYER
  0
ACAD_PROXY_OBJECT
  5
48
102
{ACAD_REACTORS
330
47
102
}
330
47
100
AcDbProxyObject
 90
      499
 91
      503
 93
       41
310
903313A31580
  0
ACAD_PROXY_OBJECT
  5
49
102
{ACAD_REACTORS
330
47
102
}
330
47
100
AcDbProxyObject
 90
      499
 91
      503
 93
      105
310
903313A324000000000000004000
  0
ACAD_PROXY_OBJECT
  5
4A
102
{ACAD_REACTORS
330
47
102
}
330
47
100
AcDbProxyObject
 90
      499
 91
      503
 93
      105
310
903313A344000000000000104000
  0
ACAD_PROXY_OBJECT
  5
4B
102
{ACAD_REACTORS
330
47
102
}
330
47
100
AcDbProxyObject
 90
      499
 91
      503
 93
      105
310
903313A354000000000000144000
  0
ACAD_PROXY_OBJECT
  5
4C
102
{ACAD_REACTORS
330
47
102
}
330
47
100
AcDbProxyObject
 90
      499
 91
      503
 93
      105
310
903313A384000000000000204000
  0
ACAD_PROXY_OBJECT
  5
4D
102
{ACAD_REACTORS
330
47
102
}
330
47
100
AcDbProxyObject
 90
      499
 91
      503
 93
      113
310
904313A31304000000000000244000
  0
ACAD_PROXY_OBJECT
  5
4E
102
{ACAD_REACTORS
330
47
102
}
330
47
100
AcDbProxyObject
 90
      499
 91
      503
 93
      113
310
904313A31364000000000000304000
  0
ACAD_PROXY_OBJECT
  5
4F
102
{ACAD_REACTORS
330
47
102
}
330
47
100
AcDbProxyObject
 90
      499
 91
      503
 93
      113
310
904313A32304000000000000344000
  0
ACAD_PROXY_OBJECT
  5
50
102
{ACAD_REACTORS
330
47
102
}
330
47
100
AcDbProxyObject
 90
      499
 91
      503
 93
      113
310
904313A333040000000000003E4000
  0
ACAD_PROXY_OBJECT
  5
51
102
{ACAD_REACTORS
330
47
102
}
330
47
100
AcDbProxyObject
 90
      499
 91
      503
 93
      113
310
904313A34304000000000000444000
  0
ACAD_PROXY_OBJECT
  5
52
102
{ACAD_REACTORS
330
47
102
}
330
47
100
AcDbProxyObject
 90
      499
 91
      503
 93
      113
310
904313A35304000000000000494000
  0
ACAD_PROXY_OBJECT
  5
53
102
{ACAD_REACTORS
330
47
102
}
330
47
100
AcDbProxyObject
 90
      499
 91
      503
 93
      121
310
905313A3130304000000000000594000
  0
ACAD_PROXY_OBJECT
  5
54
102
{ACAD_REACTORS
330
47
102
}
330
47
100
AcDbProxyObject
 90
      499
 91
      503
 93
      105
310
903323A310000000000000010100
  0
ACAD_PROXY_OBJECT
  5
55
102
{ACAD_REACTORS
330
47
102
}
330
47
100
AcDbProxyObject
 90
      499
 91
      503
 93
      105
310
903343A310000000000000410100
  0
ACAD_PROXY_OBJECT
  5
56
102
{ACAD_REACTORS
330
47
102
}
330
47
100
AcDbProxyObject
 90
      499
 91
      503
 93
      105
310
903383A310000000000000810100
  0
ACAD_PROXY_OBJECT
  5
57
102
{ACAD_REACTORS
330
47
102
}
330
47
100
AcDbProxyObject
 90
      499
 91
      503
 93
      113
310
90431303A310000000000000910100
  0
ACAD_PROXY_OBJECT
  5
58
102
{ACAD_REACTORS
330
47
102
}
330
47
100
AcDbProxyObject
 90
      499
 91
      503
 93
      121
310
9053130303A310000000000001650100
  0
ACAD_PROXY_OBJECT
  5
59
102
{ACAD_REACTORS
330
47
102
}
330
47
100
AcDbProxyObject
 90
      499
 91
      503
 93
      257
310
90E312F31323822203D2031272D3022000000000000200FC000000000000284000
  0
ACAD_PROXY_OBJECT
  5
5A
102
{ACAD_REACTORS
330
47
102
}
330
47
100
AcDbProxyObject
 90
      499
 91
      503
 93
      249
310
90D312F363422203D2031272D3022000000000000240FC000000000000284000
  0
ACAD_PROXY_OBJECT
  5
5B
102
{ACAD_REACTORS
330
47
102
}
330
47
100
AcDbProxyObject
 90
      499
 91
      503
 93
      249
310
90D312F333222203D2031272D3022000000000000280FC000000000000284000
  0
ACAD_PROXY_OBJECT
  5
5C
102
{ACAD_REACTORS
330
47
102
}
330
47
100
AcDbProxyObject
 90
      499
 91
      503
 93
      249
310
90D312F313622203D2031272D30220000000000002C0FC000000000000284000
  0
ACAD_PROXY_OBJECT
  5
5D
102
{ACAD_REACTORS
330
47
102
}
330
47
100
AcDbProxyObject
 90
      499
 91
      503
 93
      249
310
90D332F333222203D2031272D30220000000000002E0FC000000000000284000
  0
ACAD_PROXY_OBJECT
  5
5E
102
{ACAD_REACTORS
330
47
102
}
330
47
100
AcDbProxyObject
 90
      499
 91
      503
 93
      241
310
90C312F3822203D2031272D3022000000000000300FC000000000000284000
  0
ACAD_PROXY_OBJECT
  5
5F
102
{ACAD_REACTORS
330
47
102
}
330
47
100
AcDbProxyObject
 90
      499
 91
      503
 93
      249
310
90D332F313622203D2031272D3022000000000000320FC000000000000284000
  0
ACAD_PROXY_OBJECT
  5
60
102
{ACAD_REACTORS
330
47
102
}
330
47
100
AcDbProxyObject
 90
      499
 91
      503
 93
      241
310
90C312F3422203D2031272D3022000000000000340FC000000000000284000
  0
ACAD_PROXY_OBJECT
  5
61
102
{ACAD_REACTORS
330
47
102
}
330
47
100
AcDbProxyObject
 90
      499
 91
      503
 93
      241
310
90C332F3822203D2031272D3022000000000000360FC000000000000284000
  0
ACAD_PROXY_OBJECT
  5
62
102
{ACAD_REACTORS
330
47
102
}
330
47
100
AcDbProxyObject
 90
      499
 91
      503
 93
      241
310
90C312F3222203D2031272D3022000000000000380FC000000000000284000
  0
ACAD_PROXY_OBJECT
  5
63
102
{ACAD_REACTORS
330
47
102
}
330
47
100
AcDbProxyObject
 90
      499
 91
      503
 93
      241
310
90C332F3422203D2031272D30220000000000003A0FC000000000000284000
  0
ACAD_PROXY_OBJECT
  5
64
102
{ACAD_REACTORS
330
47
102
}
330
47
100
AcDbProxyObject
 90
      499
 91
      503
 93
      161
310
90A3122203D2031272D30224000000000000284000
  0
ACAD_PROXY_OBJECT
  5
65
102
{ACAD_REACTORS
330
47
102
}
330
47
100
AcDbProxyObject
 90
      499
 91
      503
 93
      257
310
90E312D312F3222203D2031272D30220000000000003E0FC000000000000284000
  0
ACAD_PROXY_OBJECT
  5
66
102
{ACAD_REACTORS
330
47
102
}
330
47
100
AcDbProxyObject
 90
      499
 91
      503
 93
      225
310
90A3322203D2031272D302200000000000002100000000000000284000
  0
ACAD_PROXY_OBJECT
  5
67
102
{ACAD_REACTORS
330
47
102
}
330
47
100
AcDbProxyObject
 90
      499
 91
      503
 93
      225
310
90A3622203D2031272D302200000000000006100000000000000284000
  0
ACAD_PROXY_OBJECT
  5
68
102
{ACAD_REACTORS
330
47
102
}
330
47
100
AcDbProxyObject
 90
      499
 91
      503
 93
      249
310
90D31272D3022203D2031272D30220000000000000A100000000000000284000
  0
ACAD_PROXY_OBJECT
  5
2F
102
{ACAD_REACTORS
330
2A
102
}
330
2A
100
AcDbProxyObject
 90
      499
 91
      501
 93
      436
310
42CC9915DA5C99599C985B595049028333333333333E33F0000000000000F90107901411070040501600405405064090741402480A0340
1001
ACAD
1000
AcDbSavedByObjectVersion
1070
     0
  0
ACAD_PROXY_OBJECT
  5
32
102
{ACAD_REACTORS
330
2A
102
}
330
2A
100
AcDbProxyObject
 90
      499
 91
      501
 93
      388
310
4150985CDA58D07406404333333333333E33F0000000000000F90107A41107004050150841D405064090741402480A0350
1001
ACAD
1000
AcDbSavedByObjectVersion
1070
     0
  0
ACAD_PROXY_OBJECT
  5
36
102
{ACAD_REACTORS
330
2A
102
}
330
2A
100
AcDbProxyObject
 90
      499
 91
      501
 93
      428
310
42109C9A59DA1D195B90C409028333333333333E33F0000000000000F9010790141107004050150841D405064090741402480A029950
1001
ACAD
1000
AcDbSavedByObjectVersion
1070
     0
  0
ACAD_PROXY_OBJECT
  5
3A
102
{ACAD_REACTORS
330
2A
102
}
330
2A
100
AcDbProxyObject
 90
      499
 91
      501
 93
      452
310
42D0DBDB1BDC90DA185B99D95104090240C333333333333E33F0000000000000F90108901411070040501508421405064090741402480A0350
1001
ACAD
1000
AcDbSavedByObjectVersion
1070
     0
  0
ACAD_PROXY_OBJECT
  5
34
102
{ACAD_REACTORS
330
2A
102
}
330
2A
100
AcDbProxyObject
 90
      499
 91
      501
 93
      500
310
4290DBDB98D95C1D1D585B10940D028333333333333E33F0000000000000F90107902409070040501000000000018199010841D405064090740C02480A0340
1001
ACAD
1000
AcDbSavedByObjectVersion
1070
     0
  0
ACAD_PROXY_OBJECT
  5
35
102
{ACAD_REACTORS
330
2A
102
}
330
2A
100
AcDbProxyObject
 90
      499
 91
      501
 93
      412
310
40D11A5B50B409028333333333333E33F0000000000000F9010790141107004050150841D405064090741402480A02677FFFFFD0
1001
ACAD
1000
AcDbSavedByObjectVersion
1070
     0
  0
ACAD_PROXY_OBJECT
  5
3D
102
{ACAD_REACTORS
330
2A
102
}
330
2A
100
AcDbProxyObject
 90
      499
 91
      501
 93
      452
310
43115919D950DBDB1BDC93D999916409028333333333333E33F0000000000000F9010790141107004050150841D405064090741402480A0350
1001
ACAD
1000
AcDbSavedByObjectVersion
1070
     0
  0
ACAD_PROXY_OBJECT
  5
39
102
{ACAD_REACTORS
330
2A
102
}
330
2A
100
AcDbProxyObject
 90
      499
 91
      501
 93
      444
310
42D19858D95C185D1D195C9B90F409028333333333333E33F0000000000000F9010790141107004050150841D405064090741402480A0350
1001
ACAD
1000
AcDbSavedByObjectVersion
1070
     0
  0
ACAD_PROXY_OBJECT
  5
2B
102
{ACAD_REACTORS
330
2A
102
}
330
2A
100
AcDbProxyObject
 90
      499
 91
      501
 93
      380
310
41119B185D240901404333333333333E33F0000000000000F9010740A907004050150841D405064090741402480A1B50
1001
ACAD
1000
AcDbSavedByObjectVersion
1070
     0
  0
ACAD_PROXY_OBJECT
  5
2C
102
{ACAD_REACTORS
330
2A
102
}
330
2A
100
AcDbProxyObject
 90
      499
 91
      501
 93
      468
310
43519B185D15DA5D1A115919D95CD0140901404333333333333E33F0000000000000F90107409019070040501600405405064090741402480A1B50
1001
ACAD
1000
AcDbSavedByObjectVersion
1070
     0
  0
ACAD_PROXY_OBJECT
  5
2D
102
{ACAD_REACTORS
330
2A
102
}
330
2A
100
AcDbProxyObject
 90
      499
 91
      501
 93
      404
310
41D1DBDD5C985D5910240902404333333333333E33F0000000000000F9010740A9070040501641D405064090741402480A1B50
1001
ACAD
1000
AcDbSavedByObjectVersion
1070
     0
  0
ACAD_PROXY_OBJECT
  5
2E
102
{ACAD_REACTORS
330
2A
102
}
330
2A
100
AcDbProxyObject
 90
      499
 91
      501
 93
      492
310
4411DBDD5C985D5915DA5D1A115919D95CD0340902404333333333333E33F0000000000000F90107409019070040501600405405064090741402480A1B50
1001
ACAD
1000
AcDbSavedByObjectVersion
1070
     0
  0
ACAD_PROXY_OBJECT
  5
31
102
{ACAD_REACTORS
330
2A
102
}
330
2A
100
AcDbProxyObject
 90
      499
 91
      501
 93
      476
310
41921A5919195B90640502408333333333333E33F0000000000000F901079024090700405020000000000001110200405405064090740C02480A0340
1001
ACAD
1000
AcDbSavedByObjectVersion
1070
     0
  0
ACAD_PROXY_OBJECT
  5
3B
102
{ACAD_REACTORS
330
2A
102
}
330
2A
100
AcDbProxyObject
 90
      499
 91
      501
 93
      428
310
42529A5D1D195C93D999914409028333333333333E33F0000000000000F9010790141107004050150A41D405064090741402480A0350
1001
ACAD
1000
AcDbSavedByObjectVersion
1070
     0
  0
ACAD_PROXY_OBJECT
  5
38
102
{ACAD_REACTORS
330
2A
102
}
330
2A
100
AcDbProxyObject
 90
      499
 91
      501
 93
      444
310
42D31A5B995C185D1D195C9B90E409028333333333333E33F0000000000000F9010790141107004050750841D405064090741402483A0350
1001
ACAD
1000
AcDbSavedByObjectVersion
1070
     0
  0
ACAD_PROXY_OBJECT
  5
3C
102
{ACAD_REACTORS
330
2A
102
}
330
2A
100
AcDbProxyObject
 90
      499
 91
      501
 93
      444
310
42D3DD995C9A185B99D3D999915409028333333333333E33F0000000000000F9010790141107004050150941D405064090741402480A0350
1001
ACAD
1000
AcDbSavedByObjectVersion
1070
     0
  0
ACAD_PROXY_OBJECT
  5
33
102
{ACAD_REACTORS
330
2A
102
}
330
2A
100
AcDbProxyObject
 90
      499
 91
      501
 93
      428
310
425499585B1A5CDD1A58D08409038333333333333E33F0000000000000F9010740A907004050150800405405064090740C02480A1B40
1001
ACAD
1000
AcDbSavedByObjectVersion
1070
     0
  0
ACAD_PROXY_OBJECT
  5
42
102
{ACAD_REACTORS
330
2A
102
}
330
2A
100
AcDbProxyObject
 90
      499
 91
      501
 93
      420
310
4194DA1859195911B40902404333333333333E33F0000000000000F9010740A41107004050150800405405064090840C02480A0B40
1001
ACAD
1000
AcDbSavedByObjectVersion
1070
     0
  0
ACAD_PROXY_OBJECT
  5
41
102
{ACAD_REACTORS
330
2A
102
}
330
2A
100
AcDbProxyObject
 90
      499
 91
      501
 93
      516
310
4454DA18591959081DDA5D1A08195919D95CD1A40902404333333333333E33F0000000000000F901074090142907004050250800405405064090740C02480A0B40
1001
ACAD
1000
AcDbSavedByObjectVersion
1070
     0
  0
ACAD_PROXY_OBJECT
  5
3E
102
{ACAD_REACTORS
330
2A
102
}
330
2A
100
AcDbProxyObject
 90
      499
 91
      501
 93
      532
310
4394DA1859195CC81BD98811DC985E5174090240C333333333333E33F0000000000000F901079024090741D01000000000000111010841D405064090740C02480A0340
1001
ACAD
1000
AcDbSavedByObjectVersion
1070
     0
  0
ACAD_PROXY_OBJECT
  5
3F
102
{ACAD_REACTORS
330
2A
102
}
330
2A
100
AcDbProxyObject
 90
      499
 91
      501
 93
      476
310
41D4DAD95D18DA1E51840502408333333333333E33F0000000000000F901079024090741D01000000000000111010B41D405064090741802480A0340
1001
ACAD
1000
AcDbSavedByObjectVersion
1070
     0
  0
ACAD_PROXY_OBJECT
  5
37
102
{ACAD_REACTORS
330
2A
102
}
330
2A
100
AcDbProxyObject
 90
      499
 91
      501
 93
      412
310
41D51A1A58DAD95B90D409028333333333333E33F0000000000000F9010790141107004050150C41D405064090741402480A0350
1001
ACAD
1000
AcDbSavedByObjectVersion
1070
     0
  0
ACAD_PROXY_OBJECT
  5
30
102
{ACAD_REACTORS
330
2A
102
}
330
2A
100
AcDbProxyObject
 90
      499
 91
      501
 93
      420
310
4255DA5C99599C985B595059028333333333333E33F0000000000000F90107901411070040501600405405064090740C02480A0340
1001
ACAD
1000
AcDbSavedByObjectVersion
1070
     0
  0
ACAD_PROXY_OBJECT
  5
40
102
{ACAD_REACTORS
330
2A
102
}
330
2A
100
AcDbProxyObject
 90
      499
 91
      501
 93
      404
310
41560B54985E51940902404000000000000E03F0000000000000F9010740501907004050150841D405064090740C02480A1B40
1001
ACAD
1000
AcDbSavedByObjectVersion
1070
     0
  0
XRECORD
  5
26E
102
{ACAD_REACTORS
330
264
102
}
330
264
100
AcDbXrecord
340
0
  0
XRECORD
  5
26D
102
{ACAD_REACTORS
330
264
102
}
330
264
100
AcDbXrecord
 90
        0
  0
XRECORD
  5
284
102
{ACAD_REACTORS
330
264
102
}
330
264
100
AcDbXrecord
1000
DSTYLE
1002
{
1070
   340
340
11
1002
}
  0
XRECORD
  5
26F
102
{ACAD_REACTORS
330
264
102
}
330
264
100
AcDbXrecord
  1
{fd21aee4-3e83-e541-9518-91cbdc682f74}
  0
XRECORD
  5
267
102
{ACAD_REACTORS
330
264
102
}
330
264
100
AcDbXrecord
  1

  0
XRECORD
  5
26C
102
{ACAD_REACTORS
330
264
102
}
330
264
100
AcDbXrecord
 90
        1
  0
XRECORD
  5
269
102
{ACAD_REACTORS
330
264
102
}
330
264
100
AcDbXrecord
340
1A
  0
XRECORD
  5
26B
102
{ACAD_REACTORS
330
264
102
}
330
264
100
AcDbXrecord
 90
    10781
  0
XRECORD
  5
26A
102
{ACAD_REACTORS
330
264
102
}
330
264
100
AcDbXrecord
340
19
  0
XRECORD
  5
271
102
{ACAD_REACTORS
330
264
102
}
330
264
100
AcDbXrecord
 40
0.0
  0
XRECORD
  5
274
102
{ACAD_REACTORS
330
264
102
}
330
264
100
AcDbXrecord
340
0
  0
XRECORD
  5
27A
102
{ACAD_REACTORS
330
264
102
}
330
264
100
AcDbXrecord
 10
0.0
 20
0.0
 30
0.0
  0
XRECORD
  5
276
102
{ACAD_REACTORS
330
264
102
}
330
264
100
AcDbXrecord
 10
0.0
 20
0.0
 30
0.0
  0
XRECORD
  5
279
102
{ACAD_REACTORS
330
264
102
}
330
264
100
AcDbXrecord
 10
0.0
 20
0.0
 30
0.0
  0
XRECORD
  5
277
102
{ACAD_REACTORS
330
264
102
}
330
264
100
AcDbXrecord
 10
0.0
 20
0.0
 30
0.0
  0
XRECORD
  5
278
102
{ACAD_REACTORS
330
264
102
}
330
264
100
AcDbXrecord
 10
0.0
 20
0.0
 30
0.0
  0
XRECORD
  5
275
102
{ACAD_REACTORS
330
264
102
}
330
264
100
AcDbXrecord
 10
0.0
 20
0.0
 30
0.0
  0
XRECORD
  5
272
102
{ACAD_REACTORS
330
264
102
}
330
264
100
AcDbXrecord
340
0
  0
XRECORD
  5
273
102
{ACAD_REACTORS
330
264
102
}
330
264
100
AcDbXrecord
 70
     0
  0
XRECORD
  5
268
102
{ACAD_REACTORS
330
264
102
}
330
264
100
AcDbXrecord
  1

  0
XRECORD
  5
265
102
{ACAD_REACTORS
330
264
102
}
330
264
100
AcDbXrecord
 90
        1
  0
XRECORD
  5
266
102
{ACAD_REACTORS
330
264
102
}
330
264
100
AcDbXrecord
 90
       70
  0
XRECORD
  5
27D
102
{ACAD_REACTORS
330
264
102
}
330
264
100
AcDbXrecord
340
0
  0
XRECORD
  5
283
102
{ACAD_REACTORS
330
264
102
}
330
264
100
AcDbXrecord
 10
0.0
 20
0.0
 30
0.0
  0
XRECORD
  5
27F
102
{ACAD_REACTORS
330
264
102
}
330
264
100
AcDbXrecord
 10
0.0
 20
0.0
 30
0.0
  0
XRECORD
  5
282
102
{ACAD_REACTORS
330
264
102
}
330
264
100
AcDbXrecord
 10
0.0
 20
0.0
 30
0.0
  0
XRECORD
  5
280
102
{ACAD_REACTORS
330
264
102
}
330
264
100
AcDbXrecord
 10
0.0
 20
0.0
 30
0.0
  0
XRECORD
  5
281
102
{ACAD_REACTORS
330
264
102
}
330
264
100
AcDbXrecord
 10
0.0
 20
0.0
 30
0.0
  0
XRECORD
  5
27E
102
{ACAD_REACTORS
330
264
102
}
330
264
100
AcDbXrecord
 10
0.0
 20
0.0
 30
0.0
  0
XRECORD
  5
27B
102
{ACAD_REACTORS
330
264
102
}
330
264
100
AcDbXrecord
340
0
  0
XRECORD
  5
27C
102
{ACAD_REACTORS
330
264
102
}
330
264
100
AcDbXrecord
 70
     0
  0
XRECORD
  5
270
102
{ACAD_REACTORS
330
264
102
}
330
264
100
AcDbXrecord
  1
{FAEB1C32-E019-11D5-929B-00C0DF256EC4}
  0
DICTIONARYVAR
  5
28E
102
{ACAD_REACTORS
330
285
102
}
330
285
100
DictionaryVariables
280
     0
  1
1:1
  0
DICTIONARYVAR
  5
287
102
{ACAD_REACTORS
330
285
102
}
330
285
100
DictionaryVariables
280
     0
  1
Standard
  0
DICTIONARYVAR
  5
286
102
{ACAD_REACTORS
330
285
102
}
330
285
100
DictionaryVariables
280
     0
  1
Standard
  0
DICTIONARYVAR
  5
28A
102
{ACAD_REACTORS
330
285
102
}
330
285
100
DictionaryVariables
280
     0
  1
2
  0
DICTIONARYVAR
  5
28B
102
{ACAD_REACTORS
330
285
102
}
330
285
100
DictionaryVariables
280
     0
  1
1
  0
DICTIONARYVAR
  5
28F
102
{ACAD_REACTORS
330
285
102
}
330
285
100
DictionaryVariables
280
     0
  1
1
  0
DICTIONARY
  5
292
330
45
100
AcDbDictionary
280
     1
  3
ACAD_XREC_ROUNDTRIP
360
293
  0
DICTIONARY
  5
290
330
44
100
AcDbDictionary
280
     1
  3
ACAD_XREC_ROUNDTRIP
360
291
  0
DICTIONARY
  5
294
330
46
100
AcDbDictionary
280
     1
  3
ACAD_XREC_ROUNDTRIP
360
295
  0
XRECORD
  5
293
102
{ACAD_REACTORS
330
292
102
}
330
292
100
AcDbXrecord
102
MATERIAL
148
0.0
149
0.0
149
0.0
 93
        0
 94
      127
282
     0
 72
     1
 77
     1
171
     1
175
     1
179
     1
273
     0
  0
XRECORD
  5
291
102
{ACAD_REACTORS
330
290
102
}
330
290
100
AcDbXrecord
102
MATERIAL
148
0.0
149
0.0
149
0.0
 93
        0
 94
      127
282
     0
 72
     1
 77
     1
171
     1
175
     1
179
     1
273
     0
  0
XRECORD
  5
295
102
{ACAD_REACTORS
330
294
102
}
330
294
100
AcDbXrecord
102
MATERIAL
148
0.0
149
0.0
149
0.0
 93
        0
 94
      127
282
     0
 72
     1
 77
     1
171
     1
175
     1
179
     1
273
     0
  0
ENDSEC
  0
EOF
