  0
SECTION
  2
HEADER
  9
$ACADVER
  1
AC1014
  9
$ACADMAINTVER
 70
     9
  9
$DWGCODEPAGE
  3
MAC-ROMAN
  9
$INSBASE
 10
0.0
 20
0.0
 30
0.0
  9
$EXTMIN
 10
1.000000000000000E+20
 20
1.000000000000000E+20
 30
1.000000000000000E+20
  9
$EXTMAX
 10
-1.000000000000000E+20
 20
-1.000000000000000E+20
 30
-1.000000000000000E+20
  9
$LIMMIN
 10
0.0
 20
0.0
  9
$LIMMAX
 10
12.0
 20
9.0
  9
$ORTHOMODE
 70
     0
  9
$REGENMODE
 70
     1
  9
$FILLMODE
 70
     1
  9
$QTEXTMODE
 70
     0
  9
$MIRRTEXT
 70
     1
  9
$DRAGMODE
 70
     2
  9
$LTSCALE
 40
1.0
  9
$OSMODE
 70
    37
  9
$ATTMODE
 70
     1
  9
$TEXTSIZE
 40
0.2
  9
$TRACEWID
 40
0.05
  9
$TEXTSTYLE
  7
STANDARD
  9
$CLAYER
  8
0
  9
$CELTYPE
  6
BYLAYER
  9
$CECOLOR
 62
   256
  9
$CELTSCALE
 40
1.0
  9
$DELOBJ
 70
     1
  9
$DISPSILH
 70
     0
  9
$DIMSCALE
 40
1.0
  9
$DIMASZ
 40
0.18
  9
$DIMEXO
 40
0.0625
  9
$DIMDLI
 40
0.38
  9
$DIMRND
 40
0.0
  9
$DIMDLE
 40
0.0
  9
$DIMEXE
 40
0.18
  9
$DIMTP
 40
0.0
  9
$DIMTM
 40
0.0
  9
$DIMTXT
 40
0.18
  9
$DIMCEN
 40
0.09
  9
$DIMTSZ
 40
0.0
  9
$DIMTOL
 70
     0
  9
$DIMLIM
 70
     0
  9
$DIMTIH
 70
     1
  9
$DIMTOH
 70
     1
  9
$DIMSE1
 70
     0
  9
$DIMSE2
 70
     0
  9
$DIMTAD
 70
     0
  9
$DIMZIN
 70
     0
  9
$DIMBLK
  1

  9
$DIMASO
 70
     1
  9
$DIMSHO
 70
     1
  9
$DIMPOST
  1

  9
$DIMAPOST
  1

  9
$DIMALT
 70
     0
  9
$DIMALTD
 70
     2
  9
$DIMALTF
 40
25.4
  9
$DIMLFAC
 40
1.0
  9
$DIMTOFL
 70
     0
  9
$DIMTVP
 40
0.0
  9
$DIMTIX
 70
     0
  9
$DIMSOXD
 70
     0
  9
$DIMSAH
 70
     0
  9
$DIMBLK1
  1

  9
$DIMBLK2
  1

  9
$DIMSTYLE
  2
STANDARD
  9
$DIMCLRD
 70
     0
  9
$DIMCLRE
 70
     0
  9
$DIMCLRT
 70
     0
  9
$DIMTFAC
 40
1.0
  9
$DIMGAP
 40
0.09
  9
$DIMJUST
 70
     0
  9
$DIMSD1
 70
     0
  9
$DIMSD2
 70
     0
  9
$DIMTOLJ
 70
     1
  9
$DIMTZIN
 70
     0
  9
$DIMALTZ
 70
     0
  9
$DIMALTTZ
 70
     0
  9
$DIMFIT
 70
     3
  9
$DIMUPT
 70
     0
  9
$DIMUNIT
 70
     2
  9
$DIMDEC
 70
     4
  9
$DIMTDEC
 70
     4
  9
$DIMALTU
 70
     2
  9
$DIMALTTD
 70
     2
  9
$DIMTXSTY
  7
STANDARD
  9
$DIMAUNIT
 70
     0
  9
$LUNITS
 70
     2
  9
$LUPREC
 70
     4
  9
$SKETCHINC
 40
0.1
  9
$FILLETRAD
 40
0.5
  9
$AUNITS
 70
     0
  9
$AUPREC
 70
     0
  9
$MENU
  1
.
  9
$ELEVATION
 40
0.0
  9
$PELEVATION
 40
0.0
  9
$THICKNESS
 40
0.0
  9
$LIMCHECK
 70
     0
  9
$CHAMFERA
 40
0.0
  9
$CHAMFERB
 40
0.0
  9
$CHAMFERC
 40
0.0
  9
$CHAMFERD
 40
0.0
  9
$SKPOLY
 70
     0
  9
$TDCREATE
 40
2459548.430770359
  9
$TDUPDATE
 40
2459548.430770463
  9
$TDINDWG
 40
0.0000000116
  9
$TDUSRTIMER
 40
0.0000000116
  9
$USRTIMER
 70
     1
  9
$ANGBASE
 50
0.0
  9
$ANGDIR
 70
     0
  9
$PDMODE
 70
     0
  9
$PDSIZE
 40
0.0
  9
$PLINEWID
 40
0.0
  9
$COORDS
 70
     1
  9
$SPLFRAME
 70
     0
  9
$SPLINETYPE
 70
     6
  9
$SPLINESEGS
 70
     8
  9
$ATTDIA
 70
     0
  9
$ATTREQ
 70
     1
  9
$HANDLING
 70
     1
  9
$HANDSEED
  5
293
  9
$SURFTAB1
 70
     6
  9
$SURFTAB2
 70
     6
  9
$SURFTYPE
 70
     6
  9
$SURFU
 70
     6
  9
$SURFV
 70
     6
  9
$UCSNAME
  2

  9
$UCSORG
 10
0.0
 20
0.0
 30
0.0
  9
$UCSXDIR
 10
1.0
 20
0.0
 30
0.0
  9
$UCSYDIR
 10
0.0
 20
1.0
 30
0.0
  9
$PUCSNAME
  2

  9
$PUCSORG
 10
0.0
 20
0.0
 30
0.0
  9
$PUCSXDIR
 10
1.0
 20
0.0
 30
0.0
  9
$PUCSYDIR
 10
0.0
 20
1.0
 30
0.0
  9
$USERI1
 70
     0
  9
$USERI2
 70
     0
  9
$USERI3
 70
     0
  9
$USERI4
 70
     0
  9
$USERI5
 70
     0
  9
$USERR1
 40
0.0
  9
$USERR2
 40
0.0
  9
$USERR3
 40
0.0
  9
$USERR4
 40
0.0
  9
$USERR5
 40
0.0
  9
$WORLDVIEW
 70
     1
  9
$SHADEDGE
 70
     3
  9
$SHADEDIF
 70
    70
  9
$TILEMODE
 70
     1
  9
$MAXACTVP
 70
    64
  9
$PINSBASE
 10
0.0
 20
0.0
 30
0.0
  9
$PLIMCHECK
 70
     0
  9
$PEXTMIN
 10
1.000000000000000E+20
 20
1.000000000000000E+20
 30
1.000000000000000E+20
  9
$PEXTMAX
 10
-1.000000000000000E+20
 20
-1.000000000000000E+20
 30
-1.000000000000000E+20
  9
$PLIMMIN
 10
0.0
 20
0.0
  9
$PLIMMAX
 10
12.0
 20
9.0
  9
$UNITMODE
 70
     0
  9
$VISRETAIN
 70
     1
  9
$PLINEGEN
 70
     0
  9
$PSLTSCALE
 70
     1
  9
$TREEDEPTH
 70
  3020
  9
$PICKSTYLE
 70
     1
  9
$CMLSTYLE
  2
STANDARD
  9
$CMLJUST
 70
     0
  9
$CMLSCALE
 40
1.0
  9
$PROXYGRAPHICS
 70
     1
  9
$MEASUREMENT
 70
     1
  0
ENDSEC
  0
SECTION
  2
CLASSES
  0
CLASS
  1
ACDBDICTIONARYWDFLT
  2
AcDbDictionaryWithDefault
  3
ObjectDBX Classes
 90
        0
280
     0
281
     0
  0
CLASS
  1
VISUALSTYLE
  2
AcDbVisualStyle
  3
ObjectDBX Classes
 90
     4095
280
     0
281
     0
  0
CLASS
  1
MATERIAL
  2
AcDbMaterial
  3
ObjectDBX Classes
 90
     1153
280
     0
281
     0
  0
CLASS
  1
SCALE
  2
AcDbScale
  3
ObjectDBX Classes
 90
     1153
280
     0
281
     0
  0
CLASS
  1
TABLESTYLE
  2
AcDbTableStyle
  3
ObjectDBX Classes
 90
     4095
280
     0
281
     0
  0
CLASS
  1
MLEADERSTYLE
  2
AcDbMLeaderStyle
  3
ACDB_MLEADERSTYLE_CLASS
 90
     4095
280
     0
281
     0
  0
CLASS
  1
SUN
  2
AcDbSun
  3
SCENEOE
 90
     1153
280
     0
281
     0
  0
CLASS
  1
DICTIONARYVAR
  2
AcDbDictionaryVar
  3
ObjectDBX Classes
 90
        0
280
     0
281
     0
  0
CLASS
  1
XRECORD
  2
AcDbXrecord
  3
ObjectDBX Classes
 90
        0
280
     0
281
     0
  0
CLASS
  1
LWPOLYLINE
  2
AcDbPolyline
  3
ObjectDBX Classes
 90
        0
280
     0
281
     1
  0
CLASS
  1
HATCH
  2
AcDbHatch
  3
ObjectDBX Classes
 90
        0
280
     0
281
     1
  0
CLASS
  1
ACDBPLACEHOLDER
  2
AcDbPlaceHolder
  3
ObjectDBX Classes
 90
        0
280
     0
281
     0
  0
CLASS
  1
LAYOUT
  2
AcDbLayout
  3
ObjectDBX Classes
 90
        0
280
     0
281
     0
  0
ENDSEC
  0
SECTION
  2
TABLES
  0
TABLE
  2
VPORT
  5
8
102
{ACAD_XDICTIONARY
360
288
102
}
330
0
100
AcDbSymbolTable
 70
     1
  0
VPORT
  5
29
330
8
100
AcDbSymbolTableRecord
100
AcDbViewportTableRecord
  2
*ACTIVE
 70
     0
 10
0.0
 20
0.0
 11
1.0
 21
1.0
 12
0.0
 22
0.0
 13
0.0
 23
0.0
 14
0.5
 24
0.5
 15
0.5
 25
0.5
 16
0.0
 26
0.0
 36
1.0
 17
0.0
 27
0.0
 37
-1000.0
 40
1719.561454722064
 41
1.769002961500494
 42
50.0
 43
3383.928834054842
 44
4186.0130609794
 50
0.0
 51
0.0
 71
     0
 72
   100
 73
     1
 74
     3
 75
     0
 76
     0
 77
     0
 78
     0
  0
ENDTAB
  0
TABLE
  2
LTYPE
  5
5
330
0
100
AcDbSymbolTable
 70
     1
  0
LTYPE
  5
14
330
5
100
AcDbSymbolTableRecord
100
AcDbLinetypeTableRecord
  2
BYBLOCK
 70
     0
  3

 72
    65
 73
     0
 40
0.0
  0
LTYPE
  5
15
330
5
100
AcDbSymbolTableRecord
100
AcDbLinetypeTableRecord
  2
BYLAYER
 70
     0
  3

 72
    65
 73
     0
 40
0.0
  0
LTYPE
  5
16
330
5
100
AcDbSymbolTableRecord
100
AcDbLinetypeTableRecord
  2
CONTINUOUS
 70
     0
  3
Solid line
 72
    65
 73
     0
 40
0.0
  0
ENDTAB
  0
TABLE
  2
LAYER
  5
2
330
0
100
AcDbSymbolTable
 70
     3
  0
LAYER
  5
10
330
2
100
AcDbSymbolTableRecord
100
AcDbLayerTableRecord
  2
0
 70
     0
 62
     7
  6
CONTINUOUS
  0
LAYER
  5
6E
330
2
100
AcDbSymbolTableRecord
100
AcDbLayerTableRecord
  2
PROFILEEDGES
 70
     0
 62
     7
  6
CONTINUOUS
  0
LAYER
  5
6F
330
2
100
AcDbSymbolTableRecord
100
AcDbLayerTableRecord
  2
SECTIONCUTEDGES
 70
     0
 62
     7
  6
CONTINUOUS
  0
ENDTAB
  0
TABLE
  2
STYLE
  5
3
330
0
100
AcDbSymbolTable
 70
     1
  0
STYLE
  5
11
330
3
100
AcDbSymbolTableRecord
100
AcDbTextStyleTableRecord
  2
STANDARD
 70
     0
 40
0.0
 41
1.0
 50
0.0
 71
     0
 42
0.2
  3
txt
  4

  0
ENDTAB
  0
TABLE
  2
VIEW
  5
6
330
0
100
AcDbSymbolTable
 70
     0
  0
ENDTAB
  0
TABLE
  2
UCS
  5
7
330
0
100
AcDbSymbolTable
 70
     0
  0
ENDTAB
  0
TABLE
  2
APPID
  5
9
330
0
100
AcDbSymbolTable
 70
     2
  0
APPID
  5
12
330
9
100
AcDbSymbolTableRecord
100
AcDbRegAppTableRecord
  2
ACAD
 70
     0
  0
APPID
  5
292
330
9
100
AcDbSymbolTableRecord
100
AcDbRegAppTableRecord
  2
ACAD_MLEADERVER
 70
     0
  0
ENDTAB
  0
TABLE
  2
DIMSTYLE
  5
A
330
0
100
AcDbSymbolTable
 70
     1
  0
DIMSTYLE
105
27
330
A
100
AcDbSymbolTableRecord
100
AcDbDimStyleTableRecord
  2
STANDARD
 70
     0
  3

  4

  5

  6

  7

 40
1.0
 41
0.18
 42
0.0625
 43
0.38
 44
0.18
 45
0.0
 46
0.0
 47
0.0
 48
0.0
140
0.18
141
0.09
142
0.0
143
25.4
144
1.0
145
0.0
146
1.0
147
0.09
 71
     0
 72
     0
 73
     1
 74
     1
 75
     0
 76
     0
 77
     0
 78
     0
170
     0
171
     2
172
     0
173
     0
174
     0
175
     0
176
     0
177
     0
178
     0
270
     2
271
     4
272
     4
273
     2
274
     2
340
11
275
     0
280
     0
281
     0
282
     0
283
     1
284
     0
285
     0
286
     0
287
     3
288
     0
  0
ENDTAB
  0
TABLE
  2
BLOCK_RECORD
  5
1
330
0
100
AcDbSymbolTable
 70
     0
  0
BLOCK_RECORD
  5
1F
330
1
100
AcDbSymbolTableRecord
100
AcDbBlockTableRecord
  2
*MODEL_SPACE
  0
BLOCK_RECORD
  5
1B
330
1
100
AcDbSymbolTableRecord
100
AcDbBlockTableRecord
  2
*PAPER_SPACE
  0
ENDTAB
  0
ENDSEC
  0
SECTION
  2
BLOCKS
  0
BLOCK
  5
20
330
1F
100
AcDbEntity
  8
0
100
AcDbBlockBegin
  2
*MODEL_SPACE
 70
     0
 10
0.0
 20
0.0
 30
0.0
  3
*MODEL_SPACE
  1

  0
ENDBLK
  5
21
330
1F
100
AcDbEntity
  8
0
100
AcDbBlockEnd
  0
BLOCK
  5
1C
330
1B
100
AcDbEntity
 67
     1
  8
0
100
AcDbBlockBegin
  2
*PAPER_SPACE
 70
     0
 10
0.0
 20
0.0
 30
0.0
  3
*PAPER_SPACE
  1

  0
ENDBLK
  5
1D
330
1B
100
AcDbEntity
 67
     1
  8
0
100
AcDbBlockEnd
  0
ENDSEC
  0
SECTION
  2
ENTITIES
  0
LINE
  5
70
330
1F
100
AcDbEntity
  8
0
100
AcDbLine
 10
-687.7731511795077
 20
199.1789280198455
 30
0.0
 11
-111.7786263688098
 21
199.1790678822153
 31
0.0
  0
LINE
  5
71
330
1F
100
AcDbEntity
  8
0
100
AcDbLine
 10
-100.1890352582124
 20
174.9063773142525
 30
0.0
 11
-104.4006279524043
 21
176.7301703109077
 31
0.0
  0
LINE
  5
72
330
1F
100
AcDbEntity
  8
0
100
AcDbLine
 10
-670.3106529368462
 20
205.8175686329239
 30
0.0
 11
-671.1324032522933
 21
205.93067143247
 31
0.0
  0
LINE
  5
73
330
1F
100
AcDbEntity
  8
0
100
AcDbLine
 10
-671.8981530450634
 20
206.2622725597311
 30
0.0
 11
-672.5557169689988
 21
206.7897736848579
 31
0.0
  0
LINE
  5
74
330
1F
100
AcDbEntity
  8
0
100
AcDbLine
 10
-672.5557083184992
 20
170.2772738731354
 30
0.0
 11
-673.060274917858
 21
170.9647267894782
 31
0.0
  0
LINE
  5
75
330
1F
100
AcDbEntity
  8
0
100
AcDbLine
 10
-670.3106440516488
 20
169.3050686329255
 30
0.0
 11
-671.132394367096
 21
169.4181714324718
 31
0.0
  0
LINE
  5
76
330
1F
100
AcDbEntity
  8
0
100
AcDbLine
 10
-670.310646333037
 20
179.26302317838
 30
0.0
 11
-107.5581615394561
 21
179.2631598183424
 31
0.0
  0
LINE
  5
77
330
1F
100
AcDbEntity
  8
0
100
AcDbLine
 10
-673.3774680339992
 20
208.277783306233
 30
0.0
 11
-673.4856537046898
 21
209.1368857252588
 31
0.0
  0
LINE
  5
78
330
1F
100
AcDbEntity
  8
0
100
AcDbLine
 10
-673.0602839977342
 20
207.4772270547193
 30
0.0
 11
-673.3774680339992
 21
208.277783306233
 31
0.0
  0
LINE
  5
79
330
1F
100
AcDbEntity
  8
0
100
AcDbLine
 10
-673.377469259864
 20
213.3153070124703
 30
0.0
 11
-673.0602856980895
 21
214.1158632041604
 31
0.0
  0
LINE
  5
7A
330
1F
100
AcDbEntity
  8
0
100
AcDbLine
 10
-673.4856545523364
 20
212.4562042239341
 30
0.0
 11
-673.377469259864
 21
213.3153070124703
 31
0.0
  0
LINE
  5
7B
330
1F
100
AcDbEntity
  8
0
100
AcDbLine
 10
-673.4856456671392
 20
175.9437042239358
 30
0.0
 11
-673.3774604101395
 21
176.8028067307824
 31
0.0
  0
LINE
  5
7C
330
1F
100
AcDbEntity
  8
0
100
AcDbLine
 10
-111.7786231378288
 20
185.9017951549432
 30
0.0
 11
-687.7731479485267
 21
185.9016552925734
 31
0.0
  0
LINE
  5
7D
330
1F
100
AcDbEntity
  8
0
100
AcDbLine
 10
-688.5949016638884
 20
199.0658248090544
 30
0.0
 11
-687.7731511795077
 21
199.1789280198455
 31
0.0
  0
LINE
  5
7E
330
1F
100
AcDbEntity
  8
0
100
AcDbLine
 10
-689.360651204553
 20
198.7342233241299
 30
0.0
 11
-688.5949016638884
 21
199.0658248090544
 31
0.0
  0
LINE
  5
7F
330
1F
100
AcDbEntity
  8
0
100
AcDbLine
 10
-690.0182151150393
 20
198.2067216869778
 30
0.0
 11
-689.360651204553
 21
198.7342233241299
 31
0.0
  0
LINE
  5
80
330
1F
100
AcDbEntity
  8
0
100
AcDbLine
 10
-673.0602856980895
 20
214.1158632041604
 30
0.0
 11
-672.5557192491225
 21
214.8033167155904
 31
0.0
  0
LINE
  5
81
330
1F
100
AcDbEntity
  8
0
100
AcDbLine
 10
-671.8981552432797
 20
215.3308184826624
 30
0.0
 11
-671.132405800759
 21
215.6624199540786
 31
0.0
  0
LINE
  5
82
330
1F
100
AcDbEntity
  8
0
100
AcDbLine
 10
-672.5557192491225
 20
214.8033167155904
 30
0.0
 11
-671.8981552432797
 21
215.3308184826624
 31
0.0
  0
LINE
  5
83
330
1F
100
AcDbEntity
  8
0
100
AcDbLine
 10
-690.8399652211375
 20
196.7187118539378
 30
0.0
 11
-690.522781659363
 21
197.5192680456279
 31
0.0
  0
LINE
  5
84
330
1F
100
AcDbEntity
  8
0
100
AcDbLine
 10
-690.9481505136098
 20
195.8596090654015
 30
0.0
 11
-690.8399652211375
 21
196.7187118539378
 31
0.0
  0
LINE
  5
85
330
1F
100
AcDbEntity
  8
0
100
AcDbLine
 10
-690.9481488981195
 20
189.2209727017655
 30
0.0
 11
-690.9481505136098
 21
195.8596090654015
 31
0.0
  0
LINE
  5
86
330
1F
100
AcDbEntity
  8
0
100
AcDbLine
 10
-690.8399631875274
 20
188.3618699658824
 30
0.0
 11
-690.9481488981195
 21
189.2209727017655
 31
0.0
  0
LINE
  5
87
330
1F
100
AcDbEntity
  8
0
100
AcDbLine
 10
-690.5227791512624
 20
187.5613137143687
 30
0.0
 11
-690.8399631875274
 21
188.3618699658824
 31
0.0
  0
LINE
  5
88
330
1F
100
AcDbEntity
  8
0
100
AcDbLine
 10
-690.0182123572247
 20
186.873860532783
 30
0.0
 11
-690.5227791512624
 21
187.5613137143687
 31
0.0
  0
LINE
  5
89
330
1F
100
AcDbEntity
  8
0
100
AcDbLine
 10
-689.3606481985917
 20
186.3463592193805
 30
0.0
 11
-690.0182123572247
 21
186.873860532783
 31
0.0
  0
LINE
  5
8A
330
1F
100
AcDbEntity
  8
0
100
AcDbLine
 10
-688.5948985860981
 20
186.0147581169321
 30
0.0
 11
-689.3606481985917
 21
186.3463592193805
 31
0.0
  0
LINE
  5
8B
330
1F
100
AcDbEntity
  8
0
100
AcDbLine
 10
-687.7731479485267
 20
185.9016552925734
 30
0.0
 11
-688.5948985860981
 21
186.0147581169321
 31
0.0
  0
LINE
  5
8C
330
1F
100
AcDbEntity
  8
0
100
AcDbLine
 10
-690.522781659363
 20
197.5192680456279
 30
0.0
 11
-690.0182151150393
 21
198.2067216869778
 31
0.0
  0
LINE
  5
8D
330
1F
100
AcDbEntity
  8
0
100
AcDbLine
 10
-671.1324032522933
 20
205.93067143247
 30
0.0
 11
-671.8981530450634
 21
206.2622725597311
 31
0.0
  0
LINE
  5
8E
330
1F
100
AcDbEntity
  8
0
100
AcDbLine
 10
-671.8981441598662
 20
169.7497725597327
 30
0.0
 11
-672.5557083184992
 21
170.2772738731354
 31
0.0
  0
LINE
  5
8F
330
1F
100
AcDbEntity
  8
0
100
AcDbLine
 10
-95.66943991298082
 20
174.2843162371192
 30
0.0
 11
-100.1890352582124
 21
174.9063773142525
 31
0.0
  0
LINE
  5
90
330
1F
100
AcDbEntity
  8
0
100
AcDbLine
 10
-672.5557169689988
 20
206.7897736848579
 30
0.0
 11
-673.0602839977342
 21
207.4772270547193
 31
0.0
  0
LINE
  5
91
330
1F
100
AcDbEntity
  8
0
100
AcDbLine
 10
-671.132394367096
 20
169.4181714324718
 30
0.0
 11
-671.8981441598662
 21
169.7497725597327
 31
0.0
  0
LINE
  5
92
330
1F
100
AcDbEntity
  8
0
100
AcDbLine
 10
-107.5581680014177
 20
205.8177052728865
 30
0.0
 11
-104.4006356471557
 21
208.3506963170719
 31
0.0
  0
LINE
  5
93
330
1F
100
AcDbEntity
  8
0
100
AcDbLine
 10
-671.132405800759
 20
215.6624199540786
 30
0.0
 11
-670.3106553600818
 21
215.775523178378
 31
0.0
  0
LINE
  5
94
330
1F
100
AcDbEntity
  8
0
100
AcDbLine
 10
-111.7786231378288
 20
185.9017951549432
 30
0.0
 11
-112.5368020988366
 21
187.8153999950492
 31
0.0
  0
LINE
  5
95
330
1F
100
AcDbEntity
  8
0
100
AcDbLine
 10
-672.5557102685686
 20
178.290816845512
 30
0.0
 11
-671.8981464287519
 21
178.8183184291421
 31
0.0
  0
LINE
  5
96
330
1F
100
AcDbEntity
  8
0
100
AcDbLine
 10
-112.5368020988366
 20
187.8153999950492
 30
0.0
 11
-113.1318192440124
 21
192.5404311892838
 31
0.0
  0
LINE
  5
97
330
1F
100
AcDbEntity
  8
0
100
AcDbLine
 10
-113.1318192440124
 20
192.5404311892838
 30
0.0
 11
-112.5368043984783
 21
197.2654626731089
 31
0.0
  0
LINE
  5
98
330
1F
100
AcDbEntity
  8
0
100
AcDbLine
 10
-112.5368043984783
 20
197.2654626731089
 30
0.0
 11
-111.7786263688098
 21
199.1790678822153
 31
0.0
  0
LINE
  5
99
330
1F
100
AcDbEntity
  8
0
100
AcDbLine
 10
-673.485644859394
 20
172.6243860421178
 30
0.0
 11
-673.4856456671392
 21
175.9437042239358
 31
0.0
  0
LINE
  5
9A
330
1F
100
AcDbEntity
  8
0
100
AcDbLine
 10
-673.377459148802
 20
171.7652833062348
 30
0.0
 11
-673.485644859394
 21
172.6243860421178
 31
0.0
  0
LINE
  5
9B
330
1F
100
AcDbEntity
  8
0
100
AcDbLine
 10
-673.060274917858
 20
170.9647267894782
 30
0.0
 11
-673.377459148802
 21
171.7652833062348
 31
0.0
  0
LINE
  5
9C
330
1F
100
AcDbEntity
  8
0
100
AcDbLine
 10
-673.0602767280275
 20
177.6033634183571
 30
0.0
 11
-672.5557102685686
 21
178.290816845512
 31
0.0
  0
LINE
  5
9D
330
1F
100
AcDbEntity
  8
0
100
AcDbLine
 10
-673.3774604101395
 20
176.8028067307824
 30
0.0
 11
-673.0602767280275
 21
177.6033634183571
 31
0.0
  0
LINE
  5
9E
330
1F
100
AcDbEntity
  8
0
100
AcDbLine
 10
-104.4006356471557
 20
208.3506963170719
 30
0.0
 11
-100.1890438405923
 21
210.1744913634816
 31
0.0
  0
LINE
  5
9F
330
1F
100
AcDbEntity
  8
0
100
AcDbLine
 10
-100.1890438405923
 20
210.1744913634816
 30
0.0
 11
-95.66944879811435
 21
210.7965546402723
 31
0.0
  0
LINE
  5
A0
330
1F
100
AcDbEntity
  8
0
100
AcDbLine
 10
-671.1323968174177
 20
179.1499199675887
 30
0.0
 11
-670.310646333037
 21
179.26302317838
 31
0.0
  0
LINE
  5
A1
330
1F
100
AcDbEntity
  8
0
100
AcDbLine
 10
-104.4006279524043
 20
176.7301703109077
 30
0.0
 11
-107.5581615394561
 21
179.2631598183424
 31
0.0
  0
LINE
  5
A2
330
1F
100
AcDbEntity
  8
0
100
AcDbLine
 10
-671.8981464287519
 20
178.8183184291421
 30
0.0
 11
-671.1323968174177
 21
179.1499199675887
 31
0.0
  0
LINE
  5
A3
330
1F
100
AcDbEntity
  8
0
100
AcDbLine
 10
-107.5581615394561
 20
179.2631598183424
 30
0.0
 11
-108.0172049134337
 21
179.631406748323
 31
0.0
  0
LINE
  5
A4
330
1F
100
AcDbEntity
  8
0
100
AcDbLine
 10
-108.0172049134337
 20
179.631406748323
 30
0.0
 11
-110.7923023980822
 21
183.4123721578088
 31
0.0
  0
LINE
  5
A5
330
1F
100
AcDbEntity
  8
0
100
AcDbLine
 10
-110.7923023980822
 20
183.4123721578088
 30
0.0
 11
-111.7786231378288
 21
185.9017951549432
 31
0.0
  0
LINE
  5
A6
330
1F
100
AcDbEntity
  8
0
100
AcDbLine
 10
-111.7786263688098
 20
199.1790678822153
 30
0.0
 11
-110.792306840649
 21
201.6684913593853
 31
0.0
  0
LINE
  5
A7
330
1F
100
AcDbEntity
  8
0
100
AcDbLine
 10
-110.792306840649
 20
201.6684913593853
 30
0.0
 11
-108.0172111961719
 21
205.4494581194925
 31
0.0
  0
LINE
  5
A8
330
1F
100
AcDbEntity
  8
0
100
AcDbLine
 10
-108.0172111961719
 20
205.4494581194925
 30
0.0
 11
-107.5581680014177
 21
205.8177052728865
 31
0.0
  0
LINE
  5
A9
330
1F
100
AcDbEntity
  8
0
100
AcDbLine
 10
-95.66944879811435
 20
210.7965546402723
 30
0.0
 11
-91.1498534528829
 21
210.1744935631392
 31
0.0
  0
LINE
  5
AA
330
1F
100
AcDbEntity
  8
0
100
AcDbLine
 10
-91.1498534528829
 20
210.1744935631392
 30
0.0
 11
-86.93826075869087
 21
208.3507005664839
 31
0.0
  0
LINE
  5
AB
330
1F
100
AcDbEntity
  8
0
100
AcDbLine
 10
-86.93826075869087
 20
208.3507005664839
 30
0.0
 11
-83.32168379766152
 21
205.4494641290686
 31
0.0
  0
LINE
  5
AC
330
1F
100
AcDbEntity
  8
0
100
AcDbLine
 10
-83.32168379766152
 20
205.4494641290686
 30
0.0
 11
-80.54658631301302
 21
201.6684987195828
 31
0.0
  0
LINE
  5
AD
330
1F
100
AcDbEntity
  8
0
100
AcDbLine
 10
-80.54658631301302
 20
201.6684987195828
 30
0.0
 11
-78.80208661225855
 21
197.2654708823424
 31
0.0
  0
LINE
  5
AE
330
1F
100
AcDbEntity
  8
0
100
AcDbLine
 10
-78.80208661225855
 20
197.2654708823424
 30
0.0
 11
-78.2070694670828
 21
192.5404396881078
 31
0.0
  0
LINE
  5
AF
330
1F
100
AcDbEntity
  8
0
100
AcDbLine
 10
-78.2070694670828
 20
192.5404396881078
 30
0.0
 11
-78.80208431261686
 21
187.8154082042828
 31
0.0
  0
LINE
  5
B0
330
1F
100
AcDbEntity
  8
0
100
AcDbLine
 10
-78.80208431261686
 20
187.8154082042828
 30
0.0
 11
-80.54658187044622
 21
183.4123795180062
 31
0.0
  0
LINE
  5
B1
330
1F
100
AcDbEntity
  8
0
100
AcDbLine
 10
-80.54658187044622
 20
183.4123795180062
 30
0.0
 11
-83.32167751492338
 21
179.6314127578991
 31
0.0
  0
LINE
  5
B2
330
1F
100
AcDbEntity
  8
0
100
AcDbLine
 10
-83.32167751492338
 20
179.6314127578991
 30
0.0
 11
-86.93825306393947
 21
176.7301745603197
 31
0.0
  0
LINE
  5
B3
330
1F
100
AcDbEntity
  8
0
100
AcDbLine
 10
-86.93825306393947
 20
176.7301745603197
 30
0.0
 11
-91.14984487050296
 21
174.90637951391
 31
0.0
  0
LINE
  5
B4
330
1F
100
AcDbEntity
  8
0
100
AcDbLine
 10
-91.14984487050296
 20
174.90637951391
 30
0.0
 11
-95.66943991298082
 21
174.2843162371192
 31
0.0
  0
LINE
  5
B5
330
1F
100
AcDbEntity
  8
0
100
AcDbLine
 10
-14.67315178534014
 20
201.6685833088305
 30
0.0
 11
10.72684664900608
 21
201.6685894898373
 31
0.0
  0
LINE
  5
B6
330
1F
100
AcDbEntity
  8
0
100
AcDbLine
 10
-14.6731489083949
 20
183.4123333088312
 30
0.0
 11
-14.67315178534014
 21
201.6685833088305
 31
0.0
  0
LINE
  5
B7
330
1F
100
AcDbEntity
  8
0
100
AcDbLine
 10
-670.3106529368462
 20
205.8175686329239
 30
0.0
 11
-107.5581680014177
 21
205.8177052728865
 31
0.0
  0
LINE
  5
B8
330
1F
100
AcDbEntity
  8
0
100
AcDbLine
 10
-95.6694387013312
 20
169.3052081659696
 30
0.0
 11
-670.3106440516488
 21
169.3050686329255
 31
0.0
  0
LINE
  5
B9
330
1F
100
AcDbEntity
  8
0
100
AcDbLine
 10
-719.5231584492134
 20
229.0527836259294
 30
0.0
 11
-719.523140678819
 21
156.027783625933
 31
0.0
  0
LINE
  5
BA
330
1F
100
AcDbEntity
  8
0
100
AcDbLine
 10
-719.523140678819
 20
156.027783625933
 30
0.0
 11
4.37685932115687
 21
156.0279597846371
 31
0.0
  0
LINE
  5
BB
330
1F
100
AcDbEntity
  8
0
100
AcDbLine
 10
10.72685265725879
 20
183.4123361375196
 30
0.0
 11
-14.6731489083949
 21
183.4123333088312
 31
0.0
  0
LINE
  5
BC
330
1F
100
AcDbEntity
  8
0
100
AcDbLine
 10
10.72684664900608
 20
201.6685894898373
 30
0.0
 11
10.72684309629969
 21
222.7017872520352
 31
0.0
  0
LINE
  5
BD
330
1F
100
AcDbEntity
  8
0
100
AcDbLine
 10
-673.4856545523364
 20
212.4562042239341
 30
0.0
 11
-673.4856537046898
 21
209.1368857252588
 31
0.0
  0
LINE
  5
BE
330
1F
100
AcDbEntity
  8
0
100
AcDbLine
 10
-95.66945000976398
 20
215.7756627114219
 30
0.0
 11
-670.3106553600818
 21
215.775523178378
 31
0.0
  0
LINE
  5
BF
330
1F
100
AcDbEntity
  8
0
100
AcDbLine
 10
-95.66944879811435
 20
210.7965546402723
 30
0.0
 11
-95.66945000976398
 21
215.7756627114219
 31
0.0
  0
LINE
  5
C0
330
1F
100
AcDbEntity
  8
0
100
AcDbLine
 10
-95.66943991298082
 20
174.2843162371192
 30
0.0
 11
-95.6694387013312
 21
169.3052081659696
 31
0.0
  0
LINE
  5
C1
330
1F
100
AcDbEntity
  8
0
100
AcDbLine
 10
10.51048717256935
 20
160.7353305449768
 30
0.0
 11
9.876119862419118
 21
159.2035481617895
 31
0.0
  0
LINE
  5
C2
330
1F
100
AcDbEntity
  8
0
100
AcDbLine
 10
10.72685777561924
 20
162.3791354077391
 30
0.0
 11
10.51048717256935
 21
160.7353305449768
 31
0.0
  0
LINE
  5
C3
330
1F
100
AcDbEntity
  8
0
100
AcDbLine
 10
7.551859114093995
 20
156.8788565398377
 30
0.0
 11
6.020360204894929
 21
156.2443711933747
 31
0.0
  0
LINE
  5
C4
330
1F
100
AcDbEntity
  8
0
100
AcDbLine
 10
9.876119862419118
 20
159.2035481617895
 30
0.0
 11
8.866986929013859
 21
157.8881766962012
 31
0.0
  0
LINE
  5
C5
330
1F
100
AcDbEntity
  8
0
100
AcDbLine
 10
6.020360204894929
 20
156.2443711933747
 30
0.0
 11
4.37685932115687
 21
156.0279597846371
 31
0.0
  0
LINE
  5
C6
330
1F
100
AcDbEntity
  8
0
100
AcDbLine
 10
8.866986929013859
 20
157.8881766962012
 30
0.0
 11
7.551859114093995
 21
156.8788565398377
 31
0.0
  0
LINE
  5
C7
330
1F
100
AcDbEntity
  8
0
100
AcDbLine
 10
10.72685777561924
 20
162.3791354077391
 30
0.0
 11
10.72685265725879
 21
183.4123361375196
 31
0.0
  0
LINE
  5
C8
330
1F
100
AcDbEntity
  8
0
100
AcDbLine
 10
4.376841550762506
 20
229.0529597846336
 30
0.0
 11
6.020342539826358
 21
228.8365491757771
 31
0.0
  0
LINE
  5
C9
330
1F
100
AcDbEntity
  8
0
100
AcDbLine
 10
6.020342539826358
 20
228.8365491757771
 30
0.0
 11
7.5518417578252
 21
228.2020645746848
 31
0.0
  0
LINE
  5
CA
330
1F
100
AcDbEntity
  8
0
100
AcDbLine
 10
7.5518417578252
 20
228.2020645746848
 30
0.0
 11
8.866970063974382
 21
227.1927450583855
 31
0.0
  0
LINE
  5
CB
330
1F
100
AcDbEntity
  8
0
100
AcDbLine
 10
8.866970063974382
 20
227.1927450583855
 30
0.0
 11
9.876103637562206
 21
225.8773740839358
 31
0.0
  0
LINE
  5
CC
330
1F
100
AcDbEntity
  8
0
100
AcDbLine
 10
9.876103637562206
 20
225.8773740839358
 30
0.0
 11
10.5104716932208
 21
224.3455920094911
 31
0.0
  0
LINE
  5
CD
330
1F
100
AcDbEntity
  8
0
100
AcDbLine
 10
10.5104716932208
 20
224.3455920094911
 30
0.0
 11
10.72684309629969
 21
222.7017872520352
 31
0.0
  0
LINE
  5
CE
330
1F
100
AcDbEntity
  8
0
100
AcDbLine
 10
4.376841550762506
 20
229.0529597846336
 30
0.0
 11
-719.5231584492134
 21
229.0527836259294
 31
0.0
  0
LINE
  5
CF
330
1F
100
AcDbEntity
  8
0
100
AcDbLine
 10
-787.3731869973498
 20
280.7187077544863
 30
0.0
 11
-787.3731789321091
 21
327.1891461693184
 31
0.0
  0
LINE
  5
D0
330
1F
100
AcDbEntity
  8
0
100
AcDbLine
 10
-787.5895475157052
 20
328.9073497545585
 30
0.0
 11
-787.3731789321091
 21
327.1891461693184
 31
0.0
  0
LINE
  5
D1
330
1F
100
AcDbEntity
  8
0
100
AcDbLine
 10
-787.3731869973498
 20
280.7187077544863
 30
0.0
 11
-787.5895568724844
 21
279.0004996411671
 31
0.0
  0
LINE
  5
D2
330
1F
100
AcDbEntity
  8
0
100
AcDbLine
 10
-793.7231789402862
 20
333.8277825237761
 30
0.0
 11
-877.8606772061215
 21
333.8277843291741
 31
0.0
  0
LINE
  5
D3
330
1F
100
AcDbEntity
  8
0
100
AcDbLine
 10
-877.8606772061215
 20
333.8277843291741
 30
0.0
 11
-890.5606771897683
 21
320.5505115889738
 31
0.0
  0
LINE
  5
D4
330
1F
100
AcDbEntity
  8
0
100
AcDbLine
 10
-793.7231789402862
 20
333.8277825237761
 30
0.0
 11
-792.0796755820215
 21
333.6015745386271
 31
0.0
  0
LINE
  5
D5
330
1F
100
AcDbEntity
  8
0
100
AcDbLine
 10
-1244.573176615687
 20
327.189143667624
 30
0.0
 11
-1244.356805614739
 21
328.9073491919584
 31
0.0
  0
LINE
  5
D6
330
1F
100
AcDbEntity
  8
0
100
AcDbLine
 10
-1244.573176408571
 20
280.7186925003629
 30
0.0
 11
-1244.573176615687
 21
327.189143667624
 31
0.0
  0
LINE
  5
D7
330
1F
100
AcDbEntity
  8
0
100
AcDbLine
 10
-1244.356805614739
 20
328.9073491919584
 30
0.0
 11
-1243.722437933806
 21
330.5084618498113
 31
0.0
  0
LINE
  5
D8
330
1F
100
AcDbEntity
  8
0
100
AcDbLine
 10
-890.5606771897683
 20
320.5505115889738
 30
0.0
 11
-1141.385675632714
 21
320.5505112800325
 31
0.0
  0
LINE
  5
D9
330
1F
100
AcDbEntity
  8
0
100
AcDbLine
 10
-877.8606755754781
 20
274.0800674897386
 30
0.0
 11
-793.7231869891726
 21
274.0800713843861
 31
0.0
  0
LINE
  5
DA
330
1F
100
AcDbEntity
  8
0
100
AcDbLine
 10
-890.5606763818479
 20
260.8027943230358
 30
0.0
 11
-877.8606755754781
 21
274.0800674897386
 31
0.0
  0
LINE
  5
DB
330
1F
100
AcDbEntity
  8
0
100
AcDbLine
 10
-1154.085673875865
 20
274.0800578752536
 30
0.0
 11
-1141.385677068496
 21
260.8027889476888
 31
0.0
  0
LINE
  5
DC
330
1F
100
AcDbEntity
  8
0
100
AcDbLine
 10
-1238.223178165665
 20
274.0800588733411
 30
0.0
 11
-1154.085673875865
 21
274.0800578752536
 31
0.0
  0
LINE
  5
DD
330
1F
100
AcDbEntity
  8
0
100
AcDbLine
 10
-1244.35680540339
 20
279.0004869765614
 30
0.0
 11
-1244.573176408571
 21
280.7186925003629
 31
0.0
  0
LINE
  5
DE
330
1F
100
AcDbEntity
  8
0
100
AcDbLine
 10
-1243.722437933806
 20
330.5084618498113
 30
0.0
 11
-1242.713304682003
 21
331.8833684595137
 31
0.0
  0
LINE
  5
DF
330
1F
100
AcDbEntity
  8
0
100
AcDbLine
 10
-1239.866677559986
 20
333.6015739870879
 30
0.0
 11
-1238.223176623864
 21
333.8277800377242
 31
0.0
  0
LINE
  5
E0
330
1F
100
AcDbEntity
  8
0
100
AcDbLine
 10
-1241.398176622768
 20
332.9383714077553
 30
0.0
 11
-1239.866677559986
 21
333.6015739870879
 31
0.0
  0
LINE
  5
E1
330
1F
100
AcDbEntity
  8
0
100
AcDbLine
 10
-1238.223176623864
 20
333.8277800377242
 30
0.0
 11
-1154.085675649068
 21
333.8277801413562
 31
0.0
  0
LINE
  5
E2
330
1F
100
AcDbEntity
  8
0
100
AcDbLine
 10
-1242.713304682003
 20
331.8833684595137
 30
0.0
 11
-1241.398176622768
 21
332.9383714077553
 31
0.0
  0
LINE
  5
E3
330
1F
100
AcDbEntity
  8
0
100
AcDbLine
 10
-1154.085675649068
 20
333.8277801413562
 30
0.0
 11
-1141.385675632714
 21
320.5505112800325
 31
0.0
  0
LINE
  5
E4
330
1F
100
AcDbEntity
  8
0
100
AcDbLine
 10
-1241.39817640149
 20
274.9694647680528
 30
0.0
 11
-1242.713304463324
 21
276.0244677130546
 31
0.0
  0
LINE
  5
E5
330
1F
100
AcDbEntity
  8
0
100
AcDbLine
 10
-1239.866677337074
 20
274.3062621924929
 30
0.0
 11
-1241.39817640149
 21
274.9694647680528
 31
0.0
  0
LINE
  5
E6
330
1F
100
AcDbEntity
  8
0
100
AcDbLine
 10
-1242.713304463324
 20
276.0244677130546
 30
0.0
 11
-1243.722437718514
 21
277.3993743202712
 31
0.0
  0
LINE
  5
E7
330
1F
100
AcDbEntity
  8
0
100
AcDbLine
 10
-1238.223178165665
 20
274.0800588733411
 30
0.0
 11
-1239.866677337074
 21
274.3062621924929
 31
0.0
  0
LINE
  5
E8
330
1F
100
AcDbEntity
  8
0
100
AcDbLine
 10
-1243.722437718514
 20
277.3993743202712
 30
0.0
 11
-1244.35680540339
 21
279.0004869765614
 31
0.0
  0
LINE
  5
E9
330
1F
100
AcDbEntity
  8
0
100
AcDbLine
 10
-787.5895568724844
 20
279.0004996411671
 30
0.0
 11
-788.2239245534169
 21
277.3993869833142
 31
0.0
  0
LINE
  5
EA
330
1F
100
AcDbEntity
  8
0
100
AcDbLine
 10
-788.2239152005816
 20
330.5084624108487
 30
0.0
 11
-787.5895475157052
 21
328.9073497545585
 31
0.0
  0
LINE
  5
EB
330
1F
100
AcDbEntity
  8
0
100
AcDbLine
 10
-789.2330578052198
 20
276.0244803736117
 30
0.0
 11
-790.5481858644556
 21
274.9694774253702
 31
0.0
  0
LINE
  5
EC
330
1F
100
AcDbEntity
  8
0
100
AcDbLine
 10
-788.2239245534169
 20
277.3993869833142
 30
0.0
 11
-789.2330578052198
 21
276.0244803736117
 31
0.0
  0
LINE
  5
ED
330
1F
100
AcDbEntity
  8
0
100
AcDbLine
 10
-790.5481858644556
 20
274.9694774253702
 30
0.0
 11
-792.0796849272378
 21
274.3062748460376
 31
0.0
  0
LINE
  5
EE
330
1F
100
AcDbEntity
  8
0
100
AcDbLine
 10
-792.0796849272378
 20
274.3062748460376
 30
0.0
 11
-793.7231869891726
 21
274.0800713843861
 31
0.0
  0
LINE
  5
EF
330
1F
100
AcDbEntity
  8
0
100
AcDbLine
 10
-792.0796755820215
 20
333.6015745386271
 30
0.0
 11
-790.5481765176056
 21
332.9383719630671
 31
0.0
  0
LINE
  5
F0
330
1F
100
AcDbEntity
  8
0
100
AcDbLine
 10
-790.5481765176056
 20
332.9383719630671
 30
0.0
 11
-789.2330484557716
 21
331.8833690180654
 31
0.0
  0
LINE
  5
F1
330
1F
100
AcDbEntity
  8
0
100
AcDbLine
 10
-789.2330484557716
 20
331.8833690180654
 30
0.0
 11
-788.2239152005816
 21
330.5084624108487
 31
0.0
  0
LINE
  5
F2
330
1F
100
AcDbEntity
  8
0
100
AcDbLine
 10
-1141.385677068496
 20
260.8027889476888
 30
0.0
 11
-890.5606763818479
 21
260.8027943230358
 31
0.0
  0
LINE
  5
F3
330
1F
100
AcDbEntity
  8
0
100
AcDbLine
 10
153.0855229572881
 20
182.58233470946
 30
0.0
 11
170.5480229112869
 21
182.5823346433334
 31
0.0
  0
LINE
  5
F4
330
1F
100
AcDbEntity
  8
0
100
AcDbLine
 10
170.5480229112869
 20
182.5823346433334
 30
0.0
 11
170.5480230306777
 21
156.0277836172
 31
0.0
  0
LINE
  5
F5
330
1F
100
AcDbEntity
  8
0
100
AcDbLine
 10
691.2480212264536
 20
182.5823346433336
 30
0.0
 11
708.7105237214715
 21
182.5823347094615
 31
0.0
  0
LINE
  5
F6
330
1F
100
AcDbEntity
  8
0
100
AcDbLine
 10
708.7105237214715
 20
182.5823347094615
 30
0.0
 11
708.7105211194682
 21
156.0277836171999
 31
0.0
  0
LINE
  5
F7
330
1F
100
AcDbEntity
  8
0
100
AcDbLine
 10
779.9316501773878
 20
224.1323518475828
 30
0.0
 11
780.1480211804522
 21
222.4141459583765
 31
0.0
  0
LINE
  5
F8
330
1F
100
AcDbEntity
  8
0
100
AcDbLine
 10
779.2972824944835
 20
225.7334648449091
 30
0.0
 11
779.9316501773878
 21
224.1323518475828
 31
0.0
  0
LINE
  5
F9
330
1F
100
AcDbEntity
  8
0
100
AcDbLine
 10
778.288149240987
 20
227.108371745552
 30
0.0
 11
779.2972824944835
 21
225.7334648449091
 31
0.0
  0
LINE
  5
FA
330
1F
100
AcDbEntity
  8
0
100
AcDbLine
 10
776.9730211804523
 20
228.1633749163738
 30
0.0
 11
778.288149240987
 21
227.108371745552
 31
0.0
  0
LINE
  5
FB
330
1F
100
AcDbEntity
  8
0
100
AcDbLine
 10
775.4415221168533
 20
228.8265776347582
 30
0.0
 11
776.9730211804523
 21
228.1633749163738
 31
0.0
  0
LINE
  5
FC
330
1F
100
AcDbEntity
  8
0
100
AcDbLine
 10
773.7980211804523
 20
229.0527837314416
 30
0.0
 11
775.4415221168533
 21
228.8265776347582
 31
0.0
  0
LINE
  5
FD
330
1F
100
AcDbEntity
  8
0
100
AcDbLine
 10
561.8947717420771
 20
182.695436404309
 30
0.0
 11
562.6605212738765
 21
183.0270377635012
 31
0.0
  0
LINE
  5
FE
330
1F
100
AcDbEntity
  8
0
100
AcDbLine
 10
299.1355228963631
 20
183.0270389831328
 30
0.0
 11
299.9012724281625
 21
182.6954376239406
 31
0.0
  0
LINE
  5
FF
330
1F
100
AcDbEntity
  8
0
100
AcDbLine
 10
561.0730212738765
 20
182.5823333559674
 30
0.0
 11
561.8947717420771
 21
182.695436404309
 31
0.0
  0
LINE
  5
100
330
1F
100
AcDbEntity
  8
0
100
AcDbLine
 10
561.0730213355263
 20
204.711126607109
 30
0.0
 11
586.4730212264535
 21
204.7111264881206
 31
0.0
  0
LINE
  5
101
330
1F
100
AcDbEntity
  8
0
100
AcDbLine
 10
273.0779588810196
 20
194.618937313103
 30
0.0
 11
273.7355229112869
 21
194.091435727692
 31
0.0
  0
LINE
  5
102
330
1F
100
AcDbEntity
  8
0
100
AcDbLine
 10
564.1398357723443
 20
185.0425492978968
 30
0.0
 11
564.2480212738765
 21
185.9016522424999
 31
0.0
  0
LINE
  5
103
330
1F
100
AcDbEntity
  8
0
100
AcDbLine
 10
409.369683159894
 20
204.7111273177761
 30
0.0
 11
409.4303205335946
 21
205.1926497543453
 31
0.0
  0
LINE
  5
104
330
1F
100
AcDbEntity
  8
0
100
AcDbLine
 10
452.4263608259064
 20
193.6467304905026
 30
0.0
 11
452.3657235121436
 21
193.1652085299017
 31
0.0
  0
LINE
  5
105
330
1F
100
AcDbEntity
  8
0
100
AcDbLine
 10
297.9733921199566
 20
214.1158650090451
 30
0.0
 11
297.6562082785044
 21
213.3153085103819
 31
0.0
  0
LINE
  5
106
330
1F
100
AcDbEntity
  8
0
100
AcDbLine
 10
299.9012723087717
 20
215.6624214039697
 30
0.0
 11
299.1355227769722
 21
215.3308200447775
 31
0.0
  0
LINE
  5
107
330
1F
100
AcDbEntity
  8
0
100
AcDbLine
 10
430.8980220228692
 20
175.9436969363958
 30
0.0
 11
425.1457687454655
 21
176.7354182747876
 31
0.0
  0
LINE
  5
108
330
1F
100
AcDbEntity
  8
0
100
AcDbLine
 10
419.7855220228691
 20
179.056627789133
 30
0.0
 11
415.390506586053
 21
182.5823340384294
 31
0.0
  0
LINE
  5
109
330
1F
100
AcDbEntity
  8
0
100
AcDbLine
 10
409.4303205335946
 20
193.1652085299017
 30
0.0
 11
409.3696831944317
 21
193.6467306922053
 31
0.0
  0
LINE
  5
10A
330
1F
100
AcDbEntity
  8
0
100
AcDbLine
 10
272.1480229112869
 20
196.9660502066907
 30
0.0
 11
272.2562084128191
 21
196.1069472620876
 31
0.0
  0
LINE
  5
10B
330
1F
100
AcDbEntity
  8
0
100
AcDbLine
 10
274.5012724430865
 20
193.7598343684999
 30
0.0
 11
275.323022911287
 21
193.6467313201582
 31
0.0
  0
LINE
  5
10C
330
1F
100
AcDbEntity
  8
0
100
AcDbLine
 10
452.3657235121436
 20
193.1652085299017
 30
0.0
 11
450.1454366219783
 21
187.5613130392597
 31
0.0
  0
LINE
  5
10D
330
1F
100
AcDbEntity
  8
0
100
AcDbLine
 10
446.6134702347401
 20
182.7491388870094
 30
0.0
 11
446.4055372785689
 21
182.5823338931369
 31
0.0
  0
LINE
  5
10E
330
1F
100
AcDbEntity
  8
0
100
AcDbLine
 10
411.65060742376
 20
187.5613130392597
 30
0.0
 11
409.4303205335946
 21
193.1652085299017
 31
0.0
  0
LINE
  5
10F
330
1F
100
AcDbEntity
  8
0
100
AcDbLine
 10
436.6502753002726
 20
176.7354182747876
 30
0.0
 11
430.8980220228692
 21
175.9436969363958
 31
0.0
  0
LINE
  5
110
330
1F
100
AcDbEntity
  8
0
100
AcDbLine
 10
446.6134702347401
 20
215.6087193972376
 30
0.0
 11
450.1454366219783
 21
210.7965452449873
 31
0.0
  0
LINE
  5
111
330
1F
100
AcDbEntity
  8
0
100
AcDbLine
 10
415.1825738109981
 20
215.6087193972376
 30
0.0
 11
415.390506173845
 21
215.7755239151418
 31
0.0
  0
LINE
  5
112
330
1F
100
AcDbEntity
  8
0
100
AcDbLine
 10
446.4055380530097
 20
215.7755237698493
 30
0.0
 11
561.0730213687223
 21
215.7755232326798
 31
0.0
  0
LINE
  5
113
330
1F
100
AcDbEntity
  8
0
100
AcDbLine
 10
564.2480213544954
 20
212.4562043312737
 30
0.0
 11
564.1398358566454
 21
213.3153072763836
 31
0.0
  0
LINE
  5
114
330
1F
100
AcDbEntity
  8
0
100
AcDbLine
 10
562.6605212861973
 20
193.2020255665674
 30
0.0
 11
561.8947717558191
 21
193.5336269293468
 31
0.0
  0
LINE
  5
115
330
1F
100
AcDbEntity
  8
0
100
AcDbLine
 10
564.1398358566454
 20
213.3153072763836
 30
0.0
 11
563.8226520186245
 21
214.1158637765326
 31
0.0
  0
LINE
  5
116
330
1F
100
AcDbEntity
  8
0
100
AcDbLine
 10
425.1457687454655
 20
176.7354182747876
 30
0.0
 11
419.7855220228691
 21
179.056627789133
 31
0.0
  0
LINE
  5
117
330
1F
100
AcDbEntity
  8
0
100
AcDbLine
 10
563.3180853948227
 20
214.8033172292178
 30
0.0
 11
562.6605213668163
 21
215.3308188177091
 31
0.0
  0
LINE
  5
118
330
1F
100
AcDbEntity
  8
0
100
AcDbLine
 10
564.2480212738765
 20
190.327411080132
 30
0.0
 11
564.2480212738765
 21
185.9016522424999
 31
0.0
  0
LINE
  5
119
330
1F
100
AcDbEntity
  8
0
100
AcDbLine
 10
430.8980220228692
 20
222.4141613478511
 30
0.0
 11
436.6502753002726
 21
221.6224400094594
 31
0.0
  0
LINE
  5
11A
330
1F
100
AcDbEntity
  8
0
100
AcDbLine
 10
563.8226520186245
 20
214.1158637765326
 30
0.0
 11
563.3180853948227
 21
214.8033172292178
 31
0.0
  0
LINE
  5
11B
330
1F
100
AcDbEntity
  8
0
100
AcDbLine
 10
561.894771836438
 20
215.6624201804885
 30
0.0
 11
561.0730213687223
 21
215.7755232326798
 31
0.0
  0
LINE
  5
11C
330
1F
100
AcDbEntity
  8
0
100
AcDbLine
 10
563.3180853142037
 20
192.6745239780761
 30
0.0
 11
562.6605212861973
 21
193.2020255665674
 31
0.0
  0
LINE
  5
11D
330
1F
100
AcDbEntity
  8
0
100
AcDbLine
 10
562.6605212738765
 20
183.0270377635012
 30
0.0
 11
563.3180853041438
 21
183.5545393489121
 31
0.0
  0
LINE
  5
11E
330
1F
100
AcDbEntity
  8
0
100
AcDbLine
 10
561.8947717558191
 20
193.5336269293468
 30
0.0
 11
561.0730212881034
 21
193.646729981538
 31
0.0
  0
LINE
  5
11F
330
1F
100
AcDbEntity
  8
0
100
AcDbLine
 10
300.7230228963631
 20
182.582334575599
 30
0.0
 11
415.390506586053
 21
182.5823340384294
 31
0.0
  0
LINE
  5
120
330
1F
100
AcDbEntity
  8
0
100
AcDbLine
 10
411.65060742376
 20
210.7965452449873
 30
0.0
 11
415.1825738109981
 21
215.6087193972376
 31
0.0
  0
LINE
  5
121
330
1F
100
AcDbEntity
  8
0
100
AcDbLine
 10
409.4303205335946
 20
205.1926497543453
 30
0.0
 11
411.65060742376
 21
210.7965452449873
 31
0.0
  0
LINE
  5
122
330
1F
100
AcDbEntity
  8
0
100
AcDbLine
 10
299.9012724281625
 20
182.6954376239406
 30
0.0
 11
300.7230228963631
 21
182.582334575599
 31
0.0
  0
LINE
  5
123
330
1F
100
AcDbEntity
  8
0
100
AcDbLine
 10
588.7180852567207
 20
194.6189358554945
 30
0.0
 11
589.222651883469
 21
195.3063893058159
 31
0.0
  0
LINE
  5
124
330
1F
100
AcDbEntity
  8
0
100
AcDbLine
 10
563.822651930892
 20
184.2419927992336
 30
0.0
 11
564.1398357723443
 21
185.0425492978968
 31
0.0
  0
LINE
  5
125
330
1F
100
AcDbEntity
  8
0
100
AcDbLine
 10
446.4055380530097
 20
215.7755237698493
 30
0.0
 11
446.6134702347401
 21
215.6087193972376
 31
0.0
  0
LINE
  5
126
330
1F
100
AcDbEntity
  8
0
100
AcDbLine
 10
450.1454366219783
 20
210.7965452449873
 30
0.0
 11
452.3657235121436
 21
205.1926497543453
 31
0.0
  0
LINE
  5
127
330
1F
100
AcDbEntity
  8
0
100
AcDbLine
 10
442.0105220228692
 20
219.301230495114
 30
0.0
 11
446.4055380530097
 21
215.7755237698493
 31
0.0
  0
LINE
  5
128
330
1F
100
AcDbEntity
  8
0
100
AcDbLine
 10
298.4779588660958
 20
183.5545405685437
 30
0.0
 11
299.1355228963631
 21
183.0270389831328
 31
0.0
  0
LINE
  5
129
330
1F
100
AcDbEntity
  8
0
100
AcDbLine
 10
452.3657235121436
 20
205.1926497543453
 30
0.0
 11
452.4263609112444
 21
204.7111271160735
 31
0.0
  0
LINE
  5
12A
330
1F
100
AcDbEntity
  8
0
100
AcDbLine
 10
408.6730220228692
 20
199.1789291421235
 30
0.0
 11
409.369683159894
 21
204.7111273177761
 31
0.0
  0
LINE
  5
12B
330
1F
100
AcDbEntity
  8
0
100
AcDbLine
 10
415.1825738109981
 20
182.7491388870094
 30
0.0
 11
411.65060742376
 21
187.5613130392597
 31
0.0
  0
LINE
  5
12C
330
1F
100
AcDbEntity
  8
0
100
AcDbLine
 10
436.6502753002726
 20
221.6224400094594
 30
0.0
 11
442.0105220228692
 21
219.301230495114
 31
0.0
  0
LINE
  5
12D
330
1F
100
AcDbEntity
  8
0
100
AcDbLine
 10
450.1454366219783
 20
187.5613130392597
 30
0.0
 11
446.6134702347401
 21
182.7491388870094
 31
0.0
  0
LINE
  5
12E
330
1F
100
AcDbEntity
  8
0
100
AcDbLine
 10
297.9733922393474
 20
184.2419940188652
 30
0.0
 11
298.4779588660958
 21
183.5545405685437
 31
0.0
  0
LINE
  5
12F
330
1F
100
AcDbEntity
  8
0
100
AcDbLine
 10
587.294771694654
 20
193.7598329108914
 30
0.0
 11
588.0605212264534
 21
194.0914342700835
 31
0.0
  0
LINE
  5
130
330
1F
100
AcDbEntity
  8
0
100
AcDbLine
 10
272.2562084128191
 20
196.1069472620876
 30
0.0
 11
272.5733922542713
 21
195.3063907634245
 31
0.0
  0
LINE
  5
131
330
1F
100
AcDbEntity
  8
0
100
AcDbLine
 10
272.5733922542713
 20
195.3063907634245
 30
0.0
 11
273.0779588810196
 21
194.618937313103
 31
0.0
  0
LINE
  5
132
330
1F
100
AcDbEntity
  8
0
100
AcDbLine
 10
273.7355229112869
 20
194.091435727692
 30
0.0
 11
274.5012724430865
 21
193.7598343684999
 31
0.0
  0
LINE
  5
133
330
1F
100
AcDbEntity
  8
0
100
AcDbLine
 10
415.390506586053
 20
182.5823340384294
 30
0.0
 11
415.1825738109981
 21
182.7491388870094
 31
0.0
  0
LINE
  5
134
330
1F
100
AcDbEntity
  8
0
100
AcDbLine
 10
297.5480227968707
 20
208.030446697671
 30
0.0
 11
297.6562083022654
 21
207.1713437535994
 31
0.0
  0
LINE
  5
135
330
1F
100
AcDbEntity
  8
0
100
AcDbLine
 10
300.7230228764646
 20
193.6467312011698
 30
0.0
 11
299.901272408264
 21
193.533628152828
 31
0.0
  0
LINE
  5
136
330
1F
100
AcDbEntity
  8
0
100
AcDbLine
 10
274.5012724430865
 20
204.5980248973874
 30
0.0
 11
273.7355229112869
 21
204.2664235381952
 31
0.0
  0
LINE
  5
137
330
1F
100
AcDbEntity
  8
0
100
AcDbLine
 10
299.9012723430855
 20
204.8242308710442
 30
0.0
 11
300.7230228117945
 21
204.7111278267406
 31
0.0
  0
LINE
  5
138
330
1F
100
AcDbEntity
  8
0
100
AcDbLine
 10
275.323022911287
 20
204.7111279457291
 30
0.0
 11
300.7230228117945
 21
204.7111278267406
 31
0.0
  0
LINE
  5
139
330
1F
100
AcDbEntity
  8
0
100
AcDbLine
 10
298.4779588461973
 20
192.674525208225
 30
0.0
 11
297.973392219449
 21
191.9870717579035
 31
0.0
  0
LINE
  5
13A
330
1F
100
AcDbEntity
  8
0
100
AcDbLine
 10
272.1480229112869
 20
201.3918090591966
 30
0.0
 11
272.1480229112869
 21
196.9660502066907
 31
0.0
  0
LINE
  5
13B
330
1F
100
AcDbEntity
  8
0
100
AcDbLine
 10
299.1355228097951
 20
205.1558322264734
 30
0.0
 11
299.9012723430855
 21
204.8242308710442
 31
0.0
  0
LINE
  5
13C
330
1F
100
AcDbEntity
  8
0
100
AcDbLine
 10
561.8947718037267
 20
204.8242296554507
 30
0.0
 11
562.6605213355263
 21
205.1558310146429
 31
0.0
  0
LINE
  5
13D
330
1F
100
AcDbEntity
  8
0
100
AcDbLine
 10
299.901272408264
 20
193.533628152828
 30
0.0
 11
299.1355228764646
 21
193.2020267936359
 31
0.0
  0
LINE
  5
13E
330
1F
100
AcDbEntity
  8
0
100
AcDbLine
 10
297.6562083779968
 20
191.1865152592403
 30
0.0
 11
297.5480228764646
 21
190.3274123146372
 31
0.0
  0
LINE
  5
13F
330
1F
100
AcDbEntity
  8
0
100
AcDbLine
 10
299.1355228764646
 20
193.2020267936359
 30
0.0
 11
298.4779588461973
 21
192.674525208225
 31
0.0
  0
LINE
  5
140
330
1F
100
AcDbEntity
  8
0
100
AcDbLine
 10
300.7230228764646
 20
193.6467312011698
 30
0.0
 11
409.3696831944317
 21
193.6467306922053
 31
0.0
  0
LINE
  5
141
330
1F
100
AcDbEntity
  8
0
100
AcDbLine
 10
297.973392147317
 20
206.370787256495
 30
0.0
 11
298.4779587771562
 21
205.683333808653
 31
0.0
  0
LINE
  5
142
330
1F
100
AcDbEntity
  8
0
100
AcDbLine
 10
297.5480228764646
 20
190.3274123146372
 30
0.0
 11
297.548022896363
 21
185.9016534621315
 31
0.0
  0
LINE
  5
143
330
1F
100
AcDbEntity
  8
0
100
AcDbLine
 10
588.0605205293366
 20
204.2664222758692
 30
0.0
 11
587.2947713337996
 21
204.5980234894457
 31
0.0
  0
LINE
  5
144
330
1F
100
AcDbEntity
  8
0
100
AcDbLine
 10
273.7355229112869
 20
204.2664235381952
 30
0.0
 11
273.0779588810196
 21
203.7389219527843
 31
0.0
  0
LINE
  5
145
330
1F
100
AcDbEntity
  8
0
100
AcDbLine
 10
589.6480198322196
 20
201.3918090591966
 30
0.0
 11
589.6480212264534
 21
196.966048749082
 31
0.0
  0
LINE
  5
146
330
1F
100
AcDbEntity
  8
0
100
AcDbLine
 10
563.8226519925419
 20
206.3707860503752
 30
0.0
 11
564.139835833994
 21
207.1713425490384
 31
0.0
  0
LINE
  5
147
330
1F
100
AcDbEntity
  8
0
100
AcDbLine
 10
589.6480198322196
 20
201.3918090591966
 30
0.0
 11
589.5398343781948
 21
202.2509116265428
 31
0.0
  0
LINE
  5
148
330
1F
100
AcDbEntity
  8
0
100
AcDbLine
 10
564.139835833994
 20
207.1713425490384
 30
0.0
 11
564.2480213355262
 21
208.0304454936415
 31
0.0
  0
LINE
  5
149
330
1F
100
AcDbEntity
  8
0
100
AcDbLine
 10
589.5398343781948
 20
202.2509116265428
 30
0.0
 11
589.2226506760271
 21
203.0514677736585
 31
0.0
  0
LINE
  5
14A
330
1F
100
AcDbEntity
  8
0
100
AcDbLine
 10
588.7180842708485
 20
203.7389209220994
 30
0.0
 11
588.0605205293366
 21
204.2664222758692
 31
0.0
  0
LINE
  5
14B
330
1F
100
AcDbEntity
  8
0
100
AcDbLine
 10
589.2226506760271
 20
203.0514677736585
 30
0.0
 11
588.7180842708485
 21
203.7389209220994
 31
0.0
  0
LINE
  5
14C
330
1F
100
AcDbEntity
  8
0
100
AcDbLine
 10
587.2947713337996
 20
204.5980234894457
 30
0.0
 11
586.4730212264535
 21
204.7111264881206
 31
0.0
  0
LINE
  5
14D
330
1F
100
AcDbEntity
  8
0
100
AcDbLine
 10
272.5733922542713
 20
203.0514685024628
 30
0.0
 11
272.2562084128191
 21
202.2509120037996
 31
0.0
  0
LINE
  5
14E
330
1F
100
AcDbEntity
  8
0
100
AcDbLine
 10
272.2562084128191
 20
202.2509120037996
 30
0.0
 11
272.1480229112869
 21
201.3918090591966
 31
0.0
  0
LINE
  5
14F
330
1F
100
AcDbEntity
  8
0
100
AcDbLine
 10
275.323022911287
 20
204.7111279457291
 30
0.0
 11
274.5012724430865
 21
204.5980248973874
 31
0.0
  0
LINE
  5
150
330
1F
100
AcDbEntity
  8
0
100
AcDbLine
 10
563.3180853657935
 20
205.6833326000538
 30
0.0
 11
563.8226519925419
 21
206.3707860503752
 31
0.0
  0
LINE
  5
151
330
1F
100
AcDbEntity
  8
0
100
AcDbLine
 10
419.7855220228691
 20
219.301230495114
 30
0.0
 11
425.1457687454655
 21
221.6224400094594
 31
0.0
  0
LINE
  5
152
330
1F
100
AcDbEntity
  8
0
100
AcDbLine
 10
273.0779588810196
 20
203.7389219527843
 30
0.0
 11
272.5733922542713
 21
203.0514685024628
 31
0.0
  0
LINE
  5
153
330
1F
100
AcDbEntity
  8
0
100
AcDbLine
 10
446.4055372785689
 20
182.5823338931369
 30
0.0
 11
561.0730212738765
 21
182.5823333559674
 31
0.0
  0
LINE
  5
154
330
1F
100
AcDbEntity
  8
0
100
AcDbLine
 10
564.1398357760265
 20
191.1865140252418
 30
0.0
 11
563.8226519380056
 21
191.9870705253909
 31
0.0
  0
LINE
  5
155
330
1F
100
AcDbEntity
  8
0
100
AcDbLine
 10
564.2480212738765
 20
190.327411080132
 30
0.0
 11
564.1398357760265
 21
191.1865140252418
 31
0.0
  0
LINE
  5
156
330
1F
100
AcDbEntity
  8
0
100
AcDbLine
 10
452.4263608259064
 20
193.6467304905026
 30
0.0
 11
561.0730212881034
 21
193.646729981538
 31
0.0
  0
LINE
  5
157
330
1F
100
AcDbEntity
  8
0
100
AcDbLine
 10
442.0105220228692
 20
179.056627789133
 30
0.0
 11
436.6502753002726
 21
176.7354182747876
 31
0.0
  0
LINE
  5
158
330
1F
100
AcDbEntity
  8
0
100
AcDbLine
 10
589.5398357249211
 20
196.106945804479
 30
0.0
 11
589.6480212264534
 21
196.966048749082
 31
0.0
  0
LINE
  5
159
330
1F
100
AcDbEntity
  8
0
100
AcDbLine
 10
586.4730212264535
 20
193.6467298625497
 30
0.0
 11
587.294771694654
 21
193.7598329108914
 31
0.0
  0
LINE
  5
15A
330
1F
100
AcDbEntity
  8
0
100
AcDbLine
 10
563.8226519380056
 20
191.9870705253909
 30
0.0
 11
563.3180853142037
 21
192.6745239780761
 31
0.0
  0
LINE
  5
15B
330
1F
100
AcDbEntity
  8
0
100
AcDbLine
 10
297.5480227769722
 20
212.4562055657789
 30
0.0
 11
297.5480227968707
 21
208.030446697671
 31
0.0
  0
LINE
  5
15C
330
1F
100
AcDbEntity
  8
0
100
AcDbLine
 10
453.1230220228692
 20
199.1789291421235
 30
0.0
 11
452.4263608259064
 21
193.6467304905026
 31
0.0
  0
LINE
  5
15D
330
1F
100
AcDbEntity
  8
0
100
AcDbLine
 10
297.6562082785044
 20
213.3153085103819
 30
0.0
 11
297.5480227769722
 21
212.4562055657789
 31
0.0
  0
LINE
  5
15E
330
1F
100
AcDbEntity
  8
0
100
AcDbLine
 10
298.4779587467049
 20
214.8033184593666
 30
0.0
 11
297.9733921199566
 21
214.1158650090451
 31
0.0
  0
LINE
  5
15F
330
1F
100
AcDbEntity
  8
0
100
AcDbLine
 10
588.0605212264534
 20
194.0914342700835
 30
0.0
 11
588.7180852567207
 21
194.6189358554945
 31
0.0
  0
LINE
  5
160
330
1F
100
AcDbEntity
  8
0
100
AcDbLine
 10
589.222651883469
 20
195.3063893058159
 30
0.0
 11
589.5398357249211
 21
196.106945804479
 31
0.0
  0
LINE
  5
161
330
1F
100
AcDbEntity
  8
0
100
AcDbLine
 10
297.548022896363
 20
185.9016534621315
 30
0.0
 11
297.6562083978952
 21
185.0425505175284
 31
0.0
  0
LINE
  5
162
330
1F
100
AcDbEntity
  8
0
100
AcDbLine
 10
297.6562083978952
 20
185.0425505175284
 30
0.0
 11
297.9733922393474
 21
184.2419940188652
 31
0.0
  0
LINE
  5
163
330
1F
100
AcDbEntity
  8
0
100
AcDbLine
 10
300.7230227769722
 20
215.7755244523114
 30
0.0
 11
415.390506173845
 21
215.7755239151418
 31
0.0
  0
LINE
  5
164
330
1F
100
AcDbEntity
  8
0
100
AcDbLine
 10
275.323022911287
 20
193.6467313201582
 30
0.0
 11
300.7230228764646
 21
193.6467312011698
 31
0.0
  0
LINE
  5
165
330
1F
100
AcDbEntity
  8
0
100
AcDbLine
 10
300.7230227769722
 20
215.7755244523114
 30
0.0
 11
299.9012723087717
 21
215.6624214039697
 31
0.0
  0
LINE
  5
166
330
1F
100
AcDbEntity
  8
0
100
AcDbLine
 10
561.0730212881034
 20
193.646729981538
 30
0.0
 11
586.4730212264535
 21
193.6467298625497
 31
0.0
  0
LINE
  5
167
330
1F
100
AcDbEntity
  8
0
100
AcDbLine
 10
299.1355227769722
 20
215.3308200447775
 30
0.0
 11
298.4779587467049
 21
214.8033184593666
 31
0.0
  0
LINE
  5
168
330
1F
100
AcDbEntity
  8
0
100
AcDbLine
 10
452.4263609112444
 20
204.7111271160735
 30
0.0
 11
561.0730213355263
 21
204.711126607109
 31
0.0
  0
LINE
  5
169
330
1F
100
AcDbEntity
  8
0
100
AcDbLine
 10
409.3696831944317
 20
193.6467306922053
 30
0.0
 11
408.6730220228692
 21
199.1789291421235
 31
0.0
  0
LINE
  5
16A
330
1F
100
AcDbEntity
  8
0
100
AcDbLine
 10
297.6562083022654
 20
207.1713437535994
 30
0.0
 11
297.973392147317
 21
206.370787256495
 31
0.0
  0
LINE
  5
16B
330
1F
100
AcDbEntity
  8
0
100
AcDbLine
 10
300.7230228117945
 20
204.7111278267406
 30
0.0
 11
409.369683159894
 21
204.7111273177761
 31
0.0
  0
LINE
  5
16C
330
1F
100
AcDbEntity
  8
0
100
AcDbLine
 10
561.0730213355263
 20
204.711126607109
 30
0.0
 11
561.8947718037267
 21
204.8242296554507
 31
0.0
  0
LINE
  5
16D
330
1F
100
AcDbEntity
  8
0
100
AcDbLine
 10
298.4779587771562
 20
205.683333808653
 30
0.0
 11
299.1355228097951
 21
205.1558322264734
 31
0.0
  0
LINE
  5
16E
330
1F
100
AcDbEntity
  8
0
100
AcDbLine
 10
446.4055372785689
 20
182.5823338931369
 30
0.0
 11
442.0105220228692
 21
179.056627789133
 31
0.0
  0
LINE
  5
16F
330
1F
100
AcDbEntity
  8
0
100
AcDbLine
 10
297.973392219449
 20
191.9870717579035
 30
0.0
 11
297.6562083779968
 21
191.1865152592403
 31
0.0
  0
LINE
  5
170
330
1F
100
AcDbEntity
  8
0
100
AcDbLine
 10
562.6605213355263
 20
205.1558310146429
 30
0.0
 11
563.3180853657935
 21
205.6833326000538
 31
0.0
  0
LINE
  5
171
330
1F
100
AcDbEntity
  8
0
100
AcDbLine
 10
563.3180853041438
 20
183.5545393489121
 30
0.0
 11
563.822651930892
 21
184.2419927992336
 31
0.0
  0
LINE
  5
172
330
1F
100
AcDbEntity
  8
0
100
AcDbLine
 10
415.390506173845
 20
215.7755239151418
 30
0.0
 11
419.7855220228691
 21
219.301230495114
 31
0.0
  0
LINE
  5
173
330
1F
100
AcDbEntity
  8
0
100
AcDbLine
 10
562.6605213668163
 20
215.3308188177091
 30
0.0
 11
561.894771836438
 21
215.6624201804885
 31
0.0
  0
LINE
  5
174
330
1F
100
AcDbEntity
  8
0
100
AcDbLine
 10
452.4263609112444
 20
204.7111271160735
 30
0.0
 11
453.1230220228692
 21
199.1789291421235
 31
0.0
  0
LINE
  5
175
330
1F
100
AcDbEntity
  8
0
100
AcDbLine
 10
425.1457687454655
 20
221.6224400094594
 30
0.0
 11
430.8980220228692
 21
222.4141613478511
 31
0.0
  0
LINE
  5
176
330
1F
100
AcDbEntity
  8
0
100
AcDbLine
 10
564.2480213544954
 20
212.4562043312737
 30
0.0
 11
564.2480213355262
 21
208.0304454936415
 31
0.0
  0
LINE
  5
177
330
1F
100
AcDbEntity
  8
0
100
AcDbLine
 10
779.2972824944835
 20
159.3471025037324
 30
0.0
 11
778.288149240987
 21
157.9721956030894
 31
0.0
  0
LINE
  5
178
330
1F
100
AcDbEntity
  8
0
100
AcDbLine
 10
779.9316501773878
 20
160.9482155010587
 30
0.0
 11
779.2972824944835
 21
159.3471025037324
 31
0.0
  0
LINE
  5
179
330
1F
100
AcDbEntity
  8
0
100
AcDbLine
 10
778.288149240987
 20
157.9721956030894
 30
0.0
 11
776.9730211804523
 21
156.9171924322677
 31
0.0
  0
LINE
  5
17A
330
1F
100
AcDbEntity
  8
0
100
AcDbLine
 10
776.9730211804523
 20
156.9171924322677
 30
0.0
 11
775.4415221168533
 21
156.2539897138833
 31
0.0
  0
LINE
  5
17B
330
1F
100
AcDbEntity
  8
0
100
AcDbLine
 10
775.4415221168533
 20
156.2539897138833
 30
0.0
 11
773.7980211804523
 21
156.0277836171999
 31
0.0
  0
LINE
  5
17C
330
1F
100
AcDbEntity
  8
0
100
AcDbLine
 10
170.5480230306777
 20
156.0277836172
 30
0.0
 11
233.3904586901104
 21
156.0277836493474
 31
0.0
  0
LINE
  5
17D
330
1F
100
AcDbEntity
  8
0
100
AcDbLine
 10
233.3904586901104
 20
156.0277836493474
 30
0.0
 11
233.801333924205
 21
156.0843351735628
 31
0.0
  0
LINE
  5
17E
330
1F
100
AcDbEntity
  8
0
100
AcDbLine
 10
247.4055868459569
 20
169.3050591702236
 30
0.0
 11
614.3904571916273
 21
169.3050591702236
 31
0.0
  0
LINE
  5
17F
330
1F
100
AcDbEntity
  8
0
100
AcDbLine
 10
246.9947116118567
 20
169.2485076460528
 30
0.0
 11
247.4055868459569
 21
169.3050591702236
 31
0.0
  0
LINE
  5
180
330
1F
100
AcDbEntity
  8
0
100
AcDbLine
 10
615.5129892144856
 20
168.8189561702042
 30
0.0
 11
627.2830532414283
 21
156.5138866204946
 31
0.0
  0
LINE
  5
181
330
1F
100
AcDbEntity
  8
0
100
AcDbLine
 10
627.2830532414283
 20
156.5138866204946
 30
0.0
 11
627.611835256562
 21
156.2501358277892
 31
0.0
  0
LINE
  5
182
330
1F
100
AcDbEntity
  8
0
100
AcDbLine
 10
615.5129892144856
 20
168.8189561702042
 30
0.0
 11
615.1842071916274
 21
169.082706955521
 31
0.0
  0
LINE
  5
183
330
1F
100
AcDbEntity
  8
0
100
AcDbLine
 10
773.7980211804523
 20
229.0527837314416
 30
0.0
 11
87.99801971041202
 21
229.0527837409525
 31
0.0
  0
LINE
  5
184
330
1F
100
AcDbEntity
  8
0
100
AcDbLine
 10
87.99801971041202
 20
229.0527837409525
 30
0.0
 11
86.35451877400804
 21
228.8265776442927
 31
0.0
  0
LINE
  5
185
330
1F
100
AcDbEntity
  8
0
100
AcDbLine
 10
708.7105211194682
 20
156.0277836171999
 30
0.0
 11
773.7980211804523
 21
156.0277836171999
 31
0.0
  0
LINE
  5
186
330
1F
100
AcDbEntity
  8
0
100
AcDbLine
 10
614.8013324257277
 20
169.2485076351171
 30
0.0
 11
614.3904571916273
 21
169.3050591702236
 31
0.0
  0
LINE
  5
187
330
1F
100
AcDbEntity
  8
0
100
AcDbLine
 10
628.4055852512627
 20
156.0277836108856
 30
0.0
 11
691.2480211126385
 21
156.0277836172001
 31
0.0
  0
LINE
  5
188
330
1F
100
AcDbEntity
  8
0
100
AcDbLine
 10
627.9947100171624
 20
156.0843351350564
 30
0.0
 11
628.4055852512627
 21
156.0277836108856
 31
0.0
  0
LINE
  5
189
330
1F
100
AcDbEntity
  8
0
100
AcDbLine
 10
780.1480211912045
 20
162.6664213904128
 30
0.0
 11
779.9316501773878
 21
160.9482155010587
 31
0.0
  0
LINE
  5
18A
330
1F
100
AcDbEntity
  8
0
100
AcDbLine
 10
87.99801971016159
 20
156.027783625933
 30
0.0
 11
153.0855230182723
 21
156.0277836172054
 31
0.0
  0
LINE
  5
18B
330
1F
100
AcDbEntity
  8
0
100
AcDbLine
 10
86.35451877376057
 20
156.2539897226164
 30
0.0
 11
87.99801971016159
 21
156.027783625933
 31
0.0
  0
LINE
  5
18C
330
1F
100
AcDbEntity
  8
0
100
AcDbLine
 10
81.64801970951596
 20
222.4141459690156
 30
0.0
 11
81.64801971294578
 21
162.6664214010147
 31
0.0
  0
LINE
  5
18D
330
1F
100
AcDbEntity
  8
0
100
AcDbLine
 10
81.86439071260294
 20
224.1323518582188
 30
0.0
 11
81.64801970951596
 21
222.4141459690156
 31
0.0
  0
LINE
  5
18E
330
1F
100
AcDbEntity
  8
0
100
AcDbLine
 10
81.64801971294578
 20
162.6664214010147
 30
0.0
 11
81.8643907160102
 21
160.9482155118084
 31
0.0
  0
LINE
  5
18F
330
1F
100
AcDbEntity
  8
0
100
AcDbLine
 10
81.8643907160102
 20
160.9482155118084
 30
0.0
 11
82.4987583961304
 21
159.3471025124655
 31
0.0
  0
LINE
  5
190
330
1F
100
AcDbEntity
  8
0
100
AcDbLine
 10
82.4987583961304
 20
159.3471025124655
 30
0.0
 11
83.50789164962701
 21
157.9721956118225
 31
0.0
  0
LINE
  5
191
330
1F
100
AcDbEntity
  8
0
100
AcDbLine
 10
83.50789164962701
 20
157.9721956118225
 30
0.0
 11
84.82301971016159
 21
156.9171924410007
 31
0.0
  0
LINE
  5
192
330
1F
100
AcDbEntity
  8
0
100
AcDbLine
 10
84.82301971016159
 20
156.9171924410007
 30
0.0
 11
86.35451877376057
 21
156.2539897226164
 31
0.0
  0
LINE
  5
193
330
1F
100
AcDbEntity
  8
0
100
AcDbLine
 10
86.35451877400804
 20
228.8265776442927
 30
0.0
 11
84.82301971040035
 21
228.1633749259303
 31
0.0
  0
LINE
  5
194
330
1F
100
AcDbEntity
  8
0
100
AcDbLine
 10
84.82301971040035
 20
228.1633749259303
 30
0.0
 11
83.50789164985191
 21
227.1083717551274
 31
0.0
  0
LINE
  5
195
330
1F
100
AcDbEntity
  8
0
100
AcDbLine
 10
83.50789164985191
 20
227.1083717551274
 30
0.0
 11
82.49875839633727
 21
225.7334648544989
 31
0.0
  0
LINE
  5
196
330
1F
100
AcDbEntity
  8
0
100
AcDbLine
 10
82.49875839633727
 20
225.7334648544989
 30
0.0
 11
81.86439071260294
 21
224.1323518582188
 31
0.0
  0
LINE
  5
197
330
1F
100
AcDbEntity
  8
0
100
AcDbLine
 10
615.1842071916274
 20
169.082706955521
 30
0.0
 11
614.8013324257277
 21
169.2485076351171
 31
0.0
  0
LINE
  5
198
330
1F
100
AcDbEntity
  8
0
100
AcDbLine
 10
627.611835256562
 20
156.2501358277892
 30
0.0
 11
627.9947100171624
 21
156.0843351350564
 31
0.0
  0
LINE
  5
199
330
1F
100
AcDbEntity
  8
0
100
AcDbLine
 10
233.801333924205
 20
156.0843351735628
 30
0.0
 11
234.1842086900883
 21
156.2501358532004
 31
0.0
  0
LINE
  5
19A
330
1F
100
AcDbEntity
  8
0
100
AcDbLine
 10
234.1842086900883
 20
156.2501358532004
 30
0.0
 11
234.5129907051958
 21
156.5138866459416
 31
0.0
  0
LINE
  5
19B
330
1F
100
AcDbEntity
  8
0
100
AcDbLine
 10
234.5129907051958
 20
156.5138866459416
 30
0.0
 11
246.2830548308233
 21
168.8189561737493
 31
0.0
  0
LINE
  5
19C
330
1F
100
AcDbEntity
  8
0
100
AcDbLine
 10
246.2830548308233
 20
168.8189561737493
 30
0.0
 11
246.6118368459569
 21
169.0827069664547
 31
0.0
  0
LINE
  5
19D
330
1F
100
AcDbEntity
  8
0
100
AcDbLine
 10
246.6118368459569
 20
169.0827069664547
 30
0.0
 11
246.9947116118567
 21
169.2485076460528
 31
0.0
  0
LINE
  5
19E
330
1F
100
AcDbEntity
  8
0
100
AcDbLine
 10
691.2480211126385
 20
156.0277836172001
 30
0.0
 11
691.2480212264536
 21
182.5823346433336
 31
0.0
  0
LINE
  5
19F
330
1F
100
AcDbEntity
  8
0
100
AcDbLine
 10
153.0855230182723
 20
156.0277836172054
 30
0.0
 11
153.0855229572881
 21
182.58233470946
 31
0.0
  0
LINE
  5
1A0
330
1F
100
AcDbEntity
  8
0
100
AcDbLine
 10
-787.3731869973498
 20
175.9437006222758
 30
0.0
 11
-787.3731789321091
 21
222.4141390371079
 31
0.0
  0
LINE
  5
1A1
330
1F
100
AcDbEntity
  8
0
100
AcDbLine
 10
-787.5895475157052
 20
224.132342622348
 30
0.0
 11
-787.3731789321091
 21
222.4141390371079
 31
0.0
  0
LINE
  5
1A2
330
1F
100
AcDbEntity
  8
0
100
AcDbLine
 10
-787.3731869973498
 20
175.9437006222758
 30
0.0
 11
-787.5895568724844
 21
174.2254925089566
 31
0.0
  0
LINE
  5
1A3
330
1F
100
AcDbEntity
  8
0
100
AcDbLine
 10
-793.7231789402862
 20
229.0527753915657
 30
0.0
 11
-877.8606772061215
 21
229.0527771969636
 31
0.0
  0
LINE
  5
1A4
330
1F
100
AcDbEntity
  8
0
100
AcDbLine
 10
-877.8606772061215
 20
229.0527771969636
 30
0.0
 11
-890.5606771897683
 21
215.7755044567633
 31
0.0
  0
LINE
  5
1A5
330
1F
100
AcDbEntity
  8
0
100
AcDbLine
 10
-793.7231789402862
 20
229.0527753915657
 30
0.0
 11
-792.0796755820215
 21
228.8265674064166
 31
0.0
  0
LINE
  5
1A6
330
1F
100
AcDbEntity
  8
0
100
AcDbLine
 10
-1244.573176615687
 20
222.4141365354135
 30
0.0
 11
-1244.356805614739
 21
224.1323420597479
 31
0.0
  0
LINE
  5
1A7
330
1F
100
AcDbEntity
  8
0
100
AcDbLine
 10
-1244.573176408571
 20
175.9436853681524
 30
0.0
 11
-1244.573176615687
 21
222.4141365354135
 31
0.0
  0
LINE
  5
1A8
330
1F
100
AcDbEntity
  8
0
100
AcDbLine
 10
-1244.356805614739
 20
224.1323420597479
 30
0.0
 11
-1243.722437933806
 21
225.7334547176008
 31
0.0
  0
LINE
  5
1A9
330
1F
100
AcDbEntity
  8
0
100
AcDbLine
 10
-890.5606771897683
 20
215.7755044567633
 30
0.0
 11
-1141.385675632714
 21
215.7755041478221
 31
0.0
  0
LINE
  5
1AA
330
1F
100
AcDbEntity
  8
0
100
AcDbLine
 10
-877.8606755754781
 20
169.3050603575281
 30
0.0
 11
-793.7231869891726
 21
169.3050642521756
 31
0.0
  0
LINE
  5
1AB
330
1F
100
AcDbEntity
  8
0
100
AcDbLine
 10
-890.5606763818479
 20
156.0277871908253
 30
0.0
 11
-877.8606755754781
 21
169.3050603575281
 31
0.0
  0
LINE
  5
1AC
330
1F
100
AcDbEntity
  8
0
100
AcDbLine
 10
-1154.085673875865
 20
169.3050507430432
 30
0.0
 11
-1141.385677068496
 21
156.0277818154783
 31
0.0
  0
LINE
  5
1AD
330
1F
100
AcDbEntity
  8
0
100
AcDbLine
 10
-1238.223178165665
 20
169.3050517411306
 30
0.0
 11
-1154.085673875865
 21
169.3050507430432
 31
0.0
  0
LINE
  5
1AE
330
1F
100
AcDbEntity
  8
0
100
AcDbLine
 10
-1244.35680540339
 20
174.2254798443509
 30
0.0
 11
-1244.573176408571
 21
175.9436853681524
 31
0.0
  0
LINE
  5
1AF
330
1F
100
AcDbEntity
  8
0
100
AcDbLine
 10
-1243.722437933806
 20
225.7334547176008
 30
0.0
 11
-1242.713304682003
 21
227.1083613273033
 31
0.0
  0
LINE
  5
1B0
330
1F
100
AcDbEntity
  8
0
100
AcDbLine
 10
-1239.866677559986
 20
228.8265668548774
 30
0.0
 11
-1238.223176623864
 21
229.0527729055136
 31
0.0
  0
LINE
  5
1B1
330
1F
100
AcDbEntity
  8
0
100
AcDbLine
 10
-1241.398176622768
 20
228.1633642755448
 30
0.0
 11
-1239.866677559986
 21
228.8265668548774
 31
0.0
  0
LINE
  5
1B2
330
1F
100
AcDbEntity
  8
0
100
AcDbLine
 10
-1238.223176623864
 20
229.0527729055136
 30
0.0
 11
-1154.085675649068
 21
229.0527730091457
 31
0.0
  0
LINE
  5
1B3
330
1F
100
AcDbEntity
  8
0
100
AcDbLine
 10
-1242.713304682003
 20
227.1083613273033
 30
0.0
 11
-1241.398176622768
 21
228.1633642755448
 31
0.0
  0
LINE
  5
1B4
330
1F
100
AcDbEntity
  8
0
100
AcDbLine
 10
-1154.085675649068
 20
229.0527730091457
 30
0.0
 11
-1141.385675632714
 21
215.7755041478221
 31
0.0
  0
LINE
  5
1B5
330
1F
100
AcDbEntity
  8
0
100
AcDbLine
 10
-1241.39817640149
 20
170.1944576358423
 30
0.0
 11
-1242.713304463324
 21
171.2494605808441
 31
0.0
  0
LINE
  5
1B6
330
1F
100
AcDbEntity
  8
0
100
AcDbLine
 10
-1239.866677337074
 20
169.5312550602824
 30
0.0
 11
-1241.39817640149
 21
170.1944576358423
 31
0.0
  0
LINE
  5
1B7
330
1F
100
AcDbEntity
  8
0
100
AcDbLine
 10
-1242.713304463324
 20
171.2494605808441
 30
0.0
 11
-1243.722437718514
 21
172.6243671880607
 31
0.0
  0
LINE
  5
1B8
330
1F
100
AcDbEntity
  8
0
100
AcDbLine
 10
-1238.223178165665
 20
169.3050517411306
 30
0.0
 11
-1239.866677337074
 21
169.5312550602824
 31
0.0
  0
LINE
  5
1B9
330
1F
100
AcDbEntity
  8
0
100
AcDbLine
 10
-1243.722437718514
 20
172.6243671880607
 30
0.0
 11
-1244.35680540339
 21
174.2254798443509
 31
0.0
  0
LINE
  5
1BA
330
1F
100
AcDbEntity
  8
0
100
AcDbLine
 10
-787.5895568724844
 20
174.2254925089566
 30
0.0
 11
-788.2239245534169
 21
172.6243798511037
 31
0.0
  0
LINE
  5
1BB
330
1F
100
AcDbEntity
  8
0
100
AcDbLine
 10
-788.2239152005816
 20
225.7334552786382
 30
0.0
 11
-787.5895475157052
 21
224.132342622348
 31
0.0
  0
LINE
  5
1BC
330
1F
100
AcDbEntity
  8
0
100
AcDbLine
 10
-789.2330578052198
 20
171.2494732414012
 30
0.0
 11
-790.5481858644556
 21
170.1944702931597
 31
0.0
  0
LINE
  5
1BD
330
1F
100
AcDbEntity
  8
0
100
AcDbLine
 10
-788.2239245534169
 20
172.6243798511037
 30
0.0
 11
-789.2330578052198
 21
171.2494732414012
 31
0.0
  0
LINE
  5
1BE
330
1F
100
AcDbEntity
  8
0
100
AcDbLine
 10
-790.5481858644556
 20
170.1944702931597
 30
0.0
 11
-792.0796849272378
 21
169.5312677138271
 31
0.0
  0
LINE
  5
1BF
330
1F
100
AcDbEntity
  8
0
100
AcDbLine
 10
-792.0796849272378
 20
169.5312677138271
 30
0.0
 11
-793.7231869891726
 21
169.3050642521756
 31
0.0
  0
LINE
  5
1C0
330
1F
100
AcDbEntity
  8
0
100
AcDbLine
 10
-792.0796755820215
 20
228.8265674064166
 30
0.0
 11
-790.5481765176056
 21
228.1633648308567
 31
0.0
  0
LINE
  5
1C1
330
1F
100
AcDbEntity
  8
0
100
AcDbLine
 10
-790.5481765176056
 20
228.1633648308567
 30
0.0
 11
-789.2330484557716
 21
227.1083618858549
 31
0.0
  0
LINE
  5
1C2
330
1F
100
AcDbEntity
  8
0
100
AcDbLine
 10
-789.2330484557716
 20
227.1083618858549
 30
0.0
 11
-788.2239152005816
 21
225.7334552786382
 31
0.0
  0
LINE
  5
1C3
330
1F
100
AcDbEntity
  8
0
100
AcDbLine
 10
-1141.385677068496
 20
156.0277818154783
 30
0.0
 11
-890.5606763818479
 21
156.0277871908253
 31
0.0
  0
LINE
  5
1C4
330
1F
100
AcDbEntity
  8
0
100
AcDbLine
 10
-687.7731689499024
 20
303.9539246756393
 30
0.0
 11
-111.7786441392044
 21
303.9540645380092
 31
0.0
  0
LINE
  5
1C5
330
1F
100
AcDbEntity
  8
0
100
AcDbLine
 10
-100.189053028607
 20
279.6813739700463
 30
0.0
 11
-104.4006457227989
 21
281.5051669667015
 31
0.0
  0
LINE
  5
1C6
330
1F
100
AcDbEntity
  8
0
100
AcDbLine
 10
-670.3106707072408
 20
310.5925652887178
 30
0.0
 11
-671.1324210226879
 21
310.7056680882638
 31
0.0
  0
LINE
  5
1C7
330
1F
100
AcDbEntity
  8
0
100
AcDbLine
 10
-671.8981708154581
 20
311.0372692155249
 30
0.0
 11
-672.5557347393934
 21
311.5647703406517
 31
0.0
  0
LINE
  5
1C8
330
1F
100
AcDbEntity
  8
0
100
AcDbLine
 10
-672.5557260888938
 20
275.0522705289291
 30
0.0
 11
-673.0602926882526
 21
275.7397234452721
 31
0.0
  0
LINE
  5
1C9
330
1F
100
AcDbEntity
  8
0
100
AcDbLine
 10
-670.3106618220435
 20
274.0800652887193
 30
0.0
 11
-671.1324121374907
 21
274.1931680882656
 31
0.0
  0
LINE
  5
1CA
330
1F
100
AcDbEntity
  8
0
100
AcDbLine
 10
-670.3106641034316
 20
284.0380198341738
 30
0.0
 11
-107.5581793098508
 21
284.0381564741361
 31
0.0
  0
LINE
  5
1CB
330
1F
100
AcDbEntity
  8
0
100
AcDbLine
 10
-673.3774858043938
 20
313.0527799620268
 30
0.0
 11
-673.4856714750844
 21
313.9118823810526
 31
0.0
  0
LINE
  5
1CC
330
1F
100
AcDbEntity
  8
0
100
AcDbLine
 10
-673.0603017681289
 20
312.2522237105131
 30
0.0
 11
-673.3774858043938
 21
313.0527799620268
 31
0.0
  0
LINE
  5
1CD
330
1F
100
AcDbEntity
  8
0
100
AcDbLine
 10
-673.3774870302587
 20
318.0903036682641
 30
0.0
 11
-673.0603034684841
 21
318.8908598599542
 31
0.0
  0
LINE
  5
1CE
330
1F
100
AcDbEntity
  8
0
100
AcDbLine
 10
-673.485672322731
 20
317.2312008797279
 30
0.0
 11
-673.3774870302587
 21
318.0903036682641
 31
0.0
  0
LINE
  5
1CF
330
1F
100
AcDbEntity
  8
0
100
AcDbLine
 10
-673.4856634375338
 20
280.7187008797296
 30
0.0
 11
-673.3774781805341
 21
281.5778033865762
 31
0.0
  0
LINE
  5
1D0
330
1F
100
AcDbEntity
  8
0
100
AcDbLine
 10
-111.7786409082234
 20
290.676791810737
 30
0.0
 11
-687.7731657189214
 21
290.6766519483672
 31
0.0
  0
LINE
  5
1D1
330
1F
100
AcDbEntity
  8
0
100
AcDbLine
 10
-688.594919434283
 20
303.8408214648481
 30
0.0
 11
-687.7731689499024
 21
303.9539246756393
 31
0.0
  0
LINE
  5
1D2
330
1F
100
AcDbEntity
  8
0
100
AcDbLine
 10
-689.3606689749477
 20
303.5092199799237
 30
0.0
 11
-688.594919434283
 21
303.8408214648481
 31
0.0
  0
LINE
  5
1D3
330
1F
100
AcDbEntity
  8
0
100
AcDbLine
 10
-690.0182328854339
 20
302.9817183427716
 30
0.0
 11
-689.3606689749477
 21
303.5092199799237
 31
0.0
  0
LINE
  5
1D4
330
1F
100
AcDbEntity
  8
0
100
AcDbLine
 10
-673.0603034684841
 20
318.8908598599542
 30
0.0
 11
-672.5557370195171
 21
319.5783133713842
 31
0.0
  0
LINE
  5
1D5
330
1F
100
AcDbEntity
  8
0
100
AcDbLine
 10
-671.8981730136743
 20
320.1058151384562
 30
0.0
 11
-671.1324235711536
 21
320.4374166098725
 31
0.0
  0
LINE
  5
1D6
330
1F
100
AcDbEntity
  8
0
100
AcDbLine
 10
-672.5557370195171
 20
319.5783133713842
 30
0.0
 11
-671.8981730136743
 21
320.1058151384562
 31
0.0
  0
LINE
  5
1D7
330
1F
100
AcDbEntity
  8
0
100
AcDbLine
 10
-690.8399829915321
 20
301.4937085097316
 30
0.0
 11
-690.5227994297576
 21
302.2942647014217
 31
0.0
  0
LINE
  5
1D8
330
1F
100
AcDbEntity
  8
0
100
AcDbLine
 10
-690.9481682840045
 20
300.6346057211953
 30
0.0
 11
-690.8399829915321
 21
301.4937085097316
 31
0.0
  0
LINE
  5
1D9
330
1F
100
AcDbEntity
  8
0
100
AcDbLine
 10
-690.9481666685141
 20
293.9959693575593
 30
0.0
 11
-690.9481682840045
 21
300.6346057211953
 31
0.0
  0
LINE
  5
1DA
330
1F
100
AcDbEntity
  8
0
100
AcDbLine
 10
-690.839980957922
 20
293.1368666216763
 30
0.0
 11
-690.9481666685141
 21
293.9959693575593
 31
0.0
  0
LINE
  5
1DB
330
1F
100
AcDbEntity
  8
0
100
AcDbLine
 10
-690.5227969216571
 20
292.3363103701625
 30
0.0
 11
-690.839980957922
 21
293.1368666216763
 31
0.0
  0
LINE
  5
1DC
330
1F
100
AcDbEntity
  8
0
100
AcDbLine
 10
-690.0182301276193
 20
291.6488571885768
 30
0.0
 11
-690.5227969216571
 21
292.3363103701625
 31
0.0
  0
LINE
  5
1DD
330
1F
100
AcDbEntity
  8
0
100
AcDbLine
 10
-689.3606659689863
 20
291.1213558751743
 30
0.0
 11
-690.0182301276193
 21
291.6488571885768
 31
0.0
  0
LINE
  5
1DE
330
1F
100
AcDbEntity
  8
0
100
AcDbLine
 10
-688.5949163564927
 20
290.7897547727259
 30
0.0
 11
-689.3606659689863
 21
291.1213558751743
 31
0.0
  0
LINE
  5
1DF
330
1F
100
AcDbEntity
  8
0
100
AcDbLine
 10
-687.7731657189214
 20
290.6766519483672
 30
0.0
 11
-688.5949163564927
 21
290.7897547727259
 31
0.0
  0
LINE
  5
1E0
330
1F
100
AcDbEntity
  8
0
100
AcDbLine
 10
-690.5227994297576
 20
302.2942647014217
 30
0.0
 11
-690.0182328854339
 21
302.9817183427716
 31
0.0
  0
LINE
  5
1E1
330
1F
100
AcDbEntity
  8
0
100
AcDbLine
 10
-671.1324210226879
 20
310.7056680882638
 30
0.0
 11
-671.8981708154581
 21
311.0372692155249
 31
0.0
  0
LINE
  5
1E2
330
1F
100
AcDbEntity
  8
0
100
AcDbLine
 10
-671.8981619302608
 20
274.5247692155265
 30
0.0
 11
-672.5557260888938
 21
275.0522705289291
 31
0.0
  0
LINE
  5
1E3
330
1F
100
AcDbEntity
  8
0
100
AcDbLine
 10
-95.66945768337546
 20
279.0593128929131
 30
0.0
 11
-100.189053028607
 21
279.6813739700463
 31
0.0
  0
LINE
  5
1E4
330
1F
100
AcDbEntity
  8
0
100
AcDbLine
 10
-672.5557347393934
 20
311.5647703406517
 30
0.0
 11
-673.0603017681289
 21
312.2522237105131
 31
0.0
  0
LINE
  5
1E5
330
1F
100
AcDbEntity
  8
0
100
AcDbLine
 10
-671.1324121374907
 20
274.1931680882656
 30
0.0
 11
-671.8981619302608
 21
274.5247692155265
 31
0.0
  0
LINE
  5
1E6
330
1F
100
AcDbEntity
  8
0
100
AcDbLine
 10
-107.5581857718123
 20
310.5927019286804
 30
0.0
 11
-104.4006534175503
 21
313.1256929728657
 31
0.0
  0
LINE
  5
1E7
330
1F
100
AcDbEntity
  8
0
100
AcDbLine
 10
-671.1324235711536
 20
320.4374166098725
 30
0.0
 11
-670.3106731304764
 21
320.5505198341718
 31
0.0
  0
LINE
  5
1E8
330
1F
100
AcDbEntity
  8
0
100
AcDbLine
 10
-111.7786409082234
 20
290.676791810737
 30
0.0
 11
-112.5368198692313
 21
292.590396650843
 31
0.0
  0
LINE
  5
1E9
330
1F
100
AcDbEntity
  8
0
100
AcDbLine
 10
-672.5557280389633
 20
283.0658135013059
 30
0.0
 11
-671.8981641991465
 21
283.5933150849359
 31
0.0
  0
LINE
  5
1EA
330
1F
100
AcDbEntity
  8
0
100
AcDbLine
 10
-112.5368198692313
 20
292.590396650843
 30
0.0
 11
-113.131837014407
 21
297.3154278450776
 31
0.0
  0
LINE
  5
1EB
330
1F
100
AcDbEntity
  8
0
100
AcDbLine
 10
-113.131837014407
 20
297.3154278450776
 30
0.0
 11
-112.5368221688729
 21
302.0404593289027
 31
0.0
  0
LINE
  5
1EC
330
1F
100
AcDbEntity
  8
0
100
AcDbLine
 10
-112.5368221688729
 20
302.0404593289027
 30
0.0
 11
-111.7786441392044
 21
303.9540645380092
 31
0.0
  0
LINE
  5
1ED
330
1F
100
AcDbEntity
  8
0
100
AcDbLine
 10
-673.4856626297886
 20
277.3993826979116
 30
0.0
 11
-673.4856634375338
 21
280.7187008797296
 31
0.0
  0
LINE
  5
1EE
330
1F
100
AcDbEntity
  8
0
100
AcDbLine
 10
-673.3774769191966
 20
276.5402799620286
 30
0.0
 11
-673.4856626297886
 21
277.3993826979116
 31
0.0
  0
LINE
  5
1EF
330
1F
100
AcDbEntity
  8
0
100
AcDbLine
 10
-673.0602926882526
 20
275.7397234452721
 30
0.0
 11
-673.3774769191966
 21
276.5402799620286
 31
0.0
  0
LINE
  5
1F0
330
1F
100
AcDbEntity
  8
0
100
AcDbLine
 10
-673.0602944984221
 20
282.3783600741509
 30
0.0
 11
-672.5557280389633
 21
283.0658135013059
 31
0.0
  0
LINE
  5
1F1
330
1F
100
AcDbEntity
  8
0
100
AcDbLine
 10
-673.3774781805341
 20
281.5778033865762
 30
0.0
 11
-673.0602944984221
 21
282.3783600741509
 31
0.0
  0
LINE
  5
1F2
330
1F
100
AcDbEntity
  8
0
100
AcDbLine
 10
-104.4006534175503
 20
313.1256929728657
 30
0.0
 11
-100.1890616109869
 21
314.9494880192754
 31
0.0
  0
LINE
  5
1F3
330
1F
100
AcDbEntity
  8
0
100
AcDbLine
 10
-100.1890616109869
 20
314.9494880192754
 30
0.0
 11
-95.66946656850898
 21
315.5715512960662
 31
0.0
  0
LINE
  5
1F4
330
1F
100
AcDbEntity
  8
0
100
AcDbLine
 10
-671.1324145878123
 20
283.9249166233824
 30
0.0
 11
-670.3106641034316
 21
284.0380198341738
 31
0.0
  0
LINE
  5
1F5
330
1F
100
AcDbEntity
  8
0
100
AcDbLine
 10
-104.4006457227989
 20
281.5051669667015
 30
0.0
 11
-107.5581793098508
 21
284.0381564741361
 31
0.0
  0
LINE
  5
1F6
330
1F
100
AcDbEntity
  8
0
100
AcDbLine
 10
-671.8981641991465
 20
283.5933150849359
 30
0.0
 11
-671.1324145878123
 21
283.9249166233824
 31
0.0
  0
LINE
  5
1F7
330
1F
100
AcDbEntity
  8
0
100
AcDbLine
 10
-107.5581793098508
 20
284.0381564741361
 30
0.0
 11
-108.0172226838284
 21
284.4064034041168
 31
0.0
  0
LINE
  5
1F8
330
1F
100
AcDbEntity
  8
0
100
AcDbLine
 10
-108.0172226838284
 20
284.4064034041168
 30
0.0
 11
-110.7923201684769
 21
288.1873688136026
 31
0.0
  0
LINE
  5
1F9
330
1F
100
AcDbEntity
  8
0
100
AcDbLine
 10
-110.7923201684769
 20
288.1873688136026
 30
0.0
 11
-111.7786409082234
 21
290.676791810737
 31
0.0
  0
LINE
  5
1FA
330
1F
100
AcDbEntity
  8
0
100
AcDbLine
 10
-111.7786441392044
 20
303.9540645380092
 30
0.0
 11
-110.7923246110437
 21
306.4434880151792
 31
0.0
  0
LINE
  5
1FB
330
1F
100
AcDbEntity
  8
0
100
AcDbLine
 10
-110.7923246110437
 20
306.4434880151792
 30
0.0
 11
-108.0172289665665
 21
310.2244547752863
 31
0.0
  0
LINE
  5
1FC
330
1F
100
AcDbEntity
  8
0
100
AcDbLine
 10
-108.0172289665665
 20
310.2244547752863
 30
0.0
 11
-107.5581857718123
 21
310.5927019286804
 31
0.0
  0
LINE
  5
1FD
330
1F
100
AcDbEntity
  8
0
100
AcDbLine
 10
-95.66946656850898
 20
315.5715512960662
 30
0.0
 11
-91.14987122327753
 21
314.949490218933
 31
0.0
  0
LINE
  5
1FE
330
1F
100
AcDbEntity
  8
0
100
AcDbLine
 10
-91.14987122327753
 20
314.949490218933
 30
0.0
 11
-86.93827852908551
 21
313.1256972222777
 31
0.0
  0
LINE
  5
1FF
330
1F
100
AcDbEntity
  8
0
100
AcDbLine
 10
-86.93827852908551
 20
313.1256972222777
 30
0.0
 11
-83.32170156805616
 21
310.2244607848624
 31
0.0
  0
LINE
  5
200
330
1F
100
AcDbEntity
  8
0
100
AcDbLine
 10
-83.32170156805616
 20
310.2244607848624
 30
0.0
 11
-80.54660408340766
 21
306.4434953753766
 31
0.0
  0
LINE
  5
201
330
1F
100
AcDbEntity
  8
0
100
AcDbLine
 10
-80.54660408340766
 20
306.4434953753766
 30
0.0
 11
-78.80210438265318
 21
302.0404675381362
 31
0.0
  0
LINE
  5
202
330
1F
100
AcDbEntity
  8
0
100
AcDbLine
 10
-78.80210438265318
 20
302.0404675381362
 30
0.0
 11
-78.20708723747744
 21
297.3154363439016
 31
0.0
  0
LINE
  5
203
330
1F
100
AcDbEntity
  8
0
100
AcDbLine
 10
-78.20708723747744
 20
297.3154363439016
 30
0.0
 11
-78.80210208301149
 21
292.5904048600766
 31
0.0
  0
LINE
  5
204
330
1F
100
AcDbEntity
  8
0
100
AcDbLine
 10
-78.80210208301149
 20
292.5904048600766
 30
0.0
 11
-80.54659964084085
 21
288.1873761738
 31
0.0
  0
LINE
  5
205
330
1F
100
AcDbEntity
  8
0
100
AcDbLine
 10
-80.54659964084085
 20
288.1873761738
 30
0.0
 11
-83.32169528531801
 21
284.4064094136929
 31
0.0
  0
LINE
  5
206
330
1F
100
AcDbEntity
  8
0
100
AcDbLine
 10
-83.32169528531801
 20
284.4064094136929
 30
0.0
 11
-86.9382708343341
 21
281.5051712161135
 31
0.0
  0
LINE
  5
207
330
1F
100
AcDbEntity
  8
0
100
AcDbLine
 10
-86.9382708343341
 20
281.5051712161135
 30
0.0
 11
-91.1498626408976
 21
279.6813761697038
 31
0.0
  0
LINE
  5
208
330
1F
100
AcDbEntity
  8
0
100
AcDbLine
 10
-91.1498626408976
 20
279.6813761697038
 30
0.0
 11
-95.66945768337546
 21
279.0593128929131
 31
0.0
  0
LINE
  5
209
330
1F
100
AcDbEntity
  8
0
100
AcDbLine
 10
-14.67316955573478
 20
306.4435799646243
 30
0.0
 11
10.72682887861144
 21
306.4435861456311
 31
0.0
  0
LINE
  5
20A
330
1F
100
AcDbEntity
  8
0
100
AcDbLine
 10
-14.67316667878953
 20
288.187329964625
 30
0.0
 11
-14.67316955573478
 21
306.4435799646243
 31
0.0
  0
LINE
  5
20B
330
1F
100
AcDbEntity
  8
0
100
AcDbLine
 10
-670.3106707072408
 20
310.5925652887178
 30
0.0
 11
-107.5581857718123
 21
310.5927019286804
 31
0.0
  0
LINE
  5
20C
330
1F
100
AcDbEntity
  8
0
100
AcDbLine
 10
-95.66945647172584
 20
274.0802048217635
 30
0.0
 11
-670.3106618220435
 21
274.0800652887193
 31
0.0
  0
LINE
  5
20D
330
1F
100
AcDbEntity
  8
0
100
AcDbLine
 10
-719.523176219608
 20
333.8277802817232
 30
0.0
 11
-719.5231584492136
 21
260.8027802817268
 31
0.0
  0
LINE
  5
20E
330
1F
100
AcDbEntity
  8
0
100
AcDbLine
 10
-719.5231584492136
 20
260.8027802817268
 30
0.0
 11
4.376841550762235
 21
260.8029564404309
 31
0.0
  0
LINE
  5
20F
330
1F
100
AcDbEntity
  8
0
100
AcDbLine
 10
10.72683488686416
 20
288.1873327933134
 30
0.0
 11
-14.67316667878953
 21
288.187329964625
 31
0.0
  0
LINE
  5
210
330
1F
100
AcDbEntity
  8
0
100
AcDbLine
 10
10.72682887861144
 20
306.4435861456311
 30
0.0
 11
10.72682532590505
 21
327.476783907829
 31
0.0
  0
LINE
  5
211
330
1F
100
AcDbEntity
  8
0
100
AcDbLine
 10
-673.485672322731
 20
317.2312008797279
 30
0.0
 11
-673.4856714750844
 21
313.9118823810526
 31
0.0
  0
LINE
  5
212
330
1F
100
AcDbEntity
  8
0
100
AcDbLine
 10
-95.66946778015861
 20
320.5506593672158
 30
0.0
 11
-670.3106731304764
 21
320.5505198341718
 31
0.0
  0
LINE
  5
213
330
1F
100
AcDbEntity
  8
0
100
AcDbLine
 10
-95.66946656850898
 20
315.5715512960662
 30
0.0
 11
-95.66946778015861
 21
320.5506593672158
 31
0.0
  0
LINE
  5
214
330
1F
100
AcDbEntity
  8
0
100
AcDbLine
 10
-95.66945768337546
 20
279.0593128929131
 30
0.0
 11
-95.66945647172584
 21
274.0802048217635
 31
0.0
  0
LINE
  5
215
330
1F
100
AcDbEntity
  8
0
100
AcDbLine
 10
10.51046940217472
 20
265.5103272007706
 30
0.0
 11
9.876102092024484
 21
263.9785448175833
 31
0.0
  0
LINE
  5
216
330
1F
100
AcDbEntity
  8
0
100
AcDbLine
 10
10.7268400052246
 20
267.1541320635329
 30
0.0
 11
10.51046940217472
 21
265.5103272007706
 31
0.0
  0
LINE
  5
217
330
1F
100
AcDbEntity
  8
0
100
AcDbLine
 10
7.55184134369936
 20
261.6538531956315
 30
0.0
 11
6.020342434500294
 21
261.0193678491685
 31
0.0
  0
LINE
  5
218
330
1F
100
AcDbEntity
  8
0
100
AcDbLine
 10
9.876102092024484
 20
263.9785448175833
 30
0.0
 11
8.866969158619224
 21
262.663173351995
 31
0.0
  0
LINE
  5
219
330
1F
100
AcDbEntity
  8
0
100
AcDbLine
 10
6.020342434500294
 20
261.0193678491685
 30
0.0
 11
4.376841550762235
 21
260.8029564404309
 31
0.0
  0
LINE
  5
21A
330
1F
100
AcDbEntity
  8
0
100
AcDbLine
 10
8.866969158619224
 20
262.663173351995
 30
0.0
 11
7.55184134369936
 21
261.6538531956315
 31
0.0
  0
LINE
  5
21B
330
1F
100
AcDbEntity
  8
0
100
AcDbLine
 10
10.7268400052246
 20
267.1541320635329
 30
0.0
 11
10.72683488686416
 21
288.1873327933134
 31
0.0
  0
LINE
  5
21C
330
1F
100
AcDbEntity
  8
0
100
AcDbLine
 10
4.376823780367871
 20
333.8279564404274
 30
0.0
 11
6.020324769431723
 21
333.6115458315709
 31
0.0
  0
LINE
  5
21D
330
1F
100
AcDbEntity
  8
0
100
AcDbLine
 10
6.020324769431723
 20
333.6115458315709
 30
0.0
 11
7.551823987430565
 21
332.9770612304786
 31
0.0
  0
LINE
  5
21E
330
1F
100
AcDbEntity
  8
0
100
AcDbLine
 10
7.551823987430565
 20
332.9770612304786
 30
0.0
 11
8.866952293579747
 21
331.9677417141793
 31
0.0
  0
LINE
  5
21F
330
1F
100
AcDbEntity
  8
0
100
AcDbLine
 10
8.866952293579747
 20
331.9677417141793
 30
0.0
 11
9.876085867167571
 21
330.6523707397296
 31
0.0
  0
LINE
  5
220
330
1F
100
AcDbEntity
  8
0
100
AcDbLine
 10
9.876085867167571
 20
330.6523707397296
 30
0.0
 11
10.51045392282616
 21
329.1205886652849
 31
0.0
  0
LINE
  5
221
330
1F
100
AcDbEntity
  8
0
100
AcDbLine
 10
10.51045392282616
 20
329.1205886652849
 30
0.0
 11
10.72682532590505
 21
327.476783907829
 31
0.0
  0
LINE
  5
222
330
1F
100
AcDbEntity
  8
0
100
AcDbLine
 10
4.376823780367871
 20
333.8279564404274
 30
0.0
 11
-719.523176219608
 21
333.8277802817232
 31
0.0
  0
LINE
  5
223
330
1F
100
AcDbEntity
  8
0
100
AcDbLine
 10
387.1734163603071
 20
320.9012617894107
 30
0.0
 11
386.762541307161
 21
320.8447102092067
 31
0.0
  0
LINE
  5
224
330
1F
100
AcDbEntity
  8
0
100
AcDbLine
 10
773.7980186282635
 20
261.0968856081257
 30
0.0
 11
652.8334070801623
 21
261.0968987072984
 31
0.0
  0
LINE
  5
225
330
1F
100
AcDbEntity
  8
0
100
AcDbLine
 10
652.4225318460619
 20
261.1534503132399
 30
0.0
 11
652.8334070801623
 21
261.0968987072984
 31
0.0
  0
LINE
  5
226
330
1F
100
AcDbEntity
  8
0
100
AcDbLine
 10
773.7980223055943
 20
320.8447127410168
 30
0.0
 11
652.8334072142625
 21
320.8447096421433
 31
0.0
  0
LINE
  5
227
330
1F
100
AcDbEntity
  8
0
100
AcDbLine
 10
652.8334072142625
 20
320.8447096421433
 30
0.0
 11
652.4225317326419
 21
320.9012611933977
 31
0.0
  0
LINE
  5
228
330
1F
100
AcDbEntity
  8
0
100
AcDbLine
 10
387.5562912721781
 20
321.0670627175806
 30
0.0
 11
387.1734163603071
 21
320.9012617894107
 31
0.0
  0
LINE
  5
229
330
1F
100
AcDbEntity
  8
0
100
AcDbLine
 10
387.8850733231792
 20
321.3308139063268
 30
0.0
 11
387.5562912721781
 21
321.0670627175806
 31
0.0
  0
LINE
  5
22A
330
1F
100
AcDbEntity
  8
0
100
AcDbLine
 10
638.075850260053
 20
334.065451878626
 30
0.0
 11
637.6649750259527
 21
334.1220034845675
 31
0.0
  0
LINE
  5
22B
330
1F
100
AcDbEntity
  8
0
100
AcDbLine
 10
638.7875070410862
 20
333.6358997852146
 30
0.0
 11
638.4587250259527
 21
333.8996509592905
 31
0.0
  0
LINE
  5
22C
330
1F
100
AcDbEntity
  8
0
100
AcDbLine
 10
651.7108740217102
 20
321.3308138485859
 30
0.0
 11
638.7875070410862
 21
333.6358997852146
 31
0.0
  0
LINE
  5
22D
330
1F
100
AcDbEntity
  8
0
100
AcDbLine
 10
638.4587250259527
 20
333.8996509592905
 30
0.0
 11
638.075850260053
 21
334.065451878626
 31
0.0
  0
LINE
  5
22E
330
1F
100
AcDbEntity
  8
0
100
AcDbLine
 10
652.4225317326419
 20
320.9012611933977
 30
0.0
 11
652.0396565694128
 21
321.0670621674204
 31
0.0
  0
LINE
  5
22F
330
1F
100
AcDbEntity
  8
0
100
AcDbLine
 10
652.0396565694128
 20
321.0670621674204
 30
0.0
 11
651.7108740217102
 21
321.3308138485859
 31
0.0
  0
LINE
  5
230
330
1F
100
AcDbEntity
  8
0
100
AcDbLine
 10
386.762541720846
 20
261.0968987778275
 30
0.0
 11
387.1734169549463
 21
261.153450383769
 31
0.0
  0
LINE
  5
231
330
1F
100
AcDbEntity
  8
0
100
AcDbLine
 10
387.1734169549463
 20
261.153450383769
 30
0.0
 11
387.556291720846
 21
261.3192513031046
 31
0.0
  0
LINE
  5
232
330
1F
100
AcDbEntity
  8
0
100
AcDbLine
 10
387.556291720846
 20
261.3192513031046
 30
0.0
 11
387.8850737359796
 21
261.5830024771805
 31
0.0
  0
LINE
  5
233
330
1F
100
AcDbEntity
  8
0
100
AcDbLine
 10
400.8084414152793
 20
273.8880898493171
 30
0.0
 11
401.1372233281629
 21
274.1518409413673
 31
0.0
  0
LINE
  5
234
330
1F
100
AcDbEntity
  8
0
100
AcDbLine
 10
401.1372233281629
 20
274.1518409413673
 30
0.0
 11
401.5200980613306
 21
274.3176418465285
 31
0.0
  0
LINE
  5
235
330
1F
100
AcDbEntity
  8
0
100
AcDbLine
 10
401.5200980613306
 20
274.3176418465285
 30
0.0
 11
401.9309731275151
 21
274.3741934390278
 31
0.0
  0
LINE
  5
236
330
1F
100
AcDbEntity
  8
0
100
AcDbLine
 10
638.07585068596
 20
274.3176410245807
 30
0.0
 11
638.4587253804848
 21
274.1518401361534
 31
0.0
  0
LINE
  5
237
330
1F
100
AcDbEntity
  8
0
100
AcDbLine
 10
637.6649756907699
 20
274.3741925976393
 30
0.0
 11
638.07585068596
 21
274.3176410245807
 31
0.0
  0
LINE
  5
238
330
1F
100
AcDbEntity
  8
0
100
AcDbLine
 10
638.4587253804848
 20
274.1518401361534
 30
0.0
 11
638.7875071658732
 21
273.8880891727298
 31
0.0
  0
LINE
  5
239
330
1F
100
AcDbEntity
  8
0
100
AcDbLine
 10
651.7108750650285
 20
261.5830024066514
 30
0.0
 11
638.7875071658732
 21
273.8880891727298
 31
0.0
  0
LINE
  5
23A
330
1F
100
AcDbEntity
  8
0
100
AcDbLine
 10
401.9309731275151
 20
274.3741934390278
 30
0.0
 11
637.6649756907699
 21
274.3741925976393
 31
0.0
  0
LINE
  5
23B
330
1F
100
AcDbEntity
  8
0
100
AcDbLine
 10
651.7108750650285
 20
261.5830024066514
 30
0.0
 11
652.0396820780614
 21
261.3193154194005
 31
0.0
  0
LINE
  5
23C
330
1F
100
AcDbEntity
  8
0
100
AcDbLine
 10
652.0396820780614
 20
261.3193154194005
 30
0.0
 11
652.4225318460619
 21
261.1534503132399
 31
0.0
  0
LINE
  5
23D
330
1F
100
AcDbEntity
  8
0
100
AcDbLine
 10
775.4415195646659
 20
261.3231046319918
 30
0.0
 11
773.7980186282635
 21
261.0968856081257
 31
0.0
  0
LINE
  5
23E
330
1F
100
AcDbEntity
  8
0
100
AcDbLine
 10
776.9730186282653
 20
261.9863083093341
 30
0.0
 11
775.4415195646659
 21
261.3231046319918
 31
0.0
  0
LINE
  5
23F
330
1F
100
AcDbEntity
  8
0
100
AcDbLine
 10
778.2881466887994
 20
263.0413130056376
 30
0.0
 11
776.9730186282653
 21
261.9863083093341
 31
0.0
  0
LINE
  5
240
330
1F
100
AcDbEntity
  8
0
100
AcDbLine
 10
779.297279942296
 20
264.416221894327
 30
0.0
 11
778.2881466887994
 21
263.0413130056376
 31
0.0
  0
LINE
  5
241
330
1F
100
AcDbEntity
  8
0
100
AcDbLine
 10
779.9316476252003
 20
266.0173372067823
 30
0.0
 11
779.297279942296
 21
264.416221894327
 31
0.0
  0
LINE
  5
242
330
1F
100
AcDbEntity
  8
0
100
AcDbLine
 10
780.1480186282652
 20
267.735545580428
 30
0.0
 11
779.9316476252003
 21
266.0173372067823
 31
0.0
  0
LINE
  5
243
330
1F
100
AcDbEntity
  8
0
100
AcDbLine
 10
780.1480176453417
 20
314.2060631667286
 30
0.0
 11
780.1480186282652
 21
267.735545580428
 31
0.0
  0
LINE
  5
244
330
1F
100
AcDbEntity
  8
0
100
AcDbLine
 10
779.9316466806603
 20
315.9242712359904
 30
0.0
 11
780.1480176453417
 21
314.2060631667286
 31
0.0
  0
LINE
  5
245
330
1F
100
AcDbEntity
  8
0
100
AcDbLine
 10
779.2972791101865
 20
317.5253862648193
 30
0.0
 11
779.9316466806603
 21
315.9242712359904
 31
0.0
  0
LINE
  5
246
330
1F
100
AcDbEntity
  8
0
100
AcDbLine
 10
778.2881460355053
 20
318.9002949099684
 30
0.0
 11
779.2972791101865
 21
317.5253862648193
 31
0.0
  0
LINE
  5
247
330
1F
100
AcDbEntity
  8
0
100
AcDbLine
 10
776.9730182079855
 20
319.9552994194147
 30
0.0
 11
778.2881460355053
 21
318.9002949099684
 31
0.0
  0
LINE
  5
248
330
1F
100
AcDbEntity
  8
0
100
AcDbLine
 10
775.441519415721
 20
320.6185029793168
 30
0.0
 11
776.9730182079855
 21
319.9552994194147
 31
0.0
  0
LINE
  5
249
330
1F
100
AcDbEntity
  8
0
100
AcDbLine
 10
773.7980223055943
 20
320.8447127410168
 30
0.0
 11
775.441519415721
 21
320.6185029793168
 31
0.0
  0
LINE
  5
24A
330
1F
100
AcDbEntity
  8
0
100
AcDbLine
 10
637.6649750259527
 20
334.1220034845675
 30
0.0
 11
401.9309624640862
 21
334.122030967647
 31
0.0
  0
LINE
  5
24B
330
1F
100
AcDbEntity
  8
0
100
AcDbLine
 10
401.9309624640862
 20
334.122030967647
 30
0.0
 11
401.520087229986
 21
334.0654793617055
 31
0.0
  0
LINE
  5
24C
330
1F
100
AcDbEntity
  8
0
100
AcDbLine
 10
401.520087229986
 20
334.0654793617055
 30
0.0
 11
401.1372124640862
 21
333.89967844237
 31
0.0
  0
LINE
  5
24D
330
1F
100
AcDbEntity
  8
0
100
AcDbLine
 10
401.1372124640862
 20
333.89967844237
 30
0.0
 11
400.8084304489526
 21
333.6359272682941
 31
0.0
  0
LINE
  5
24E
330
1F
100
AcDbEntity
  8
0
100
AcDbLine
 10
400.8084304489526
 20
333.6359272682941
 30
0.0
 11
387.8850733231792
 21
321.3308139063268
 31
0.0
  0
LINE
  5
24F
330
1F
100
AcDbEntity
  8
0
100
AcDbLine
 10
386.762541307161
 20
320.8447102092067
 30
0.0
 11
265.7980207151222
 21
320.8447105391398
 31
0.0
  0
LINE
  5
250
330
1F
100
AcDbEntity
  8
0
100
AcDbLine
 10
264.1545197787212
 20
320.6185041153738
 30
0.0
 11
265.7980207151222
 21
320.8447105391398
 31
0.0
  0
LINE
  5
251
330
1F
100
AcDbEntity
  8
0
100
AcDbLine
 10
262.6230207151222
 20
319.9553004380316
 30
0.0
 11
264.1545197787212
 21
320.6185041153738
 31
0.0
  0
LINE
  5
252
330
1F
100
AcDbEntity
  8
0
100
AcDbLine
 10
261.3078926545876
 20
318.9002957417281
 30
0.0
 11
262.6230207151222
 21
319.9553004380316
 31
0.0
  0
LINE
  5
253
330
1F
100
AcDbEntity
  8
0
100
AcDbLine
 10
260.298759401091
 20
317.5253868530388
 30
0.0
 11
261.3078926545876
 21
318.9002957417281
 31
0.0
  0
LINE
  5
254
330
1F
100
AcDbEntity
  8
0
100
AcDbLine
 10
259.6643917181867
 20
315.9242715405834
 30
0.0
 11
260.298759401091
 21
317.5253868530388
 31
0.0
  0
LINE
  5
255
330
1F
100
AcDbEntity
  8
0
100
AcDbLine
 10
259.4480207151222
 20
314.2060631669377
 30
0.0
 11
259.6643917181867
 21
315.9242715405834
 31
0.0
  0
LINE
  5
256
330
1F
100
AcDbEntity
  8
0
100
AcDbLine
 10
259.4480207151222
 20
314.2060631669377
 30
0.0
 11
259.4480207165223
 21
267.7355473820378
 31
0.0
  0
LINE
  5
257
330
1F
100
AcDbEntity
  8
0
100
AcDbLine
 10
259.6643917196384
 20
266.0173390083992
 30
0.0
 11
259.4480207165223
 21
267.7355473820378
 31
0.0
  0
LINE
  5
258
330
1F
100
AcDbEntity
  8
0
100
AcDbLine
 10
260.298759402591
 20
264.4162236959647
 30
0.0
 11
259.6643917196384
 21
266.0173390083992
 31
0.0
  0
LINE
  5
259
330
1F
100
AcDbEntity
  8
0
100
AcDbLine
 10
261.3078926561291
 20
263.0413148073086
 30
0.0
 11
260.298759402591
 21
264.4162236959647
 31
0.0
  0
LINE
  5
25A
330
1F
100
AcDbEntity
  8
0
100
AcDbLine
 10
262.6230207166955
 20
261.9863101110485
 30
0.0
 11
261.3078926561291
 21
263.0413148073086
 31
0.0
  0
LINE
  5
25B
330
1F
100
AcDbEntity
  8
0
100
AcDbLine
 10
264.1545197803144
 20
261.3231064337566
 30
0.0
 11
262.6230207166955
 21
261.9863101110485
 31
0.0
  0
LINE
  5
25C
330
1F
100
AcDbEntity
  8
0
100
AcDbLine
 10
265.7980207167222
 20
261.0969000100447
 30
0.0
 11
264.1545197803144
 21
261.3231064337566
 31
0.0
  0
LINE
  5
25D
330
1F
100
AcDbEntity
  8
0
100
AcDbLine
 10
265.7980207167222
 20
261.0969000100447
 30
0.0
 11
386.762541720846
 21
261.0968987778275
 31
0.0
  0
LINE
  5
25E
330
1F
100
AcDbEntity
  8
0
100
AcDbLine
 10
387.8850737359796
 20
261.5830024771805
 30
0.0
 11
400.8084414152793
 21
273.8880898493171
 31
0.0
  0
LINE
  5
25F
330
1F
100
AcDbEntity
  8
0
100
AcDbLine
 10
780.1480211804522
 20
222.4141459583765
 30
0.0
 11
780.1480211912045
 21
162.6664213904128
 31
0.0
  0
ENDSEC
  0
SECTION
  2
OBJECTS
  0
DICTIONARY
  5
C
330
0
100
AcDbDictionary
  3
ACAD_GROUP
350
D
  3
ACAD_LAYOUT
350
1A
  3
ACAD_MATERIAL
350
43
  3
ACAD_MLEADERSTYLE
350
6B
  3
ACAD_MLINESTYLE
350
17
  3
ACAD_PLOTSETTINGS
350
19
  3
ACAD_SCALELIST
350
47
  3
ACAD_VISUALSTYLE
350
2A
  3
ACDBHEADERROUNDTRIPXREC
350
260
  3
ACDBVARIABLEDICTIONARY
350
281
  0
DICTIONARY
  5
288
330
8
100
AcDbDictionary
280
     1
  3
ACAD_XREC_ROUNDTRIP
360
289
  0
DICTIONARY
  5
D
102
{ACAD_REACTORS
330
C
102
}
330
C
100
AcDbDictionary
  0
DICTIONARY
  5
1A
102
{ACAD_REACTORS
330
C
102
}
330
C
100
AcDbDictionary
  0
DICTIONARY
  5
43
102
{ACAD_REACTORS
330
C
102
}
330
C
100
AcDbDictionary
  3
BYBLOCK
350
45
  3
BYLAYER
350
44
  3
GLOBAL
350
46
  0
DICTIONARY
  5
6B
102
{ACAD_REACTORS
330
C
102
}
330
C
100
AcDbDictionary
  3
STANDARD
350
6C
  0
DICTIONARY
  5
17
102
{ACAD_REACTORS
330
C
102
}
330
C
100
AcDbDictionary
  3
STANDARD
350
18
  0
DICTIONARY
  5
19
102
{ACAD_REACTORS
330
C
102
}
330
C
100
AcDbDictionary
  0
DICTIONARY
  5
47
102
{ACAD_REACTORS
330
C
102
}
330
C
100
AcDbDictionary
  3
A0
350
48
  3
A1
350
49
  3
A2
350
4A
  3
A3
350
4B
  3
A4
350
4C
  3
A5
350
4D
  3
A6
350
4E
  3
A7
350
4F
  3
A8
350
50
  3
A9
350
51
  3
B0
350
52
  3
B1
350
53
  3
B2
350
54
  3
B3
350
55
  3
B4
350
56
  3
B5
350
57
  3
B6
350
58
  3
B7
350
59
  3
B8
350
5A
  3
B9
350
5B
  3
C0
350
5C
  3
C1
350
5D
  3
C2
350
5E
  3
C3
350
5F
  3
C4
350
60
  3
C5
350
61
  3
C6
350
62
  3
C7
350
63
  3
C8
350
64
  3
C9
350
65
  3
D0
350
66
  3
D1
350
67
  3
D2
350
68
  0
DICTIONARY
  5
2A
102
{ACAD_REACTORS
330
C
102
}
330
C
100
AcDbDictionary
  3
2DWIREFRAME
350
2F
  3
BASIC
350
32
  3
BRIGHTEN
350
36
  3
COLORCHANGE
350
3A
  3
CONCEPTUAL
350
34
  3
DIM
350
35
  3
EDGECOLOROFF
350
3D
  3
FACEPATTERN
350
39
  3
FLAT
350
2B
  3
FLATWITHEDGES
350
2C
  3
GOURAUD
350
2D
  3
GOURAUDWITHEDGES
350
2E
  3
HIDDEN
350
31
  3
JITTEROFF
350
3B
  3
LINEPATTERN
350
38
  3
OVERHANGOFF
350
3C
  3
REALISTIC
350
33
  3
SHADED
350
42
  3
SHADED_WITH_EDGES
350
41
  3
SHADES_OF_GRAY
350
3E
  3
SKETCHY
350
3F
  3
THICKEN
350
37
  3
WIREFRAME
350
30
  3
X-RAY
350
40
  0
DICTIONARY
  5
260
102
{ACAD_REACTORS
330
C
102
}
330
C
100
AcDbDictionary
  3
CEPSNID
350
26A
  3
CEPSNTYPE
350
269
  3
DIMSTYLEDATA
350
280
  3
FINGERPRINTGUID
350
26B
  3
HYPERLINKBASE
350
263
  3
INSUNITS
350
268
  3
LAYOUTDICT
350
265
  3
LWETCUNION
350
267
  3
PLOTSETDICT
350
266
  3
PSVPSCALE
350
26D
  3
PUCSBASE
350
270
  3
PUCSORGBACK
350
276
  3
PUCSORGBOTTOM
350
272
  3
PUCSORGFRONT
350
275
  3
PUCSORGLEFT
350
273
  3
PUCSORGRIGHT
350
274
  3
PUCSORGTOP
350
271
  3
PUCSORTHOREF
350
26E
  3
PUCSORTHOVIEW
350
26F
  3
STYLESHEET
350
264
  3
TSTACKALIGN
350
261
  3
TSTACKSIZE
350
262
  3
UCSBASE
350
279
  3
UCSORGBACK
350
27F
  3
UCSORGBOTTOM
350
27B
  3
UCSORGFRONT
350
27E
  3
UCSORGLEFT
350
27C
  3
UCSORGRIGHT
350
27D
  3
UCSORGTOP
350
27A
  3
UCSORTHOREF
350
277
  3
UCSORTHOVIEW
350
278
  3
VERSIONGUID
350
26C
  0
DICTIONARY
  5
281
102
{ACAD_REACTORS
330
C
102
}
330
C
100
AcDbDictionary
  3
CANNOSCALE
350
28A
  3
CMLEADERSTYLE
350
283
  3
CTABLESTYLE
350
282
  3
DIMASSOC
350
286
  3
HIDETEXT
350
287
  3
MSLTSCALE
350
28B
  0
XRECORD
  5
289
102
{ACAD_REACTORS
330
288
102
}
330
288
100
AcDbXrecord
102
VTR_0.000_0.000_1.000_1.000_VISUALSTYLE
340
2F
102
VTR_0.000_0.000_1.000_1.000_GRIDDISPLAY
 70
     3
102
VTR_0.000_0.000_1.000_1.000_GRIDMAJOR
 70
     5
102
VTR_0.000_0.000_1.000_1.000_DEFAULTLIGHTING
280
     1
102
VTR_0.000_0.000_1.000_1.000_DEFAULTLIGHTINGTYPE
 70
     1
102
VTR_0.000_0.000_1.000_1.000_BRIGHTNESS
141
0.0
102
VTR_0.000_0.000_1.000_1.000_CONTRAST
142
0.0
  0
MATERIAL
  5
45
102
{ACAD_REACTORS
330
43
102
}
102
{ACAD_XDICTIONARY
360
28E
102
}
330
43
100
AcDbMaterial
  1
BYBLOCK
  0
MATERIAL
  5
44
102
{ACAD_REACTORS
330
43
102
}
102
{ACAD_XDICTIONARY
360
28C
102
}
330
43
100
AcDbMaterial
  1
BYLAYER
  0
MATERIAL
  5
46
102
{ACAD_REACTORS
330
43
102
}
102
{ACAD_XDICTIONARY
360
290
102
}
330
43
100
AcDbMaterial
  1
GLOBAL
  0
ACAD_PROXY_OBJECT
  5
6C
102
{ACAD_REACTORS
330
6B
102
}
330
6B
100
AcDbProxyObject
 90
      499
 91
      505
 93
      610
310
40901902A4063FBFFFFFE056BD1B81E855B9FC0AD7A3703D0AD73F4214DD185B99185C9900AD7A3703D0AC73F90141901A02B5E8DC0F42B1CFC02B5E8DC0F42B1CFE5764000000000000300FC0
340
14
340
0
340
11
340
0
 94
        0
1001
ACAD_MLEADERVER
1070
     2
  0
MLINESTYLE
  5
18
102
{ACAD_REACTORS
330
17
102
}
330
17
100
AcDbMlineStyle
  2
Standard
 70
     0
  3

 62
   256
 51
90.0
 52
90.0
 71
     2
 49
0.5
 62
   256
  6
BYLAYER
 49
-0.5
 62
   256
  6
BYLAYER
  0
ACAD_PROXY_OBJECT
  5
48
102
{ACAD_REACTORS
330
47
102
}
330
47
100
AcDbProxyObject
 90
      499
 91
      503
 93
       41
310
903313A31580
  0
ACAD_PROXY_OBJECT
  5
49
102
{ACAD_REACTORS
330
47
102
}
330
47
100
AcDbProxyObject
 90
      499
 91
      503
 93
      105
310
903313A324000000000000004000
  0
ACAD_PROXY_OBJECT
  5
4A
102
{ACAD_REACTORS
330
47
102
}
330
47
100
AcDbProxyObject
 90
      499
 91
      503
 93
      105
310
903313A344000000000000104000
  0
ACAD_PROXY_OBJECT
  5
4B
102
{ACAD_REACTORS
330
47
102
}
330
47
100
AcDbProxyObject
 90
      499
 91
      503
 93
      105
310
903313A354000000000000144000
  0
ACAD_PROXY_OBJECT
  5
4C
102
{ACAD_REACTORS
330
47
102
}
330
47
100
AcDbProxyObject
 90
      499
 91
      503
 93
      105
310
903313A384000000000000204000
  0
ACAD_PROXY_OBJECT
  5
4D
102
{ACAD_REACTORS
330
47
102
}
330
47
100
AcDbProxyObject
 90
      499
 91
      503
 93
      113
310
904313A31304000000000000244000
  0
ACAD_PROXY_OBJECT
  5
4E
102
{ACAD_REACTORS
330
47
102
}
330
47
100
AcDbProxyObject
 90
      499
 91
      503
 93
      113
310
904313A31364000000000000304000
  0
ACAD_PROXY_OBJECT
  5
4F
102
{ACAD_REACTORS
330
47
102
}
330
47
100
AcDbProxyObject
 90
      499
 91
      503
 93
      113
310
904313A32304000000000000344000
  0
ACAD_PROXY_OBJECT
  5
50
102
{ACAD_REACTORS
330
47
102
}
330
47
100
AcDbProxyObject
 90
      499
 91
      503
 93
      113
310
904313A333040000000000003E4000
  0
ACAD_PROXY_OBJECT
  5
51
102
{ACAD_REACTORS
330
47
102
}
330
47
100
AcDbProxyObject
 90
      499
 91
      503
 93
      113
310
904313A34304000000000000444000
  0
ACAD_PROXY_OBJECT
  5
52
102
{ACAD_REACTORS
330
47
102
}
330
47
100
AcDbProxyObject
 90
      499
 91
      503
 93
      113
310
904313A35304000000000000494000
  0
ACAD_PROXY_OBJECT
  5
53
102
{ACAD_REACTORS
330
47
102
}
330
47
100
AcDbProxyObject
 90
      499
 91
      503
 93
      121
310
905313A3130304000000000000594000
  0
ACAD_PROXY_OBJECT
  5
54
102
{ACAD_REACTORS
330
47
102
}
330
47
100
AcDbProxyObject
 90
      499
 91
      503
 93
      105
310
903323A310000000000000010100
  0
ACAD_PROXY_OBJECT
  5
55
102
{ACAD_REACTORS
330
47
102
}
330
47
100
AcDbProxyObject
 90
      499
 91
      503
 93
      105
310
903343A310000000000000410100
  0
ACAD_PROXY_OBJECT
  5
56
102
{ACAD_REACTORS
330
47
102
}
330
47
100
AcDbProxyObject
 90
      499
 91
      503
 93
      105
310
903383A310000000000000810100
  0
ACAD_PROXY_OBJECT
  5
57
102
{ACAD_REACTORS
330
47
102
}
330
47
100
AcDbProxyObject
 90
      499
 91
      503
 93
      113
310
90431303A310000000000000910100
  0
ACAD_PROXY_OBJECT
  5
58
102
{ACAD_REACTORS
330
47
102
}
330
47
100
AcDbProxyObject
 90
      499
 91
      503
 93
      121
310
9053130303A310000000000001650100
  0
ACAD_PROXY_OBJECT
  5
59
102
{ACAD_REACTORS
330
47
102
}
330
47
100
AcDbProxyObject
 90
      499
 91
      503
 93
      257
310
90E312F31323822203D2031272D3022000000000000200FC000000000000284000
  0
ACAD_PROXY_OBJECT
  5
5A
102
{ACAD_REACTORS
330
47
102
}
330
47
100
AcDbProxyObject
 90
      499
 91
      503
 93
      249
310
90D312F363422203D2031272D3022000000000000240FC000000000000284000
  0
ACAD_PROXY_OBJECT
  5
5B
102
{ACAD_REACTORS
330
47
102
}
330
47
100
AcDbProxyObject
 90
      499
 91
      503
 93
      249
310
90D312F333222203D2031272D3022000000000000280FC000000000000284000
  0
ACAD_PROXY_OBJECT
  5
5C
102
{ACAD_REACTORS
330
47
102
}
330
47
100
AcDbProxyObject
 90
      499
 91
      503
 93
      249
310
90D312F313622203D2031272D30220000000000002C0FC000000000000284000
  0
ACAD_PROXY_OBJECT
  5
5D
102
{ACAD_REACTORS
330
47
102
}
330
47
100
AcDbProxyObject
 90
      499
 91
      503
 93
      249
310
90D332F333222203D2031272D30220000000000002E0FC000000000000284000
  0
ACAD_PROXY_OBJECT
  5
5E
102
{ACAD_REACTORS
330
47
102
}
330
47
100
AcDbProxyObject
 90
      499
 91
      503
 93
      241
310
90C312F3822203D2031272D3022000000000000300FC000000000000284000
  0
ACAD_PROXY_OBJECT
  5
5F
102
{ACAD_REACTORS
330
47
102
}
330
47
100
AcDbProxyObject
 90
      499
 91
      503
 93
      249
310
90D332F313622203D2031272D3022000000000000320FC000000000000284000
  0
ACAD_PROXY_OBJECT
  5
60
102
{ACAD_REACTORS
330
47
102
}
330
47
100
AcDbProxyObject
 90
      499
 91
      503
 93
      241
310
90C312F3422203D2031272D3022000000000000340FC000000000000284000
  0
ACAD_PROXY_OBJECT
  5
61
102
{ACAD_REACTORS
330
47
102
}
330
47
100
AcDbProxyObject
 90
      499
 91
      503
 93
      241
310
90C332F3822203D2031272D3022000000000000360FC000000000000284000
  0
ACAD_PROXY_OBJECT
  5
62
102
{ACAD_REACTORS
330
47
102
}
330
47
100
AcDbProxyObject
 90
      499
 91
      503
 93
      241
310
90C312F3222203D2031272D3022000000000000380FC000000000000284000
  0
ACAD_PROXY_OBJECT
  5
63
102
{ACAD_REACTORS
330
47
102
}
330
47
100
AcDbProxyObject
 90
      499
 91
      503
 93
      241
310
90C332F3422203D2031272D30220000000000003A0FC000000000000284000
  0
ACAD_PROXY_OBJECT
  5
64
102
{ACAD_REACTORS
330
47
102
}
330
47
100
AcDbProxyObject
 90
      499
 91
      503
 93
      161
310
90A3122203D2031272D30224000000000000284000
  0
ACAD_PROXY_OBJECT
  5
65
102
{ACAD_REACTORS
330
47
102
}
330
47
100
AcDbProxyObject
 90
      499
 91
      503
 93
      257
310
90E312D312F3222203D2031272D30220000000000003E0FC000000000000284000
  0
ACAD_PROXY_OBJECT
  5
66
102
{ACAD_REACTORS
330
47
102
}
330
47
100
AcDbProxyObject
 90
      499
 91
      503
 93
      225
310
90A3322203D2031272D302200000000000002100000000000000284000
  0
ACAD_PROXY_OBJECT
  5
67
102
{ACAD_REACTORS
330
47
102
}
330
47
100
AcDbProxyObject
 90
      499
 91
      503
 93
      225
310
90A3622203D2031272D302200000000000006100000000000000284000
  0
ACAD_PROXY_OBJECT
  5
68
102
{ACAD_REACTORS
330
47
102
}
330
47
100
AcDbProxyObject
 90
      499
 91
      503
 93
      249
310
90D31272D3022203D2031272D30220000000000000A100000000000000284000
  0
ACAD_PROXY_OBJECT
  5
2F
102
{ACAD_REACTORS
330
2A
102
}
330
2A
100
AcDbProxyObject
 90
      499
 91
      501
 93
      436
310
42CC9915DA5C99599C985B595049028333333333333E33F0000000000000F90107901411070040501600405405064090741402480A0340
1001
ACAD
1000
AcDbSavedByObjectVersion
1070
     0
  0
ACAD_PROXY_OBJECT
  5
32
102
{ACAD_REACTORS
330
2A
102
}
330
2A
100
AcDbProxyObject
 90
      499
 91
      501
 93
      388
310
4150985CDA58D07406404333333333333E33F0000000000000F90107A41107004050150841D405064090741402480A0350
1001
ACAD
1000
AcDbSavedByObjectVersion
1070
     0
  0
ACAD_PROXY_OBJECT
  5
36
102
{ACAD_REACTORS
330
2A
102
}
330
2A
100
AcDbProxyObject
 90
      499
 91
      501
 93
      428
310
42109C9A59DA1D195B90C409028333333333333E33F0000000000000F9010790141107004050150841D405064090741402480A029950
1001
ACAD
1000
AcDbSavedByObjectVersion
1070
     0
  0
ACAD_PROXY_OBJECT
  5
3A
102
{ACAD_REACTORS
330
2A
102
}
330
2A
100
AcDbProxyObject
 90
      499
 91
      501
 93
      452
310
42D0DBDB1BDC90DA185B99D95104090240C333333333333E33F0000000000000F90108901411070040501508421405064090741402480A0350
1001
ACAD
1000
AcDbSavedByObjectVersion
1070
     0
  0
ACAD_PROXY_OBJECT
  5
34
102
{ACAD_REACTORS
330
2A
102
}
330
2A
100
AcDbProxyObject
 90
      499
 91
      501
 93
      500
310
4290DBDB98D95C1D1D585B10940D028333333333333E33F0000000000000F90107902409070040501000000000018199010841D405064090740C02480A0340
1001
ACAD
1000
AcDbSavedByObjectVersion
1070
     0
  0
ACAD_PROXY_OBJECT
  5
35
102
{ACAD_REACTORS
330
2A
102
}
330
2A
100
AcDbProxyObject
 90
      499
 91
      501
 93
      412
310
40D11A5B50B409028333333333333E33F0000000000000F9010790141107004050150841D405064090741402480A02677FFFFFD0
1001
ACAD
1000
AcDbSavedByObjectVersion
1070
     0
  0
ACAD_PROXY_OBJECT
  5
3D
102
{ACAD_REACTORS
330
2A
102
}
330
2A
100
AcDbProxyObject
 90
      499
 91
      501
 93
      452
310
43115919D950DBDB1BDC93D999916409028333333333333E33F0000000000000F9010790141107004050150841D405064090741402480A0350
1001
ACAD
1000
AcDbSavedByObjectVersion
1070
     0
  0
ACAD_PROXY_OBJECT
  5
39
102
{ACAD_REACTORS
330
2A
102
}
330
2A
100
AcDbProxyObject
 90
      499
 91
      501
 93
      444
310
42D19858D95C185D1D195C9B90F409028333333333333E33F0000000000000F9010790141107004050150841D405064090741402480A0350
1001
ACAD
1000
AcDbSavedByObjectVersion
1070
     0
  0
ACAD_PROXY_OBJECT
  5
2B
102
{ACAD_REACTORS
330
2A
102
}
330
2A
100
AcDbProxyObject
 90
      499
 91
      501
 93
      380
310
41119B185D240901404333333333333E33F0000000000000F9010740A907004050150841D405064090741402480A1B50
1001
ACAD
1000
AcDbSavedByObjectVersion
1070
     0
  0
ACAD_PROXY_OBJECT
  5
2C
102
{ACAD_REACTORS
330
2A
102
}
330
2A
100
AcDbProxyObject
 90
      499
 91
      501
 93
      468
310
43519B185D15DA5D1A115919D95CD0140901404333333333333E33F0000000000000F90107409019070040501600405405064090741402480A1B50
1001
ACAD
1000
AcDbSavedByObjectVersion
1070
     0
  0
ACAD_PROXY_OBJECT
  5
2D
102
{ACAD_REACTORS
330
2A
102
}
330
2A
100
AcDbProxyObject
 90
      499
 91
      501
 93
      404
310
41D1DBDD5C985D5910240902404333333333333E33F0000000000000F9010740A9070040501641D405064090741402480A1B50
1001
ACAD
1000
AcDbSavedByObjectVersion
1070
     0
  0
ACAD_PROXY_OBJECT
  5
2E
102
{ACAD_REACTORS
330
2A
102
}
330
2A
100
AcDbProxyObject
 90
      499
 91
      501
 93
      492
310
4411DBDD5C985D5915DA5D1A115919D95CD0340902404333333333333E33F0000000000000F90107409019070040501600405405064090741402480A1B50
1001
ACAD
1000
AcDbSavedByObjectVersion
1070
     0
  0
ACAD_PROXY_OBJECT
  5
31
102
{ACAD_REACTORS
330
2A
102
}
330
2A
100
AcDbProxyObject
 90
      499
 91
      501
 93
      476
310
41921A5919195B90640502408333333333333E33F0000000000000F901079024090700405020000000000001110200405405064090740C02480A0340
1001
ACAD
1000
AcDbSavedByObjectVersion
1070
     0
  0
ACAD_PROXY_OBJECT
  5
3B
102
{ACAD_REACTORS
330
2A
102
}
330
2A
100
AcDbProxyObject
 90
      499
 91
      501
 93
      428
310
42529A5D1D195C93D999914409028333333333333E33F0000000000000F9010790141107004050150A41D405064090741402480A0350
1001
ACAD
1000
AcDbSavedByObjectVersion
1070
     0
  0
ACAD_PROXY_OBJECT
  5
38
102
{ACAD_REACTORS
330
2A
102
}
330
2A
100
AcDbProxyObject
 90
      499
 91
      501
 93
      444
310
42D31A5B995C185D1D195C9B90E409028333333333333E33F0000000000000F9010790141107004050750841D405064090741402483A0350
1001
ACAD
1000
AcDbSavedByObjectVersion
1070
     0
  0
ACAD_PROXY_OBJECT
  5
3C
102
{ACAD_REACTORS
330
2A
102
}
330
2A
100
AcDbProxyObject
 90
      499
 91
      501
 93
      444
310
42D3DD995C9A185B99D3D999915409028333333333333E33F0000000000000F9010790141107004050150941D405064090741402480A0350
1001
ACAD
1000
AcDbSavedByObjectVersion
1070
     0
  0
ACAD_PROXY_OBJECT
  5
33
102
{ACAD_REACTORS
330
2A
102
}
330
2A
100
AcDbProxyObject
 90
      499
 91
      501
 93
      428
310
425499585B1A5CDD1A58D08409038333333333333E33F0000000000000F9010740A907004050150800405405064090740C02480A1B40
1001
ACAD
1000
AcDbSavedByObjectVersion
1070
     0
  0
ACAD_PROXY_OBJECT
  5
42
102
{ACAD_REACTORS
330
2A
102
}
330
2A
100
AcDbProxyObject
 90
      499
 91
      501
 93
      420
310
4194DA1859195911B40902404333333333333E33F0000000000000F9010740A41107004050150800405405064090840C02480A0B40
1001
ACAD
1000
AcDbSavedByObjectVersion
1070
     0
  0
ACAD_PROXY_OBJECT
  5
41
102
{ACAD_REACTORS
330
2A
102
}
330
2A
100
AcDbProxyObject
 90
      499
 91
      501
 93
      516
310
4454DA18591959081DDA5D1A08195919D95CD1A40902404333333333333E33F0000000000000F901074090142907004050250800405405064090740C02480A0B40
1001
ACAD
1000
AcDbSavedByObjectVersion
1070
     0
  0
ACAD_PROXY_OBJECT
  5
3E
102
{ACAD_REACTORS
330
2A
102
}
330
2A
100
AcDbProxyObject
 90
      499
 91
      501
 93
      532
310
4394DA1859195CC81BD98811DC985E5174090240C333333333333E33F0000000000000F901079024090741D01000000000000111010841D405064090740C02480A0340
1001
ACAD
1000
AcDbSavedByObjectVersion
1070
     0
  0
ACAD_PROXY_OBJECT
  5
3F
102
{ACAD_REACTORS
330
2A
102
}
330
2A
100
AcDbProxyObject
 90
      499
 91
      501
 93
      476
310
41D4DAD95D18DA1E51840502408333333333333E33F0000000000000F901079024090741D01000000000000111010B41D405064090741802480A0340
1001
ACAD
1000
AcDbSavedByObjectVersion
1070
     0
  0
ACAD_PROXY_OBJECT
  5
37
102
{ACAD_REACTORS
330
2A
102
}
330
2A
100
AcDbProxyObject
 90
      499
 91
      501
 93
      412
310
41D51A1A58DAD95B90D409028333333333333E33F0000000000000F9010790141107004050150C41D405064090741402480A0350
1001
ACAD
1000
AcDbSavedByObjectVersion
1070
     0
  0
ACAD_PROXY_OBJECT
  5
30
102
{ACAD_REACTORS
330
2A
102
}
330
2A
100
AcDbProxyObject
 90
      499
 91
      501
 93
      420
310
4255DA5C99599C985B595059028333333333333E33F0000000000000F90107901411070040501600405405064090740C02480A0340
1001
ACAD
1000
AcDbSavedByObjectVersion
1070
     0
  0
ACAD_PROXY_OBJECT
  5
40
102
{ACAD_REACTORS
330
2A
102
}
330
2A
100
AcDbProxyObject
 90
      499
 91
      501
 93
      404
310
41560B54985E51940902404000000000000E03F0000000000000F9010740501907004050150841D405064090740C02480A1B40
1001
ACAD
1000
AcDbSavedByObjectVersion
1070
     0
  0
XRECORD
  5
26A
102
{ACAD_REACTORS
330
260
102
}
330
260
100
AcDbXrecord
340
0
  0
XRECORD
  5
269
102
{ACAD_REACTORS
330
260
102
}
330
260
100
AcDbXrecord
 90
        0
  0
XRECORD
  5
280
102
{ACAD_REACTORS
330
260
102
}
330
260
100
AcDbXrecord
1000
DSTYLE
1002
{
1070
   171
 70
     2
1070
   143
 40
25.4
1070
   274
 70
     2
1070
    41
 40
0.18
1070
   141
 40
0.09
1070
   271
 70
     4
1070
    43
 40
0.38
1070
   278
 70
    46
1070
    44
 40
0.18
1070
    42
 40
0.0625
1070
   147
 40
0.09
1070
    77
 70
     0
1070
   272
 70
     4
1070
    73
 70
     1
1070
   172
 70
     0
1070
    74
 70
     1
1070
   283
 70
     1
1070
   340
340
11
1070
   140
 40
0.18
1070
   284
 70
     0
1070
    78
 70
     0
1002
}
  0
XRECORD
  5
26B
102
{ACAD_REACTORS
330
260
102
}
330
260
100
AcDbXrecord
  1
{2195e730-2b34-6b4c-a27d-34c2f5c1cce2}
  0
XRECORD
  5
263
102
{ACAD_REACTORS
330
260
102
}
330
260
100
AcDbXrecord
  1

  0
XRECORD
  5
268
102
{ACAD_REACTORS
330
260
102
}
330
260
100
AcDbXrecord
 90
        4
  0
XRECORD
  5
265
102
{ACAD_REACTORS
330
260
102
}
330
260
100
AcDbXrecord
340
1A
  0
XRECORD
  5
267
102
{ACAD_REACTORS
330
260
102
}
330
260
100
AcDbXrecord
 90
    10781
  0
XRECORD
  5
266
102
{ACAD_REACTORS
330
260
102
}
330
260
100
AcDbXrecord
340
19
  0
XRECORD
  5
26D
102
{ACAD_REACTORS
330
260
102
}
330
260
100
AcDbXrecord
 40
0.0
  0
XRECORD
  5
270
102
{ACAD_REACTORS
330
260
102
}
330
260
100
AcDbXrecord
340
0
  0
XRECORD
  5
276
102
{ACAD_REACTORS
330
260
102
}
330
260
100
AcDbXrecord
 10
0.0
 20
0.0
 30
0.0
  0
XRECORD
  5
272
102
{ACAD_REACTORS
330
260
102
}
330
260
100
AcDbXrecord
 10
0.0
 20
0.0
 30
0.0
  0
XRECORD
  5
275
102
{ACAD_REACTORS
330
260
102
}
330
260
100
AcDbXrecord
 10
0.0
 20
0.0
 30
0.0
  0
XRECORD
  5
273
102
{ACAD_REACTORS
330
260
102
}
330
260
100
AcDbXrecord
 10
0.0
 20
0.0
 30
0.0
  0
XRECORD
  5
274
102
{ACAD_REACTORS
330
260
102
}
330
260
100
AcDbXrecord
 10
0.0
 20
0.0
 30
0.0
  0
XRECORD
  5
271
102
{ACAD_REACTORS
330
260
102
}
330
260
100
AcDbXrecord
 10
0.0
 20
0.0
 30
0.0
  0
XRECORD
  5
26E
102
{ACAD_REACTORS
330
260
102
}
330
260
100
AcDbXrecord
340
0
  0
XRECORD
  5
26F
102
{ACAD_REACTORS
330
260
102
}
330
260
100
AcDbXrecord
 70
     0
  0
XRECORD
  5
264
102
{ACAD_REACTORS
330
260
102
}
330
260
100
AcDbXrecord
  1

  0
XRECORD
  5
261
102
{ACAD_REACTORS
330
260
102
}
330
260
100
AcDbXrecord
 90
        1
  0
XRECORD
  5
262
102
{ACAD_REACTORS
330
260
102
}
330
260
100
AcDbXrecord
 90
       70
  0
XRECORD
  5
279
102
{ACAD_REACTORS
330
260
102
}
330
260
100
AcDbXrecord
340
0
  0
XRECORD
  5
27F
102
{ACAD_REACTORS
330
260
102
}
330
260
100
AcDbXrecord
 10
0.0
 20
0.0
 30
0.0
  0
XRECORD
  5
27B
102
{ACAD_REACTORS
330
260
102
}
330
260
100
AcDbXrecord
 10
0.0
 20
0.0
 30
0.0
  0
XRECORD
  5
27E
102
{ACAD_REACTORS
330
260
102
}
330
260
100
AcDbXrecord
 10
0.0
 20
0.0
 30
0.0
  0
XRECORD
  5
27C
102
{ACAD_REACTORS
330
260
102
}
330
260
100
AcDbXrecord
 10
0.0
 20
0.0
 30
0.0
  0
XRECORD
  5
27D
102
{ACAD_REACTORS
330
260
102
}
330
260
100
AcDbXrecord
 10
0.0
 20
0.0
 30
0.0
  0
XRECORD
  5
27A
102
{ACAD_REACTORS
330
260
102
}
330
260
100
AcDbXrecord
 10
0.0
 20
0.0
 30
0.0
  0
XRECORD
  5
277
102
{ACAD_REACTORS
330
260
102
}
330
260
100
AcDbXrecord
340
0
  0
XRECORD
  5
278
102
{ACAD_REACTORS
330
260
102
}
330
260
100
AcDbXrecord
 70
     0
  0
XRECORD
  5
26C
102
{ACAD_REACTORS
330
260
102
}
330
260
100
AcDbXrecord
  1
{FAEB1C32-E019-11D5-929B-00C0DF256EC4}
  0
DICTIONARYVAR
  5
28A
102
{ACAD_REACTORS
330
281
102
}
330
281
100
DictionaryVariables
280
     0
  1
1:1
  0
DICTIONARYVAR
  5
283
102
{ACAD_REACTORS
330
281
102
}
330
281
100
DictionaryVariables
280
     0
  1
Standard
  0
DICTIONARYVAR
  5
282
102
{ACAD_REACTORS
330
281
102
}
330
281
100
DictionaryVariables
280
     0
  1
Standard
  0
DICTIONARYVAR
  5
286
102
{ACAD_REACTORS
330
281
102
}
330
281
100
DictionaryVariables
280
     0
  1
2
  0
DICTIONARYVAR
  5
287
102
{ACAD_REACTORS
330
281
102
}
330
281
100
DictionaryVariables
280
     0
  1
1
  0
DICTIONARYVAR
  5
28B
102
{ACAD_REACTORS
330
281
102
}
330
281
100
DictionaryVariables
280
     0
  1
1
  0
DICTIONARY
  5
28E
330
45
100
AcDbDictionary
280
     1
  3
ACAD_XREC_ROUNDTRIP
360
28F
  0
DICTIONARY
  5
28C
330
44
100
AcDbDictionary
280
     1
  3
ACAD_XREC_ROUNDTRIP
360
28D
  0
DICTIONARY
  5
290
330
46
100
AcDbDictionary
280
     1
  3
ACAD_XREC_ROUNDTRIP
360
291
  0
XRECORD
  5
28F
102
{ACAD_REACTORS
330
28E
102
}
330
28E
100
AcDbXrecord
102
MATERIAL
148
0.0
149
0.0
149
0.0
 93
        0
 94
      127
282
     0
 72
     1
 77
     1
171
     1
175
     1
179
     1
273
     0
  0
XRECORD
  5
28D
102
{ACAD_REACTORS
330
28C
102
}
330
28C
100
AcDbXrecord
102
MATERIAL
148
0.0
149
0.0
149
0.0
 93
        0
 94
      127
282
     0
 72
     1
 77
     1
171
     1
175
     1
179
     1
273
     0
  0
XRECORD
  5
291
102
{ACAD_REACTORS
330
290
102
}
330
290
100
AcDbXrecord
102
MATERIAL
148
0.0
149
0.0
149
0.0
 93
        0
 94
      127
282
     0
 72
     1
 77
     1
171
     1
175
     1
179
     1
273
     0
  0
ENDSEC
  0
EOF
