  0
SECTION
  2
HEADER
  9
$ACADVER
  1
AC1014
  9
$ACADMAINTVER
 70
     9
  9
$DWGCODEPAGE
  3
MAC-ROMAN
  9
$INSBASE
 10
0.0
 20
0.0
 30
0.0
  9
$EXTMIN
 10
1.000000000000000E+20
 20
1.000000000000000E+20
 30
1.000000000000000E+20
  9
$EXTMAX
 10
-1.000000000000000E+20
 20
-1.000000000000000E+20
 30
-1.000000000000000E+20
  9
$LIMMIN
 10
0.0
 20
0.0
  9
$LIMMAX
 10
12.0
 20
9.0
  9
$ORTHOMODE
 70
     0
  9
$REGENMODE
 70
     1
  9
$FILLMODE
 70
     1
  9
$QTEXTMODE
 70
     0
  9
$MIRRTEXT
 70
     1
  9
$DRAGMODE
 70
     2
  9
$LTSCALE
 40
1.0
  9
$OSMODE
 70
    37
  9
$ATTMODE
 70
     1
  9
$TEXTSIZE
 40
0.2
  9
$TRACEWID
 40
0.05
  9
$TEXTSTYLE
  7
STANDARD
  9
$CLAYER
  8
0
  9
$CELTYPE
  6
BYLAYER
  9
$CECOLOR
 62
   256
  9
$CELTSCALE
 40
1.0
  9
$DELOBJ
 70
     1
  9
$DISPSILH
 70
     0
  9
$DIMSCALE
 40
1.0
  9
$DIMASZ
 40
0.18
  9
$DIMEXO
 40
0.0625
  9
$DIMDLI
 40
0.38
  9
$DIMRND
 40
0.0
  9
$DIMDLE
 40
0.0
  9
$DIMEXE
 40
0.18
  9
$DIMTP
 40
0.0
  9
$DIMTM
 40
0.0
  9
$DIMTXT
 40
0.18
  9
$DIMCEN
 40
0.09
  9
$DIMTSZ
 40
0.0
  9
$DIMTOL
 70
     0
  9
$DIMLIM
 70
     0
  9
$DIMTIH
 70
     1
  9
$DIMTOH
 70
     1
  9
$DIMSE1
 70
     0
  9
$DIMSE2
 70
     0
  9
$DIMTAD
 70
     0
  9
$DIMZIN
 70
     0
  9
$DIMBLK
  1

  9
$DIMASO
 70
     1
  9
$DIMSHO
 70
     1
  9
$DIMPOST
  1

  9
$DIMAPOST
  1

  9
$DIMALT
 70
     0
  9
$DIMALTD
 70
     2
  9
$DIMALTF
 40
25.4
  9
$DIMLFAC
 40
1.0
  9
$DIMTOFL
 70
     0
  9
$DIMTVP
 40
0.0
  9
$DIMTIX
 70
     0
  9
$DIMSOXD
 70
     0
  9
$DIMSAH
 70
     0
  9
$DIMBLK1
  1

  9
$DIMBLK2
  1

  9
$DIMSTYLE
  2
STANDARD
  9
$DIMCLRD
 70
     0
  9
$DIMCLRE
 70
     0
  9
$DIMCLRT
 70
     0
  9
$DIMTFAC
 40
1.0
  9
$DIMGAP
 40
0.09
  9
$DIMJUST
 70
     0
  9
$DIMSD1
 70
     0
  9
$DIMSD2
 70
     0
  9
$DIMTOLJ
 70
     1
  9
$DIMTZIN
 70
     0
  9
$DIMALTZ
 70
     0
  9
$DIMALTTZ
 70
     0
  9
$DIMFIT
 70
     3
  9
$DIMUPT
 70
     0
  9
$DIMUNIT
 70
     2
  9
$DIMDEC
 70
     4
  9
$DIMTDEC
 70
     4
  9
$DIMALTU
 70
     2
  9
$DIMALTTD
 70
     2
  9
$DIMTXSTY
  7
STANDARD
  9
$DIMAUNIT
 70
     0
  9
$LUNITS
 70
     2
  9
$LUPREC
 70
     4
  9
$SKETCHINC
 40
0.1
  9
$FILLETRAD
 40
0.5
  9
$AUNITS
 70
     0
  9
$AUPREC
 70
     0
  9
$MENU
  1
.
  9
$ELEVATION
 40
0.0
  9
$PELEVATION
 40
0.0
  9
$THICKNESS
 40
0.0
  9
$LIMCHECK
 70
     0
  9
$CHAMFERA
 40
0.0
  9
$CHAMFERB
 40
0.0
  9
$CHAMFERC
 40
0.0
  9
$CHAMFERD
 40
0.0
  9
$SKPOLY
 70
     0
  9
$TDCREATE
 40
2459549.643068727
  9
$TDUPDATE
 40
2459549.643068773
  9
$TDINDWG
 40
0.0000000116
  9
$TDUSRTIMER
 40
0.0000000116
  9
$USRTIMER
 70
     1
  9
$ANGBASE
 50
0.0
  9
$ANGDIR
 70
     0
  9
$PDMODE
 70
     0
  9
$PDSIZE
 40
0.0
  9
$PLINEWID
 40
0.0
  9
$COORDS
 70
     1
  9
$SPLFRAME
 70
     0
  9
$SPLINETYPE
 70
     6
  9
$SPLINESEGS
 70
     8
  9
$ATTDIA
 70
     0
  9
$ATTREQ
 70
     1
  9
$HANDLING
 70
     1
  9
$HANDSEED
  5
18F
  9
$SURFTAB1
 70
     6
  9
$SURFTAB2
 70
     6
  9
$SURFTYPE
 70
     6
  9
$SURFU
 70
     6
  9
$SURFV
 70
     6
  9
$UCSNAME
  2

  9
$UCSORG
 10
0.0
 20
0.0
 30
0.0
  9
$UCSXDIR
 10
1.0
 20
0.0
 30
0.0
  9
$UCSYDIR
 10
0.0
 20
1.0
 30
0.0
  9
$PUCSNAME
  2

  9
$PUCSORG
 10
0.0
 20
0.0
 30
0.0
  9
$PUCSXDIR
 10
1.0
 20
0.0
 30
0.0
  9
$PUCSYDIR
 10
0.0
 20
1.0
 30
0.0
  9
$USERI1
 70
     0
  9
$USERI2
 70
     0
  9
$USERI3
 70
     0
  9
$USERI4
 70
     0
  9
$USERI5
 70
     0
  9
$USERR1
 40
0.0
  9
$USERR2
 40
0.0
  9
$USERR3
 40
0.0
  9
$USERR4
 40
0.0
  9
$USERR5
 40
0.0
  9
$WORLDVIEW
 70
     1
  9
$SHADEDGE
 70
     3
  9
$SHADEDIF
 70
    70
  9
$TILEMODE
 70
     1
  9
$MAXACTVP
 70
    64
  9
$PINSBASE
 10
0.0
 20
0.0
 30
0.0
  9
$PLIMCHECK
 70
     0
  9
$PEXTMIN
 10
1.000000000000000E+20
 20
1.000000000000000E+20
 30
1.000000000000000E+20
  9
$PEXTMAX
 10
-1.000000000000000E+20
 20
-1.000000000000000E+20
 30
-1.000000000000000E+20
  9
$PLIMMIN
 10
0.0
 20
0.0
  9
$PLIMMAX
 10
12.0
 20
9.0
  9
$UNITMODE
 70
     0
  9
$VISRETAIN
 70
     1
  9
$PLINEGEN
 70
     0
  9
$PSLTSCALE
 70
     1
  9
$TREEDEPTH
 70
  3020
  9
$PICKSTYLE
 70
     1
  9
$CMLSTYLE
  2
STANDARD
  9
$CMLJUST
 70
     0
  9
$CMLSCALE
 40
1.0
  9
$PROXYGRAPHICS
 70
     1
  9
$MEASUREMENT
 70
     1
  0
ENDSEC
  0
SECTION
  2
CLASSES
  0
CLASS
  1
ACDBDICTIONARYWDFLT
  2
AcDbDictionaryWithDefault
  3
ObjectDBX Classes
 90
        0
280
     0
281
     0
  0
CLASS
  1
VISUALSTYLE
  2
AcDbVisualStyle
  3
ObjectDBX Classes
 90
     4095
280
     0
281
     0
  0
CLASS
  1
MATERIAL
  2
AcDbMaterial
  3
ObjectDBX Classes
 90
     1153
280
     0
281
     0
  0
CLASS
  1
SCALE
  2
AcDbScale
  3
ObjectDBX Classes
 90
     1153
280
     0
281
     0
  0
CLASS
  1
TABLESTYLE
  2
AcDbTableStyle
  3
ObjectDBX Classes
 90
     4095
280
     0
281
     0
  0
CLASS
  1
MLEADERSTYLE
  2
AcDbMLeaderStyle
  3
ACDB_MLEADERSTYLE_CLASS
 90
     4095
280
     0
281
     0
  0
CLASS
  1
SUN
  2
AcDbSun
  3
SCENEOE
 90
     1153
280
     0
281
     0
  0
CLASS
  1
DICTIONARYVAR
  2
AcDbDictionaryVar
  3
ObjectDBX Classes
 90
        0
280
     0
281
     0
  0
CLASS
  1
XRECORD
  2
AcDbXrecord
  3
ObjectDBX Classes
 90
        0
280
     0
281
     0
  0
CLASS
  1
LWPOLYLINE
  2
AcDbPolyline
  3
ObjectDBX Classes
 90
        0
280
     0
281
     1
  0
CLASS
  1
HATCH
  2
AcDbHatch
  3
ObjectDBX Classes
 90
        0
280
     0
281
     1
  0
CLASS
  1
ACDBPLACEHOLDER
  2
AcDbPlaceHolder
  3
ObjectDBX Classes
 90
        0
280
     0
281
     0
  0
CLASS
  1
LAYOUT
  2
AcDbLayout
  3
ObjectDBX Classes
 90
        0
280
     0
281
     0
  0
ENDSEC
  0
SECTION
  2
TABLES
  0
TABLE
  2
VPORT
  5
8
102
{ACAD_XDICTIONARY
360
184
102
}
330
0
100
AcDbSymbolTable
 70
     1
  0
VPORT
  5
29
330
8
100
AcDbSymbolTableRecord
100
AcDbViewportTableRecord
  2
*ACTIVE
 70
     0
 10
0.0
 20
0.0
 11
1.0
 21
1.0
 12
0.0
 22
0.0
 13
0.0
 23
0.0
 14
0.5
 24
0.5
 15
0.5
 25
0.5
 16
0.0
 26
0.0
 36
1.0
 17
0.0
 27
0.0
 37
-1000.0
 40
924.7434096146412
 41
2.020293122886133
 42
50.0
 43
8538.674915121841
 44
10491.16512443674
 50
0.0
 51
0.0
 71
     0
 72
   100
 73
     1
 74
     3
 75
     0
 76
     0
 77
     0
 78
     0
  0
ENDTAB
  0
TABLE
  2
LTYPE
  5
5
330
0
100
AcDbSymbolTable
 70
     1
  0
LTYPE
  5
14
330
5
100
AcDbSymbolTableRecord
100
AcDbLinetypeTableRecord
  2
BYBLOCK
 70
     0
  3

 72
    65
 73
     0
 40
0.0
  0
LTYPE
  5
15
330
5
100
AcDbSymbolTableRecord
100
AcDbLinetypeTableRecord
  2
BYLAYER
 70
     0
  3

 72
    65
 73
     0
 40
0.0
  0
LTYPE
  5
16
330
5
100
AcDbSymbolTableRecord
100
AcDbLinetypeTableRecord
  2
CONTINUOUS
 70
     0
  3
Solid line
 72
    65
 73
     0
 40
0.0
  0
ENDTAB
  0
TABLE
  2
LAYER
  5
2
330
0
100
AcDbSymbolTable
 70
     3
  0
LAYER
  5
10
330
2
100
AcDbSymbolTableRecord
100
AcDbLayerTableRecord
  2
0
 70
     0
 62
     7
  6
CONTINUOUS
  0
LAYER
  5
6E
330
2
100
AcDbSymbolTableRecord
100
AcDbLayerTableRecord
  2
PROFILEEDGES
 70
     0
 62
     7
  6
CONTINUOUS
  0
LAYER
  5
6F
330
2
100
AcDbSymbolTableRecord
100
AcDbLayerTableRecord
  2
SECTIONCUTEDGES
 70
     0
 62
     7
  6
CONTINUOUS
  0
ENDTAB
  0
TABLE
  2
STYLE
  5
3
330
0
100
AcDbSymbolTable
 70
     1
  0
STYLE
  5
11
330
3
100
AcDbSymbolTableRecord
100
AcDbTextStyleTableRecord
  2
STANDARD
 70
     0
 40
0.0
 41
1.0
 50
0.0
 71
     0
 42
0.2
  3
txt
  4

  0
ENDTAB
  0
TABLE
  2
VIEW
  5
6
330
0
100
AcDbSymbolTable
 70
     0
  0
ENDTAB
  0
TABLE
  2
UCS
  5
7
330
0
100
AcDbSymbolTable
 70
     0
  0
ENDTAB
  0
TABLE
  2
APPID
  5
9
330
0
100
AcDbSymbolTable
 70
     2
  0
APPID
  5
12
330
9
100
AcDbSymbolTableRecord
100
AcDbRegAppTableRecord
  2
ACAD
 70
     0
  0
APPID
  5
18E
330
9
100
AcDbSymbolTableRecord
100
AcDbRegAppTableRecord
  2
ACAD_MLEADERVER
 70
     0
  0
ENDTAB
  0
TABLE
  2
DIMSTYLE
  5
A
330
0
100
AcDbSymbolTable
 70
     1
  0
DIMSTYLE
105
27
330
A
100
AcDbSymbolTableRecord
100
AcDbDimStyleTableRecord
  2
STANDARD
 70
     0
  3

  4

  5

  6

  7

 40
1.0
 41
0.18
 42
0.0625
 43
0.38
 44
0.18
 45
0.0
 46
0.0
 47
0.0
 48
0.0
140
0.18
141
0.09
142
0.0
143
25.4
144
1.0
145
0.0
146
1.0
147
0.09
 71
     0
 72
     0
 73
     1
 74
     1
 75
     0
 76
     0
 77
     0
 78
     0
170
     0
171
     2
172
     0
173
     0
174
     0
175
     0
176
     0
177
     0
178
     0
270
     2
271
     4
272
     4
273
     2
274
     2
340
11
275
     0
280
     0
281
     0
282
     0
283
     1
284
     0
285
     0
286
     0
287
     3
288
     0
  0
ENDTAB
  0
TABLE
  2
BLOCK_RECORD
  5
1
330
0
100
AcDbSymbolTable
 70
     0
  0
BLOCK_RECORD
  5
1F
330
1
100
AcDbSymbolTableRecord
100
AcDbBlockTableRecord
  2
*MODEL_SPACE
  0
BLOCK_RECORD
  5
1B
330
1
100
AcDbSymbolTableRecord
100
AcDbBlockTableRecord
  2
*PAPER_SPACE
  0
ENDTAB
  0
ENDSEC
  0
SECTION
  2
BLOCKS
  0
BLOCK
  5
20
330
1F
100
AcDbEntity
  8
0
100
AcDbBlockBegin
  2
*MODEL_SPACE
 70
     0
 10
0.0
 20
0.0
 30
0.0
  3
*MODEL_SPACE
  1

  0
ENDBLK
  5
21
330
1F
100
AcDbEntity
  8
0
100
AcDbBlockEnd
  0
BLOCK
  5
1C
330
1B
100
AcDbEntity
 67
     1
  8
0
100
AcDbBlockBegin
  2
*PAPER_SPACE
 70
     0
 10
0.0
 20
0.0
 30
0.0
  3
*PAPER_SPACE
  1

  0
ENDBLK
  5
1D
330
1B
100
AcDbEntity
 67
     1
  8
0
100
AcDbBlockEnd
  0
ENDSEC
  0
SECTION
  2
ENTITIES
  0
LINE
  5
70
330
1F
100
AcDbEntity
  8
0
100
AcDbLine
 10
-331.6700345963193
 20
249.9862853595083
 30
0.0
 11
-331.8864055993831
 21
251.7044908835768
 31
0.0
  0
LINE
  5
71
330
1F
100
AcDbEntity
  8
0
100
AcDbLine
 10
-422.1575247396769
 20
196.8772086733681
 30
0.0
 11
-434.857524739677
 21
210.1544813979259
 31
0.0
  0
LINE
  5
72
330
1F
100
AcDbEntity
  8
0
100
AcDbLine
 10
-787.0101543618847
 20
198.821620583547
 30
0.0
 11
-785.6950263013501
 21
197.7666176369253
 31
0.0
  0
LINE
  5
73
330
1F
100
AcDbEntity
  8
0
100
AcDbLine
 10
-336.3765255374401
 20
197.1034166310095
 30
0.0
 11
-334.8450264738412
 21
197.7666192084556
 31
0.0
  0
LINE
  5
74
330
1F
100
AcDbEntity
  8
0
100
AcDbLine
 10
-334.8450264738412
 20
197.7666192084556
 30
0.0
 11
-333.5298984133066
 21
198.8216221550773
 31
0.0
  0
LINE
  5
75
330
1F
100
AcDbEntity
  8
0
100
AcDbLine
 10
-333.5298984133066
 20
198.8216221550773
 30
0.0
 11
-332.5207651598097
 21
200.196528763537
 31
0.0
  0
LINE
  5
76
330
1F
100
AcDbEntity
  8
0
100
AcDbLine
 10
-332.5207651598097
 20
200.196528763537
 30
0.0
 11
-331.8863974769058
 21
201.7976414206085
 31
0.0
  0
LINE
  5
77
330
1F
100
AcDbEntity
  8
0
100
AcDbLine
 10
-332.5207732822875
 20
253.3056035406482
 30
0.0
 11
-333.5299065357841
 21
254.6805101491079
 31
0.0
  0
LINE
  5
78
330
1F
100
AcDbEntity
  8
0
100
AcDbLine
 10
-334.8450345963186
 20
255.7355130957293
 30
0.0
 11
-333.5299065357841
 21
254.6805101491079
 31
0.0
  0
LINE
  5
79
330
1F
100
AcDbEntity
  8
0
100
AcDbLine
 10
-685.6825247396777
 20
210.1544813979259
 30
0.0
 11
-434.857524739677
 21
210.1544813979259
 31
0.0
  0
LINE
  5
7A
330
1F
100
AcDbEntity
  8
0
100
AcDbLine
 10
-331.8863976042038
 20
290.0626355408052
 30
0.0
 11
-331.6700266011389
 21
291.7808410648731
 31
0.0
  0
LINE
  5
7B
330
1F
100
AcDbEntity
  8
0
100
AcDbLine
 10
-338.0200266011392
 20
285.142204702594
 30
0.0
 11
-336.3765256647381
 21
285.368410751206
 31
0.0
  0
LINE
  5
7C
330
1F
100
AcDbEntity
  8
0
100
AcDbLine
 10
-334.8450266011391
 20
286.0316133286523
 30
0.0
 11
-333.5298985406047
 21
287.0866162752739
 31
0.0
  0
LINE
  5
7D
330
1F
100
AcDbEntity
  8
0
100
AcDbLine
 10
-333.5298985406047
 20
287.0866162752739
 30
0.0
 11
-332.5207652871077
 21
288.4615228837337
 31
0.0
  0
LINE
  5
7E
330
1F
100
AcDbEntity
  8
0
100
AcDbLine
 10
-86.17011434734584
 20
132.4246940971098
 30
0.0
 11
-86.17011413525427
 21
157.0309440280129
 31
0.0
  0
LINE
  5
7F
330
1F
100
AcDbEntity
  8
0
100
AcDbLine
 10
-63.94511487198341
 20
109.4764324435333
 30
0.0
 11
-62.62998680275058
 21
110.4855656856942
 31
0.0
  0
LINE
  5
80
330
1F
100
AcDbEntity
  8
0
100
AcDbLine
 10
-60.98648584181338
 20
113.3321927956618
 30
0.0
 11
-60.77011482458278
 21
114.9756937301978
 31
0.0
  0
LINE
  5
81
330
1F
100
AcDbEntity
  8
0
100
AcDbLine
 10
-60.77011399653784
 20
175.2871939839303
 30
0.0
 11
-60.98648498543623
 21
176.9306949221959
 31
0.0
  0
LINE
  5
82
330
1F
100
AcDbEntity
  8
0
100
AcDbLine
 10
-60.98648498543623
 20
176.9306949221959
 30
0.0
 11
-61.62085265513995
 21
178.462193991263
 31
0.0
  0
LINE
  5
83
330
1F
100
AcDbEntity
  8
0
100
AcDbLine
 10
-61.62085265513995
 20
178.462193991263
 30
0.0
 11
-62.62998589730095
 21
179.7773220604957
 31
0.0
  0
LINE
  5
84
330
1F
100
AcDbEntity
  8
0
100
AcDbLine
 10
-67.12011394180443
 20
181.6371940386634
 30
0.0
 11
-65.47661300726817
 21
181.4208230214329
 31
0.0
  0
LINE
  5
85
330
1F
100
AcDbEntity
  8
0
100
AcDbLine
 10
226.839758021634
 20
348.4729645641615
 30
0.0
 11
226.6233870185695
 21
350.1911729378071
 31
0.0
  0
LINE
  5
86
330
1F
100
AcDbEntity
  8
0
100
AcDbLine
 10
226.6233870185695
 20
350.1911729378071
 30
0.0
 11
225.9890193356652
 21
351.7922882502626
 31
0.0
  0
LINE
  5
87
330
1F
100
AcDbEntity
  8
0
100
AcDbLine
 10
226.6233778450031
 20
300.284222930544
 30
0.0
 11
226.8397488096845
 21
302.0024309998058
 31
0.0
  0
LINE
  5
88
330
1F
100
AcDbEntity
  8
0
100
AcDbLine
 10
225.9890102745292
 20
298.683107901715
 30
0.0
 11
226.6233778450031
 21
300.284222930544
 31
0.0
  0
LINE
  5
89
330
1F
100
AcDbEntity
  8
0
100
AcDbLine
 10
224.9798771998482
 20
297.3081992565661
 30
0.0
 11
225.9890102745292
 21
298.683107901715
 31
0.0
  0
LINE
  5
8A
330
1F
100
AcDbEntity
  8
0
100
AcDbLine
 10
223.6647493723285
 20
296.25319474712
 30
0.0
 11
224.9798771998482
 21
297.3081992565661
 31
0.0
  0
LINE
  5
8B
330
1F
100
AcDbEntity
  8
0
100
AcDbLine
 10
-292.0003796748572
 20
353.1671831887328
 30
0.0
 11
-290.6852516142909
 21
354.222187884993
 31
0.0
  0
LINE
  5
8C
330
1F
100
AcDbEntity
  8
0
100
AcDbLine
 10
85.150453081091
 20
342.0566574392428
 30
0.0
 11
85.47923509622443
 21
342.3204086133186
 31
0.0
  0
LINE
  5
8D
330
1F
100
AcDbEntity
  8
0
100
AcDbLine
 10
85.15045265518434
 20
282.3088465851981
 30
0.0
 11
85.47923467031636
 21
282.5725977592726
 31
0.0
  0
LINE
  5
8E
330
1F
100
AcDbEntity
  8
0
100
AcDbLine
 10
84.76757788928425
 20
282.1430456658621
 30
0.0
 11
85.15045265518434
 21
282.3088465851981
 31
0.0
  0
LINE
  5
8F
330
1F
100
AcDbEntity
  8
0
100
AcDbLine
 10
-166.5457306499204
 20
355.1115987666665
 30
0.0
 11
-166.1348554158201
 21
355.0550471607249
 31
0.0
  0
LINE
  5
90
330
1F
100
AcDbEntity
  8
0
100
AcDbLine
 10
-165.7519806499204
 20
354.8892462413894
 30
0.0
 11
-165.4231986347867
 21
354.6254950673135
 31
0.0
  0
LINE
  5
91
330
1F
100
AcDbEntity
  8
0
100
AcDbLine
 10
-152.4998310577396
 20
342.3204077771966
 30
0.0
 11
-152.1710490426058
 21
342.0566566031206
 31
0.0
  0
LINE
  5
92
330
1F
100
AcDbEntity
  8
0
100
AcDbLine
 10
-152.1710490426058
 20
342.0566566031206
 30
0.0
 11
-151.788174276706
 21
341.890855683785
 31
0.0
  0
LINE
  5
93
330
1F
100
AcDbEntity
  8
0
100
AcDbLine
 10
-331.8863974769058
 20
201.7976414206085
 30
0.0
 11
-331.6700264738412
 21
203.5158469446772
 31
0.0
  0
LINE
  5
94
330
1F
100
AcDbEntity
  8
0
100
AcDbLine
 10
-338.0200264738415
 20
196.877210582398
 30
0.0
 11
-422.1575247396769
 21
196.8772086733681
 31
0.0
  0
LINE
  5
95
330
1F
100
AcDbEntity
  8
0
100
AcDbLine
 10
-338.0200264738415
 20
196.877210582398
 30
0.0
 11
-336.3765255374401
 21
197.1034166310095
 31
0.0
  0
LINE
  5
96
330
1F
100
AcDbEntity
  8
0
100
AcDbLine
 10
-788.8700263013503
 20
203.515845373146
 30
0.0
 11
-788.6536552982857
 21
201.7976398490781
 31
0.0
  0
LINE
  5
97
330
1F
100
AcDbEntity
  8
0
100
AcDbLine
 10
-788.8700257728118
 20
249.9862973230638
 30
0.0
 11
-788.8700263013503
 21
203.515845373146
 31
0.0
  0
LINE
  5
98
330
1F
100
AcDbEntity
  8
0
100
AcDbLine
 10
-788.6536552982857
 20
201.7976398490781
 30
0.0
 11
-788.0192876153815
 21
200.1965271920066
 31
0.0
  0
LINE
  5
99
330
1F
100
AcDbEntity
  8
0
100
AcDbLine
 10
-788.6536547697475
 20
251.7045028471317
 30
0.0
 11
-788.8700257728118
 21
249.9862973230638
 31
0.0
  0
LINE
  5
9A
330
1F
100
AcDbEntity
  8
0
100
AcDbLine
 10
-788.0192876153815
 20
200.1965271920066
 30
0.0
 11
-787.0101543618847
 21
198.821620583547
 31
0.0
  0
LINE
  5
9B
330
1F
100
AcDbEntity
  8
0
100
AcDbLine
 10
-785.6950263013501
 20
197.7666176369253
 30
0.0
 11
-784.1635272377512
 21
197.1034150594791
 31
0.0
  0
LINE
  5
9C
330
1F
100
AcDbEntity
  8
0
100
AcDbLine
 10
-784.1635272377512
 20
197.1034150594791
 30
0.0
 11
-782.5200263013502
 21
196.8772090108671
 31
0.0
  0
LINE
  5
9D
330
1F
100
AcDbEntity
  8
0
100
AcDbLine
 10
-698.3825247396776
 20
196.8772086733679
 30
0.0
 11
-685.6825247396777
 21
210.1544813979259
 31
0.0
  0
LINE
  5
9E
330
1F
100
AcDbEntity
  8
0
100
AcDbLine
 10
-331.8864055993831
 20
251.7044908835768
 30
0.0
 11
-332.5207732822875
 21
253.3056035406482
 31
0.0
  0
LINE
  5
9F
330
1F
100
AcDbEntity
  8
0
100
AcDbLine
 10
-334.8450345963186
 20
255.7355130957293
 30
0.0
 11
-336.3765336599177
 21
256.3987156731758
 31
0.0
  0
LINE
  5
A0
330
1F
100
AcDbEntity
  8
0
100
AcDbLine
 10
-336.3765336599177
 20
256.3987156731758
 30
0.0
 11
-338.0200345963186
 21
256.6249217217878
 31
0.0
  0
LINE
  5
A1
330
1F
100
AcDbEntity
  8
0
100
AcDbLine
 10
-422.1575240053472
 20
256.6249255128037
 30
0.0
 11
-338.0200345963186
 21
256.6249217217878
 31
0.0
  0
LINE
  5
A2
330
1F
100
AcDbEntity
  8
0
100
AcDbLine
 10
-434.8575240053472
 20
269.9021986638642
 30
0.0
 11
-422.1575240053472
 21
256.6249255128037
 31
0.0
  0
LINE
  5
A3
330
1F
100
AcDbEntity
  8
0
100
AcDbLine
 10
-698.3825246919965
 20
256.6249314322149
 30
0.0
 11
-685.6825246919965
 21
269.9022037302705
 31
0.0
  0
LINE
  5
A4
330
1F
100
AcDbEntity
  8
0
100
AcDbLine
 10
-782.5200257728119
 20
256.624933685343
 30
0.0
 11
-698.3825246919965
 21
256.6249314322149
 31
0.0
  0
LINE
  5
A5
330
1F
100
AcDbEntity
  8
0
100
AcDbLine
 10
-782.5200257728119
 20
256.624933685343
 30
0.0
 11
-784.1635267092128
 21
256.3987276367309
 31
0.0
  0
LINE
  5
A6
330
1F
100
AcDbEntity
  8
0
100
AcDbLine
 10
-784.1635267092128
 20
256.3987276367309
 30
0.0
 11
-785.695025772812
 21
255.7355250592846
 31
0.0
  0
LINE
  5
A7
330
1F
100
AcDbEntity
  8
0
100
AcDbLine
 10
-785.695025772812
 20
255.7355250592846
 30
0.0
 11
-787.0101538333466
 21
254.6805221126629
 31
0.0
  0
LINE
  5
A8
330
1F
100
AcDbEntity
  8
0
100
AcDbLine
 10
-787.0101538333466
 20
254.6805221126629
 30
0.0
 11
-788.019287086843
 21
253.3056155042033
 31
0.0
  0
LINE
  5
A9
330
1F
100
AcDbEntity
  8
0
100
AcDbLine
 10
-788.019287086843
 20
253.3056155042033
 30
0.0
 11
-788.6536547697475
 21
251.7045028471317
 31
0.0
  0
LINE
  5
AA
330
1F
100
AcDbEntity
  8
0
100
AcDbLine
 10
-331.6700347236173
 20
338.2512794797054
 30
0.0
 11
-331.8864057266812
 21
339.9694850037733
 31
0.0
  0
LINE
  5
AB
330
1F
100
AcDbEntity
  8
0
100
AcDbLine
 10
-338.0200266011392
 20
285.142204702594
 30
0.0
 11
-422.1575248669747
 21
285.1422027935645
 31
0.0
  0
LINE
  5
AC
330
1F
100
AcDbEntity
  8
0
100
AcDbLine
 10
-422.1575248669747
 20
285.1422027935645
 30
0.0
 11
-434.857524866975
 21
298.4194755181225
 31
0.0
  0
LINE
  5
AD
330
1F
100
AcDbEntity
  8
0
100
AcDbLine
 10
-788.8700264286483
 20
291.7808394933425
 30
0.0
 11
-788.6536554255837
 21
290.0626339692746
 31
0.0
  0
LINE
  5
AE
330
1F
100
AcDbEntity
  8
0
100
AcDbLine
 10
-788.8700259001098
 20
338.2512914432603
 30
0.0
 11
-788.8700264286483
 21
291.7808394933425
 31
0.0
  0
LINE
  5
AF
330
1F
100
AcDbEntity
  8
0
100
AcDbLine
 10
-788.6536554255837
 20
290.0626339692746
 30
0.0
 11
-788.0192877426795
 21
288.461521312203
 31
0.0
  0
LINE
  5
B0
330
1F
100
AcDbEntity
  8
0
100
AcDbLine
 10
-788.6536548970455
 20
339.9694969673282
 30
0.0
 11
-788.8700259001098
 21
338.2512914432603
 31
0.0
  0
LINE
  5
B1
330
1F
100
AcDbEntity
  8
0
100
AcDbLine
 10
-788.0192877426795
 20
288.461521312203
 30
0.0
 11
-787.0101544891826
 21
287.0866147037435
 31
0.0
  0
LINE
  5
B2
330
1F
100
AcDbEntity
  8
0
100
AcDbLine
 10
-787.0101544891826
 20
287.0866147037435
 30
0.0
 11
-785.6950264286482
 21
286.0316117571218
 31
0.0
  0
LINE
  5
B3
330
1F
100
AcDbEntity
  8
0
100
AcDbLine
 10
-785.6950264286482
 20
286.0316117571218
 30
0.0
 11
-784.1635273650492
 21
285.3684091796756
 31
0.0
  0
LINE
  5
B4
330
1F
100
AcDbEntity
  8
0
100
AcDbLine
 10
-784.1635273650492
 20
285.3684091796756
 30
0.0
 11
-782.5200264286482
 21
285.1422031310635
 31
0.0
  0
LINE
  5
B5
330
1F
100
AcDbEntity
  8
0
100
AcDbLine
 10
-698.3825248669756
 20
285.1422027935644
 30
0.0
 11
-685.6825248669758
 21
298.4194755181223
 31
0.0
  0
LINE
  5
B6
330
1F
100
AcDbEntity
  8
0
100
AcDbLine
 10
-434.857524866975
 20
298.4194755181225
 30
0.0
 11
-685.6825248669758
 21
298.4194755181223
 31
0.0
  0
LINE
  5
B7
330
1F
100
AcDbEntity
  8
0
100
AcDbLine
 10
-336.3765256647381
 20
285.368410751206
 30
0.0
 11
-334.8450266011391
 21
286.0316133286523
 31
0.0
  0
LINE
  5
B8
330
1F
100
AcDbEntity
  8
0
100
AcDbLine
 10
-332.5207652871077
 20
288.4615228837337
 30
0.0
 11
-331.8863976042038
 21
290.0626355408052
 31
0.0
  0
LINE
  5
B9
330
1F
100
AcDbEntity
  8
0
100
AcDbLine
 10
-331.8864057266812
 20
339.9694850037733
 30
0.0
 11
-332.5207734095855
 21
341.5705976608448
 31
0.0
  0
LINE
  5
BA
330
1F
100
AcDbEntity
  8
0
100
AcDbLine
 10
-332.5207734095855
 20
341.5705976608448
 30
0.0
 11
-333.529906663082
 21
342.9455042693044
 31
0.0
  0
LINE
  5
BB
330
1F
100
AcDbEntity
  8
0
100
AcDbLine
 10
-333.529906663082
 20
342.9455042693044
 30
0.0
 11
-334.8450347236166
 21
344.000507215926
 31
0.0
  0
LINE
  5
BC
330
1F
100
AcDbEntity
  8
0
100
AcDbLine
 10
-334.8450347236166
 20
344.000507215926
 30
0.0
 11
-336.3765337872157
 21
344.6637097933723
 31
0.0
  0
LINE
  5
BD
330
1F
100
AcDbEntity
  8
0
100
AcDbLine
 10
-336.3765337872157
 20
344.6637097933723
 30
0.0
 11
-338.0200347236166
 21
344.8899158419842
 31
0.0
  0
LINE
  5
BE
330
1F
100
AcDbEntity
  8
0
100
AcDbLine
 10
-422.1575241326452
 20
344.8899196330002
 30
0.0
 11
-338.0200347236166
 21
344.8899158419842
 31
0.0
  0
LINE
  5
BF
330
1F
100
AcDbEntity
  8
0
100
AcDbLine
 10
-434.8575241326453
 20
358.1671927840606
 30
0.0
 11
-422.1575241326452
 21
344.8899196330002
 31
0.0
  0
LINE
  5
C0
330
1F
100
AcDbEntity
  8
0
100
AcDbLine
 10
-698.3825248192945
 20
344.8899255524113
 30
0.0
 11
-685.6825248192945
 21
358.1671978504669
 31
0.0
  0
LINE
  5
C1
330
1F
100
AcDbEntity
  8
0
100
AcDbLine
 10
-782.5200259001099
 20
344.8899278055395
 30
0.0
 11
-698.3825248192945
 21
344.8899255524113
 31
0.0
  0
LINE
  5
C2
330
1F
100
AcDbEntity
  8
0
100
AcDbLine
 10
-782.5200259001099
 20
344.8899278055395
 30
0.0
 11
-784.1635268365108
 21
344.6637217569274
 31
0.0
  0
LINE
  5
C3
330
1F
100
AcDbEntity
  8
0
100
AcDbLine
 10
-784.1635268365108
 20
344.6637217569274
 30
0.0
 11
-785.69502590011
 21
344.000519179481
 31
0.0
  0
LINE
  5
C4
330
1F
100
AcDbEntity
  8
0
100
AcDbLine
 10
-785.69502590011
 20
344.000519179481
 30
0.0
 11
-787.0101539606445
 21
342.9455162328594
 31
0.0
  0
LINE
  5
C5
330
1F
100
AcDbEntity
  8
0
100
AcDbLine
 10
-787.0101539606445
 20
342.9455162328594
 30
0.0
 11
-788.019287214141
 21
341.5706096243998
 31
0.0
  0
LINE
  5
C6
330
1F
100
AcDbEntity
  8
0
100
AcDbLine
 10
-788.019287214141
 20
341.5706096243998
 30
0.0
 11
-788.6536548970455
 21
339.9694969673282
 31
0.0
  0
LINE
  5
C7
330
1F
100
AcDbEntity
  8
0
100
AcDbLine
 10
-86.17011434734584
 20
132.4246940971098
 30
0.0
 11
-60.77011434734548
 21
132.4246938781766
 31
0.0
  0
LINE
  5
C8
330
1F
100
AcDbEntity
  8
0
100
AcDbLine
 10
-791.0201139178313
 20
181.637200304094
 30
0.0
 11
-791.020114547148
 21
108.6256997034144
 31
0.0
  0
LINE
  5
C9
330
1F
100
AcDbEntity
  8
0
100
AcDbLine
 10
-60.77011413525396
 20
157.0309438090778
 30
0.0
 11
-86.17011413525427
 21
157.0309440280129
 31
0.0
  0
LINE
  5
CA
330
1F
100
AcDbEntity
  8
0
100
AcDbLine
 10
-67.12011487931623
 20
108.6256937849311
 30
0.0
 11
-65.47661394104995
 21
108.8420647738295
 31
0.0
  0
LINE
  5
CB
330
1F
100
AcDbEntity
  8
0
100
AcDbLine
 10
-65.47661394104995
 20
108.8420647738295
 30
0.0
 11
-63.94511487198341
 21
109.4764324435333
 31
0.0
  0
LINE
  5
CC
330
1F
100
AcDbEntity
  8
0
100
AcDbLine
 10
-62.62998680275058
 20
110.4855656856942
 30
0.0
 11
-61.62085353791841
 21
111.8006937375307
 31
0.0
  0
LINE
  5
CD
330
1F
100
AcDbEntity
  8
0
100
AcDbLine
 10
-61.62085353791841
 20
111.8006937375307
 30
0.0
 11
-60.98648584181338
 21
113.3321927956618
 31
0.0
  0
LINE
  5
CE
330
1F
100
AcDbEntity
  8
0
100
AcDbLine
 10
-62.62998589730095
 20
179.7773220604957
 30
0.0
 11
-63.94511394913724
 21
180.7864553253279
 31
0.0
  0
LINE
  5
CF
330
1F
100
AcDbEntity
  8
0
100
AcDbLine
 10
-63.94511394913724
 20
180.7864553253279
 30
0.0
 11
-65.47661300726817
 21
181.4208230214329
 31
0.0
  0
LINE
  5
D0
330
1F
100
AcDbEntity
  8
0
100
AcDbLine
 10
-67.12011394180443
 20
181.6371940386634
 30
0.0
 11
-791.0201139178313
 21
181.637200304094
 31
0.0
  0
LINE
  5
D1
330
1F
100
AcDbEntity
  8
0
100
AcDbLine
 10
-569.8851141887029
 20
150.2114482064958
 30
0.0
 11
-569.8851142762762
 21
140.051448195792
 31
0.0
  0
LINE
  5
D2
330
1F
100
AcDbEntity
  8
0
100
AcDbLine
 10
-569.8851142762762
 20
140.051448195792
 30
0.0
 11
-545.7551142762762
 21
140.0514479878055
 31
0.0
  0
LINE
  5
D3
330
1F
100
AcDbEntity
  8
0
100
AcDbLine
 10
-545.7551142762762
 20
140.0514479878055
 30
0.0
 11
-545.755114188703
 21
150.2114479985093
 31
0.0
  0
LINE
  5
D4
330
1F
100
AcDbEntity
  8
0
100
AcDbLine
 10
-545.755114188703
 20
150.2114479985093
 30
0.0
 11
-569.8851141887029
 21
150.2114482064958
 31
0.0
  0
LINE
  5
D5
330
1F
100
AcDbEntity
  8
0
100
AcDbLine
 10
225.9890193356652
 20
351.7922882502626
 30
0.0
 11
224.9798860821687
 21
353.1671971389519
 31
0.0
  0
LINE
  5
D6
330
1F
100
AcDbEntity
  8
0
100
AcDbLine
 10
-287.5102515214818
 20
295.3637870946779
 30
0.0
 11
-166.5457310636077
 21
295.3637873352815
 31
0.0
  0
LINE
  5
D7
330
1F
100
AcDbEntity
  8
0
100
AcDbLine
 10
-289.1537524578829
 20
295.5899935184439
 30
0.0
 11
-287.5102515214818
 21
295.3637870946779
 31
0.0
  0
LINE
  5
D8
330
1F
100
AcDbEntity
  8
0
100
AcDbLine
 10
-166.1348558294046
 20
295.3072357301572
 30
0.0
 11
-166.5457310636077
 21
295.3637873352815
 31
0.0
  0
LINE
  5
D9
330
1F
100
AcDbEntity
  8
0
100
AcDbLine
 10
-290.6852515214819
 20
296.2531971957861
 30
0.0
 11
-289.1537524578829
 21
295.5899935184439
 31
0.0
  0
LINE
  5
DA
330
1F
100
AcDbEntity
  8
0
100
AcDbLine
 10
224.9798860821687
 20
353.1671971389519
 30
0.0
 11
223.6647580216341
 21
354.2222018352554
 31
0.0
  0
LINE
  5
DB
330
1F
100
AcDbEntity
  8
0
100
AcDbLine
 10
223.6647580216341
 20
354.2222018352554
 30
0.0
 11
222.1332589580351
 21
354.8854055125977
 31
0.0
  0
LINE
  5
DC
330
1F
100
AcDbEntity
  8
0
100
AcDbLine
 10
222.1332589580351
 20
354.8854055125977
 30
0.0
 11
220.4897580216341
 21
355.1116119363636
 31
0.0
  0
LINE
  5
DD
330
1F
100
AcDbEntity
  8
0
100
AcDbLine
 10
220.4897580216341
 20
355.1116119363636
 30
0.0
 11
99.52513470939353
 21
355.1115988371897
 31
0.0
  0
LINE
  5
DE
330
1F
100
AcDbEntity
  8
0
100
AcDbLine
 10
99.11425947529325
 20
355.0550472312481
 30
0.0
 11
99.52513470939353
 21
355.1115988371897
 31
0.0
  0
LINE
  5
DF
330
1F
100
AcDbEntity
  8
0
100
AcDbLine
 10
-293.8602516144641
 20
348.4729506140038
 30
0.0
 11
-293.8602515214819
 21
302.00243446688
 31
0.0
  0
LINE
  5
E0
330
1F
100
AcDbEntity
  8
0
100
AcDbLine
 10
-293.6438806113479
 20
350.1911589876424
 30
0.0
 11
-293.8602516144641
 21
348.4729506140038
 31
0.0
  0
LINE
  5
E1
330
1F
100
AcDbEntity
  8
0
100
AcDbLine
 10
-293.8602515214819
 20
302.00243446688
 30
0.0
 11
-293.6438805184175
 21
300.2842260932343
 31
0.0
  0
LINE
  5
E2
330
1F
100
AcDbEntity
  8
0
100
AcDbLine
 10
-293.0095129283953
 20
351.7922743000769
 30
0.0
 11
-293.6438806113479
 21
350.1911589876424
 31
0.0
  0
LINE
  5
E3
330
1F
100
AcDbEntity
  8
0
100
AcDbLine
 10
-293.6438805184175
 20
300.2842260932343
 30
0.0
 11
-293.009512835513
 21
298.6831107807789
 31
0.0
  0
LINE
  5
E4
330
1F
100
AcDbEntity
  8
0
100
AcDbLine
 10
-292.0003796748572
 20
353.1671831887328
 30
0.0
 11
-293.0095129283953
 21
351.7922743000769
 31
0.0
  0
LINE
  5
E5
330
1F
100
AcDbEntity
  8
0
100
AcDbLine
 10
220.4897499348256
 20
295.3637848034713
 30
0.0
 11
99.52513419864418
 21
295.3637879023448
 31
0.0
  0
LINE
  5
E6
330
1F
100
AcDbEntity
  8
0
100
AcDbLine
 10
220.4897499348256
 20
295.3637848034713
 30
0.0
 11
222.1332505800638
 21
295.5899911872176
 31
0.0
  0
LINE
  5
E7
330
1F
100
AcDbEntity
  8
0
100
AcDbLine
 10
99.52513419864418
 20
295.3637879023448
 30
0.0
 11
99.1142589645439
 21
295.3072362964033
 31
0.0
  0
LINE
  5
E8
330
1F
100
AcDbEntity
  8
0
100
AcDbLine
 10
222.1332505800638
 20
295.5899911872176
 30
0.0
 11
223.6647493723285
 21
296.25319474712
 31
0.0
  0
LINE
  5
E9
330
1F
100
AcDbEntity
  8
0
100
AcDbLine
 10
-287.5102516142641
 20
355.1115979859969
 30
0.0
 11
-289.1537525506719
 21
354.885391562285
 31
0.0
  0
LINE
  5
EA
330
1F
100
AcDbEntity
  8
0
100
AcDbLine
 10
-166.5457306499204
 20
355.1115987666665
 30
0.0
 11
-287.5102516142641
 21
355.1115979859969
 31
0.0
  0
LINE
  5
EB
330
1F
100
AcDbEntity
  8
0
100
AcDbLine
 10
-289.1537525506719
 20
354.885391562285
 30
0.0
 11
-290.6852516142909
 21
354.222187884993
 31
0.0
  0
LINE
  5
EC
330
1F
100
AcDbEntity
  8
0
100
AcDbLine
 10
-292.0003795820164
 20
297.3082018920896
 30
0.0
 11
-290.6852515214819
 21
296.2531971957861
 31
0.0
  0
LINE
  5
ED
330
1F
100
AcDbEntity
  8
0
100
AcDbLine
 10
-293.009512835513
 20
298.6831107807789
 30
0.0
 11
-292.0003795820164
 21
297.3082018920896
 31
0.0
  0
LINE
  5
EE
330
1F
100
AcDbEntity
  8
0
100
AcDbLine
 10
-165.7519810632031
 20
295.1414348115832
 30
0.0
 11
-166.1348558294046
 21
295.3072357301572
 31
0.0
  0
LINE
  5
EF
330
1F
100
AcDbEntity
  8
0
100
AcDbLine
 10
-165.4231990475895
 20
294.8776836381613
 30
0.0
 11
-165.7519810632031
 21
295.1414348115832
 31
0.0
  0
LINE
  5
F0
330
1F
100
AcDbEntity
  8
0
100
AcDbLine
 10
-152.1710494519662
 20
282.3088451705058
 30
0.0
 11
-152.4998314670998
 21
282.5725963445817
 31
0.0
  0
LINE
  5
F1
330
1F
100
AcDbEntity
  8
0
100
AcDbLine
 10
-151.3772994519661
 20
282.0864926452287
 30
0.0
 11
-151.7881746860664
 21
282.1430442511702
 31
0.0
  0
LINE
  5
F2
330
1F
100
AcDbEntity
  8
0
100
AcDbLine
 10
-151.3772994519661
 20
282.0864926452287
 30
0.0
 11
84.35670265518402
 21
282.0864940599207
 31
0.0
  0
LINE
  5
F3
330
1F
100
AcDbEntity
  8
0
100
AcDbLine
 10
-151.7881746860664
 20
282.1430442511702
 30
0.0
 11
-152.1710494519662
 21
282.3088451705058
 31
0.0
  0
LINE
  5
F4
330
1F
100
AcDbEntity
  8
0
100
AcDbLine
 10
84.76757788928425
 20
282.1430456658621
 30
0.0
 11
84.35670265518402
 21
282.0864940599207
 31
0.0
  0
LINE
  5
F5
330
1F
100
AcDbEntity
  8
0
100
AcDbLine
 10
99.1142589645439
 20
295.3072362964033
 30
0.0
 11
98.7313841986441
 21
295.1414353770678
 31
0.0
  0
LINE
  5
F6
330
1F
100
AcDbEntity
  8
0
100
AcDbLine
 10
98.7313841986441
 20
295.1414353770678
 30
0.0
 11
98.40260218351044
 21
294.8776842029919
 31
0.0
  0
LINE
  5
F7
330
1F
100
AcDbEntity
  8
0
100
AcDbLine
 10
-166.1348554158201
 20
355.0550471607249
 30
0.0
 11
-165.7519806499204
 21
354.8892462413894
 31
0.0
  0
LINE
  5
F8
330
1F
100
AcDbEntity
  8
0
100
AcDbLine
 10
-151.788174276706
 20
341.890855683785
 30
0.0
 11
-151.3772990426058
 21
341.8343040778437
 31
0.0
  0
LINE
  5
F9
330
1F
100
AcDbEntity
  8
0
100
AcDbLine
 10
84.76757831519119
 20
341.8908565199074
 30
0.0
 11
85.150453081091
 21
342.0566574392428
 31
0.0
  0
LINE
  5
FA
330
1F
100
AcDbEntity
  8
0
100
AcDbLine
 10
84.356703081091
 20
341.8343049139659
 30
0.0
 11
84.76757831519119
 21
341.8908565199074
 31
0.0
  0
LINE
  5
FB
330
1F
100
AcDbEntity
  8
0
100
AcDbLine
 10
98.40260269425978
 20
354.6254951378367
 30
0.0
 11
85.47923509622443
 21
342.3204086133186
 31
0.0
  0
LINE
  5
FC
330
1F
100
AcDbEntity
  8
0
100
AcDbLine
 10
98.40260269425978
 20
354.6254951378367
 30
0.0
 11
98.73138470939354
 21
354.8892463119126
 31
0.0
  0
LINE
  5
FD
330
1F
100
AcDbEntity
  8
0
100
AcDbLine
 10
98.73138470939354
 20
354.8892463119126
 30
0.0
 11
99.11425947529325
 21
355.0550472312481
 31
0.0
  0
LINE
  5
FE
330
1F
100
AcDbEntity
  8
0
100
AcDbLine
 10
-786.5299858539285
 20
-65.94638902548007
 30
0.0
 11
-728.5862324933188
 21
-65.94638901333097
 31
0.0
  0
LINE
  5
FF
330
1F
100
AcDbEntity
  8
0
100
AcDbLine
 10
-94.59635538948635
 20
2.158179194153032
 30
0.0
 11
-94.37998438642192
 21
0.4399733049467737
 31
0.0
  0
LINE
  5
100
330
1F
100
AcDbEntity
  8
0
100
AcDbLine
 10
-95.23072307239076
 20
3.759292191479389
 30
0.0
 11
-94.59635538948635
 21
2.158179194153032
 31
0.0
  0
LINE
  5
101
330
1F
100
AcDbEntity
  8
0
100
AcDbLine
 10
-96.2398563258873
 20
5.134199092122649
 30
0.0
 11
-95.23072307239076
 21
3.759292191479389
 31
0.0
  0
LINE
  5
102
330
1F
100
AcDbEntity
  8
0
100
AcDbLine
 10
-97.55498438642192
 20
6.189202262944212
 30
0.0
 11
-96.2398563258873
 21
5.134199092122649
 31
0.0
  0
LINE
  5
103
330
1F
100
AcDbEntity
  8
0
100
AcDbLine
 10
-99.08648345002088
 20
6.852404981328715
 30
0.0
 11
-97.55498438642192
 21
6.189202262944212
 31
0.0
  0
LINE
  5
104
330
1F
100
AcDbEntity
  8
0
100
AcDbLine
 10
-100.7299843864219
 20
7.078611078012195
 30
0.0
 11
-99.08648345002088
 21
6.852404981328715
 31
0.0
  0
LINE
  5
105
330
1F
100
AcDbEntity
  8
0
100
AcDbLine
 10
-95.23072307239076
 20
-62.6270701496972
 30
0.0
 11
-96.2398563258873
 21
-64.00197705034036
 31
0.0
  0
LINE
  5
106
330
1F
100
AcDbEntity
  8
0
100
AcDbLine
 10
-94.59635538948635
 20
-61.02595715237103
 30
0.0
 11
-95.23072307239076
 21
-62.6270701496972
 31
0.0
  0
LINE
  5
107
330
1F
100
AcDbEntity
  8
0
100
AcDbLine
 10
-96.2398563258873
 20
-64.00197705034036
 30
0.0
 11
-97.55498438642192
 21
-65.05698022116202
 31
0.0
  0
LINE
  5
108
330
1F
100
AcDbEntity
  8
0
100
AcDbLine
 10
-97.55498438642192
 20
-65.05698022116202
 30
0.0
 11
-99.08648345002088
 21
-65.72018293954652
 31
0.0
  0
LINE
  5
109
330
1F
100
AcDbEntity
  8
0
100
AcDbLine
 10
-99.08648345002088
 20
-65.72018293954652
 30
0.0
 11
-100.7299843864219
 21
-65.94638903622992
 31
0.0
  0
LINE
  5
10A
330
1F
100
AcDbEntity
  8
0
100
AcDbLine
 10
-641.1375468767638
 20
-65.94638900408226
 30
0.0
 11
-640.7266716426693
 21
-65.88983747986694
 31
0.0
  0
LINE
  5
10B
330
1F
100
AcDbEntity
  8
0
100
AcDbLine
 10
-259.0150163601132
 20
-53.15521649061414
 30
0.0
 11
-247.2449523307452
 21
-65.46028604607174
 31
0.0
  0
LINE
  5
10C
330
1F
100
AcDbEntity
  8
0
100
AcDbLine
 10
-259.0150163601132
 20
-53.15521649061414
 30
0.0
 11
-259.3437983752468
 21
-52.89146569790854
 31
0.0
  0
LINE
  5
10D
330
1F
100
AcDbEntity
  8
0
100
AcDbLine
 10
-247.2449523307452
 20
-65.46028604607174
 30
0.0
 11
-246.9161703156115
 21
-65.72403683877707
 31
0.0
  0
LINE
  5
10E
330
1F
100
AcDbEntity
  8
0
100
AcDbLine
 10
-246.1224203156115
 20
-65.94638904254396
 30
0.0
 11
-183.2799852034012
 21
-65.94638903981476
 31
0.0
  0
LINE
  5
10F
330
1F
100
AcDbEntity
  8
0
100
AcDbLine
 10
-627.1224187209173
 20
-52.66911348320804
 30
0.0
 11
-260.1375483752468
 21
-52.66911349414175
 31
0.0
  0
LINE
  5
110
330
1F
100
AcDbEntity
  8
0
100
AcDbLine
 10
-627.5332939550176
 20
-52.72566500737894
 30
0.0
 11
-627.1224187209173
 21
-52.66911348320804
 31
0.0
  0
LINE
  5
111
330
1F
100
AcDbEntity
  8
0
100
AcDbLine
 10
-259.7266731411465
 20
-52.72566501831265
 30
0.0
 11
-260.1375483752468
 21
-52.66911349414175
 31
0.0
  0
LINE
  5
112
330
1F
100
AcDbEntity
  8
0
100
AcDbLine
 10
-246.5332955497118
 20
-65.88983751837324
 30
0.0
 11
-246.1224203156115
 21
-65.94638904254396
 31
0.0
  0
LINE
  5
113
330
1F
100
AcDbEntity
  8
0
100
AcDbLine
 10
-94.37998438642192
 20
-59.30775126316449
 30
0.0
 11
-94.37998438642192
 21
0.4399733049467737
 31
0.0
  0
LINE
  5
114
330
1F
100
AcDbEntity
  8
0
100
AcDbLine
 10
-94.37998438642192
 20
-59.30775126316449
 30
0.0
 11
-94.59635538948635
 21
-61.02595715237103
 31
0.0
  0
LINE
  5
115
330
1F
100
AcDbEntity
  8
0
100
AcDbLine
 10
-788.1734867903295
 20
-65.72018292879669
 30
0.0
 11
-786.5299858539285
 21
-65.94638902548007
 31
0.0
  0
LINE
  5
116
330
1F
100
AcDbEntity
  8
0
100
AcDbLine
 10
-100.7299843864219
 20
7.078611078012195
 30
0.0
 11
-786.5299858572711
 21
7.078611088560054
 31
0.0
  0
LINE
  5
117
330
1F
100
AcDbEntity
  8
0
100
AcDbLine
 10
-786.5299858572711
 20
7.078611088560054
 30
0.0
 11
-788.1734867936751
 21
6.852404991899968
 31
0.0
  0
LINE
  5
118
330
1F
100
AcDbEntity
  8
0
100
AcDbLine
 10
-792.8799858573583
 20
0.4399733155859545
 30
0.0
 11
-792.8799858539285
 21
-59.30775125241512
 31
0.0
  0
LINE
  5
119
330
1F
100
AcDbEntity
  8
0
100
AcDbLine
 10
-792.6636148542713
 20
2.1581792047891
 30
0.0
 11
-792.8799858573583
 21
0.4399733155859545
 31
0.0
  0
LINE
  5
11A
330
1F
100
AcDbEntity
  8
0
100
AcDbLine
 10
-792.8799858539285
 20
-59.30775125241512
 30
0.0
 11
-792.6636148508641
 21
-61.02595714162109
 31
0.0
  0
LINE
  5
11B
330
1F
100
AcDbEntity
  8
0
100
AcDbLine
 10
-788.1734867936751
 20
6.852404991899968
 30
0.0
 11
-789.7049858572828
 21
6.189202273537552
 31
0.0
  0
LINE
  5
11C
330
1F
100
AcDbEntity
  8
0
100
AcDbLine
 10
-789.7049858572828
 20
6.189202273537552
 30
0.0
 11
-791.0201139178313
 21
5.134199102734747
 31
0.0
  0
LINE
  5
11D
330
1F
100
AcDbEntity
  8
0
100
AcDbLine
 10
-791.0201139178313
 20
5.134199102734747
 30
0.0
 11
-792.0292471713459
 21
3.759292202106218
 31
0.0
  0
LINE
  5
11E
330
1F
100
AcDbEntity
  8
0
100
AcDbLine
 10
-792.0292471713459
 20
3.759292202106218
 30
0.0
 11
-792.6636148542713
 21
2.1581792047891
 31
0.0
  0
LINE
  5
11F
330
1F
100
AcDbEntity
  8
0
100
AcDbLine
 10
-792.6636148508641
 20
-61.02595714162109
 30
0.0
 11
-792.0292471679596
 21
-62.62707013894764
 31
0.0
  0
LINE
  5
120
330
1F
100
AcDbEntity
  8
0
100
AcDbLine
 10
-792.0292471679596
 20
-62.62707013894764
 30
0.0
 11
-791.0201139144631
 21
-64.00197703959051
 31
0.0
  0
LINE
  5
121
330
1F
100
AcDbEntity
  8
0
100
AcDbLine
 10
-791.0201139144631
 20
-64.00197703959051
 30
0.0
 11
-789.7049858539285
 21
-65.05698021041228
 31
0.0
  0
LINE
  5
122
330
1F
100
AcDbEntity
  8
0
100
AcDbLine
 10
-789.7049858539285
 20
-65.05698021041228
 30
0.0
 11
-788.1734867903295
 21
-65.72018292879669
 31
0.0
  0
LINE
  5
123
330
1F
100
AcDbEntity
  8
0
100
AcDbLine
 10
-259.3437983752468
 20
-52.89146569790854
 30
0.0
 11
-259.7266731411465
 21
-52.72566501831265
 31
0.0
  0
LINE
  5
124
330
1F
100
AcDbEntity
  8
0
100
AcDbLine
 10
-246.9161703156115
 20
-65.72403683877707
 30
0.0
 11
-246.5332955497118
 21
-65.88983751837324
 31
0.0
  0
LINE
  5
125
330
1F
100
AcDbEntity
  8
0
100
AcDbLine
 10
-640.7266716426693
 20
-65.88983747986694
 30
0.0
 11
-640.343796876786
 21
-65.72403680022926
 31
0.0
  0
LINE
  5
126
330
1F
100
AcDbEntity
  8
0
100
AcDbLine
 10
-640.343796876786
 20
-65.72403680022926
 30
0.0
 11
-640.0150148616785
 21
-65.46028600748818
 31
0.0
  0
LINE
  5
127
330
1F
100
AcDbEntity
  8
0
100
AcDbLine
 10
-640.0150148616785
 20
-65.46028600748818
 30
0.0
 11
-628.2449507360509
 21
-53.15521647968043
 31
0.0
  0
LINE
  5
128
330
1F
100
AcDbEntity
  8
0
100
AcDbLine
 10
-628.2449507360509
 20
-53.15521647968043
 30
0.0
 11
-627.9161687209173
 21
-52.89146568697491
 31
0.0
  0
LINE
  5
129
330
1F
100
AcDbEntity
  8
0
100
AcDbLine
 10
-627.9161687209173
 20
-52.89146568697491
 30
0.0
 11
-627.5332939550176
 21
-52.72566500737894
 31
0.0
  0
LINE
  5
12A
330
1F
100
AcDbEntity
  8
0
100
AcDbLine
 10
-703.9799824801519
 20
-40.54638901695235
 30
0.0
 11
-728.5862324933188
 21
-40.54638901695235
 31
0.0
  0
LINE
  5
12B
330
1F
100
AcDbEntity
  8
0
100
AcDbLine
 10
-728.5862324933188
 20
-40.54638901695235
 30
0.0
 11
-728.5862324933188
 21
-65.94638901333097
 31
0.0
  0
LINE
  5
12C
330
1F
100
AcDbEntity
  8
0
100
AcDbLine
 10
-703.9799824801519
 20
-65.94638901333097
 30
0.0
 11
-703.9799824801519
 21
-40.54638901695235
 31
0.0
  0
LINE
  5
12D
330
1F
100
AcDbEntity
  8
0
100
AcDbLine
 10
-703.9799824801519
 20
-65.94638901333097
 30
0.0
 11
-641.1375468767638
 21
-65.94638900408226
 31
0.0
  0
LINE
  5
12E
330
1F
100
AcDbEntity
  8
0
100
AcDbLine
 10
-183.2799852045043
 20
-40.54638893414536
 30
0.0
 11
-183.2799852034012
 21
-65.94638903981476
 31
0.0
  0
LINE
  5
12F
330
1F
100
AcDbEntity
  8
0
100
AcDbLine
 10
-158.6737352030806
 20
-65.94638903874616
 30
0.0
 11
-158.6737352041837
 21
-40.54638893307676
 31
0.0
  0
LINE
  5
130
330
1F
100
AcDbEntity
  8
0
100
AcDbLine
 10
-158.6737352041837
 20
-40.54638893307676
 30
0.0
 11
-183.2799852045043
 21
-40.54638893414536
 31
0.0
  0
LINE
  5
131
330
1F
100
AcDbEntity
  8
0
100
AcDbLine
 10
-158.6737352030806
 20
-65.94638903874616
 30
0.0
 11
-100.7299843864219
 21
-65.94638903622992
 31
0.0
  0
LINE
  5
132
330
1F
100
AcDbEntity
  8
0
100
AcDbLine
 10
-803.7201139178312
 20
365.8671971389518
 30
0.0
 11
-803.7201139178312
 21
-69.10780286104814
 31
0.0
  0
LINE
  5
133
330
1F
100
AcDbEntity
  8
0
100
AcDbLine
 10
-803.7201139178312
 20
-69.10780286104814
 30
0.0
 11
237.6798860821687
 21
-69.10780286104814
 31
0.0
  0
LINE
  5
134
330
1F
100
AcDbEntity
  8
0
100
AcDbLine
 10
237.6798860821687
 20
-69.10780286104814
 30
0.0
 11
237.6798860821687
 21
365.8671971389518
 31
0.0
  0
LINE
  5
135
330
1F
100
AcDbEntity
  8
0
100
AcDbLine
 10
237.6798860821687
 20
365.8671971389518
 30
0.0
 11
-803.7201139178312
 21
365.8671971389518
 31
0.0
  0
LINE
  5
136
330
1F
100
AcDbEntity
  8
0
100
AcDbLine
 10
-86.17011434734574
 20
44.17319349643017
 30
0.0
 11
-60.77011434734539
 21
44.17319327749697
 31
0.0
  0
LINE
  5
137
330
1F
100
AcDbEntity
  8
0
100
AcDbLine
 10
-86.17011413525422
 20
68.77944342733132
 30
0.0
 11
-86.17011434734574
 21
44.17319349643017
 31
0.0
  0
LINE
  5
138
330
1F
100
AcDbEntity
  8
0
100
AcDbLine
 10
-791.0201139178313
 20
93.38569970341435
 30
0.0
 11
-791.0201145471478
 21
20.37419910273479
 31
0.0
  0
LINE
  5
139
330
1F
100
AcDbEntity
  8
0
100
AcDbLine
 10
-791.0201145471478
 20
20.37419910273479
 30
0.0
 11
-67.12011487931613
 21
20.37419318425147
 31
0.0
  0
LINE
  5
13A
330
1F
100
AcDbEntity
  8
0
100
AcDbLine
 10
-60.77011413525386
 20
68.77944320839813
 30
0.0
 11
-60.77011399653777
 21
87.03569338325043
 31
0.0
  0
LINE
  5
13B
330
1F
100
AcDbEntity
  8
0
100
AcDbLine
 10
-60.77011413525386
 20
68.77944320839813
 30
0.0
 11
-86.17011413525422
 21
68.77944342733132
 31
0.0
  0
LINE
  5
13C
330
1F
100
AcDbEntity
  8
0
100
AcDbLine
 10
-67.12011487931613
 20
20.37419318425147
 30
0.0
 11
-65.47661394104986
 21
20.59056417314985
 31
0.0
  0
LINE
  5
13D
330
1F
100
AcDbEntity
  8
0
100
AcDbLine
 10
-65.47661394104986
 20
20.59056417314985
 30
0.0
 11
-63.94511487198333
 21
21.22493184285361
 31
0.0
  0
LINE
  5
13E
330
1F
100
AcDbEntity
  8
0
100
AcDbLine
 10
-63.94511487198333
 20
21.22493184285361
 30
0.0
 11
-62.6299868027504
 21
22.2340650850146
 31
0.0
  0
LINE
  5
13F
330
1F
100
AcDbEntity
  8
0
100
AcDbLine
 10
-62.6299868027504
 20
22.2340650850146
 30
0.0
 11
-61.62085353791831
 21
23.54919313685106
 31
0.0
  0
LINE
  5
140
330
1F
100
AcDbEntity
  8
0
100
AcDbLine
 10
-61.62085353791831
 20
23.54919313685106
 30
0.0
 11
-60.9864858418133
 21
25.08069219498213
 31
0.0
  0
LINE
  5
141
330
1F
100
AcDbEntity
  8
0
100
AcDbLine
 10
-60.9864858418133
 20
25.08069219498213
 30
0.0
 11
-60.77011482458271
 21
26.72419312951819
 31
0.0
  0
LINE
  5
142
330
1F
100
AcDbEntity
  8
0
100
AcDbLine
 10
-60.77011482458271
 20
26.72419312951819
 30
0.0
 11
-60.77011434734539
 21
44.17319327749697
 31
0.0
  0
LINE
  5
143
330
1F
100
AcDbEntity
  8
0
100
AcDbLine
 10
-60.77011399653777
 20
87.03569338325043
 30
0.0
 11
-60.98648498543614
 21
88.67919432151639
 31
0.0
  0
LINE
  5
144
330
1F
100
AcDbEntity
  8
0
100
AcDbLine
 10
-60.98648498543614
 20
88.67919432151639
 30
0.0
 11
-61.62085265513986
 21
90.2106933905833
 31
0.0
  0
LINE
  5
145
330
1F
100
AcDbEntity
  8
0
100
AcDbLine
 10
-61.62085265513986
 20
90.2106933905833
 30
0.0
 11
-62.62998589730086
 21
91.525821459816
 31
0.0
  0
LINE
  5
146
330
1F
100
AcDbEntity
  8
0
100
AcDbLine
 10
-62.62998589730086
 20
91.525821459816
 30
0.0
 11
-63.94511394913716
 21
92.53495472464824
 31
0.0
  0
LINE
  5
147
330
1F
100
AcDbEntity
  8
0
100
AcDbLine
 10
-63.94511394913716
 20
92.53495472464824
 30
0.0
 11
-65.47661300726827
 21
93.16932242075326
 31
0.0
  0
LINE
  5
148
330
1F
100
AcDbEntity
  8
0
100
AcDbLine
 10
-65.47661300726827
 20
93.16932242075326
 30
0.0
 11
-67.12011394180443
 21
93.38569343798373
 31
0.0
  0
LINE
  5
149
330
1F
100
AcDbEntity
  8
0
100
AcDbLine
 10
-67.12011394180443
 20
93.38569343798373
 30
0.0
 11
-791.0201139178313
 21
93.38569970341435
 31
0.0
  0
LINE
  5
14A
330
1F
100
AcDbEntity
  8
0
100
AcDbLine
 10
-569.8851141887029
 20
61.95994760581618
 30
0.0
 11
-569.8851142762761
 21
51.79994759511241
 31
0.0
  0
LINE
  5
14B
330
1F
100
AcDbEntity
  8
0
100
AcDbLine
 10
-569.8851142762761
 20
51.79994759511241
 30
0.0
 11
-545.7551142762762
 21
51.79994738712588
 31
0.0
  0
LINE
  5
14C
330
1F
100
AcDbEntity
  8
0
100
AcDbLine
 10
-545.7551142762762
 20
51.79994738712588
 30
0.0
 11
-545.7551141887028
 21
61.95994739782964
 31
0.0
  0
LINE
  5
14D
330
1F
100
AcDbEntity
  8
0
100
AcDbLine
 10
-545.7551141887028
 20
61.95994739782964
 30
0.0
 11
-569.8851141887029
 21
61.95994760581618
 31
0.0
  0
LINE
  5
14E
330
1F
100
AcDbEntity
  8
0
100
AcDbLine
 10
-331.6700345963193
 20
249.9862853595083
 30
0.0
 11
-331.6700264738412
 21
203.5158469446772
 31
0.0
  0
LINE
  5
14F
330
1F
100
AcDbEntity
  8
0
100
AcDbLine
 10
-698.3825247396776
 20
196.8772086733679
 30
0.0
 11
-782.5200263013502
 21
196.8772090108671
 31
0.0
  0
LINE
  5
150
330
1F
100
AcDbEntity
  8
0
100
AcDbLine
 10
-434.8575240053472
 20
269.9021986638642
 30
0.0
 11
-685.6825246919965
 21
269.9022037302705
 31
0.0
  0
LINE
  5
151
330
1F
100
AcDbEntity
  8
0
100
AcDbLine
 10
-331.6700347236173
 20
338.2512794797054
 30
0.0
 11
-331.6700266011389
 21
291.7808410648731
 31
0.0
  0
LINE
  5
152
330
1F
100
AcDbEntity
  8
0
100
AcDbLine
 10
-698.3825248669756
 20
285.1422027935644
 30
0.0
 11
-782.5200264286482
 21
285.1422031310635
 31
0.0
  0
LINE
  5
153
330
1F
100
AcDbEntity
  8
0
100
AcDbLine
 10
-434.8575241326453
 20
358.1671927840606
 30
0.0
 11
-685.6825248192945
 21
358.1671978504669
 31
0.0
  0
LINE
  5
154
330
1F
100
AcDbEntity
  8
0
100
AcDbLine
 10
-67.12011487931623
 20
108.6256937849311
 30
0.0
 11
-791.020114547148
 21
108.6256997034144
 31
0.0
  0
LINE
  5
155
330
1F
100
AcDbEntity
  8
0
100
AcDbLine
 10
-60.77011399653784
 20
175.2871939839303
 30
0.0
 11
-60.77011413525396
 21
157.0309438090778
 31
0.0
  0
LINE
  5
156
330
1F
100
AcDbEntity
  8
0
100
AcDbLine
 10
-60.77011434734548
 20
132.4246938781766
 30
0.0
 11
-60.77011482458278
 21
114.9756937301978
 31
0.0
  0
LINE
  5
157
330
1F
100
AcDbEntity
  8
0
100
AcDbLine
 10
226.839758021634
 20
348.4729645641615
 30
0.0
 11
226.8397488096845
 21
302.0024309998058
 31
0.0
  0
LINE
  5
158
330
1F
100
AcDbEntity
  8
0
100
AcDbLine
 10
-152.4998314670998
 20
282.5725963445817
 30
0.0
 11
-165.4231990475895
 21
294.8776836381613
 31
0.0
  0
LINE
  5
159
330
1F
100
AcDbEntity
  8
0
100
AcDbLine
 10
-152.4998310577396
 20
342.3204077771966
 30
0.0
 11
-165.4231986347867
 21
354.6254950673135
 31
0.0
  0
LINE
  5
15A
330
1F
100
AcDbEntity
  8
0
100
AcDbLine
 10
84.356703081091
 20
341.8343049139659
 30
0.0
 11
-151.3772990426058
 21
341.8343040778437
 31
0.0
  0
LINE
  5
15B
330
1F
100
AcDbEntity
  8
0
100
AcDbLine
 10
98.40260218351044
 20
294.8776842029919
 30
0.0
 11
85.47923467031636
 21
282.5725977592726
 31
0.0
  0
ENDSEC
  0
SECTION
  2
OBJECTS
  0
DICTIONARY
  5
C
330
0
100
AcDbDictionary
  3
ACAD_GROUP
350
D
  3
ACAD_LAYOUT
350
1A
  3
ACAD_MATERIAL
350
43
  3
ACAD_MLEADERSTYLE
350
6B
  3
ACAD_MLINESTYLE
350
17
  3
ACAD_PLOTSETTINGS
350
19
  3
ACAD_SCALELIST
350
47
  3
ACAD_VISUALSTYLE
350
2A
  3
ACDBHEADERROUNDTRIPXREC
350
15C
  3
ACDBVARIABLEDICTIONARY
350
17D
  0
DICTIONARY
  5
184
330
8
100
AcDbDictionary
280
     1
  3
ACAD_XREC_ROUNDTRIP
360
185
  0
DICTIONARY
  5
D
102
{ACAD_REACTORS
330
C
102
}
330
C
100
AcDbDictionary
  0
DICTIONARY
  5
1A
102
{ACAD_REACTORS
330
C
102
}
330
C
100
AcDbDictionary
  0
DICTIONARY
  5
43
102
{ACAD_REACTORS
330
C
102
}
330
C
100
AcDbDictionary
  3
BYBLOCK
350
45
  3
BYLAYER
350
44
  3
GLOBAL
350
46
  0
DICTIONARY
  5
6B
102
{ACAD_REACTORS
330
C
102
}
330
C
100
AcDbDictionary
  3
STANDARD
350
6C
  0
DICTIONARY
  5
17
102
{ACAD_REACTORS
330
C
102
}
330
C
100
AcDbDictionary
  3
STANDARD
350
18
  0
DICTIONARY
  5
19
102
{ACAD_REACTORS
330
C
102
}
330
C
100
AcDbDictionary
  0
DICTIONARY
  5
47
102
{ACAD_REACTORS
330
C
102
}
330
C
100
AcDbDictionary
  3
A0
350
48
  3
A1
350
49
  3
A2
350
4A
  3
A3
350
4B
  3
A4
350
4C
  3
A5
350
4D
  3
A6
350
4E
  3
A7
350
4F
  3
A8
350
50
  3
A9
350
51
  3
B0
350
52
  3
B1
350
53
  3
B2
350
54
  3
B3
350
55
  3
B4
350
56
  3
B5
350
57
  3
B6
350
58
  3
B7
350
59
  3
B8
350
5A
  3
B9
350
5B
  3
C0
350
5C
  3
C1
350
5D
  3
C2
350
5E
  3
C3
350
5F
  3
C4
350
60
  3
C5
350
61
  3
C6
350
62
  3
C7
350
63
  3
C8
350
64
  3
C9
350
65
  3
D0
350
66
  3
D1
350
67
  3
D2
350
68
  0
DICTIONARY
  5
2A
102
{ACAD_REACTORS
330
C
102
}
330
C
100
AcDbDictionary
  3
2DWIREFRAME
350
2F
  3
BASIC
350
32
  3
BRIGHTEN
350
36
  3
COLORCHANGE
350
3A
  3
CONCEPTUAL
350
34
  3
DIM
350
35
  3
EDGECOLOROFF
350
3D
  3
FACEPATTERN
350
39
  3
FLAT
350
2B
  3
FLATWITHEDGES
350
2C
  3
GOURAUD
350
2D
  3
GOURAUDWITHEDGES
350
2E
  3
HIDDEN
350
31
  3
JITTEROFF
350
3B
  3
LINEPATTERN
350
38
  3
OVERHANGOFF
350
3C
  3
REALISTIC
350
33
  3
SHADED
350
42
  3
SHADED_WITH_EDGES
350
41
  3
SHADES_OF_GRAY
350
3E
  3
SKETCHY
350
3F
  3
THICKEN
350
37
  3
WIREFRAME
350
30
  3
X-RAY
350
40
  0
DICTIONARY
  5
15C
102
{ACAD_REACTORS
330
C
102
}
330
C
100
AcDbDictionary
  3
CEPSNID
350
166
  3
CEPSNTYPE
350
165
  3
DIMSTYLEDATA
350
17C
  3
FINGERPRINTGUID
350
167
  3
HYPERLINKBASE
350
15F
  3
INSUNITS
350
164
  3
LAYOUTDICT
350
161
  3
LWETCUNION
350
163
  3
PLOTSETDICT
350
162
  3
PSVPSCALE
350
169
  3
PUCSBASE
350
16C
  3
PUCSORGBACK
350
172
  3
PUCSORGBOTTOM
350
16E
  3
PUCSORGFRONT
350
171
  3
PUCSORGLEFT
350
16F
  3
PUCSORGRIGHT
350
170
  3
PUCSORGTOP
350
16D
  3
PUCSORTHOREF
350
16A
  3
PUCSORTHOVIEW
350
16B
  3
STYLESHEET
350
160
  3
TSTACKALIGN
350
15D
  3
TSTACKSIZE
350
15E
  3
UCSBASE
350
175
  3
UCSORGBACK
350
17B
  3
UCSORGBOTTOM
350
177
  3
UCSORGFRONT
350
17A
  3
UCSORGLEFT
350
178
  3
UCSORGRIGHT
350
179
  3
UCSORGTOP
350
176
  3
UCSORTHOREF
350
173
  3
UCSORTHOVIEW
350
174
  3
VERSIONGUID
350
168
  0
DICTIONARY
  5
17D
102
{ACAD_REACTORS
330
C
102
}
330
C
100
AcDbDictionary
  3
CANNOSCALE
350
186
  3
CMLEADERSTYLE
350
17F
  3
CTABLESTYLE
350
17E
  3
DIMASSOC
350
182
  3
HIDETEXT
350
183
  3
MSLTSCALE
350
187
  0
XRECORD
  5
185
102
{ACAD_REACTORS
330
184
102
}
330
184
100
AcDbXrecord
102
VTR_0.000_0.000_1.000_1.000_VISUALSTYLE
340
2F
102
VTR_0.000_0.000_1.000_1.000_GRIDDISPLAY
 70
     3
102
VTR_0.000_0.000_1.000_1.000_GRIDMAJOR
 70
     5
102
VTR_0.000_0.000_1.000_1.000_DEFAULTLIGHTING
280
     1
102
VTR_0.000_0.000_1.000_1.000_DEFAULTLIGHTINGTYPE
 70
     1
102
VTR_0.000_0.000_1.000_1.000_BRIGHTNESS
141
0.0
102
VTR_0.000_0.000_1.000_1.000_CONTRAST
142
0.0
  0
MATERIAL
  5
45
102
{ACAD_REACTORS
330
43
102
}
102
{ACAD_XDICTIONARY
360
18A
102
}
330
43
100
AcDbMaterial
  1
BYBLOCK
  0
MATERIAL
  5
44
102
{ACAD_REACTORS
330
43
102
}
102
{ACAD_XDICTIONARY
360
188
102
}
330
43
100
AcDbMaterial
  1
BYLAYER
  0
MATERIAL
  5
46
102
{ACAD_REACTORS
330
43
102
}
102
{ACAD_XDICTIONARY
360
18C
102
}
330
43
100
AcDbMaterial
  1
GLOBAL
  0
ACAD_PROXY_OBJECT
  5
6C
102
{ACAD_REACTORS
330
6B
102
}
330
6B
100
AcDbProxyObject
 90
      499
 91
      505
 93
      610
310
40901902A4063FBFFFFFE056BD1B81E855B9FC0AD7A3703D0AD73F4214DD185B99185C9900AD7A3703D0AC73F90141901A02B5E8DC0F42B1CFC02B5E8DC0F42B1CFE5764000000000000300FC0
340
14
340
0
340
11
340
0
 94
        0
1001
ACAD_MLEADERVER
1070
     2
  0
MLINESTYLE
  5
18
102
{ACAD_REACTORS
330
17
102
}
330
17
100
AcDbMlineStyle
  2
Standard
 70
     0
  3

 62
   256
 51
90.0
 52
90.0
 71
     2
 49
0.5
 62
   256
  6
BYLAYER
 49
-0.5
 62
   256
  6
BYLAYER
  0
ACAD_PROXY_OBJECT
  5
48
102
{ACAD_REACTORS
330
47
102
}
330
47
100
AcDbProxyObject
 90
      499
 91
      503
 93
       41
310
903313A31580
  0
ACAD_PROXY_OBJECT
  5
49
102
{ACAD_REACTORS
330
47
102
}
330
47
100
AcDbProxyObject
 90
      499
 91
      503
 93
      105
310
903313A324000000000000004000
  0
ACAD_PROXY_OBJECT
  5
4A
102
{ACAD_REACTORS
330
47
102
}
330
47
100
AcDbProxyObject
 90
      499
 91
      503
 93
      105
310
903313A344000000000000104000
  0
ACAD_PROXY_OBJECT
  5
4B
102
{ACAD_REACTORS
330
47
102
}
330
47
100
AcDbProxyObject
 90
      499
 91
      503
 93
      105
310
903313A354000000000000144000
  0
ACAD_PROXY_OBJECT
  5
4C
102
{ACAD_REACTORS
330
47
102
}
330
47
100
AcDbProxyObject
 90
      499
 91
      503
 93
      105
310
903313A384000000000000204000
  0
ACAD_PROXY_OBJECT
  5
4D
102
{ACAD_REACTORS
330
47
102
}
330
47
100
AcDbProxyObject
 90
      499
 91
      503
 93
      113
310
904313A31304000000000000244000
  0
ACAD_PROXY_OBJECT
  5
4E
102
{ACAD_REACTORS
330
47
102
}
330
47
100
AcDbProxyObject
 90
      499
 91
      503
 93
      113
310
904313A31364000000000000304000
  0
ACAD_PROXY_OBJECT
  5
4F
102
{ACAD_REACTORS
330
47
102
}
330
47
100
AcDbProxyObject
 90
      499
 91
      503
 93
      113
310
904313A32304000000000000344000
  0
ACAD_PROXY_OBJECT
  5
50
102
{ACAD_REACTORS
330
47
102
}
330
47
100
AcDbProxyObject
 90
      499
 91
      503
 93
      113
310
904313A333040000000000003E4000
  0
ACAD_PROXY_OBJECT
  5
51
102
{ACAD_REACTORS
330
47
102
}
330
47
100
AcDbProxyObject
 90
      499
 91
      503
 93
      113
310
904313A34304000000000000444000
  0
ACAD_PROXY_OBJECT
  5
52
102
{ACAD_REACTORS
330
47
102
}
330
47
100
AcDbProxyObject
 90
      499
 91
      503
 93
      113
310
904313A35304000000000000494000
  0
ACAD_PROXY_OBJECT
  5
53
102
{ACAD_REACTORS
330
47
102
}
330
47
100
AcDbProxyObject
 90
      499
 91
      503
 93
      121
310
905313A3130304000000000000594000
  0
ACAD_PROXY_OBJECT
  5
54
102
{ACAD_REACTORS
330
47
102
}
330
47
100
AcDbProxyObject
 90
      499
 91
      503
 93
      105
310
903323A310000000000000010100
  0
ACAD_PROXY_OBJECT
  5
55
102
{ACAD_REACTORS
330
47
102
}
330
47
100
AcDbProxyObject
 90
      499
 91
      503
 93
      105
310
903343A310000000000000410100
  0
ACAD_PROXY_OBJECT
  5
56
102
{ACAD_REACTORS
330
47
102
}
330
47
100
AcDbProxyObject
 90
      499
 91
      503
 93
      105
310
903383A310000000000000810100
  0
ACAD_PROXY_OBJECT
  5
57
102
{ACAD_REACTORS
330
47
102
}
330
47
100
AcDbProxyObject
 90
      499
 91
      503
 93
      113
310
90431303A310000000000000910100
  0
ACAD_PROXY_OBJECT
  5
58
102
{ACAD_REACTORS
330
47
102
}
330
47
100
AcDbProxyObject
 90
      499
 91
      503
 93
      121
310
9053130303A310000000000001650100
  0
ACAD_PROXY_OBJECT
  5
59
102
{ACAD_REACTORS
330
47
102
}
330
47
100
AcDbProxyObject
 90
      499
 91
      503
 93
      257
310
90E312F31323822203D2031272D3022000000000000200FC000000000000284000
  0
ACAD_PROXY_OBJECT
  5
5A
102
{ACAD_REACTORS
330
47
102
}
330
47
100
AcDbProxyObject
 90
      499
 91
      503
 93
      249
310
90D312F363422203D2031272D3022000000000000240FC000000000000284000
  0
ACAD_PROXY_OBJECT
  5
5B
102
{ACAD_REACTORS
330
47
102
}
330
47
100
AcDbProxyObject
 90
      499
 91
      503
 93
      249
310
90D312F333222203D2031272D3022000000000000280FC000000000000284000
  0
ACAD_PROXY_OBJECT
  5
5C
102
{ACAD_REACTORS
330
47
102
}
330
47
100
AcDbProxyObject
 90
      499
 91
      503
 93
      249
310
90D312F313622203D2031272D30220000000000002C0FC000000000000284000
  0
ACAD_PROXY_OBJECT
  5
5D
102
{ACAD_REACTORS
330
47
102
}
330
47
100
AcDbProxyObject
 90
      499
 91
      503
 93
      249
310
90D332F333222203D2031272D30220000000000002E0FC000000000000284000
  0
ACAD_PROXY_OBJECT
  5
5E
102
{ACAD_REACTORS
330
47
102
}
330
47
100
AcDbProxyObject
 90
      499
 91
      503
 93
      241
310
90C312F3822203D2031272D3022000000000000300FC000000000000284000
  0
ACAD_PROXY_OBJECT
  5
5F
102
{ACAD_REACTORS
330
47
102
}
330
47
100
AcDbProxyObject
 90
      499
 91
      503
 93
      249
310
90D332F313622203D2031272D3022000000000000320FC000000000000284000
  0
ACAD_PROXY_OBJECT
  5
60
102
{ACAD_REACTORS
330
47
102
}
330
47
100
AcDbProxyObject
 90
      499
 91
      503
 93
      241
310
90C312F3422203D2031272D3022000000000000340FC000000000000284000
  0
ACAD_PROXY_OBJECT
  5
61
102
{ACAD_REACTORS
330
47
102
}
330
47
100
AcDbProxyObject
 90
      499
 91
      503
 93
      241
310
90C332F3822203D2031272D3022000000000000360FC000000000000284000
  0
ACAD_PROXY_OBJECT
  5
62
102
{ACAD_REACTORS
330
47
102
}
330
47
100
AcDbProxyObject
 90
      499
 91
      503
 93
      241
310
90C312F3222203D2031272D3022000000000000380FC000000000000284000
  0
ACAD_PROXY_OBJECT
  5
63
102
{ACAD_REACTORS
330
47
102
}
330
47
100
AcDbProxyObject
 90
      499
 91
      503
 93
      241
310
90C332F3422203D2031272D30220000000000003A0FC000000000000284000
  0
ACAD_PROXY_OBJECT
  5
64
102
{ACAD_REACTORS
330
47
102
}
330
47
100
AcDbProxyObject
 90
      499
 91
      503
 93
      161
310
90A3122203D2031272D30224000000000000284000
  0
ACAD_PROXY_OBJECT
  5
65
102
{ACAD_REACTORS
330
47
102
}
330
47
100
AcDbProxyObject
 90
      499
 91
      503
 93
      257
310
90E312D312F3222203D2031272D30220000000000003E0FC000000000000284000
  0
ACAD_PROXY_OBJECT
  5
66
102
{ACAD_REACTORS
330
47
102
}
330
47
100
AcDbProxyObject
 90
      499
 91
      503
 93
      225
310
90A3322203D2031272D302200000000000002100000000000000284000
  0
ACAD_PROXY_OBJECT
  5
67
102
{ACAD_REACTORS
330
47
102
}
330
47
100
AcDbProxyObject
 90
      499
 91
      503
 93
      225
310
90A3622203D2031272D302200000000000006100000000000000284000
  0
ACAD_PROXY_OBJECT
  5
68
102
{ACAD_REACTORS
330
47
102
}
330
47
100
AcDbProxyObject
 90
      499
 91
      503
 93
      249
310
90D31272D3022203D2031272D30220000000000000A100000000000000284000
  0
ACAD_PROXY_OBJECT
  5
2F
102
{ACAD_REACTORS
330
2A
102
}
330
2A
100
AcDbProxyObject
 90
      499
 91
      501
 93
      436
310
42CC9915DA5C99599C985B595049028333333333333E33F0000000000000F90107901411070040501600405405064090741402480A0340
1001
ACAD
1000
AcDbSavedByObjectVersion
1070
     0
  0
ACAD_PROXY_OBJECT
  5
32
102
{ACAD_REACTORS
330
2A
102
}
330
2A
100
AcDbProxyObject
 90
      499
 91
      501
 93
      388
310
4150985CDA58D07406404333333333333E33F0000000000000F90107A41107004050150841D405064090741402480A0350
1001
ACAD
1000
AcDbSavedByObjectVersion
1070
     0
  0
ACAD_PROXY_OBJECT
  5
36
102
{ACAD_REACTORS
330
2A
102
}
330
2A
100
AcDbProxyObject
 90
      499
 91
      501
 93
      428
310
42109C9A59DA1D195B90C409028333333333333E33F0000000000000F9010790141107004050150841D405064090741402480A029950
1001
ACAD
1000
AcDbSavedByObjectVersion
1070
     0
  0
ACAD_PROXY_OBJECT
  5
3A
102
{ACAD_REACTORS
330
2A
102
}
330
2A
100
AcDbProxyObject
 90
      499
 91
      501
 93
      452
310
42D0DBDB1BDC90DA185B99D95104090240C333333333333E33F0000000000000F90108901411070040501508421405064090741402480A0350
1001
ACAD
1000
AcDbSavedByObjectVersion
1070
     0
  0
ACAD_PROXY_OBJECT
  5
34
102
{ACAD_REACTORS
330
2A
102
}
330
2A
100
AcDbProxyObject
 90
      499
 91
      501
 93
      500
310
4290DBDB98D95C1D1D585B10940D028333333333333E33F0000000000000F90107902409070040501000000000018199010841D405064090740C02480A0340
1001
ACAD
1000
AcDbSavedByObjectVersion
1070
     0
  0
ACAD_PROXY_OBJECT
  5
35
102
{ACAD_REACTORS
330
2A
102
}
330
2A
100
AcDbProxyObject
 90
      499
 91
      501
 93
      412
310
40D11A5B50B409028333333333333E33F0000000000000F9010790141107004050150841D405064090741402480A02677FFFFFD0
1001
ACAD
1000
AcDbSavedByObjectVersion
1070
     0
  0
ACAD_PROXY_OBJECT
  5
3D
102
{ACAD_REACTORS
330
2A
102
}
330
2A
100
AcDbProxyObject
 90
      499
 91
      501
 93
      452
310
43115919D950DBDB1BDC93D999916409028333333333333E33F0000000000000F9010790141107004050150841D405064090741402480A0350
1001
ACAD
1000
AcDbSavedByObjectVersion
1070
     0
  0
ACAD_PROXY_OBJECT
  5
39
102
{ACAD_REACTORS
330
2A
102
}
330
2A
100
AcDbProxyObject
 90
      499
 91
      501
 93
      444
310
42D19858D95C185D1D195C9B90F409028333333333333E33F0000000000000F9010790141107004050150841D405064090741402480A0350
1001
ACAD
1000
AcDbSavedByObjectVersion
1070
     0
  0
ACAD_PROXY_OBJECT
  5
2B
102
{ACAD_REACTORS
330
2A
102
}
330
2A
100
AcDbProxyObject
 90
      499
 91
      501
 93
      380
310
41119B185D240901404333333333333E33F0000000000000F9010740A907004050150841D405064090741402480A1B50
1001
ACAD
1000
AcDbSavedByObjectVersion
1070
     0
  0
ACAD_PROXY_OBJECT
  5
2C
102
{ACAD_REACTORS
330
2A
102
}
330
2A
100
AcDbProxyObject
 90
      499
 91
      501
 93
      468
310
43519B185D15DA5D1A115919D95CD0140901404333333333333E33F0000000000000F90107409019070040501600405405064090741402480A1B50
1001
ACAD
1000
AcDbSavedByObjectVersion
1070
     0
  0
ACAD_PROXY_OBJECT
  5
2D
102
{ACAD_REACTORS
330
2A
102
}
330
2A
100
AcDbProxyObject
 90
      499
 91
      501
 93
      404
310
41D1DBDD5C985D5910240902404333333333333E33F0000000000000F9010740A9070040501641D405064090741402480A1B50
1001
ACAD
1000
AcDbSavedByObjectVersion
1070
     0
  0
ACAD_PROXY_OBJECT
  5
2E
102
{ACAD_REACTORS
330
2A
102
}
330
2A
100
AcDbProxyObject
 90
      499
 91
      501
 93
      492
310
4411DBDD5C985D5915DA5D1A115919D95CD0340902404333333333333E33F0000000000000F90107409019070040501600405405064090741402480A1B50
1001
ACAD
1000
AcDbSavedByObjectVersion
1070
     0
  0
ACAD_PROXY_OBJECT
  5
31
102
{ACAD_REACTORS
330
2A
102
}
330
2A
100
AcDbProxyObject
 90
      499
 91
      501
 93
      476
310
41921A5919195B90640502408333333333333E33F0000000000000F901079024090700405020000000000001110200405405064090740C02480A0340
1001
ACAD
1000
AcDbSavedByObjectVersion
1070
     0
  0
ACAD_PROXY_OBJECT
  5
3B
102
{ACAD_REACTORS
330
2A
102
}
330
2A
100
AcDbProxyObject
 90
      499
 91
      501
 93
      428
310
42529A5D1D195C93D999914409028333333333333E33F0000000000000F9010790141107004050150A41D405064090741402480A0350
1001
ACAD
1000
AcDbSavedByObjectVersion
1070
     0
  0
ACAD_PROXY_OBJECT
  5
38
102
{ACAD_REACTORS
330
2A
102
}
330
2A
100
AcDbProxyObject
 90
      499
 91
      501
 93
      444
310
42D31A5B995C185D1D195C9B90E409028333333333333E33F0000000000000F9010790141107004050750841D405064090741402483A0350
1001
ACAD
1000
AcDbSavedByObjectVersion
1070
     0
  0
ACAD_PROXY_OBJECT
  5
3C
102
{ACAD_REACTORS
330
2A
102
}
330
2A
100
AcDbProxyObject
 90
      499
 91
      501
 93
      444
310
42D3DD995C9A185B99D3D999915409028333333333333E33F0000000000000F9010790141107004050150941D405064090741402480A0350
1001
ACAD
1000
AcDbSavedByObjectVersion
1070
     0
  0
ACAD_PROXY_OBJECT
  5
33
102
{ACAD_REACTORS
330
2A
102
}
330
2A
100
AcDbProxyObject
 90
      499
 91
      501
 93
      428
310
425499585B1A5CDD1A58D08409038333333333333E33F0000000000000F9010740A907004050150800405405064090740C02480A1B40
1001
ACAD
1000
AcDbSavedByObjectVersion
1070
     0
  0
ACAD_PROXY_OBJECT
  5
42
102
{ACAD_REACTORS
330
2A
102
}
330
2A
100
AcDbProxyObject
 90
      499
 91
      501
 93
      420
310
4194DA1859195911B40902404333333333333E33F0000000000000F9010740A41107004050150800405405064090840C02480A0B40
1001
ACAD
1000
AcDbSavedByObjectVersion
1070
     0
  0
ACAD_PROXY_OBJECT
  5
41
102
{ACAD_REACTORS
330
2A
102
}
330
2A
100
AcDbProxyObject
 90
      499
 91
      501
 93
      516
310
4454DA18591959081DDA5D1A08195919D95CD1A40902404333333333333E33F0000000000000F901074090142907004050250800405405064090740C02480A0B40
1001
ACAD
1000
AcDbSavedByObjectVersion
1070
     0
  0
ACAD_PROXY_OBJECT
  5
3E
102
{ACAD_REACTORS
330
2A
102
}
330
2A
100
AcDbProxyObject
 90
      499
 91
      501
 93
      532
310
4394DA1859195CC81BD98811DC985E5174090240C333333333333E33F0000000000000F901079024090741D01000000000000111010841D405064090740C02480A0340
1001
ACAD
1000
AcDbSavedByObjectVersion
1070
     0
  0
ACAD_PROXY_OBJECT
  5
3F
102
{ACAD_REACTORS
330
2A
102
}
330
2A
100
AcDbProxyObject
 90
      499
 91
      501
 93
      476
310
41D4DAD95D18DA1E51840502408333333333333E33F0000000000000F901079024090741D01000000000000111010B41D405064090741802480A0340
1001
ACAD
1000
AcDbSavedByObjectVersion
1070
     0
  0
ACAD_PROXY_OBJECT
  5
37
102
{ACAD_REACTORS
330
2A
102
}
330
2A
100
AcDbProxyObject
 90
      499
 91
      501
 93
      412
310
41D51A1A58DAD95B90D409028333333333333E33F0000000000000F9010790141107004050150C41D405064090741402480A0350
1001
ACAD
1000
AcDbSavedByObjectVersion
1070
     0
  0
ACAD_PROXY_OBJECT
  5
30
102
{ACAD_REACTORS
330
2A
102
}
330
2A
100
AcDbProxyObject
 90
      499
 91
      501
 93
      420
310
4255DA5C99599C985B595059028333333333333E33F0000000000000F90107901411070040501600405405064090740C02480A0340
1001
ACAD
1000
AcDbSavedByObjectVersion
1070
     0
  0
ACAD_PROXY_OBJECT
  5
40
102
{ACAD_REACTORS
330
2A
102
}
330
2A
100
AcDbProxyObject
 90
      499
 91
      501
 93
      404
310
41560B54985E51940902404000000000000E03F0000000000000F9010740501907004050150841D405064090740C02480A1B40
1001
ACAD
1000
AcDbSavedByObjectVersion
1070
     0
  0
XRECORD
  5
166
102
{ACAD_REACTORS
330
15C
102
}
330
15C
100
AcDbXrecord
340
0
  0
XRECORD
  5
165
102
{ACAD_REACTORS
330
15C
102
}
330
15C
100
AcDbXrecord
 90
        0
  0
XRECORD
  5
17C
102
{ACAD_REACTORS
330
15C
102
}
330
15C
100
AcDbXrecord
1000
DSTYLE
1002
{
1070
   171
 70
     2
1070
   143
 40
25.4
1070
   274
 70
     2
1070
    41
 40
0.18
1070
   141
 40
0.09
1070
   271
 70
     4
1070
    43
 40
0.38
1070
   278
 70
    46
1070
    44
 40
0.18
1070
    42
 40
0.0625
1070
   147
 40
0.09
1070
    77
 70
     0
1070
   272
 70
     4
1070
    73
 70
     1
1070
   172
 70
     0
1070
    74
 70
     1
1070
   283
 70
     1
1070
   340
340
11
1070
   140
 40
0.18
1070
   284
 70
     0
1070
    78
 70
     0
1002
}
  0
XRECORD
  5
167
102
{ACAD_REACTORS
330
15C
102
}
330
15C
100
AcDbXrecord
  1
{463c13a3-45bd-4645-b353-04907fe567b3}
  0
XRECORD
  5
15F
102
{ACAD_REACTORS
330
15C
102
}
330
15C
100
AcDbXrecord
  1

  0
XRECORD
  5
164
102
{ACAD_REACTORS
330
15C
102
}
330
15C
100
AcDbXrecord
 90
        4
  0
XRECORD
  5
161
102
{ACAD_REACTORS
330
15C
102
}
330
15C
100
AcDbXrecord
340
1A
  0
XRECORD
  5
163
102
{ACAD_REACTORS
330
15C
102
}
330
15C
100
AcDbXrecord
 90
    10781
  0
XRECORD
  5
162
102
{ACAD_REACTORS
330
15C
102
}
330
15C
100
AcDbXrecord
340
19
  0
XRECORD
  5
169
102
{ACAD_REACTORS
330
15C
102
}
330
15C
100
AcDbXrecord
 40
0.0
  0
XRECORD
  5
16C
102
{ACAD_REACTORS
330
15C
102
}
330
15C
100
AcDbXrecord
340
0
  0
XRECORD
  5
172
102
{ACAD_REACTORS
330
15C
102
}
330
15C
100
AcDbXrecord
 10
0.0
 20
0.0
 30
0.0
  0
XRECORD
  5
16E
102
{ACAD_REACTORS
330
15C
102
}
330
15C
100
AcDbXrecord
 10
0.0
 20
0.0
 30
0.0
  0
XRECORD
  5
171
102
{ACAD_REACTORS
330
15C
102
}
330
15C
100
AcDbXrecord
 10
0.0
 20
0.0
 30
0.0
  0
XRECORD
  5
16F
102
{ACAD_REACTORS
330
15C
102
}
330
15C
100
AcDbXrecord
 10
0.0
 20
0.0
 30
0.0
  0
XRECORD
  5
170
102
{ACAD_REACTORS
330
15C
102
}
330
15C
100
AcDbXrecord
 10
0.0
 20
0.0
 30
0.0
  0
XRECORD
  5
16D
102
{ACAD_REACTORS
330
15C
102
}
330
15C
100
AcDbXrecord
 10
0.0
 20
0.0
 30
0.0
  0
XRECORD
  5
16A
102
{ACAD_REACTORS
330
15C
102
}
330
15C
100
AcDbXrecord
340
0
  0
XRECORD
  5
16B
102
{ACAD_REACTORS
330
15C
102
}
330
15C
100
AcDbXrecord
 70
     0
  0
XRECORD
  5
160
102
{ACAD_REACTORS
330
15C
102
}
330
15C
100
AcDbXrecord
  1

  0
XRECORD
  5
15D
102
{ACAD_REACTORS
330
15C
102
}
330
15C
100
AcDbXrecord
 90
        1
  0
XRECORD
  5
15E
102
{ACAD_REACTORS
330
15C
102
}
330
15C
100
AcDbXrecord
 90
       70
  0
XRECORD
  5
175
102
{ACAD_REACTORS
330
15C
102
}
330
15C
100
AcDbXrecord
340
0
  0
XRECORD
  5
17B
102
{ACAD_REACTORS
330
15C
102
}
330
15C
100
AcDbXrecord
 10
0.0
 20
0.0
 30
0.0
  0
XRECORD
  5
177
102
{ACAD_REACTORS
330
15C
102
}
330
15C
100
AcDbXrecord
 10
0.0
 20
0.0
 30
0.0
  0
XRECORD
  5
17A
102
{ACAD_REACTORS
330
15C
102
}
330
15C
100
AcDbXrecord
 10
0.0
 20
0.0
 30
0.0
  0
XRECORD
  5
178
102
{ACAD_REACTORS
330
15C
102
}
330
15C
100
AcDbXrecord
 10
0.0
 20
0.0
 30
0.0
  0
XRECORD
  5
179
102
{ACAD_REACTORS
330
15C
102
}
330
15C
100
AcDbXrecord
 10
0.0
 20
0.0
 30
0.0
  0
XRECORD
  5
176
102
{ACAD_REACTORS
330
15C
102
}
330
15C
100
AcDbXrecord
 10
0.0
 20
0.0
 30
0.0
  0
XRECORD
  5
173
102
{ACAD_REACTORS
330
15C
102
}
330
15C
100
AcDbXrecord
340
0
  0
XRECORD
  5
174
102
{ACAD_REACTORS
330
15C
102
}
330
15C
100
AcDbXrecord
 70
     0
  0
XRECORD
  5
168
102
{ACAD_REACTORS
330
15C
102
}
330
15C
100
AcDbXrecord
  1
{FAEB1C32-E019-11D5-929B-00C0DF256EC4}
  0
DICTIONARYVAR
  5
186
102
{ACAD_REACTORS
330
17D
102
}
330
17D
100
DictionaryVariables
280
     0
  1
1:1
  0
DICTIONARYVAR
  5
17F
102
{ACAD_REACTORS
330
17D
102
}
330
17D
100
DictionaryVariables
280
     0
  1
Standard
  0
DICTIONARYVAR
  5
17E
102
{ACAD_REACTORS
330
17D
102
}
330
17D
100
DictionaryVariables
280
     0
  1
Standard
  0
DICTIONARYVAR
  5
182
102
{ACAD_REACTORS
330
17D
102
}
330
17D
100
DictionaryVariables
280
     0
  1
2
  0
DICTIONARYVAR
  5
183
102
{ACAD_REACTORS
330
17D
102
}
330
17D
100
DictionaryVariables
280
     0
  1
1
  0
DICTIONARYVAR
  5
187
102
{ACAD_REACTORS
330
17D
102
}
330
17D
100
DictionaryVariables
280
     0
  1
1
  0
DICTIONARY
  5
18A
330
45
100
AcDbDictionary
280
     1
  3
ACAD_XREC_ROUNDTRIP
360
18B
  0
DICTIONARY
  5
188
330
44
100
AcDbDictionary
280
     1
  3
ACAD_XREC_ROUNDTRIP
360
189
  0
DICTIONARY
  5
18C
330
46
100
AcDbDictionary
280
     1
  3
ACAD_XREC_ROUNDTRIP
360
18D
  0
XRECORD
  5
18B
102
{ACAD_REACTORS
330
18A
102
}
330
18A
100
AcDbXrecord
102
MATERIAL
148
0.0
149
0.0
149
0.0
 93
        0
 94
      127
282
     0
 72
     1
 77
     1
171
     1
175
     1
179
     1
273
     0
  0
XRECORD
  5
189
102
{ACAD_REACTORS
330
188
102
}
330
188
100
AcDbXrecord
102
MATERIAL
148
0.0
149
0.0
149
0.0
 93
        0
 94
      127
282
     0
 72
     1
 77
     1
171
     1
175
     1
179
     1
273
     0
  0
XRECORD
  5
18D
102
{ACAD_REACTORS
330
18C
102
}
330
18C
100
AcDbXrecord
102
MATERIAL
148
0.0
149
0.0
149
0.0
 93
        0
 94
      127
282
     0
 72
     1
 77
     1
171
     1
175
     1
179
     1
273
     0
  0
ENDSEC
  0
EOF
