  0
SECTION
  2
HEADER
  9
$ACADVER
  1
AC1014
  9
$ACADMAINTVER
 70
     9
  9
$DWGCODEPAGE
  3
MAC-ROMAN
  9
$INSBASE
 10
0.0
 20
0.0
 30
0.0
  9
$EXTMIN
 10
1.000000000000000E+20
 20
1.000000000000000E+20
 30
1.000000000000000E+20
  9
$EXTMAX
 10
-1.000000000000000E+20
 20
-1.000000000000000E+20
 30
-1.000000000000000E+20
  9
$LIMMIN
 10
0.0
 20
0.0
  9
$LIMMAX
 10
12.0
 20
9.0
  9
$ORTHOMODE
 70
     0
  9
$REGENMODE
 70
     1
  9
$FILLMODE
 70
     1
  9
$QTEXTMODE
 70
     0
  9
$MIRRTEXT
 70
     1
  9
$DRAGMODE
 70
     2
  9
$LTSCALE
 40
1.0
  9
$OSMODE
 70
    37
  9
$ATTMODE
 70
     1
  9
$TEXTSIZE
 40
0.2
  9
$TRACEWID
 40
0.05
  9
$TEXTSTYLE
  7
STANDARD
  9
$CLAYER
  8
0
  9
$CELTYPE
  6
BYLAYER
  9
$CECOLOR
 62
   256
  9
$CELTSCALE
 40
1.0
  9
$DELOBJ
 70
     1
  9
$DISPSILH
 70
     0
  9
$DIMSCALE
 40
1.0
  9
$DIMASZ
 40
0.18
  9
$DIMEXO
 40
0.0625
  9
$DIMDLI
 40
0.38
  9
$DIMRND
 40
0.0
  9
$DIMDLE
 40
0.0
  9
$DIMEXE
 40
0.18
  9
$DIMTP
 40
0.0
  9
$DIMTM
 40
0.0
  9
$DIMTXT
 40
0.18
  9
$DIMCEN
 40
0.09
  9
$DIMTSZ
 40
0.0
  9
$DIMTOL
 70
     0
  9
$DIMLIM
 70
     0
  9
$DIMTIH
 70
     1
  9
$DIMTOH
 70
     1
  9
$DIMSE1
 70
     0
  9
$DIMSE2
 70
     0
  9
$DIMTAD
 70
     0
  9
$DIMZIN
 70
     0
  9
$DIMBLK
  1

  9
$DIMASO
 70
     1
  9
$DIMSHO
 70
     1
  9
$DIMPOST
  1

  9
$DIMAPOST
  1

  9
$DIMALT
 70
     0
  9
$DIMALTD
 70
     2
  9
$DIMALTF
 40
25.4
  9
$DIMLFAC
 40
1.0
  9
$DIMTOFL
 70
     0
  9
$DIMTVP
 40
0.0
  9
$DIMTIX
 70
     0
  9
$DIMSOXD
 70
     0
  9
$DIMSAH
 70
     0
  9
$DIMBLK1
  1

  9
$DIMBLK2
  1

  9
$DIMSTYLE
  2
STANDARD
  9
$DIMCLRD
 70
     0
  9
$DIMCLRE
 70
     0
  9
$DIMCLRT
 70
     0
  9
$DIMTFAC
 40
1.0
  9
$DIMGAP
 40
0.09
  9
$DIMJUST
 70
     0
  9
$DIMSD1
 70
     0
  9
$DIMSD2
 70
     0
  9
$DIMTOLJ
 70
     1
  9
$DIMTZIN
 70
     0
  9
$DIMALTZ
 70
     0
  9
$DIMALTTZ
 70
     0
  9
$DIMFIT
 70
     3
  9
$DIMUPT
 70
     0
  9
$DIMUNIT
 70
     2
  9
$DIMDEC
 70
     4
  9
$DIMTDEC
 70
     4
  9
$DIMALTU
 70
     2
  9
$DIMALTTD
 70
     2
  9
$DIMTXSTY
  7
STANDARD
  9
$DIMAUNIT
 70
     0
  9
$LUNITS
 70
     2
  9
$LUPREC
 70
     4
  9
$SKETCHINC
 40
0.1
  9
$FILLETRAD
 40
0.5
  9
$AUNITS
 70
     0
  9
$AUPREC
 70
     0
  9
$MENU
  1
.
  9
$ELEVATION
 40
0.0
  9
$PELEVATION
 40
0.0
  9
$THICKNESS
 40
0.0
  9
$LIMCHECK
 70
     0
  9
$CHAMFERA
 40
0.0
  9
$CHAMFERB
 40
0.0
  9
$CHAMFERC
 40
0.0
  9
$CHAMFERD
 40
0.0
  9
$SKPOLY
 70
     0
  9
$TDCREATE
 40
2459548.421167488
  9
$TDUPDATE
 40
2459548.421167639
  9
$TDINDWG
 40
0.0000000116
  9
$TDUSRTIMER
 40
0.0000000116
  9
$USRTIMER
 70
     1
  9
$ANGBASE
 50
0.0
  9
$ANGDIR
 70
     0
  9
$PDMODE
 70
     0
  9
$PDSIZE
 40
0.0
  9
$PLINEWID
 40
0.0
  9
$COORDS
 70
     1
  9
$SPLFRAME
 70
     0
  9
$SPLINETYPE
 70
     6
  9
$SPLINESEGS
 70
     8
  9
$ATTDIA
 70
     0
  9
$ATTREQ
 70
     1
  9
$HANDLING
 70
     1
  9
$HANDSEED
  5
3A7
  9
$SURFTAB1
 70
     6
  9
$SURFTAB2
 70
     6
  9
$SURFTYPE
 70
     6
  9
$SURFU
 70
     6
  9
$SURFV
 70
     6
  9
$UCSNAME
  2

  9
$UCSORG
 10
0.0
 20
0.0
 30
0.0
  9
$UCSXDIR
 10
1.0
 20
0.0
 30
0.0
  9
$UCSYDIR
 10
0.0
 20
1.0
 30
0.0
  9
$PUCSNAME
  2

  9
$PUCSORG
 10
0.0
 20
0.0
 30
0.0
  9
$PUCSXDIR
 10
1.0
 20
0.0
 30
0.0
  9
$PUCSYDIR
 10
0.0
 20
1.0
 30
0.0
  9
$USERI1
 70
     0
  9
$USERI2
 70
     0
  9
$USERI3
 70
     0
  9
$USERI4
 70
     0
  9
$USERI5
 70
     0
  9
$USERR1
 40
0.0
  9
$USERR2
 40
0.0
  9
$USERR3
 40
0.0
  9
$USERR4
 40
0.0
  9
$USERR5
 40
0.0
  9
$WORLDVIEW
 70
     1
  9
$SHADEDGE
 70
     3
  9
$SHADEDIF
 70
    70
  9
$TILEMODE
 70
     1
  9
$MAXACTVP
 70
    64
  9
$PINSBASE
 10
0.0
 20
0.0
 30
0.0
  9
$PLIMCHECK
 70
     0
  9
$PEXTMIN
 10
1.000000000000000E+20
 20
1.000000000000000E+20
 30
1.000000000000000E+20
  9
$PEXTMAX
 10
-1.000000000000000E+20
 20
-1.000000000000000E+20
 30
-1.000000000000000E+20
  9
$PLIMMIN
 10
0.0
 20
0.0
  9
$PLIMMAX
 10
12.0
 20
9.0
  9
$UNITMODE
 70
     0
  9
$VISRETAIN
 70
     1
  9
$PLINEGEN
 70
     0
  9
$PSLTSCALE
 70
     1
  9
$TREEDEPTH
 70
  3020
  9
$PICKSTYLE
 70
     1
  9
$CMLSTYLE
  2
STANDARD
  9
$CMLJUST
 70
     0
  9
$CMLSCALE
 40
1.0
  9
$PROXYGRAPHICS
 70
     1
  9
$MEASUREMENT
 70
     1
  0
ENDSEC
  0
SECTION
  2
CLASSES
  0
CLASS
  1
ACDBDICTIONARYWDFLT
  2
AcDbDictionaryWithDefault
  3
ObjectDBX Classes
 90
        0
280
     0
281
     0
  0
CLASS
  1
VISUALSTYLE
  2
AcDbVisualStyle
  3
ObjectDBX Classes
 90
     4095
280
     0
281
     0
  0
CLASS
  1
MATERIAL
  2
AcDbMaterial
  3
ObjectDBX Classes
 90
     1153
280
     0
281
     0
  0
CLASS
  1
SCALE
  2
AcDbScale
  3
ObjectDBX Classes
 90
     1153
280
     0
281
     0
  0
CLASS
  1
TABLESTYLE
  2
AcDbTableStyle
  3
ObjectDBX Classes
 90
     4095
280
     0
281
     0
  0
CLASS
  1
MLEADERSTYLE
  2
AcDbMLeaderStyle
  3
ACDB_MLEADERSTYLE_CLASS
 90
     4095
280
     0
281
     0
  0
CLASS
  1
SUN
  2
AcDbSun
  3
SCENEOE
 90
     1153
280
     0
281
     0
  0
CLASS
  1
DICTIONARYVAR
  2
AcDbDictionaryVar
  3
ObjectDBX Classes
 90
        0
280
     0
281
     0
  0
CLASS
  1
XRECORD
  2
AcDbXrecord
  3
ObjectDBX Classes
 90
        0
280
     0
281
     0
  0
CLASS
  1
LWPOLYLINE
  2
AcDbPolyline
  3
ObjectDBX Classes
 90
        0
280
     0
281
     1
  0
CLASS
  1
HATCH
  2
AcDbHatch
  3
ObjectDBX Classes
 90
        0
280
     0
281
     1
  0
CLASS
  1
ACDBPLACEHOLDER
  2
AcDbPlaceHolder
  3
ObjectDBX Classes
 90
        0
280
     0
281
     0
  0
CLASS
  1
LAYOUT
  2
AcDbLayout
  3
ObjectDBX Classes
 90
        0
280
     0
281
     0
  0
ENDSEC
  0
SECTION
  2
TABLES
  0
TABLE
  2
VPORT
  5
8
102
{ACAD_XDICTIONARY
360
39C
102
}
330
0
100
AcDbSymbolTable
 70
     1
  0
VPORT
  5
29
330
8
100
AcDbSymbolTableRecord
100
AcDbViewportTableRecord
  2
*ACTIVE
 70
     0
 10
0.0
 20
0.0
 11
1.0
 21
1.0
 12
0.0
 22
0.0
 13
0.0
 23
0.0
 14
0.5
 24
0.5
 15
0.5
 25
0.5
 16
0.0
 26
0.0
 36
1.0
 17
0.0
 27
0.0
 37
-1000.0
 40
2050.638202240245
 41
1.769002961500494
 42
50.0
 43
3251.896731876302
 44
4036.731982222203
 50
0.0
 51
0.0
 71
     0
 72
   100
 73
     1
 74
     3
 75
     0
 76
     0
 77
     0
 78
     0
  0
ENDTAB
  0
TABLE
  2
LTYPE
  5
5
330
0
100
AcDbSymbolTable
 70
     1
  0
LTYPE
  5
14
330
5
100
AcDbSymbolTableRecord
100
AcDbLinetypeTableRecord
  2
BYBLOCK
 70
     0
  3

 72
    65
 73
     0
 40
0.0
  0
LTYPE
  5
15
330
5
100
AcDbSymbolTableRecord
100
AcDbLinetypeTableRecord
  2
BYLAYER
 70
     0
  3

 72
    65
 73
     0
 40
0.0
  0
LTYPE
  5
16
330
5
100
AcDbSymbolTableRecord
100
AcDbLinetypeTableRecord
  2
CONTINUOUS
 70
     0
  3
Solid line
 72
    65
 73
     0
 40
0.0
  0
ENDTAB
  0
TABLE
  2
LAYER
  5
2
330
0
100
AcDbSymbolTable
 70
     3
  0
LAYER
  5
10
330
2
100
AcDbSymbolTableRecord
100
AcDbLayerTableRecord
  2
0
 70
     0
 62
     7
  6
CONTINUOUS
  0
LAYER
  5
6E
330
2
100
AcDbSymbolTableRecord
100
AcDbLayerTableRecord
  2
PROFILEEDGES
 70
     0
 62
     7
  6
CONTINUOUS
  0
LAYER
  5
6F
330
2
100
AcDbSymbolTableRecord
100
AcDbLayerTableRecord
  2
SECTIONCUTEDGES
 70
     0
 62
     7
  6
CONTINUOUS
  0
ENDTAB
  0
TABLE
  2
STYLE
  5
3
330
0
100
AcDbSymbolTable
 70
     1
  0
STYLE
  5
11
330
3
100
AcDbSymbolTableRecord
100
AcDbTextStyleTableRecord
  2
STANDARD
 70
     0
 40
0.0
 41
1.0
 50
0.0
 71
     0
 42
0.2
  3
txt
  4

  0
ENDTAB
  0
TABLE
  2
VIEW
  5
6
330
0
100
AcDbSymbolTable
 70
     0
  0
ENDTAB
  0
TABLE
  2
UCS
  5
7
330
0
100
AcDbSymbolTable
 70
     0
  0
ENDTAB
  0
TABLE
  2
APPID
  5
9
330
0
100
AcDbSymbolTable
 70
     2
  0
APPID
  5
12
330
9
100
AcDbSymbolTableRecord
100
AcDbRegAppTableRecord
  2
ACAD
 70
     0
  0
APPID
  5
3A6
330
9
100
AcDbSymbolTableRecord
100
AcDbRegAppTableRecord
  2
ACAD_MLEADERVER
 70
     0
  0
ENDTAB
  0
TABLE
  2
DIMSTYLE
  5
A
330
0
100
AcDbSymbolTable
 70
     1
  0
DIMSTYLE
105
27
330
A
100
AcDbSymbolTableRecord
100
AcDbDimStyleTableRecord
  2
STANDARD
 70
     0
  3

  4

  5

  6

  7

 40
1.0
 41
0.18
 42
0.0625
 43
0.38
 44
0.18
 45
0.0
 46
0.0
 47
0.0
 48
0.0
140
0.18
141
0.09
142
0.0
143
25.4
144
1.0
145
0.0
146
1.0
147
0.09
 71
     0
 72
     0
 73
     1
 74
     1
 75
     0
 76
     0
 77
     0
 78
     0
170
     0
171
     2
172
     0
173
     0
174
     0
175
     0
176
     0
177
     0
178
     0
270
     2
271
     4
272
     4
273
     2
274
     2
340
11
275
     0
280
     0
281
     0
282
     0
283
     1
284
     0
285
     0
286
     0
287
     3
288
     0
  0
ENDTAB
  0
TABLE
  2
BLOCK_RECORD
  5
1
330
0
100
AcDbSymbolTable
 70
     0
  0
BLOCK_RECORD
  5
1F
330
1
100
AcDbSymbolTableRecord
100
AcDbBlockTableRecord
  2
*MODEL_SPACE
  0
BLOCK_RECORD
  5
1B
330
1
100
AcDbSymbolTableRecord
100
AcDbBlockTableRecord
  2
*PAPER_SPACE
  0
ENDTAB
  0
ENDSEC
  0
SECTION
  2
BLOCKS
  0
BLOCK
  5
20
330
1F
100
AcDbEntity
  8
0
100
AcDbBlockBegin
  2
*MODEL_SPACE
 70
     0
 10
0.0
 20
0.0
 30
0.0
  3
*MODEL_SPACE
  1

  0
ENDBLK
  5
21
330
1F
100
AcDbEntity
  8
0
100
AcDbBlockEnd
  0
BLOCK
  5
1C
330
1B
100
AcDbEntity
 67
     1
  8
0
100
AcDbBlockBegin
  2
*PAPER_SPACE
 70
     0
 10
0.0
 20
0.0
 30
0.0
  3
*PAPER_SPACE
  1

  0
ENDBLK
  5
1D
330
1B
100
AcDbEntity
 67
     1
  8
0
100
AcDbBlockEnd
  0
ENDSEC
  0
SECTION
  2
ENTITIES
  0
LINE
  5
70
330
1F
100
AcDbEntity
  8
0
100
AcDbLine
 10
-618.432057089564
 20
258.8325699917715
 30
0.0
 11
21.35756407987876
 21
258.9731452272897
 31
0.0
  0
LINE
  5
71
330
1F
100
AcDbEntity
  8
0
100
AcDbLine
 10
34.23752757596226
 20
231.9979592762977
 30
0.0
 11
29.55702075447933
 21
234.0248114529958
 31
0.0
  0
LINE
  5
72
330
1F
100
AcDbEntity
  8
0
100
AcDbLine
 10
-600.8087150714626
 20
266.7079953791809
 30
0.0
 11
-601.5295002922893
 21
267.2862129387178
 31
0.0
  0
LINE
  5
73
330
1F
100
AcDbEntity
  8
0
100
AcDbLine
 10
-601.5294889864977
 20
226.7304524022379
 30
0.0
 11
-602.089929687043
 21
227.4940316333234
 31
0.0
  0
LINE
  5
74
330
1F
100
AcDbEntity
  8
0
100
AcDbLine
 10
-599.0358175663383
 20
236.7112506443734
 30
0.0
 11
26.04793082950113
 21
236.8398213108303
 31
0.0
  0
LINE
  5
75
330
1F
100
AcDbEntity
  8
0
100
AcDbLine
 10
-602.4422488617415
 20
268.9389990980081
 30
0.0
 11
-602.5624146959959
 21
269.8932357281506
 31
0.0
  0
LINE
  5
76
330
1F
100
AcDbEntity
  8
0
100
AcDbLine
 10
-602.089940994173
 20
268.0497921740753
 30
0.0
 11
-602.4422488617415
 21
268.9389990980081
 31
0.0
  0
LINE
  5
77
330
1F
100
AcDbEntity
  8
0
100
AcDbLine
 10
-602.4422504218696
 20
274.5343597478451
 30
0.0
 11
-602.089943050015
 21
275.4235668386618
 31
0.0
  0
LINE
  5
78
330
1F
100
AcDbEntity
  8
0
100
AcDbLine
 10
-602.5624157240195
 20
273.5801230604917
 30
0.0
 11
-602.4422504218696
 21
274.5343597478451
 31
0.0
  0
LINE
  5
79
330
1F
100
AcDbEntity
  8
0
100
AcDbLine
 10
-602.5624044157607
 20
233.0243624927962
 30
0.0
 11
-602.4422391138979
 21
233.9785991757254
 31
0.0
  0
LINE
  5
7A
330
1F
100
AcDbEntity
  8
0
100
AcDbLine
 10
-602.5624157240195
 20
273.5801230604917
 30
0.0
 11
-602.5624146959959
 21
269.8932357281506
 31
0.0
  0
LINE
  5
7B
330
1F
100
AcDbEntity
  8
0
100
AcDbLine
 10
-619.3448051634178
 20
258.7069421368678
 30
0.0
 11
-618.432057089564
 21
258.8325699917715
 31
0.0
  0
LINE
  5
7C
330
1F
100
AcDbEntity
  8
0
100
AcDbLine
 10
-620.195350894136
 20
258.3386203341032
 30
0.0
 11
-619.3448051634178
 21
258.7069421368678
 31
0.0
  0
LINE
  5
7D
330
1F
100
AcDbEntity
  8
0
100
AcDbLine
 10
-620.9257309957231
 20
257.7527051056721
 30
0.0
 11
-620.195350894136
 21
258.3386203341032
 31
0.0
  0
LINE
  5
7E
330
1F
100
AcDbEntity
  8
0
100
AcDbLine
 10
-602.089943050015
 20
275.4235668386618
 30
0.0
 11
-601.5295027736161
 21
276.1871463391448
 31
0.0
  0
LINE
  5
7F
330
1F
100
AcDbEntity
  8
0
100
AcDbLine
 10
-600.7991226713453
 20
276.7730615681658
 30
0.0
 11
-599.9485769401896
 21
277.1413833711031
 31
0.0
  0
LINE
  5
80
330
1F
100
AcDbEntity
  8
0
100
AcDbLine
 10
-601.5295027736161
 20
276.1871463391448
 30
0.0
 11
-600.7991226713453
 21
276.7730615681658
 31
0.0
  0
LINE
  5
81
330
1F
100
AcDbEntity
  8
0
100
AcDbLine
 10
-621.8384786420708
 20
256.0999185166179
 30
0.0
 11
-621.4861712712385
 21
256.9891256061562
 31
0.0
  0
LINE
  5
82
330
1F
100
AcDbEntity
  8
0
100
AcDbLine
 10
-621.9586439431282
 20
255.145681830767
 30
0.0
 11
-621.8384786420708
 21
256.0999185166179
 31
0.0
  0
LINE
  5
83
330
1F
100
AcDbEntity
  8
0
100
AcDbLine
 10
-621.9586418786582
 20
247.7719071797661
 30
0.0
 11
-621.9586439431282
 21
255.145681830767
 31
0.0
  0
LINE
  5
84
330
1F
100
AcDbEntity
  8
0
100
AcDbLine
 10
-621.8384760433424
 20
246.8176705516745
 30
0.0
 11
-621.9586418786582
 21
247.7719071797661
 31
0.0
  0
LINE
  5
85
330
1F
100
AcDbEntity
  8
0
100
AcDbLine
 10
-621.4861681748416
 20
245.9284636297988
 30
0.0
 11
-621.8384760433424
 21
246.8176705516745
 31
0.0
  0
LINE
  5
86
330
1F
100
AcDbEntity
  8
0
100
AcDbLine
 10
-620.9257274722183
 20
245.1648843963645
 30
0.0
 11
-621.4861681748416
 21
245.9284636297988
 31
0.0
  0
LINE
  5
87
330
1F
100
AcDbEntity
  8
0
100
AcDbLine
 10
-620.1953470432115
 20
244.5789695142209
 30
0.0
 11
-620.9257274722183
 21
245.1648843963645
 31
0.0
  0
LINE
  5
88
330
1F
100
AcDbEntity
  8
0
100
AcDbLine
 10
-621.4861712712385
 20
256.9891256061562
 30
0.0
 11
-620.9257309957231
 21
257.7527051056721
 31
0.0
  0
LINE
  5
89
330
1F
100
AcDbEntity
  8
0
100
AcDbLine
 10
-600.7991085597317
 20
226.1445375220485
 30
0.0
 11
-601.5294889864977
 21
226.7304524022379
 31
0.0
  0
LINE
  5
8A
330
1F
100
AcDbEntity
  8
0
100
AcDbLine
 10
39.26032972785244
 20
231.3066385563278
 30
0.0
 11
34.23752757596226
 21
231.9979592762977
 31
0.0
  0
LINE
  5
8B
330
1F
100
AcDbEntity
  8
0
100
AcDbLine
 10
-601.5295002922893
 20
267.2862129387178
 30
0.0
 11
-602.089940994173
 21
268.0497921740753
 31
0.0
  0
LINE
  5
8C
330
1F
100
AcDbEntity
  8
0
100
AcDbLine
 10
26.04792369334166
 20
266.350921356276
 30
0.0
 11
29.55701226417105
 21
269.165932884162
 31
0.0
  0
LINE
  5
8D
330
1F
100
AcDbEntity
  8
0
100
AcDbLine
 10
-599.9485769401896
 20
277.1413833711031
 30
0.0
 11
-599.0358288661743
 21
277.2670112257501
 31
0.0
  0
LINE
  5
8E
330
1F
100
AcDbEntity
  8
0
100
AcDbLine
 10
21.35756765203424
 20
244.2175952026651
 30
0.0
 11
20.51497387501942
 21
246.3442587562633
 31
0.0
  0
LINE
  5
8F
330
1F
100
AcDbEntity
  8
0
100
AcDbLine
 10
-601.5294914678245
 20
235.6313857601472
 30
0.0
 11
-600.7991113672982
 21
236.2173009871836
 31
0.0
  0
LINE
  5
90
330
1F
100
AcDbEntity
  8
0
100
AcDbLine
 10
20.51497387501942
 20
246.3442587562633
 30
0.0
 11
19.85370817591176
 21
251.5953698562094
 31
0.0
  0
LINE
  5
91
330
1F
100
AcDbEntity
  8
0
100
AcDbLine
 10
19.85370817591176
 20
251.5953698562094
 30
0.0
 11
20.5149713320264
 21
256.8464812720935
 31
0.0
  0
LINE
  5
92
330
1F
100
AcDbEntity
  8
0
100
AcDbLine
 10
20.5149713320264
 20
256.8464812720935
 30
0.0
 11
21.35756407987876
 21
258.9731452272897
 31
0.0
  0
LINE
  5
93
330
1F
100
AcDbEntity
  8
0
100
AcDbLine
 10
-602.5624033877375
 20
229.3374751780665
 30
0.0
 11
-602.5624044157607
 21
233.0243624927962
 31
0.0
  0
LINE
  5
94
330
1F
100
AcDbEntity
  8
0
100
AcDbLine
 10
-602.4422375537699
 20
228.3832385526161
 30
0.0
 11
-602.5624033877375
 21
229.3374751780665
 31
0.0
  0
LINE
  5
95
330
1F
100
AcDbEntity
  8
0
100
AcDbLine
 10
-602.089929687043
 20
227.4940316333234
 30
0.0
 11
-602.4422375537699
 21
228.3832385526161
 31
0.0
  0
LINE
  5
96
330
1F
100
AcDbEntity
  8
0
100
AcDbLine
 10
-602.0899317428848
 20
234.8678062626872
 30
0.0
 11
-601.5294914678245
 21
235.6313857601472
 31
0.0
  0
LINE
  5
97
330
1F
100
AcDbEntity
  8
0
100
AcDbLine
 10
-602.4422391138979
 20
233.9785991757254
 30
0.0
 11
-602.0899317428848
 21
234.8678062626872
 31
0.0
  0
LINE
  5
98
330
1F
100
AcDbEntity
  8
0
100
AcDbLine
 10
29.55701226417105
 20
269.165932884162
 30
0.0
 11
34.23751811705764
 21
271.1927872829912
 31
0.0
  0
LINE
  5
99
330
1F
100
AcDbEntity
  8
0
100
AcDbLine
 10
34.23751811705764
 20
271.1927872829912
 30
0.0
 11
39.26031994727657
 21
271.8841103813274
 31
0.0
  0
LINE
  5
9A
330
1F
100
AcDbEntity
  8
0
100
AcDbLine
 10
-599.9485656381738
 20
236.585622789309
 30
0.0
 11
-599.0358175663383
 21
236.7112506443734
 31
0.0
  0
LINE
  5
9B
330
1F
100
AcDbEntity
  8
0
100
AcDbLine
 10
29.55702075447933
 20
234.0248114529958
 30
0.0
 11
26.04793082950113
 21
236.8398213108303
 31
0.0
  0
LINE
  5
9C
330
1F
100
AcDbEntity
  8
0
100
AcDbLine
 10
-600.7991113672982
 20
236.2173009871836
 30
0.0
 11
-599.9485656381738
 21
236.585622789309
 31
0.0
  0
LINE
  5
9D
330
1F
100
AcDbEntity
  8
0
100
AcDbLine
 10
26.04793082950113
 20
236.8398213108303
 30
0.0
 11
25.53777806791466
 21
237.2490684613935
 31
0.0
  0
LINE
  5
9E
330
1F
100
AcDbEntity
  8
0
100
AcDbLine
 10
25.53777806791466
 20
237.2490684613935
 30
0.0
 11
22.45370426345195
 21
241.4510025160611
 31
0.0
  0
LINE
  5
9F
330
1F
100
AcDbEntity
  8
0
100
AcDbLine
 10
22.45370426345195
 20
241.4510025160611
 30
0.0
 11
21.35756765203424
 21
244.2175952026651
 31
0.0
  0
LINE
  5
A0
330
1F
100
AcDbEntity
  8
0
100
AcDbLine
 10
21.35756407987876
 20
258.9731452272897
 30
0.0
 11
22.45369935308292
 21
261.7397384379302
 31
0.0
  0
LINE
  5
A1
330
1F
100
AcDbEntity
  8
0
100
AcDbLine
 10
22.45369935308292
 20
261.7397384379302
 30
0.0
 11
25.53777112881557
 21
265.9416739630756
 31
0.0
  0
LINE
  5
A2
330
1F
100
AcDbEntity
  8
0
100
AcDbLine
 10
25.53777112881557
 20
265.9416739630756
 30
0.0
 11
26.04792369334166
 21
266.350921356276
 31
0.0
  0
LINE
  5
A3
330
1F
100
AcDbEntity
  8
0
100
AcDbLine
 10
39.26031994727657
 20
271.8841103813274
 30
0.0
 11
44.28312210937402
 21
271.1927896527005
 31
0.0
  0
LINE
  5
A4
330
1F
100
AcDbEntity
  8
0
100
AcDbLine
 10
44.28312210937402
 20
271.1927896527005
 30
0.0
 11
48.96362893555655
 21
269.1659374631694
 31
0.0
  0
LINE
  5
A5
330
1F
100
AcDbEntity
  8
0
100
AcDbLine
 10
48.96362893555655
 20
269.1659374631694
 30
0.0
 11
52.98287162005349
 21
265.9416804412014
 31
0.0
  0
LINE
  5
A6
330
1F
100
AcDbEntity
  8
0
100
AcDbLine
 10
52.98287162005349
 20
265.9416804412014
 30
0.0
 11
56.06694541623548
 21
261.7397463758625
 31
0.0
  0
LINE
  5
A7
330
1F
100
AcDbEntity
  8
0
100
AcDbLine
 10
56.06694541623548
 20
261.7397463758625
 30
0.0
 11
58.00567579239312
 21
256.8464901307472
 31
0.0
  0
LINE
  5
A8
330
1F
100
AcDbEntity
  8
0
100
AcDbLine
 10
58.00567579239312
 20
256.8464901307472
 30
0.0
 11
58.66694147852056
 21
251.5953790329627
 31
0.0
  0
LINE
  5
A9
330
1F
100
AcDbEntity
  8
0
100
AcDbLine
 10
58.66694147852056
 20
251.5953790329627
 30
0.0
 11
58.00567831219855
 21
246.3442676257357
 31
0.0
  0
LINE
  5
AA
330
1F
100
AcDbEntity
  8
0
100
AcDbLine
 10
58.00567831219855
 20
246.3442676257357
 30
0.0
 11
56.06695028644243
 21
241.451010472732
 31
0.0
  0
LINE
  5
AB
330
1F
100
AcDbEntity
  8
0
100
AcDbLine
 10
56.06695028644243
 20
241.451010472732
 30
0.0
 11
52.98287851277741
 21
237.2490749611568
 31
0.0
  0
LINE
  5
AC
330
1F
100
AcDbEntity
  8
0
100
AcDbLine
 10
52.98287851277741
 20
237.2490749611568
 30
0.0
 11
48.96363738570273
 21
234.0248160507417
 31
0.0
  0
LINE
  5
AD
330
1F
100
AcDbEntity
  8
0
100
AcDbLine
 10
48.96363738570273
 20
234.0248160507417
 30
0.0
 11
44.28313154509105
 21
231.9979616568256
 31
0.0
  0
LINE
  5
AE
330
1F
100
AcDbEntity
  8
0
100
AcDbLine
 10
44.28313154509105
 20
231.9979616568256
 30
0.0
 11
39.26032972785244
 21
231.3066385563278
 31
0.0
  0
LINE
  5
AF
330
1F
100
AcDbEntity
  8
0
100
AcDbLine
 10
129.2746564535382
 20
260.187088630014
 30
0.0
 11
156.5682900850946
 21
260.1870950767033
 31
0.0
  0
LINE
  5
B0
330
1F
100
AcDbEntity
  8
0
100
AcDbLine
 10
21.35756765203424
 20
244.2175952026651
 30
0.0
 11
-618.7675705607221
 21
244.217443725793
 31
0.0
  0
LINE
  5
B1
330
1F
100
AcDbEntity
  8
0
100
AcDbLine
 10
-599.3608121293345
 20
236.8396731896095
 30
0.0
 11
26.04793082950113
 21
236.8398213108303
 31
0.0
  0
LINE
  5
B2
330
1F
100
AcDbEntity
  8
0
100
AcDbLine
 10
-599.3608203524203
 20
266.3507737421863
 30
0.0
 11
26.04792369334166
 21
266.350921356276
 31
0.0
  0
LINE
  5
B3
330
1F
100
AcDbEntity
  8
0
100
AcDbLine
 10
-654.0525957227495
 20
292.1729739398427
 30
0.0
 11
-654.0525728478726
 21
211.017447298298
 31
0.0
  0
LINE
  5
B4
330
1F
100
AcDbEntity
  8
0
100
AcDbLine
 10
-654.0525728478726
 20
211.017447298298
 30
0.0
 11
-650.1724580482191
 21
209.7656062360032
 31
0.0
  0
LINE
  5
B5
330
1F
100
AcDbEntity
  8
0
100
AcDbLine
 10
-654.0525728478726
 20
211.017447298298
 30
0.0
 11
150.4456740832084
 21
211.017638406368
 31
0.0
  0
LINE
  5
B6
330
1F
100
AcDbEntity
  8
0
100
AcDbLine
 10
157.502668972136
 20
241.4509615958806
 30
0.0
 11
129.2746608702739
 21
241.4509549152419
 31
0.0
  0
LINE
  5
B7
330
1F
100
AcDbEntity
  8
0
100
AcDbLine
 10
157.5026642239283
 20
261.7398428057775
 30
0.0
 11
157.5026587539178
 21
285.1148579372113
 31
0.0
  0
LINE
  5
B8
330
1F
100
AcDbEntity
  8
0
100
AcDbLine
 10
129.2746560875035
 20
261.7398361395955
 30
0.0
 11
157.5026642239283
 21
261.7398428057775
 31
0.0
  0
LINE
  5
B9
330
1F
100
AcDbEntity
  8
0
100
AcDbLine
 10
157.5026642239283
 20
261.7398428057775
 30
0.0
 11
156.5682900850946
 21
260.1870950767033
 31
0.0
  0
LINE
  5
BA
330
1F
100
AcDbEntity
  8
0
100
AcDbLine
 10
-602.8893112281604
 20
229.4618972310905
 30
0.0
 11
-602.5624033877375
 21
229.3374751780665
 31
0.0
  0
LINE
  5
BB
330
1F
100
AcDbEntity
  8
0
100
AcDbLine
 10
-602.8893112281604
 20
229.4618972310905
 30
0.0
 11
-602.8893122568128
 21
233.1507847917051
 31
0.0
  0
LINE
  5
BC
330
1F
100
AcDbEntity
  8
0
100
AcDbLine
 10
-602.7690802006402
 20
228.5071429039257
 30
0.0
 11
-602.8893112281604
 21
229.4618972310905
 31
0.0
  0
LINE
  5
BD
330
1F
100
AcDbEntity
  8
0
100
AcDbLine
 10
-602.8893122568128
 20
233.1507847917051
 30
0.0
 11
-602.5624044157607
 21
233.0243624927962
 31
0.0
  0
LINE
  5
BE
330
1F
100
AcDbEntity
  8
0
100
AcDbLine
 10
-602.8893122568128
 20
233.1507847917051
 30
0.0
 11
-602.7690817617224
 21
234.1055391763795
 31
0.0
  0
LINE
  5
BF
330
1F
100
AcDbEntity
  8
0
100
AcDbLine
 10
-602.7690817617224
 20
234.1055391763795
 30
0.0
 11
-602.4165832535118
 21
234.9952286845981
 31
0.0
  0
LINE
  5
C0
330
1F
100
AcDbEntity
  8
0
100
AcDbLine
 10
-602.4165832535118
 20
234.9952286845981
 30
0.0
 11
-601.8558389229685
 21
235.7592224466154
 31
0.0
  0
LINE
  5
C1
330
1F
100
AcDbEntity
  8
0
100
AcDbLine
 10
-601.8558389229685
 20
235.7592224466154
 30
0.0
 11
-601.1250625695523
 21
236.3454555500643
 31
0.0
  0
LINE
  5
C2
330
1F
100
AcDbEntity
  8
0
100
AcDbLine
 10
-601.1250625695523
 20
236.3454555500643
 30
0.0
 11
-600.2740553941105
 21
236.7139771777053
 31
0.0
  0
LINE
  5
C3
330
1F
100
AcDbEntity
  8
0
100
AcDbLine
 10
-600.2740553941105
 20
236.7139771777053
 30
0.0
 11
-599.3608121293345
 21
236.8396731896095
 31
0.0
  0
LINE
  5
C4
330
1F
100
AcDbEntity
  8
0
100
AcDbLine
 10
-599.3608121293345
 20
236.8396731896095
 30
0.0
 11
-599.0358175663383
 21
236.7112506443734
 31
0.0
  0
LINE
  5
C5
330
1F
100
AcDbEntity
  8
0
100
AcDbLine
 10
-620.5318212796765
 20
244.7116605307307
 30
0.0
 11
-621.262597961775
 21
245.2978932891054
 31
0.0
  0
LINE
  5
C6
330
1F
100
AcDbEntity
  8
0
100
AcDbLine
 10
-621.262597961775
 20
245.2978932891054
 30
0.0
 11
-621.8233427201435
 21
246.0618867869584
 31
0.0
  0
LINE
  5
C7
330
1F
100
AcDbEntity
  8
0
100
AcDbLine
 10
-621.8233427201435
 20
246.0618867869584
 30
0.0
 11
-622.1758417261466
 21
246.9515761300049
 31
0.0
  0
LINE
  5
C8
330
1F
100
AcDbEntity
  8
0
100
AcDbLine
 10
-622.1758417261466
 20
246.9515761300049
 30
0.0
 11
-622.296072755017
 21
247.9063304598141
 31
0.0
  0
LINE
  5
C9
330
1F
100
AcDbEntity
  8
0
100
AcDbLine
 10
-622.296072755017
 20
247.9063304598141
 30
0.0
 11
-622.2960748207535
 21
255.2841056026078
 31
0.0
  0
LINE
  5
CA
330
1F
100
AcDbEntity
  8
0
100
AcDbLine
 10
-622.296072755017
 20
247.9063304598141
 30
0.0
 11
-621.9586418786582
 21
247.7719071797661
 31
0.0
  0
LINE
  5
CB
330
1F
100
AcDbEntity
  8
0
100
AcDbLine
 10
-622.2960748207535
 20
255.2841056026078
 30
0.0
 11
-622.1758443264695
 21
256.2388599902071
 31
0.0
  0
LINE
  5
CC
330
1F
100
AcDbEntity
  8
0
100
AcDbLine
 10
-622.2960748207535
 20
255.2841056026078
 30
0.0
 11
-621.9586439431282
 21
255.145681830767
 31
0.0
  0
LINE
  5
CD
330
1F
100
AcDbEntity
  8
0
100
AcDbLine
 10
-622.1758443264695
 20
256.2388599902071
 30
0.0
 11
-621.8233458184402
 21
257.1285495010052
 31
0.0
  0
LINE
  5
CE
330
1F
100
AcDbEntity
  8
0
100
AcDbLine
 10
-621.8233458184402
 20
257.1285495010052
 30
0.0
 11
-621.2626014874412
 21
257.8925432650805
 31
0.0
  0
LINE
  5
CF
330
1F
100
AcDbEntity
  8
0
100
AcDbLine
 10
-621.2626014874412
 20
257.8925432650805
 30
0.0
 11
-620.5318251329631
 21
258.4787763699256
 31
0.0
  0
LINE
  5
D0
330
1F
100
AcDbEntity
  8
0
100
AcDbLine
 10
-620.5318251329631
 20
258.4787763699256
 30
0.0
 11
-619.6808179559257
 21
258.8472979982064
 31
0.0
  0
LINE
  5
D1
330
1F
100
AcDbEntity
  8
0
100
AcDbLine
 10
-619.6808179559257
 20
258.8472979982064
 30
0.0
 11
-618.767574689129
 21
258.9729940099498
 31
0.0
  0
LINE
  5
D2
330
1F
100
AcDbEntity
  8
0
100
AcDbLine
 10
-618.767574689129
 20
258.9729940099498
 30
0.0
 11
21.35756407987876
 21
258.9731452272897
 31
0.0
  0
LINE
  5
D3
330
1F
100
AcDbEntity
  8
0
100
AcDbLine
 10
-618.767574689129
 20
258.9729940099498
 30
0.0
 11
-618.432057089564
 21
258.8325699917715
 31
0.0
  0
LINE
  5
D4
330
1F
100
AcDbEntity
  8
0
100
AcDbLine
 10
-599.3608203524203
 20
266.3507737421863
 30
0.0
 11
-600.2740636888457
 21
266.4764693226862
 31
0.0
  0
LINE
  5
D5
330
1F
100
AcDbEntity
  8
0
100
AcDbLine
 10
-601.125071071228
 20
266.8449905492217
 30
0.0
 11
-601.8558477528296
 21
267.4312233092565
 31
0.0
  0
LINE
  5
D6
330
1F
100
AcDbEntity
  8
0
100
AcDbLine
 10
-601.8558477528296
 20
267.4312233092565
 30
0.0
 11
-602.4165925104579
 21
268.1952168090348
 31
0.0
  0
LINE
  5
D7
330
1F
100
AcDbEntity
  8
0
100
AcDbLine
 10
-602.4165925104579
 20
268.1952168090348
 30
0.0
 11
-602.7690915155276
 21
269.0849061541406
 31
0.0
  0
LINE
  5
D8
330
1F
100
AcDbEntity
  8
0
100
AcDbLine
 10
-602.7690915155276
 20
269.0849061541406
 30
0.0
 11
-602.8893225433353
 21
270.0396604860027
 31
0.0
  0
LINE
  5
D9
330
1F
100
AcDbEntity
  8
0
100
AcDbLine
 10
-602.8893225433353
 20
270.0396604860027
 30
0.0
 11
-602.5624146959959
 21
269.8932357281506
 31
0.0
  0
LINE
  5
DA
330
1F
100
AcDbEntity
  8
0
100
AcDbLine
 10
-602.8893235719876
 20
273.7285480642477
 30
0.0
 11
-602.8893225433353
 21
270.0396604860027
 31
0.0
  0
LINE
  5
DB
330
1F
100
AcDbEntity
  8
0
100
AcDbLine
 10
-602.8893235719876
 20
273.7285480642477
 30
0.0
 11
-602.5624157240195
 21
273.5801230604917
 31
0.0
  0
LINE
  5
DC
330
1F
100
AcDbEntity
  8
0
100
AcDbLine
 10
-602.8893235719876
 20
273.7285480642477
 30
0.0
 11
-602.7690930766099
 21
274.6833024533511
 31
0.0
  0
LINE
  5
DD
330
1F
100
AcDbEntity
  8
0
100
AcDbLine
 10
-602.7690930766099
 20
274.6833024533511
 30
0.0
 11
-602.4165945675569
 21
275.572991965429
 31
0.0
  0
LINE
  5
DE
330
1F
100
AcDbEntity
  8
0
100
AcDbLine
 10
-602.4165945675569
 20
275.572991965429
 30
0.0
 11
-601.8558502356738
 21
276.3369857304724
 31
0.0
  0
LINE
  5
DF
330
1F
100
AcDbEntity
  8
0
100
AcDbLine
 10
-601.8558502356738
 20
276.3369857304724
 30
0.0
 11
-601.1250738805112
 21
276.9232188359081
 31
0.0
  0
LINE
  5
E0
330
1F
100
AcDbEntity
  8
0
100
AcDbLine
 10
-601.1250738805112
 20
276.9232188359081
 30
0.0
 11
-600.2740667030358
 21
277.2917404643617
 31
0.0
  0
LINE
  5
E1
330
1F
100
AcDbEntity
  8
0
100
AcDbLine
 10
-600.2740667030358
 20
277.2917404643617
 30
0.0
 11
-599.3608234360775
 21
277.4174364758483
 31
0.0
  0
LINE
  5
E2
330
1F
100
AcDbEntity
  8
0
100
AcDbLine
 10
39.26031861351707
 20
277.4175870142445
 30
0.0
 11
-599.3608234360775
 21
277.4174364758483
 31
0.0
  0
LINE
  5
E3
330
1F
100
AcDbEntity
  8
0
100
AcDbLine
 10
-599.3608234360775
 20
277.4174364758483
 30
0.0
 11
-599.0358288661743
 21
277.2670112257501
 31
0.0
  0
LINE
  5
E4
330
1F
100
AcDbEntity
  8
0
100
AcDbLine
 10
39.26031994727657
 20
271.8841103813274
 30
0.0
 11
39.26031861351707
 21
277.4175870142445
 31
0.0
  0
LINE
  5
E5
330
1F
100
AcDbEntity
  8
0
100
AcDbLine
 10
39.26031861351707
 20
277.4175870142445
 30
0.0
 11
-599.0358288661743
 21
277.2670112257501
 31
0.0
  0
LINE
  5
E6
330
1F
100
AcDbEntity
  8
0
100
AcDbLine
 10
39.26032972785244
 20
231.3066385563278
 30
0.0
 11
39.26033106161191
 21
225.7731619534633
 31
0.0
  0
LINE
  5
E7
330
1F
100
AcDbEntity
  8
0
100
AcDbLine
 10
39.26033106161191
 20
225.7731619534633
 30
0.0
 11
-599.3608090456773
 21
225.7730105088384
 31
0.0
  0
LINE
  5
E8
330
1F
100
AcDbEntity
  8
0
100
AcDbLine
 10
-601.1250597602691
 20
226.2672273115448
 30
0.0
 11
-601.8558364401243
 21
226.8534600679632
 31
0.0
  0
LINE
  5
E9
330
1F
100
AcDbEntity
  8
0
100
AcDbLine
 10
-601.8558364401243
 20
226.8534600679632
 30
0.0
 11
-602.4165811964127
 21
227.617453563465
 31
0.0
  0
LINE
  5
EA
330
1F
100
AcDbEntity
  8
0
100
AcDbLine
 10
-602.4165811964127
 20
227.617453563465
 30
0.0
 11
-602.7690802006402
 21
228.5071429039257
 31
0.0
  0
LINE
  5
EB
330
1F
100
AcDbEntity
  8
0
100
AcDbLine
 10
157.2622133550643
 20
216.2491226932033
 30
0.0
 11
156.5572162712303
 21
214.5467933210162
 31
0.0
  0
LINE
  5
EC
330
1F
100
AcDbEntity
  8
0
100
AcDbLine
 10
157.5026744398129
 20
218.0759470097251
 30
0.0
 11
157.2622133550643
 21
216.2491226932033
 31
0.0
  0
LINE
  5
ED
330
1F
100
AcDbEntity
  8
0
100
AcDbLine
 10
153.9741748663804
 20
211.9632730648304
 30
0.0
 11
152.2721605482907
 21
211.2581448165285
 31
0.0
  0
LINE
  5
EE
330
1F
100
AcDbEntity
  8
0
100
AcDbLine
 10
152.2721605482907
 20
211.2581448165285
 30
0.0
 11
150.4456740832084
 21
211.017638406368
 31
0.0
  0
LINE
  5
EF
330
1F
100
AcDbEntity
  8
0
100
AcDbLine
 10
155.4357275745687
 20
213.0849698264887
 30
0.0
 11
153.9741748663804
 21
211.9632730648304
 31
0.0
  0
LINE
  5
F0
330
1F
100
AcDbEntity
  8
0
100
AcDbLine
 10
157.5026744398129
 20
218.0759470097251
 30
0.0
 11
157.502668972136
 21
241.4509615958806
 31
0.0
  0
LINE
  5
F1
330
1F
100
AcDbEntity
  8
0
100
AcDbLine
 10
150.4456550592662
 20
292.1731632657643
 30
0.0
 11
152.2721416458786
 21
291.9326577169912
 31
0.0
  0
LINE
  5
F2
330
1F
100
AcDbEntity
  8
0
100
AcDbLine
 10
152.2721416458786
 20
291.9326577169912
 30
0.0
 11
153.974156302489
 21
291.2275302668214
 31
0.0
  0
LINE
  5
F3
330
1F
100
AcDbEntity
  8
0
100
AcDbLine
 10
153.974156302489
 20
291.2275302668214
 30
0.0
 11
155.4357095429039
 21
290.1058341858634
 31
0.0
  0
LINE
  5
F4
330
1F
100
AcDbEntity
  8
0
100
AcDbLine
 10
155.4357095429039
 20
290.1058341858634
 30
0.0
 11
156.5571989291489
 21
288.6440112085095
 31
0.0
  0
LINE
  5
F5
330
1F
100
AcDbEntity
  8
0
100
AcDbLine
 10
156.5571989291489
 20
288.6440112085095
 30
0.0
 11
157.2621968130079
 21
286.9416821550184
 31
0.0
  0
LINE
  5
F6
330
1F
100
AcDbEntity
  8
0
100
AcDbLine
 10
157.2621968130079
 20
286.9416821550184
 30
0.0
 11
157.5026587539178
 21
285.1148579372113
 31
0.0
  0
LINE
  5
F7
330
1F
100
AcDbEntity
  8
0
100
AcDbLine
 10
150.4456550592662
 20
292.1731632657643
 30
0.0
 11
-654.0525957227495
 21
292.1729739398427
 31
0.0
  0
LINE
  5
F8
330
1F
100
AcDbEntity
  8
0
100
AcDbLine
 10
154.5136153603755
 20
211.8208634028364
 30
0.0
 11
153.0607332009118
 21
210.7058210207244
 31
0.0
  0
LINE
  5
F9
330
1F
100
AcDbEntity
  8
0
100
AcDbLine
 10
153.0607332009118
 20
210.7058210207244
 30
0.0
 11
151.3688159514705
 21
210.0048758913574
 31
0.0
  0
LINE
  5
FA
330
1F
100
AcDbEntity
  8
0
100
AcDbLine
 10
151.3688159514705
 20
210.0048758913574
 30
0.0
 11
149.5531649764201
 21
209.7657962668783
 31
0.0
  0
LINE
  5
FB
330
1F
100
AcDbEntity
  8
0
100
AcDbLine
 10
156.5572162712303
 20
214.5467933210162
 30
0.0
 11
155.6284509118016
 21
213.2740147421737
 31
0.0
  0
LINE
  5
FC
330
1F
100
AcDbEntity
  8
0
100
AcDbLine
 10
150.4456740832084
 20
211.017638406368
 30
0.0
 11
149.5531649764201
 21
209.7657962668783
 31
0.0
  0
LINE
  5
FD
330
1F
100
AcDbEntity
  8
0
100
AcDbLine
 10
149.5531649764201
 20
209.7657962668783
 30
0.0
 11
-650.1724580482191
 21
209.7656062360032
 31
0.0
  0
LINE
  5
FE
330
1F
100
AcDbEntity
  8
0
100
AcDbLine
 10
-1007.944460314921
 20
347.5173886108576
 30
0.0
 11
-1007.94445243131
 21
398.8554178465605
 31
0.0
  0
LINE
  5
FF
330
1F
100
AcDbEntity
  8
0
100
AcDbLine
 10
-1007.944460314921
 20
347.5173886108576
 30
0.0
 11
-1008.183495206942
 21
345.6192079764625
 31
0.0
  0
LINE
  5
100
330
1F
100
AcDbEntity
  8
0
100
AcDbLine
 10
-1008.183487531491
 20
400.7535984921016
 30
0.0
 11
-1007.94445243131
 21
398.8554178465605
 31
0.0
  0
LINE
  5
101
330
1F
100
AcDbEntity
  8
0
100
AcDbLine
 10
-1013.959687206927
 20
401.2357155663135
 30
0.0
 11
-1007.94445243131
 21
398.8554178465605
 31
0.0
  0
LINE
  5
102
330
1F
100
AcDbEntity
  8
0
100
AcDbLine
 10
-1013.959687206927
 20
401.2357155663135
 30
0.0
 11
-1013.959695725243
 21
349.5913088700386
 31
0.0
  0
LINE
  5
103
330
1F
100
AcDbEntity
  8
0
100
AcDbLine
 10
-1014.200148827723
 20
403.1452242245923
 30
0.0
 11
-1013.959687206927
 21
401.2357155663135
 31
0.0
  0
LINE
  5
104
330
1F
100
AcDbEntity
  8
0
100
AcDbLine
 10
-1013.959695725243
 20
349.5913088700386
 30
0.0
 11
-1007.944460314921
 21
347.5173886108576
 31
0.0
  0
LINE
  5
105
330
1F
100
AcDbEntity
  8
0
100
AcDbLine
 10
-1013.959695725243
 20
349.5913088700386
 30
0.0
 11
-1014.200157135213
 21
347.6818002246363
 31
0.0
  0
LINE
  5
106
330
1F
100
AcDbEntity
  8
0
100
AcDbLine
 10
-1114.521967237872
 20
408.6134914438718
 30
0.0
 11
-1021.016689734031
 21
408.6134905395365
 31
0.0
  0
LINE
  5
107
330
1F
100
AcDbEntity
  8
0
100
AcDbLine
 10
-1114.521967237872
 20
408.6134914438718
 30
0.0
 11
-1128.635970466211
 21
393.8579416516816
 31
0.0
  0
LINE
  5
108
330
1F
100
AcDbEntity
  8
0
100
AcDbLine
 10
-1021.016689734031
 20
408.6134905395365
 30
0.0
 11
-1019.190203169285
 21
408.3620989386839
 31
0.0
  0
LINE
  5
109
330
1F
100
AcDbEntity
  8
0
100
AcDbLine
 10
-1522.063847584454
 20
401.2357204644857
 30
0.0
 11
-1521.823386210243
 21
403.1452291426362
 31
0.0
  0
LINE
  5
10A
330
1F
100
AcDbEntity
  8
0
100
AcDbLine
 10
-1522.063842869869
 20
349.5912992276653
 30
0.0
 11
-1522.063847584454
 21
401.2357204644857
 31
0.0
  0
LINE
  5
10B
330
1F
100
AcDbEntity
  8
0
100
AcDbLine
 10
-1521.823386210243
 20
403.1452291426362
 30
0.0
 11
-1521.118388836323
 21
404.9246079559249
 31
0.0
  0
LINE
  5
10C
330
1F
100
AcDbEntity
  8
0
100
AcDbLine
 10
-1413.068617657571
 20
406.1894307214864
 30
0.0
 11
-1401.273281546172
 21
393.8579442533396
 31
0.0
  0
LINE
  5
10D
330
1F
100
AcDbEntity
  8
0
100
AcDbLine
 10
-1013.143938759043
 20
405.9395244993144
 30
0.0
 11
-1011.452021278044
 21
405.206854102722
 31
0.0
  0
LINE
  5
10E
330
1F
100
AcDbEntity
  8
0
100
AcDbLine
 10
-1011.452021278044
 20
405.206854102722
 30
0.0
 11
-1009.999138770449
 21
404.0413438258933
 31
0.0
  0
LINE
  5
10F
330
1F
100
AcDbEntity
  8
0
100
AcDbLine
 10
-1009.999138770449
 20
404.0413438258933
 30
0.0
 11
-1008.884302778123
 21
402.5224212682567
 31
0.0
  0
LINE
  5
110
330
1F
100
AcDbEntity
  8
0
100
AcDbLine
 10
-1008.884302778123
 20
402.5224212682567
 30
0.0
 11
-1008.183487531491
 21
400.7535984921016
 31
0.0
  0
LINE
  5
111
330
1F
100
AcDbEntity
  8
0
100
AcDbLine
 10
-1008.183495206942
 20
345.6192079764625
 30
0.0
 11
-1008.884310259207
 21
343.8503852194911
 31
0.0
  0
LINE
  5
112
330
1F
100
AcDbEntity
  8
0
100
AcDbLine
 10
-1008.884310259207
 20
343.8503852194911
 30
0.0
 11
-1009.999146084004
 21
342.3314626875583
 31
0.0
  0
LINE
  5
113
330
1F
100
AcDbEntity
  8
0
100
AcDbLine
 10
-1009.999146084004
 20
342.3314626875583
 30
0.0
 11
-1011.452028462253
 21
341.1659524409153
 31
0.0
  0
LINE
  5
114
330
1F
100
AcDbEntity
  8
0
100
AcDbLine
 10
-1011.452028462253
 20
341.1659524409153
 30
0.0
 11
-1013.143945860981
 21
340.4332820766489
 31
0.0
  0
LINE
  5
115
330
1F
100
AcDbEntity
  8
0
100
AcDbLine
 10
-1013.143945860981
 20
340.4332820766489
 30
0.0
 11
-1014.959596905637
 21
340.1833818692334
 31
0.0
  0
LINE
  5
116
330
1F
100
AcDbEntity
  8
0
100
AcDbLine
 10
-1107.910149759171
 20
340.1833781346856
 30
0.0
 11
-1014.959596905637
 21
340.1833818692334
 31
0.0
  0
LINE
  5
117
330
1F
100
AcDbEntity
  8
0
100
AcDbLine
 10
-1121.940422702302
 20
325.5153641025707
 30
0.0
 11
-1107.910149759171
 21
340.1833781346856
 31
0.0
  0
LINE
  5
118
330
1F
100
AcDbEntity
  8
0
100
AcDbLine
 10
-1121.940422702302
 20
325.5153641025707
 30
0.0
 11
-1399.038336702672
 21
325.5153602668113
 31
0.0
  0
LINE
  5
119
330
1F
100
AcDbEntity
  8
0
100
AcDbLine
 10
-1506.019181196812
 20
340.183371998458
 30
0.0
 11
-1419.559676032668
 21
340.1833735975497
 31
0.0
  0
LINE
  5
11A
330
1F
100
AcDbEntity
  8
0
100
AcDbLine
 10
-1506.019181196812
 20
340.183371998458
 30
0.0
 11
-1507.834832320423
 21
340.4332722369465
 31
0.0
  0
LINE
  5
11B
330
1F
100
AcDbEntity
  8
0
100
AcDbLine
 10
-1521.823381188824
 20
347.6817905539166
 30
0.0
 11
-1522.063842869869
 21
349.5912992276653
 31
0.0
  0
LINE
  5
11C
330
1F
100
AcDbEntity
  8
0
100
AcDbLine
 10
-1521.118388836323
 20
404.9246079559249
 30
0.0
 11
-1519.996899868613
 21
406.4525951786405
 31
0.0
  0
LINE
  5
11D
330
1F
100
AcDbEntity
  8
0
100
AcDbLine
 10
-1516.833332429058
 20
408.362103830863
 30
0.0
 11
-1515.006845850414
 21
408.6134954011628
 31
0.0
  0
LINE
  5
11E
330
1F
100
AcDbEntity
  8
0
100
AcDbLine
 10
-1518.535346926944
 20
407.6250610065189
 30
0.0
 11
-1516.833332429058
 21
408.362103830863
 31
0.0
  0
LINE
  5
11F
330
1F
100
AcDbEntity
  8
0
100
AcDbLine
 10
-1515.006845850414
 20
408.6134954011628
 30
0.0
 11
-1421.501564331091
 21
408.613494511768
 31
0.0
  0
LINE
  5
120
330
1F
100
AcDbEntity
  8
0
100
AcDbLine
 10
-1519.996899868613
 20
406.4525951786405
 30
0.0
 11
-1518.535346926944
 21
407.6250610065189
 31
0.0
  0
LINE
  5
121
330
1F
100
AcDbEntity
  8
0
100
AcDbLine
 10
-1421.501564331091
 20
408.613494511768
 30
0.0
 11
-1413.068617657571
 21
406.1894307214864
 31
0.0
  0
LINE
  5
122
330
1F
100
AcDbEntity
  8
0
100
AcDbLine
 10
-1421.501564331091
 20
408.613494511768
 30
0.0
 11
-1407.38755831295
 21
393.8579443116855
 31
0.0
  0
LINE
  5
123
330
1F
100
AcDbEntity
  8
0
100
AcDbLine
 10
-1518.535341192374
 20
343.2019586571821
 30
0.0
 11
-1519.996894319069
 21
344.3744245034383
 31
0.0
  0
LINE
  5
124
330
1F
100
AcDbEntity
  8
0
100
AcDbLine
 10
-1516.833326580244
 20
342.4649158081604
 30
0.0
 11
-1518.535341192374
 21
343.2019586571821
 31
0.0
  0
LINE
  5
125
330
1F
100
AcDbEntity
  8
0
100
AcDbLine
 10
-1519.996894319069
 20
344.3744245034383
 30
0.0
 11
-1521.118383530046
 21
345.9024117372626
 31
0.0
  0
LINE
  5
126
330
1F
100
AcDbEntity
  8
0
100
AcDbLine
 10
-1516.833326580244
 20
342.4649158081604
 30
0.0
 11
-1507.834832320423
 21
340.4332722369465
 31
0.0
  0
LINE
  5
127
330
1F
100
AcDbEntity
  8
0
100
AcDbLine
 10
-1515.006839965729
 20
342.2135242083555
 30
0.0
 11
-1516.833326580244
 21
342.4649158081604
 31
0.0
  0
LINE
  5
128
330
1F
100
AcDbEntity
  8
0
100
AcDbLine
 10
-1521.118383530046
 20
345.9024117372626
 30
0.0
 11
-1521.823381188824
 21
347.6817905539166
 31
0.0
  0
LINE
  5
129
330
1F
100
AcDbEntity
  8
0
100
AcDbLine
 10
-1014.200157135213
 20
347.6818002246363
 30
0.0
 11
-1014.905154528963
 21
345.9024214419399
 31
0.0
  0
LINE
  5
12A
330
1F
100
AcDbEntity
  8
0
100
AcDbLine
 10
-1014.90514641873
 20
404.9246030281976
 30
0.0
 11
-1014.200148827723
 21
403.1452242245923
 31
0.0
  0
LINE
  5
12B
330
1F
100
AcDbEntity
  8
0
100
AcDbLine
 10
-1515.006839965729
 20
342.2135242083555
 30
0.0
 11
-1506.019181196812
 21
340.183371998458
 31
0.0
  0
LINE
  5
12C
330
1F
100
AcDbEntity
  8
0
100
AcDbLine
 10
-1515.006839965729
 20
342.2135242083555
 30
0.0
 11
-1421.501558783098
 21
342.2135234394122
 31
0.0
  0
LINE
  5
12D
330
1F
100
AcDbEntity
  8
0
100
AcDbLine
 10
-1016.026643499118
 20
344.3744342452708
 30
0.0
 11
-1017.488196425739
 21
343.2019684368001
 31
0.0
  0
LINE
  5
12E
330
1F
100
AcDbEntity
  8
0
100
AcDbLine
 10
-1014.905154528963
 20
345.9024214419399
 30
0.0
 11
-1016.026643499118
 21
344.3744342452708
 31
0.0
  0
LINE
  5
12F
330
1F
100
AcDbEntity
  8
0
100
AcDbLine
 10
-1017.488196425739
 20
343.2019684368001
 30
0.0
 11
-1019.190210892309
 21
342.464925623657
 31
0.0
  0
LINE
  5
130
330
1F
100
AcDbEntity
  8
0
100
AcDbLine
 10
-1019.190210892309
 20
342.464925623657
 30
0.0
 11
-1021.016697425793
 21
342.2135340554802
 31
0.0
  0
LINE
  5
131
330
1F
100
AcDbEntity
  8
0
100
AcDbLine
 10
-1021.016697425793
 20
342.2135340554802
 30
0.0
 11
-1014.959596905637
 21
340.1833818692334
 31
0.0
  0
LINE
  5
132
330
1F
100
AcDbEntity
  8
0
100
AcDbLine
 10
-1114.521963319407
 20
342.2135313786378
 30
0.0
 11
-1021.016697425793
 21
342.2135340554802
 31
0.0
  0
LINE
  5
133
330
1F
100
AcDbEntity
  8
0
100
AcDbLine
 10
-1019.190203169285
 20
408.3620989386839
 30
0.0
 11
-1013.143938759043
 21
405.9395244993144
 31
0.0
  0
LINE
  5
134
330
1F
100
AcDbEntity
  8
0
100
AcDbLine
 10
-1019.190203169285
 20
408.3620989386839
 30
0.0
 11
-1017.488188618049
 21
407.6250560921876
 31
0.0
  0
LINE
  5
135
330
1F
100
AcDbEntity
  8
0
100
AcDbLine
 10
-1017.488188618049
 20
407.6250560921876
 30
0.0
 11
-1016.026635559333
 21
406.4525902521698
 31
0.0
  0
LINE
  5
136
330
1F
100
AcDbEntity
  8
0
100
AcDbLine
 10
-1016.026635559333
 20
406.4525902521698
 30
0.0
 11
-1014.90514641873
 21
404.9246030281976
 31
0.0
  0
LINE
  5
137
330
1F
100
AcDbEntity
  8
0
100
AcDbLine
 10
-1407.387552679758
 20
327.45797383046
 30
0.0
 11
-1128.635966479504
 21
327.4579811967549
 31
0.0
  0
LINE
  5
138
330
1F
100
AcDbEntity
  8
0
100
AcDbLine
 10
-1407.387552679758
 20
327.45797383046
 30
0.0
 11
-1399.038336702672
 21
325.5153602668113
 31
0.0
  0
LINE
  5
139
330
1F
100
AcDbEntity
  8
0
100
AcDbLine
 10
-1128.635966479504
 20
327.4579811967549
 30
0.0
 11
-1114.521963319407
 21
342.2135313786378
 31
0.0
  0
LINE
  5
13A
330
1F
100
AcDbEntity
  8
0
100
AcDbLine
 10
-1128.635966479504
 20
327.4579811967549
 30
0.0
 11
-1121.940422702302
 21
325.5153641025707
 31
0.0
  0
LINE
  5
13B
330
1F
100
AcDbEntity
  8
0
100
AcDbLine
 10
-1114.521963319407
 20
342.2135313786378
 30
0.0
 11
-1107.910149759171
 21
340.1833781346856
 31
0.0
  0
LINE
  5
13C
330
1F
100
AcDbEntity
  8
0
100
AcDbLine
 10
456.2540970335079
 20
240.5285501741002
 30
0.0
 11
453.5474047744691
 21
239.1016330920089
 31
0.0
  0
LINE
  5
13D
330
1F
100
AcDbEntity
  8
0
100
AcDbLine
 10
453.5474047744691
 20
239.1016330920089
 30
0.0
 11
436.8473413252811
 21
239.1016331552484
 31
0.0
  0
LINE
  5
13E
330
1F
100
AcDbEntity
  8
0
100
AcDbLine
 10
1048.080261873254
 20
239.1016331650621
 30
0.0
 11
1054.335025536534
 21
240.5285502475909
 31
0.0
  0
LINE
  5
13F
330
1F
100
AcDbEntity
  8
0
100
AcDbLine
 10
1048.080261873254
 20
239.1016331650621
 30
0.0
 11
1034.92826699469
 21
239.1016331152584
 31
0.0
  0
LINE
  5
140
330
1F
100
AcDbEntity
  8
0
100
AcDbLine
 10
436.8473413217134
 20
240.5285502475892
 30
0.0
 11
456.2540970335079
 21
240.5285501741002
 31
0.0
  0
LINE
  5
141
330
1F
100
AcDbEntity
  8
0
100
AcDbLine
 10
456.2540970335079
 20
240.5285501741002
 30
0.0
 11
456.2540971661913
 21
211.0174443096419
 31
0.0
  0
LINE
  5
142
330
1F
100
AcDbEntity
  8
0
100
AcDbLine
 10
1034.928267000806
 20
240.5285501741003
 30
0.0
 11
1054.335025536534
 21
240.5285502475909
 31
0.0
  0
LINE
  5
143
330
1F
100
AcDbEntity
  8
0
100
AcDbLine
 10
1054.335025536534
 20
240.5285502475909
 30
0.0
 11
1054.335022644826
 21
211.0174443096419
 31
0.0
  0
LINE
  5
144
330
1F
100
AcDbEntity
  8
0
100
AcDbLine
 10
1133.48583477335
 20
286.7047011164009
 30
0.0
 11
1133.726296288268
 21
284.7951920516132
 31
0.0
  0
LINE
  5
145
330
1F
100
AcDbEntity
  8
0
100
AcDbLine
 10
1132.780837282718
 20
288.4840802940358
 30
0.0
 11
1133.48583477335
 21
286.7047011164009
 31
0.0
  0
LINE
  5
146
330
1F
100
AcDbEntity
  8
0
100
AcDbLine
 10
1131.659348230295
 20
290.012067834125
 30
0.0
 11
1132.780837282718
 21
288.4840802940358
 31
0.0
  0
LINE
  5
147
330
1F
100
AcDbEntity
  8
0
100
AcDbLine
 10
1130.197795241655
 20
291.1845339109295
 30
0.0
 11
1131.659348230295
 21
290.012067834125
 31
0.0
  0
LINE
  5
148
330
1F
100
AcDbEntity
  8
0
100
AcDbLine
 10
1128.495780737642
 20
291.9215768989068
 30
0.0
 11
1130.197795241655
 21
291.1845339109295
 31
0.0
  0
LINE
  5
149
330
1F
100
AcDbEntity
  8
0
100
AcDbLine
 10
1126.669294193995
 20
292.1729685364467
 30
0.0
 11
1128.495780737642
 21
291.9215768989068
 31
0.0
  0
LINE
  5
14A
330
1F
100
AcDbEntity
  8
0
100
AcDbLine
 10
891.1729673741389
 20
240.6542445645225
 30
0.0
 11
892.0239746262098
 21
241.0227660584976
 31
0.0
  0
LINE
  5
14B
330
1F
100
AcDbEntity
  8
0
100
AcDbLine
 10
599.1583894687291
 20
241.0227674179103
 30
0.0
 11
600.0093967207209
 21
240.6542459238895
 31
0.0
  0
LINE
  5
14C
330
1F
100
AcDbEntity
  8
0
100
AcDbLine
 10
890.2597241022967
 20
240.5285487457554
 30
0.0
 11
891.1729673741389
 21
240.6542445645225
 31
0.0
  0
LINE
  5
14D
330
1F
100
AcDbEntity
  8
0
100
AcDbLine
 10
890.25972417126
 20
265.1211377770822
 30
0.0
 11
918.487732430239
 21
265.1211376441183
 31
0.0
  0
LINE
  5
14E
330
1F
100
AcDbEntity
  8
0
100
AcDbLine
 10
570.1996045994771
 20
253.9052951006741
 30
0.0
 11
570.9303810939979
 21
253.3190620623313
 31
0.0
  0
LINE
  5
14F
330
1F
100
AcDbEntity
  8
0
100
AcDbLine
 10
893.6679943924706
 20
243.2626824556727
 30
0.0
 11
893.7882251501085
 21
244.2174369880279
 31
0.0
  0
LINE
  5
150
330
1F
100
AcDbEntity
  8
0
100
AcDbLine
 10
721.665901267161
 20
265.1211385660589
 30
0.0
 11
721.7332899327262
 21
265.6562731844363
 31
0.0
  0
LINE
  5
151
330
1F
100
AcDbEntity
  8
0
100
AcDbLine
 10
769.5164626124638
 20
252.8248438274507
 30
0.0
 11
769.4490739934275
 21
252.2897097311513
 31
0.0
  0
LINE
  5
152
330
1F
100
AcDbEntity
  8
0
100
AcDbLine
 10
597.8668683127398
 20
275.5729895302374
 30
0.0
 11
597.514369567128
 21
274.683299941388
 31
0.0
  0
LINE
  5
153
330
1F
100
AcDbEntity
  8
0
100
AcDbLine
 10
600.0093965857458
 20
277.2917378326846
 30
0.0
 11
599.1583893336672
 21
276.9232163387069
 31
0.0
  0
LINE
  5
154
330
1F
100
AcDbEntity
  8
0
100
AcDbLine
 10
745.5911819601948
 20
233.1507737612773
 30
0.0
 11
739.1984790574751
 21
234.0306444926607
 31
0.0
  0
LINE
  5
155
330
1F
100
AcDbEntity
  8
0
100
AcDbLine
 10
733.2414282933282
 20
236.6102949505347
 30
0.0
 11
728.3570766294013
 21
240.5285495043244
 31
0.0
  0
LINE
  5
156
330
1F
100
AcDbEntity
  8
0
100
AcDbLine
 10
721.7332899312711
 20
252.289709731105
 30
0.0
 11
721.6659013083297
 21
252.8248440514699
 31
0.0
  0
LINE
  5
157
330
1F
100
AcDbEntity
  8
0
100
AcDbLine
 10
569.166130569516
 20
256.5137329916225
 30
0.0
 11
569.2863613273411
 21
255.5589784593462
 31
0.0
  0
LINE
  5
158
330
1F
100
AcDbEntity
  8
0
100
AcDbLine
 10
571.7813883461154
 20
252.9505405683728
 30
0.0
 11
572.6946316179536
 21
252.8248447496011
 31
0.0
  0
LINE
  5
159
330
1F
100
AcDbEntity
  8
0
100
AcDbLine
 10
769.4490739934275
 20
252.2897097311513
 30
0.0
 11
766.9815827743267
 21
246.0618826095276
 31
0.0
  0
LINE
  5
15A
330
1F
100
AcDbEntity
  8
0
100
AcDbLine
 10
763.0563710892578
 20
240.7139262193052
 30
0.0
 11
762.8252871168928
 21
240.5285493429017
 31
0.0
  0
LINE
  5
15B
330
1F
100
AcDbEntity
  8
0
100
AcDbLine
 10
724.2007811489701
 20
246.0618826094871
 30
0.0
 11
721.7332899312711
 21
252.289709731105
 31
0.0
  0
LINE
  5
15C
330
1F
100
AcDbEntity
  8
0
100
AcDbLine
 10
751.9838848631125
 20
234.0306444926721
 30
0.0
 11
745.5911819601948
 21
233.1507737612773
 31
0.0
  0
LINE
  5
15D
330
1F
100
AcDbEntity
  8
0
100
AcDbLine
 10
763.0563710934608
 20
277.2320566964054
 30
0.0
 11
766.981582777314
 21
271.8841003061406
 31
0.0
  0
LINE
  5
15E
330
1F
100
AcDbEntity
  8
0
100
AcDbLine
 10
728.1259928368455
 20
277.232056696368
 30
0.0
 11
728.3570761718793
 21
277.4174330513536
 31
0.0
  0
LINE
  5
15F
330
1F
100
AcDbEntity
  8
0
100
AcDbLine
 10
762.825287978318
 20
277.4174328899929
 30
0.0
 11
890.2597242096593
 21
277.4174322931545
 31
0.0
  0
LINE
  5
160
330
1F
100
AcDbEntity
  8
0
100
AcDbLine
 10
893.7882252417079
 20
273.7285440343415
 30
0.0
 11
893.6679944881515
 21
274.683298567262
 31
0.0
  0
LINE
  5
161
330
1F
100
AcDbEntity
  8
0
100
AcDbLine
 10
892.0239746411909
 20
252.3306259407061
 30
0.0
 11
891.1729673906943
 21
252.6991474386691
 31
0.0
  0
LINE
  5
162
330
1F
100
AcDbEntity
  8
0
100
AcDbLine
 10
893.6679944881515
 20
274.683298567262
 30
0.0
 11
893.315495746473
 21
275.5729881576971
 31
0.0
  0
LINE
  5
163
330
1F
100
AcDbEntity
  8
0
100
AcDbLine
 10
739.1984790574751
 20
234.0306444926607
 30
0.0
 11
733.2414282933282
 21
236.6102949505347
 31
0.0
  0
LINE
  5
164
330
1F
100
AcDbEntity
  8
0
100
AcDbLine
 10
892.7547512233855
 20
276.3369819303401
 30
0.0
 11
892.0239747314635
 21
276.9232149721449
 31
0.0
  0
LINE
  5
165
330
1F
100
AcDbEntity
  8
0
100
AcDbLine
 10
893.7882251514337
 20
249.1359550029048
 30
0.0
 11
893.7882251501085
 21
244.2174369880279
 31
0.0
  0
LINE
  5
166
330
1F
100
AcDbEntity
  8
0
100
AcDbLine
 10
745.5911819660026
 20
284.7952091544991
 30
0.0
 11
751.9838848687706
 21
283.9153384231035
 31
0.0
  0
LINE
  5
167
330
1F
100
AcDbEntity
  8
0
100
AcDbLine
 10
893.315495746473
 20
275.5729881576971
 30
0.0
 11
892.7547512233855
 21
276.3369819303401
 31
0.0
  0
LINE
  5
168
330
1F
100
AcDbEntity
  8
0
100
AcDbLine
 10
891.1729674809663
 20
277.2917364701081
 30
0.0
 11
890.2597242096593
 21
277.4174322931545
 31
0.0
  0
LINE
  5
169
330
1F
100
AcDbEntity
  8
0
100
AcDbLine
 10
892.754751133112
 20
251.7443928989017
 30
0.0
 11
892.0239746411909
 21
252.3306259407061
 31
0.0
  0
LINE
  5
16A
330
1F
100
AcDbEntity
  8
0
100
AcDbLine
 10
892.0239746262098
 20
241.0227660584976
 30
0.0
 11
892.7547511206366
 21
241.6089990968771
 31
0.0
  0
LINE
  5
16B
330
1F
100
AcDbEntity
  8
0
100
AcDbLine
 10
891.1729673906943
 20
252.6991474386691
 30
0.0
 11
890.2597241193879
 21
252.8248432617153
 31
0.0
  0
LINE
  5
16C
330
1F
100
AcDbEntity
  8
0
100
AcDbLine
 10
600.9226399924745
 20
240.5285501050774
 30
0.0
 11
728.3570766294013
 21
240.5285495043244
 31
0.0
  0
LINE
  5
16D
330
1F
100
AcDbEntity
  8
0
100
AcDbLine
 10
724.2007811517908
 20
271.8841003060959
 30
0.0
 11
728.1259928368455
 21
277.232056696368
 31
0.0
  0
LINE
  5
16E
330
1F
100
AcDbEntity
  8
0
100
AcDbLine
 10
721.7332899327262
 20
265.6562731844363
 30
0.0
 11
724.2007811517908
 21
271.8841003060959
 31
0.0
  0
LINE
  5
16F
330
1F
100
AcDbEntity
  8
0
100
AcDbLine
 10
600.0093967207209
 20
240.6542459238895
 30
0.0
 11
600.9226399924745
 21
240.5285501050774
 31
0.0
  0
LINE
  5
170
330
1F
100
AcDbEntity
  8
0
100
AcDbLine
 10
920.9827595294735
 20
253.9052935019719
 30
0.0
 11
921.5435040555833
 21
254.6692872719708
 31
0.0
  0
LINE
  5
171
330
1F
100
AcDbEntity
  8
0
100
AcDbLine
 10
893.3154956469889
 20
242.3729928668911
 30
0.0
 11
893.6679943924706
 21
243.2626824556727
 31
0.0
  0
LINE
  5
172
330
1F
100
AcDbEntity
  8
0
100
AcDbLine
 10
762.825287978318
 20
277.4174328899929
 30
0.0
 11
763.0563710934608
 21
277.2320566964054
 31
0.0
  0
LINE
  5
173
330
1F
100
AcDbEntity
  8
0
100
AcDbLine
 10
766.981582777314
 20
271.8841003061406
 30
0.0
 11
769.4490739949788
 21
265.656273184485
 31
0.0
  0
LINE
  5
174
330
1F
100
AcDbEntity
  8
0
100
AcDbLine
 10
757.9409356329537
 20
281.3356879651936
 30
0.0
 11
762.825287978318
 21
277.4174328899929
 31
0.0
  0
LINE
  5
175
330
1F
100
AcDbEntity
  8
0
100
AcDbLine
 10
598.4276129743662
 20
241.609000456333
 30
0.0
 11
599.1583894687291
 21
241.0227674179103
 31
0.0
  0
LINE
  5
176
330
1F
100
AcDbEntity
  8
0
100
AcDbLine
 10
769.4490739949788
 20
265.656273184485
 30
0.0
 11
769.5164627044269
 21
265.121138342079
 31
0.0
  0
LINE
  5
177
330
1F
100
AcDbEntity
  8
0
100
AcDbLine
 10
720.8916746285054
 20
258.972991457763
 30
0.0
 11
721.665901267161
 21
265.1211385660589
 31
0.0
  0
LINE
  5
178
330
1F
100
AcDbEntity
  8
0
100
AcDbLine
 10
728.1259928328351
 20
240.7139262192729
 30
0.0
 11
724.2007811489701
 21
246.0618826094871
 31
0.0
  0
LINE
  5
179
330
1F
100
AcDbEntity
  8
0
100
AcDbLine
 10
751.9838848687706
 20
283.9153384231035
 30
0.0
 11
757.9409356329537
 21
281.3356879651936
 31
0.0
  0
LINE
  5
17A
330
1F
100
AcDbEntity
  8
0
100
AcDbLine
 10
766.9815827743267
 20
246.0618826095276
 30
0.0
 11
763.0563710892578
 21
240.7139262193052
 31
0.0
  0
LINE
  5
17B
330
1F
100
AcDbEntity
  8
0
100
AcDbLine
 10
597.8668684480582
 20
242.3729942263851
 30
0.0
 11
598.4276129743662
 21
241.609000456333
 31
0.0
  0
LINE
  5
17C
330
1F
100
AcDbEntity
  8
0
100
AcDbLine
 10
919.4009757831184
 20
252.9505389696119
 30
0.0
 11
920.2519830351782
 21
253.3190604635955
 31
0.0
  0
LINE
  5
17D
330
1F
100
AcDbEntity
  8
0
100
AcDbLine
 10
569.2863613273411
 20
255.5589784593462
 30
0.0
 11
569.6388600729894
 21
254.6692888706336
 31
0.0
  0
LINE
  5
17E
330
1F
100
AcDbEntity
  8
0
100
AcDbLine
 10
569.6388600729894
 20
254.6692888706336
 30
0.0
 11
570.1996045994771
 21
253.9052951006741
 31
0.0
  0
LINE
  5
17F
330
1F
100
AcDbEntity
  8
0
100
AcDbLine
 10
570.9303810939979
 20
253.3190620623313
 30
0.0
 11
571.7813883461154
 21
252.9505405683728
 31
0.0
  0
LINE
  5
180
330
1F
100
AcDbEntity
  8
0
100
AcDbLine
 10
728.3570766294013
 20
240.5285495043244
 30
0.0
 11
728.1259928328351
 21
240.7139262192729
 31
0.0
  0
LINE
  5
181
330
1F
100
AcDbEntity
  8
0
100
AcDbLine
 10
597.3941388297171
 20
268.8100273597372
 30
0.0
 11
597.5143695914395
 21
267.8552728278664
 31
0.0
  0
LINE
  5
182
330
1F
100
AcDbEntity
  8
0
100
AcDbLine
 10
600.9226399695775
 20
252.8248446205435
 30
0.0
 11
600.0093966978276
 21
252.6991488018196
 31
0.0
  0
LINE
  5
183
330
1F
100
AcDbEntity
  8
0
100
AcDbLine
 10
571.7813883431802
 20
264.9954434451018
 30
0.0
 11
570.9303810911832
 21
264.6269219511615
 31
0.0
  0
LINE
  5
184
330
1F
100
AcDbEntity
  8
0
100
AcDbLine
 10
600.0093966207933
 20
265.2468349486199
 30
0.0
 11
600.9226398931162
 21
265.1211391342978
 31
0.0
  0
LINE
  5
185
330
1F
100
AcDbEntity
  8
0
100
AcDbLine
 10
572.6946316149822
 20
265.1211392638506
 30
0.0
 11
600.9226398931162
 21
265.1211391342978
 31
0.0
  0
LINE
  5
186
330
1F
100
AcDbEntity
  8
0
100
AcDbLine
 10
598.4276129514944
 20
251.744394269531
 30
0.0
 11
597.8668684252028
 21
250.9804004995351
 31
0.0
  0
LINE
  5
187
330
1F
100
AcDbEntity
  8
0
100
AcDbLine
 10
569.1661305677875
 20
261.4322510218724
 30
0.0
 11
569.166130569516
 21
256.5137329916225
 31
0.0
  0
LINE
  5
188
330
1F
100
AcDbEntity
  8
0
100
AcDbLine
 10
599.1583893671972
 20
265.6153564384795
 30
0.0
 11
600.0093966207933
 21
265.2468349486199
 31
0.0
  0
LINE
  5
189
330
1F
100
AcDbEntity
  8
0
100
AcDbLine
 10
891.1729674431028
 20
265.2468335958493
 30
0.0
 11
892.0239746951742
 21
265.6153550898245
 31
0.0
  0
LINE
  5
18A
330
1F
100
AcDbEntity
  8
0
100
AcDbLine
 10
600.0093966978276
 20
252.6991488018196
 30
0.0
 11
599.1583894458443
 21
252.3306273078817
 31
0.0
  0
LINE
  5
18B
330
1F
100
AcDbEntity
  8
0
100
AcDbLine
 10
597.5143696797622
 20
250.0907109107599
 30
0.0
 11
597.3941389221429
 21
249.135956378399
 31
0.0
  0
LINE
  5
18C
330
1F
100
AcDbEntity
  8
0
100
AcDbLine
 10
599.1583894458443
 20
252.3306273078817
 30
0.0
 11
598.4276129514944
 21
251.744394269531
 31
0.0
  0
LINE
  5
18D
330
1F
100
AcDbEntity
  8
0
100
AcDbLine
 10
600.9226399695775
 20
252.8248446205435
 30
0.0
 11
721.6659013083297
 21
252.8248440514699
 31
0.0
  0
LINE
  5
18E
330
1F
100
AcDbEntity
  8
0
100
AcDbLine
 10
597.8668683407124
 20
266.9655832407108
 30
0.0
 11
598.4276128703041
 21
266.2015894733533
 31
0.0
  0
LINE
  5
18F
330
1F
100
AcDbEntity
  8
0
100
AcDbLine
 10
597.3941389221429
 20
249.135956378399
 30
0.0
 11
597.3941389449594
 21
244.2174383475719
 31
0.0
  0
LINE
  5
190
330
1F
100
AcDbEntity
  8
0
100
AcDbLine
 10
920.2519821817982
 20
264.6269205490843
 30
0.0
 11
919.4009753018393
 21
264.995441880775
 31
0.0
  0
LINE
  5
191
330
1F
100
AcDbEntity
  8
0
100
AcDbLine
 10
570.9303810911832
 20
264.6269219511615
 30
0.0
 11
570.1996045968588
 21
264.040688912831
 31
0.0
  0
LINE
  5
192
330
1F
100
AcDbEntity
  8
0
100
AcDbLine
 10
922.016231942533
 20
261.432251025694
 30
0.0
 11
922.0162335579552
 21
256.5137313930456
 31
0.0
  0
LINE
  5
193
330
1F
100
AcDbEntity
  8
0
100
AcDbLine
 10
893.315495715954
 20
266.9655818982183
 30
0.0
 11
893.6679944614358
 21
267.8552714870002
 31
0.0
  0
LINE
  5
194
330
1F
100
AcDbEntity
  8
0
100
AcDbLine
 10
922.016231942533
 20
261.432251025694
 30
0.0
 11
921.8960012343964
 21
262.3870051378668
 31
0.0
  0
LINE
  5
195
330
1F
100
AcDbEntity
  8
0
100
AcDbLine
 10
893.6679944614358
 20
267.8552714870002
 30
0.0
 11
893.7882252190735
 21
268.8100260193557
 31
0.0
  0
LINE
  5
196
330
1F
100
AcDbEntity
  8
0
100
AcDbLine
 10
921.8960012343964
 20
262.3870051378668
 30
0.0
 11
921.5435026405396
 21
263.2766943350673
 31
0.0
  0
LINE
  5
197
330
1F
100
AcDbEntity
  8
0
100
AcDbLine
 10
920.9827583576038
 20
264.0406877687888
 30
0.0
 11
920.2519821817982
 21
264.6269205490843
 31
0.0
  0
LINE
  5
198
330
1F
100
AcDbEntity
  8
0
100
AcDbLine
 10
921.5435026405396
 20
263.2766943350673
 30
0.0
 11
920.9827583576038
 21
264.0406877687888
 31
0.0
  0
LINE
  5
199
330
1F
100
AcDbEntity
  8
0
100
AcDbLine
 10
919.4009753018393
 20
264.995441880775
 30
0.0
 11
918.487732430239
 21
265.1211376441183
 31
0.0
  0
LINE
  5
19A
330
1F
100
AcDbEntity
  8
0
100
AcDbLine
 10
569.6388600706298
 20
263.2766951428762
 30
0.0
 11
569.2863613252849
 21
262.3870055541603
 31
0.0
  0
LINE
  5
19B
330
1F
100
AcDbEntity
  8
0
100
AcDbLine
 10
569.2863613252849
 20
262.3870055541603
 30
0.0
 11
569.1661305677875
 21
261.4322510218724
 31
0.0
  0
LINE
  5
19C
330
1F
100
AcDbEntity
  8
0
100
AcDbLine
 10
572.6946316149822
 20
265.1211392638506
 30
0.0
 11
571.7813883431802
 21
264.9954434451018
 31
0.0
  0
LINE
  5
19D
330
1F
100
AcDbEntity
  8
0
100
AcDbLine
 10
892.754751189601
 20
266.2015881282042
 30
0.0
 11
893.315495715954
 21
266.9655818982183
 31
0.0
  0
LINE
  5
19E
330
1F
100
AcDbEntity
  8
0
100
AcDbLine
 10
733.2414282982746
 20
281.3356879651669
 30
0.0
 11
739.1984790630369
 21
283.9153384230896
 31
0.0
  0
LINE
  5
19F
330
1F
100
AcDbEntity
  8
0
100
AcDbLine
 10
570.1996045968588
 20
264.040688912831
 30
0.0
 11
569.6388600706298
 21
263.2766951428762
 31
0.0
  0
LINE
  5
1A0
330
1F
100
AcDbEntity
  8
0
100
AcDbLine
 10
762.8252871168928
 20
240.5285493429017
 30
0.0
 11
890.2597241022967
 21
240.5285487457554
 31
0.0
  0
LINE
  5
1A1
330
1F
100
AcDbEntity
  8
0
100
AcDbLine
 10
893.6679943978776
 20
250.0907095358247
 30
0.0
 11
893.3154956561991
 21
250.9803991262592
 31
0.0
  0
LINE
  5
1A2
330
1F
100
AcDbEntity
  8
0
100
AcDbLine
 10
893.7882251514337
 20
249.1359550029048
 30
0.0
 11
893.6679943978776
 21
250.0907095358247
 31
0.0
  0
LINE
  5
1A3
330
1F
100
AcDbEntity
  8
0
100
AcDbLine
 10
769.5164626124638
 20
252.8248438274507
 30
0.0
 11
890.2597241193879
 21
252.8248432617153
 31
0.0
  0
LINE
  5
1A4
330
1F
100
AcDbEntity
  8
0
100
AcDbLine
 10
757.9409356278405
 20
236.6102949505571
 30
0.0
 11
751.9838848631125
 21
234.0306444926721
 31
0.0
  0
LINE
  5
1A5
330
1F
100
AcDbEntity
  8
0
100
AcDbLine
 10
921.896002800727
 20
255.5589768607261
 30
0.0
 11
922.0162335579552
 21
256.5137313930456
 31
0.0
  0
LINE
  5
1A6
330
1F
100
AcDbEntity
  8
0
100
AcDbLine
 10
918.4877325111663
 20
252.8248431508254
 30
0.0
 11
919.4009757831184
 21
252.9505389696119
 31
0.0
  0
LINE
  5
1A7
330
1F
100
AcDbEntity
  8
0
100
AcDbLine
 10
893.3154956561991
 20
250.9803991262592
 30
0.0
 11
892.754751133112
 21
251.7443928989017
 31
0.0
  0
LINE
  5
1A8
330
1F
100
AcDbEntity
  8
0
100
AcDbLine
 10
597.394138809334
 20
273.7285454089512
 30
0.0
 11
597.3941388297171
 21
268.8100273597372
 31
0.0
  0
LINE
  5
1A9
330
1F
100
AcDbEntity
  8
0
100
AcDbLine
 10
770.2906892976968
 20
258.9729914578123
 30
0.0
 11
769.5164626124638
 21
252.8248438274507
 31
0.0
  0
LINE
  5
1AA
330
1F
100
AcDbEntity
  8
0
100
AcDbLine
 10
597.514369567128
 20
274.683299941388
 30
0.0
 11
597.394138809334
 21
273.7285454089512
 31
0.0
  0
LINE
  5
1AB
330
1F
100
AcDbEntity
  8
0
100
AcDbLine
 10
598.4276128391873
 20
276.3369833003006
 30
0.0
 11
597.8668683127398
 21
275.5729895302374
 31
0.0
  0
LINE
  5
1AC
330
1F
100
AcDbEntity
  8
0
100
AcDbLine
 10
920.2519830351782
 20
253.3190604635955
 30
0.0
 11
920.9827595294735
 21
253.9052935019719
 31
0.0
  0
LINE
  5
1AD
330
1F
100
AcDbEntity
  8
0
100
AcDbLine
 10
921.5435040555833
 20
254.6692872719708
 30
0.0
 11
921.896002800727
 21
255.5589768607261
 31
0.0
  0
LINE
  5
1AE
330
1F
100
AcDbEntity
  8
0
100
AcDbLine
 10
597.3941389449594
 20
244.2174383475719
 30
0.0
 11
597.5143697025989
 21
243.2626838151968
 31
0.0
  0
LINE
  5
1AF
330
1F
100
AcDbEntity
  8
0
100
AcDbLine
 10
597.5143697025989
 20
243.2626838151968
 30
0.0
 11
597.8668684480582
 21
242.3729942263851
 31
0.0
  0
LINE
  5
1B0
330
1F
100
AcDbEntity
  8
0
100
AcDbLine
 10
600.9226398575499
 20
277.4174336514299
 30
0.0
 11
728.3570761718793
 21
277.4174330513536
 31
0.0
  0
LINE
  5
1B1
330
1F
100
AcDbEntity
  8
0
100
AcDbLine
 10
572.6946316179536
 20
252.8248447496011
 30
0.0
 11
600.9226399695775
 21
252.8248446205435
 31
0.0
  0
LINE
  5
1B2
330
1F
100
AcDbEntity
  8
0
100
AcDbLine
 10
600.9226398575499
 20
277.4174336514299
 30
0.0
 11
600.0093965857458
 21
277.2917378326846
 31
0.0
  0
LINE
  5
1B3
330
1F
100
AcDbEntity
  8
0
100
AcDbLine
 10
890.2597241193879
 20
252.8248432617153
 30
0.0
 11
918.4877325111663
 21
252.8248431508254
 31
0.0
  0
LINE
  5
1B4
330
1F
100
AcDbEntity
  8
0
100
AcDbLine
 10
599.1583893336672
 20
276.9232163387069
 30
0.0
 11
598.4276128391873
 21
276.3369833003006
 31
0.0
  0
LINE
  5
1B5
330
1F
100
AcDbEntity
  8
0
100
AcDbLine
 10
769.5164627044269
 20
265.121138342079
 30
0.0
 11
890.25972417126
 21
265.1211377770822
 31
0.0
  0
LINE
  5
1B6
330
1F
100
AcDbEntity
  8
0
100
AcDbLine
 10
721.6659013083297
 20
252.8248440514699
 30
0.0
 11
720.8916746285054
 21
258.972991457763
 31
0.0
  0
LINE
  5
1B7
330
1F
100
AcDbEntity
  8
0
100
AcDbLine
 10
597.5143695914395
 20
267.8552728278664
 30
0.0
 11
597.8668683407124
 21
266.9655832407108
 31
0.0
  0
LINE
  5
1B8
330
1F
100
AcDbEntity
  8
0
100
AcDbLine
 10
600.9226398931162
 20
265.1211391342978
 30
0.0
 11
721.665901267161
 21
265.1211385660589
 31
0.0
  0
LINE
  5
1B9
330
1F
100
AcDbEntity
  8
0
100
AcDbLine
 10
890.25972417126
 20
265.1211377770822
 30
0.0
 11
891.1729674431028
 21
265.2468335958493
 31
0.0
  0
LINE
  5
1BA
330
1F
100
AcDbEntity
  8
0
100
AcDbLine
 10
598.4276128703041
 20
266.2015894733533
 30
0.0
 11
599.1583893671972
 21
265.6153564384795
 31
0.0
  0
LINE
  5
1BB
330
1F
100
AcDbEntity
  8
0
100
AcDbLine
 10
762.8252871168928
 20
240.5285493429017
 30
0.0
 11
757.9409356278405
 21
236.6102949505571
 31
0.0
  0
LINE
  5
1BC
330
1F
100
AcDbEntity
  8
0
100
AcDbLine
 10
597.8668684252028
 20
250.9804004995351
 30
0.0
 11
597.5143696797622
 21
250.0907109107599
 31
0.0
  0
LINE
  5
1BD
330
1F
100
AcDbEntity
  8
0
100
AcDbLine
 10
892.0239746951742
 20
265.6153550898245
 30
0.0
 11
892.754751189601
 21
266.2015881282042
 31
0.0
  0
LINE
  5
1BE
330
1F
100
AcDbEntity
  8
0
100
AcDbLine
 10
892.7547511206366
 20
241.6089990968771
 30
0.0
 11
893.3154956469889
 21
242.3729928668911
 31
0.0
  0
LINE
  5
1BF
330
1F
100
AcDbEntity
  8
0
100
AcDbLine
 10
728.3570761718793
 20
277.4174330513536
 30
0.0
 11
733.2414282982746
 21
281.3356879651669
 31
0.0
  0
LINE
  5
1C0
330
1F
100
AcDbEntity
  8
0
100
AcDbLine
 10
892.0239747314635
 20
276.9232149721449
 30
0.0
 11
891.1729674809663
 21
277.2917364701081
 31
0.0
  0
LINE
  5
1C1
330
1F
100
AcDbEntity
  8
0
100
AcDbLine
 10
769.5164627044269
 20
265.121138342079
 30
0.0
 11
770.2906892976968
 21
258.9729914578123
 31
0.0
  0
LINE
  5
1C2
330
1F
100
AcDbEntity
  8
0
100
AcDbLine
 10
739.1984790630369
 20
283.9153384230896
 30
0.0
 11
745.5911819660026
 21
284.7952091544991
 31
0.0
  0
LINE
  5
1C3
330
1F
100
AcDbEntity
  8
0
100
AcDbLine
 10
893.7882252417079
 20
273.7285440343415
 30
0.0
 11
893.7882252190735
 21
268.8100260193557
 31
0.0
  0
LINE
  5
1C4
330
1F
100
AcDbEntity
  8
0
100
AcDbLine
 10
1132.780837281109
 20
214.7063325517315
 30
0.0
 11
1131.659348228086
 21
213.1783450116566
 31
0.0
  0
LINE
  5
1C5
330
1F
100
AcDbEntity
  8
0
100
AcDbLine
 10
1133.48583477245
 20
216.4857117293504
 30
0.0
 11
1132.780837281109
 21
214.7063325517315
 31
0.0
  0
LINE
  5
1C6
330
1F
100
AcDbEntity
  8
0
100
AcDbLine
 10
1131.659348228086
 20
213.1783450116566
 30
0.0
 11
1130.197795238999
 21
212.0058789348628
 31
0.0
  0
LINE
  5
1C7
330
1F
100
AcDbEntity
  8
0
100
AcDbLine
 10
1130.197795238999
 20
212.0058789348628
 30
0.0
 11
1128.495780734721
 21
211.268835946891
 31
0.0
  0
LINE
  5
1C8
330
1F
100
AcDbEntity
  8
0
100
AcDbLine
 10
1128.495780734721
 20
211.268835946891
 30
0.0
 11
1121.801066522465
 21
210.0154998643895
 31
0.0
  0
LINE
  5
1C9
330
1F
100
AcDbEntity
  8
0
100
AcDbLine
 10
1128.495780734721
 20
211.268835946891
 30
0.0
 11
1126.669294191007
 21
211.0174443093501
 31
0.0
  0
LINE
  5
1CA
330
1F
100
AcDbEntity
  8
0
100
AcDbLine
 10
456.2540971661913
 20
211.0174443096419
 30
0.0
 11
526.0933412581121
 21
211.0174443353932
 31
0.0
  0
LINE
  5
1CB
330
1F
100
AcDbEntity
  8
0
100
AcDbLine
 10
526.0933412581121
 20
211.0174443353932
 30
0.0
 11
526.5499628940019
 21
211.0802922448229
 31
0.0
  0
LINE
  5
1CC
330
1F
100
AcDbEntity
  8
0
100
AcDbLine
 10
453.5474049002054
 20
209.765599588146
 30
0.0
 11
522.9723331036228
 21
209.7655995961709
 31
0.0
  0
LINE
  5
1CD
330
1F
100
AcDbEntity
  8
0
100
AcDbLine
 10
522.9723331036228
 20
209.7655995961709
 30
0.0
 11
526.0933412581121
 21
211.0174443353932
 31
0.0
  0
LINE
  5
1CE
330
1F
100
AcDbEntity
  8
0
100
AcDbLine
 10
522.9723331036228
 20
209.7655995961709
 30
0.0
 11
523.42624586688
 21
209.8280746652258
 31
0.0
  0
LINE
  5
1CF
330
1F
100
AcDbEntity
  8
0
100
AcDbLine
 10
539.6569753849558
 20
224.4336163847737
 30
0.0
 11
943.8805499237908
 21
224.4336163847603
 31
0.0
  0
LINE
  5
1D0
330
1F
100
AcDbEntity
  8
0
100
AcDbLine
 10
540.4739261378527
 20
225.27492086328
 30
0.0
 11
541.6688985624979
 21
225.7729972835783
 31
0.0
  0
LINE
  5
1D1
330
1F
100
AcDbEntity
  8
0
100
AcDbLine
 10
943.8805499237908
 20
224.4336163847603
 30
0.0
 11
949.5134653563667
 21
225.7729972746768
 31
0.0
  0
LINE
  5
1D2
330
1F
100
AcDbEntity
  8
0
100
AcDbLine
 10
944.3344626870547
 20
224.3711413157546
 30
0.0
 11
943.8805499237908
 21
224.4336163847603
 31
0.0
  0
LINE
  5
1D3
330
1F
100
AcDbEntity
  8
0
100
AcDbLine
 10
945.1206626552316
 20
223.8965960534114
 30
0.0
 11
958.1235935772431
 21
210.3026199268795
 31
0.0
  0
LINE
  5
1D4
330
1F
100
AcDbEntity
  8
0
100
AcDbLine
 10
945.1206626552316
 20
223.8965960534114
 30
0.0
 11
950.7609788655325
 21
225.2327720991186
 31
0.0
  0
LINE
  5
1D5
330
1F
100
AcDbEntity
  8
0
100
AcDbLine
 10
945.1206626552316
 20
223.8965960534114
 30
0.0
 11
944.7574420456283
 21
224.1879736814451
 31
0.0
  0
LINE
  5
1D6
330
1F
100
AcDbEntity
  8
0
100
AcDbLine
 10
958.1235935772431
 20
210.3026199268795
 30
0.0
 11
963.8415089753765
 21
211.5576694675226
 31
0.0
  0
LINE
  5
1D7
330
1F
100
AcDbEntity
  8
0
100
AcDbLine
 10
958.1235935772431
 20
210.3026199268795
 30
0.0
 11
958.4868141868471
 21
210.011242298847
 31
0.0
  0
LINE
  5
1D8
330
1F
100
AcDbEntity
  8
0
100
AcDbLine
 10
950.7609788655325
 20
225.2327720991186
 30
0.0
 11
963.8415089753765
 21
211.5576694675226
 31
0.0
  0
LINE
  5
1D9
330
1F
100
AcDbEntity
  8
0
100
AcDbLine
 10
950.7609788655325
 20
225.2327720991186
 30
0.0
 11
950.3955906183196
 21
225.5258886183067
 31
0.0
  0
LINE
  5
1DA
330
1F
100
AcDbEntity
  8
0
100
AcDbLine
 10
963.8415089753765
 20
211.5576694675226
 30
0.0
 11
964.2068972225716
 21
211.2645529483503
 31
0.0
  0
LINE
  5
1DB
330
1F
100
AcDbEntity
  8
0
100
AcDbLine
 10
1121.801066522465
 20
210.0154998643895
 30
0.0
 11
1119.98541546937
 21
209.7655995883587
 31
0.0
  0
LINE
  5
1DC
330
1F
100
AcDbEntity
  8
0
100
AcDbLine
 10
1048.080261799903
 20
209.765599588146
 30
0.0
 11
1119.98541546937
 21
209.7655995883587
 31
0.0
  0
LINE
  5
1DD
330
1F
100
AcDbEntity
  8
0
100
AcDbLine
 10
1126.669294191007
 20
211.0174443093501
 30
0.0
 11
1119.98541546937
 21
209.7655995883587
 31
0.0
  0
LINE
  5
1DE
330
1F
100
AcDbEntity
  8
0
100
AcDbLine
 10
1054.335022644826
 20
211.0174443096419
 30
0.0
 11
1126.669294191007
 21
211.0174443093501
 31
0.0
  0
LINE
  5
1DF
330
1F
100
AcDbEntity
  8
0
100
AcDbLine
 10
541.6688985624979
 20
225.7729972835783
 30
0.0
 11
949.5134653563667
 21
225.7729972746768
 31
0.0
  0
LINE
  5
1E0
330
1F
100
AcDbEntity
  8
0
100
AcDbLine
 10
541.2122769265856
 20
225.7101493741959
 30
0.0
 11
541.6688985624979
 21
225.7729972835783
 31
0.0
  0
LINE
  5
1E1
330
1F
100
AcDbEntity
  8
0
100
AcDbLine
 10
949.9700869922857
 20
225.7101493652935
 30
0.0
 11
949.5134653563667
 21
225.7729972746768
 31
0.0
  0
LINE
  5
1E2
330
1F
100
AcDbEntity
  8
0
100
AcDbLine
 10
965.0890224844783
 20
211.0174442919934
 30
0.0
 11
1034.928266874318
 21
211.017444309642
 31
0.0
  0
LINE
  5
1E3
330
1F
100
AcDbEntity
  8
0
100
AcDbLine
 10
964.6324008485839
 20
211.0802922013735
 30
0.0
 11
965.0890224844783
 21
211.0174442919934
 31
0.0
  0
LINE
  5
1E4
330
1F
100
AcDbEntity
  8
0
100
AcDbLine
 10
959.3637063086821
 20
209.7655995955327
 30
0.0
 11
965.0890224844783
 21
211.0174442919934
 31
0.0
  0
LINE
  5
1E5
330
1F
100
AcDbEntity
  8
0
100
AcDbLine
 10
959.3637063086821
 20
209.7655995955327
 30
0.0
 11
1028.788635111799
 21
209.765599588146
 31
0.0
  0
LINE
  5
1E6
330
1F
100
AcDbEntity
  8
0
100
AcDbLine
 10
958.9097935454198
 20
209.8280746645382
 30
0.0
 11
959.3637063086821
 21
209.7655995955327
 31
0.0
  0
LINE
  5
1E7
330
1F
100
AcDbEntity
  8
0
100
AcDbLine
 10
1133.726296288138
 20
218.3952207941223
 30
0.0
 11
1133.726296288268
 21
284.7951920516132
 31
0.0
  0
LINE
  5
1E8
330
1F
100
AcDbEntity
  8
0
100
AcDbLine
 10
1133.726296288138
 20
218.3952207941223
 30
0.0
 11
1133.48583477245
 21
216.4857117293504
 31
0.0
  0
LINE
  5
1E9
330
1F
100
AcDbEntity
  8
0
100
AcDbLine
 10
362.3506205683664
 20
209.7655995984842
 30
0.0
 11
434.2557782122829
 21
209.765599588146
 31
0.0
  0
LINE
  5
1EA
330
1F
100
AcDbEntity
  8
0
100
AcDbLine
 10
362.3506205683664
 20
209.7655995984842
 30
0.0
 11
364.5130662333648
 21
211.0174443199562
 31
0.0
  0
LINE
  5
1EB
330
1F
100
AcDbEntity
  8
0
100
AcDbLine
 10
360.5349695153129
 20
210.0154998745094
 30
0.0
 11
362.3506205683664
 21
209.7655995984842
 31
0.0
  0
LINE
  5
1EC
330
1F
100
AcDbEntity
  8
0
100
AcDbLine
 10
364.5130662333648
 20
211.0174443199562
 30
0.0
 11
436.8473413955016
 21
211.0174443096423
 31
0.0
  0
LINE
  5
1ED
330
1F
100
AcDbEntity
  8
0
100
AcDbLine
 10
362.686579689711
 20
211.268835957489
 30
0.0
 11
364.5130662333648
 21
211.0174443199562
 31
0.0
  0
LINE
  5
1EE
330
1F
100
AcDbEntity
  8
0
100
AcDbLine
 10
1126.669294193995
 20
292.1729685364467
 30
0.0
 11
364.5130662326653
 21
292.1729685479551
 31
0.0
  0
LINE
  5
1EF
330
1F
100
AcDbEntity
  8
0
100
AcDbLine
 10
364.5130662326653
 20
292.1729685479551
 30
0.0
 11
362.6865796889913
 21
291.9215769104496
 31
0.0
  0
LINE
  5
1F0
330
1F
100
AcDbEntity
  8
0
100
AcDbLine
 10
357.4560641369665
 20
284.7951920635721
 30
0.0
 11
357.4560641378511
 21
218.3952208044091
 31
0.0
  0
LINE
  5
1F1
330
1F
100
AcDbEntity
  8
0
100
AcDbLine
 10
357.6965256522751
 20
286.7047011282639
 30
0.0
 11
357.4560641369665
 21
284.7951920635721
 31
0.0
  0
LINE
  5
1F2
330
1F
100
AcDbEntity
  8
0
100
AcDbLine
 10
357.4560641378511
 20
218.3952208044091
 30
0.0
 11
357.6965256531254
 21
216.4857117397242
 31
0.0
  0
LINE
  5
1F3
330
1F
100
AcDbEntity
  8
0
100
AcDbLine
 10
355.3354835931467
 20
283.1056665399652
 30
0.0
 11
357.4560641369665
 21
284.7951920635721
 31
0.0
  0
LINE
  5
1F4
330
1F
100
AcDbEntity
  8
0
100
AcDbLine
 10
355.3354835931467
 20
283.1056665399652
 30
0.0
 11
355.3354835936979
 21
217.0996079927605
 31
0.0
  0
LINE
  5
1F5
330
1F
100
AcDbEntity
  8
0
100
AcDbLine
 10
355.5745185890525
 20
285.0038475893319
 30
0.0
 11
355.3354835931467
 21
283.1056665399652
 31
0.0
  0
LINE
  5
1F6
330
1F
100
AcDbEntity
  8
0
100
AcDbLine
 10
355.3354835936979
 20
217.0996079927605
 30
0.0
 11
357.4560641378511
 21
218.3952208044091
 31
0.0
  0
LINE
  5
1F7
330
1F
100
AcDbEntity
  8
0
100
AcDbLine
 10
355.3354835936979
 20
217.0996079927605
 30
0.0
 11
355.5745185895722
 21
215.201426943381
 31
0.0
  0
LINE
  5
1F8
330
1F
100
AcDbEntity
  8
0
100
AcDbLine
 10
355.5745185895722
 20
215.201426943381
 30
0.0
 11
356.2753337372654
 21
213.4326037956241
 31
0.0
  0
LINE
  5
1F9
330
1F
100
AcDbEntity
  8
0
100
AcDbLine
 10
356.2753337372654
 20
213.4326037956241
 30
0.0
 11
357.390169642614
 21
211.9136809238907
 31
0.0
  0
LINE
  5
1FA
330
1F
100
AcDbEntity
  8
0
100
AcDbLine
 10
357.390169642614
 20
211.9136809238907
 30
0.0
 11
358.8430520810217
 21
210.7481704117508
 31
0.0
  0
LINE
  5
1FB
330
1F
100
AcDbEntity
  8
0
100
AcDbLine
 10
358.8430520810217
 20
210.7481704117508
 30
0.0
 11
360.5349695153129
 21
210.0154998745094
 31
0.0
  0
LINE
  5
1FC
330
1F
100
AcDbEntity
  8
0
100
AcDbLine
 10
357.3901696421464
 20
288.2915936087785
 30
0.0
 11
356.2753337367741
 21
286.7726707370697
 31
0.0
  0
LINE
  5
1FD
330
1F
100
AcDbEntity
  8
0
100
AcDbLine
 10
357.3901696421464
 20
288.2915936087785
 30
0.0
 11
359.5230121959881
 21
290.0120678458019
 31
0.0
  0
LINE
  5
1FE
330
1F
100
AcDbEntity
  8
0
100
AcDbLine
 10
356.2753337367741
 20
286.7726707370697
 30
0.0
 11
355.5745185890525
 21
285.0038475893319
 31
0.0
  0
LINE
  5
1FF
330
1F
100
AcDbEntity
  8
0
100
AcDbLine
 10
362.6865796889913
 20
291.9215769104496
 30
0.0
 11
360.9845651848506
 21
291.18453392253
 31
0.0
  0
LINE
  5
200
330
1F
100
AcDbEntity
  8
0
100
AcDbLine
 10
360.9845651848506
 20
291.18453392253
 30
0.0
 11
359.5230121959881
 21
290.0120678458019
 31
0.0
  0
LINE
  5
201
330
1F
100
AcDbEntity
  8
0
100
AcDbLine
 10
359.5230121959881
 20
290.0120678458019
 30
0.0
 11
358.4015231432648
 21
288.4840803058024
 31
0.0
  0
LINE
  5
202
330
1F
100
AcDbEntity
  8
0
100
AcDbLine
 10
358.4015231432648
 20
288.4840803058024
 30
0.0
 11
357.6965256522751
 21
286.7047011282639
 31
0.0
  0
LINE
  5
203
330
1F
100
AcDbEntity
  8
0
100
AcDbLine
 10
357.6965256531254
 20
216.4857117397242
 30
0.0
 11
358.4015231440792
 21
214.7063325621844
 31
0.0
  0
LINE
  5
204
330
1F
100
AcDbEntity
  8
0
100
AcDbLine
 10
358.4015231440792
 20
214.7063325621844
 30
0.0
 11
359.5230121967675
 21
213.1783450221758
 31
0.0
  0
LINE
  5
205
330
1F
100
AcDbEntity
  8
0
100
AcDbLine
 10
359.5230121967675
 20
213.1783450221758
 30
0.0
 11
360.9845651855974
 21
212.0058789454313
 31
0.0
  0
LINE
  5
206
330
1F
100
AcDbEntity
  8
0
100
AcDbLine
 10
360.9845651855974
 20
212.0058789454313
 30
0.0
 11
362.686579689711
 21
211.268835957489
 31
0.0
  0
LINE
  5
207
330
1F
100
AcDbEntity
  8
0
100
AcDbLine
 10
950.3955906183196
 20
225.5258886183067
 30
0.0
 11
949.9700869922857
 21
225.7101493652935
 31
0.0
  0
LINE
  5
208
330
1F
100
AcDbEntity
  8
0
100
AcDbLine
 10
964.2068972225716
 20
211.2645529483503
 30
0.0
 11
964.6324008485839
 21
211.0802922013735
 31
0.0
  0
LINE
  5
209
330
1F
100
AcDbEntity
  8
0
100
AcDbLine
 10
526.5499628940019
 20
211.0802922448229
 30
0.0
 11
526.9754665199968
 21
211.2645529918467
 31
0.0
  0
LINE
  5
20A
330
1F
100
AcDbEntity
  8
0
100
AcDbLine
 10
526.9754665199968
 20
211.2645529918467
 30
0.0
 11
527.3408547671636
 21
211.5576695110604
 31
0.0
  0
LINE
  5
20B
330
1F
100
AcDbEntity
  8
0
100
AcDbLine
 10
540.7867733005577
 20
225.5258886272118
 30
0.0
 11
541.2122769265856
 21
225.7101493741959
 31
0.0
  0
LINE
  5
20C
330
1F
100
AcDbEntity
  8
0
100
AcDbLine
 10
523.42624586688
 20
209.8280746652258
 30
0.0
 11
526.5499628940019
 21
211.0802922448229
 31
0.0
  0
LINE
  5
20D
330
1F
100
AcDbEntity
  8
0
100
AcDbLine
 10
958.4868141868471
 20
210.011242298847
 30
0.0
 11
958.9097935454198
 21
209.8280746645382
 31
0.0
  0
LINE
  5
20E
330
1F
100
AcDbEntity
  8
0
100
AcDbLine
 10
944.7574420456283
 20
224.1879736814451
 30
0.0
 11
944.3344626870547
 21
224.3711413157546
 31
0.0
  0
LINE
  5
20F
330
1F
100
AcDbEntity
  8
0
100
AcDbLine
 10
456.2540971661913
 20
211.0174443096419
 30
0.0
 11
453.5474049002054
 21
209.765599588146
 31
0.0
  0
LINE
  5
210
330
1F
100
AcDbEntity
  8
0
100
AcDbLine
 10
453.5474049002054
 20
209.765599588146
 30
0.0
 11
453.5474047744691
 21
239.1016330920089
 31
0.0
  0
LINE
  5
211
330
1F
100
AcDbEntity
  8
0
100
AcDbLine
 10
1048.080261799903
 20
209.765599588146
 30
0.0
 11
1048.080261873254
 21
239.1016331650621
 31
0.0
  0
LINE
  5
212
330
1F
100
AcDbEntity
  8
0
100
AcDbLine
 10
1028.788635111799
 20
209.765599588146
 30
0.0
 11
1034.928266874318
 21
211.017444309642
 31
0.0
  0
LINE
  5
213
330
1F
100
AcDbEntity
  8
0
100
AcDbLine
 10
434.2557782122829
 20
209.765599588146
 30
0.0
 11
436.8473413955016
 21
211.0174443096423
 31
0.0
  0
LINE
  5
214
330
1F
100
AcDbEntity
  8
0
100
AcDbLine
 10
1054.335022644826
 20
211.0174443096419
 30
0.0
 11
1048.080261799903
 21
209.765599588146
 31
0.0
  0
LINE
  5
215
330
1F
100
AcDbEntity
  8
0
100
AcDbLine
 10
-1007.944460314921
 20
231.7676233783638
 30
0.0
 11
-1007.94445243131
 21
283.1056524961941
 31
0.0
  0
LINE
  5
216
330
1F
100
AcDbEntity
  8
0
100
AcDbLine
 10
-1007.944460314921
 20
231.7676233783638
 30
0.0
 11
-1008.183495206942
 21
229.8694427549775
 31
0.0
  0
LINE
  5
217
330
1F
100
AcDbEntity
  8
0
100
AcDbLine
 10
-1008.183487531491
 20
285.0038331294099
 30
0.0
 11
-1007.94445243131
 21
283.1056524961941
 31
0.0
  0
LINE
  5
218
330
1F
100
AcDbEntity
  8
0
100
AcDbLine
 10
-1013.959687206927
 20
284.7951757157934
 30
0.0
 11
-1007.94445243131
 21
283.1056524961941
 31
0.0
  0
LINE
  5
219
330
1F
100
AcDbEntity
  8
0
100
AcDbLine
 10
-1013.959687206927
 20
284.7951757157934
 30
0.0
 11
-1013.959695725243
 21
233.1507692359804
 31
0.0
  0
LINE
  5
21A
330
1F
100
AcDbEntity
  8
0
100
AcDbLine
 10
-1014.200148827723
 20
286.7046843615993
 30
0.0
 11
-1013.959687206927
 21
284.7951757157934
 31
0.0
  0
LINE
  5
21B
330
1F
100
AcDbEntity
  8
0
100
AcDbLine
 10
-1013.959695725243
 20
233.1507692359804
 30
0.0
 11
-1007.944460314921
 21
231.7676233783638
 31
0.0
  0
LINE
  5
21C
330
1F
100
AcDbEntity
  8
0
100
AcDbLine
 10
-1013.959695725243
 20
233.1507692359804
 30
0.0
 11
-1014.200157135213
 21
231.2412606017187
 31
0.0
  0
LINE
  5
21D
330
1F
100
AcDbEntity
  8
0
100
AcDbLine
 10
-1114.521967237872
 20
292.1729512363162
 30
0.0
 11
-1021.016689734031
 21
292.1729506225043
 31
0.0
  0
LINE
  5
21E
330
1F
100
AcDbEntity
  8
0
100
AcDbLine
 10
-1114.521967237872
 20
292.1729512363162
 30
0.0
 11
-1128.635970466211
 21
277.4174015128745
 31
0.0
  0
LINE
  5
21F
330
1F
100
AcDbEntity
  8
0
100
AcDbLine
 10
-1021.016689734031
 20
292.1729506225043
 30
0.0
 11
-1019.190203169285
 21
291.9215590286598
 31
0.0
  0
LINE
  5
220
330
1F
100
AcDbEntity
  8
0
100
AcDbLine
 10
-1522.063847584454
 20
284.795179010873
 30
0.0
 11
-1521.823386210243
 21
286.7046876785753
 31
0.0
  0
LINE
  5
221
330
1F
100
AcDbEntity
  8
0
100
AcDbLine
 10
-1522.063842869869
 20
233.1507581171177
 30
0.0
 11
-1522.063847584454
 21
284.795179010873
 31
0.0
  0
LINE
  5
222
330
1F
100
AcDbEntity
  8
0
100
AcDbLine
 10
-1521.823386210243
 20
286.7046876785753
 30
0.0
 11
-1521.118388836323
 21
288.4840664835539
 31
0.0
  0
LINE
  5
223
330
1F
100
AcDbEntity
  8
0
100
AcDbLine
 10
-1413.068617657571
 20
290.4396640617907
 30
0.0
 11
-1400.612540656419
 21
277.4174032418969
 31
0.0
  0
LINE
  5
224
330
1F
100
AcDbEntity
  8
0
100
AcDbLine
 10
-1013.143938759043
 20
290.189759090148
 30
0.0
 11
-1011.452021278044
 21
289.4570887030671
 31
0.0
  0
LINE
  5
225
330
1F
100
AcDbEntity
  8
0
100
AcDbLine
 10
-1011.452021278044
 20
289.4570887030671
 30
0.0
 11
-1009.999138770449
 21
288.291578437688
 31
0.0
  0
LINE
  5
226
330
1F
100
AcDbEntity
  8
0
100
AcDbLine
 10
-1009.999138770449
 20
288.291578437688
 30
0.0
 11
-1008.884302778123
 21
286.7726558926589
 31
0.0
  0
LINE
  5
227
330
1F
100
AcDbEntity
  8
0
100
AcDbLine
 10
-1008.884302778123
 20
286.7726558926589
 30
0.0
 11
-1008.183487531491
 21
285.0038331294099
 31
0.0
  0
LINE
  5
228
330
1F
100
AcDbEntity
  8
0
100
AcDbLine
 10
-1008.183495206942
 20
229.8694427549775
 30
0.0
 11
-1008.884310259207
 21
228.1006200068019
 31
0.0
  0
LINE
  5
229
330
1F
100
AcDbEntity
  8
0
100
AcDbLine
 10
-1008.884310259207
 20
228.1006200068019
 30
0.0
 11
-1009.999146084004
 21
226.5816974808525
 31
0.0
  0
LINE
  5
22A
330
1F
100
AcDbEntity
  8
0
100
AcDbLine
 10
-1009.999146084004
 20
226.5816974808525
 30
0.0
 11
-1011.452028462253
 21
225.4161872369728
 31
0.0
  0
LINE
  5
22B
330
1F
100
AcDbEntity
  8
0
100
AcDbLine
 10
-1011.452028462253
 20
225.4161872369728
 30
0.0
 11
-1013.143945860981
 21
224.6835168720612
 31
0.0
  0
LINE
  5
22C
330
1F
100
AcDbEntity
  8
0
100
AcDbLine
 10
-1013.143945860981
 20
224.6835168720612
 30
0.0
 11
-1014.959596905637
 21
224.4336166606359
 31
0.0
  0
LINE
  5
22D
330
1F
100
AcDbEntity
  8
0
100
AcDbLine
 10
-1107.910149759171
 20
224.4336127328057
 30
0.0
 11
-1014.959596905637
 21
224.4336166606359
 31
0.0
  0
LINE
  5
22E
330
1F
100
AcDbEntity
  8
0
100
AcDbLine
 10
-1121.940422702302
 20
209.76559877063
 30
0.0
 11
-1107.910149759171
 21
224.4336127328057
 31
0.0
  0
LINE
  5
22F
330
1F
100
AcDbEntity
  8
0
100
AcDbLine
 10
-1121.940422702302
 20
209.76559877063
 30
0.0
 11
-1399.038336702672
 21
209.7655941871967
 31
0.0
  0
LINE
  5
230
330
1F
100
AcDbEntity
  8
0
100
AcDbLine
 10
-1506.019181196812
 20
224.43360544559
 30
0.0
 11
-1420.220416899781
 21
224.4336073102545
 31
0.0
  0
LINE
  5
231
330
1F
100
AcDbEntity
  8
0
100
AcDbLine
 10
-1506.019181196812
 20
224.43360544559
 30
0.0
 11
-1507.834832320423
 21
224.6835056769892
 31
0.0
  0
LINE
  5
232
330
1F
100
AcDbEntity
  8
0
100
AcDbLine
 10
-1521.823381188824
 20
231.2412494560923
 30
0.0
 11
-1522.063842869869
 21
233.1507581171177
 31
0.0
  0
LINE
  5
233
330
1F
100
AcDbEntity
  8
0
100
AcDbLine
 10
-1521.118388836323
 20
288.4840664835539
 30
0.0
 11
-1519.996899868613
 21
290.0120537006636
 31
0.0
  0
LINE
  5
234
330
1F
100
AcDbEntity
  8
0
100
AcDbLine
 10
-1516.833332429058
 20
291.921562351105
 30
0.0
 11
-1515.006845850414
 21
292.1729539253511
 31
0.0
  0
LINE
  5
235
330
1F
100
AcDbEntity
  8
0
100
AcDbLine
 10
-1518.535346926944
 20
291.1845195260224
 30
0.0
 11
-1516.833332429058
 21
291.921562351105
 31
0.0
  0
LINE
  5
236
330
1F
100
AcDbEntity
  8
0
100
AcDbLine
 10
-1515.006845850414
 20
292.1729539253511
 30
0.0
 11
-1421.501564331091
 21
292.1729533222221
 31
0.0
  0
LINE
  5
237
330
1F
100
AcDbEntity
  8
0
100
AcDbLine
 10
-1519.996899868613
 20
290.0120537006636
 30
0.0
 11
-1518.535346926944
 21
291.1845195260224
 31
0.0
  0
LINE
  5
238
330
1F
100
AcDbEntity
  8
0
100
AcDbLine
 10
-1421.501564331091
 20
292.1729533222221
 30
0.0
 11
-1413.068617657571
 21
290.4396640617907
 31
0.0
  0
LINE
  5
239
330
1F
100
AcDbEntity
  8
0
100
AcDbLine
 10
-1421.501564331091
 20
292.1729533222221
 30
0.0
 11
-1407.38755831295
 21
277.4174032849673
 31
0.0
  0
LINE
  5
23A
330
1F
100
AcDbEntity
  8
0
100
AcDbLine
 10
-1518.535341192374
 20
226.7614175975528
 30
0.0
 11
-1519.996894319069
 21
227.9338834319712
 31
0.0
  0
LINE
  5
23B
330
1F
100
AcDbEntity
  8
0
100
AcDbLine
 10
-1516.833326580244
 20
226.0243747583725
 30
0.0
 11
-1518.535341192374
 21
226.7614175975528
 31
0.0
  0
LINE
  5
23C
330
1F
100
AcDbEntity
  8
0
100
AcDbLine
 10
-1519.996894319069
 20
227.9338834319712
 30
0.0
 11
-1521.118383530046
 21
229.4618706527679
 31
0.0
  0
LINE
  5
23D
330
1F
100
AcDbEntity
  8
0
100
AcDbLine
 10
-1515.006839965729
 20
225.7729831657417
 30
0.0
 11
-1516.833326580244
 21
226.0243747583725
 31
0.0
  0
LINE
  5
23E
330
1F
100
AcDbEntity
  8
0
100
AcDbLine
 10
-1521.118383530046
 20
229.4618706527679
 30
0.0
 11
-1521.823381188824
 21
231.2412494560923
 31
0.0
  0
LINE
  5
23F
330
1F
100
AcDbEntity
  8
0
100
AcDbLine
 10
-1014.200157135213
 20
231.2412606017187
 30
0.0
 11
-1014.905154528963
 21
229.4618818279233
 31
0.0
  0
LINE
  5
240
330
1F
100
AcDbEntity
  8
0
100
AcDbLine
 10
-1014.90514641873
 20
288.484063152144
 30
0.0
 11
-1014.200148827723
 21
286.7046843615993
 31
0.0
  0
LINE
  5
241
330
1F
100
AcDbEntity
  8
0
100
AcDbLine
 10
-1515.006839965729
 20
225.7729831657417
 30
0.0
 11
-1421.501558783098
 21
225.7729826976241
 31
0.0
  0
LINE
  5
242
330
1F
100
AcDbEntity
  8
0
100
AcDbLine
 10
-1016.026643499118
 20
227.9338946373094
 30
0.0
 11
-1017.488196425739
 21
226.7614288316349
 31
0.0
  0
LINE
  5
243
330
1F
100
AcDbEntity
  8
0
100
AcDbLine
 10
-1014.905154528963
 20
229.4618818279233
 30
0.0
 11
-1016.026643499118
 21
227.9338946373094
 31
0.0
  0
LINE
  5
244
330
1F
100
AcDbEntity
  8
0
100
AcDbLine
 10
-1017.488196425739
 20
226.7614288316349
 30
0.0
 11
-1019.190210892309
 21
226.0243860178389
 31
0.0
  0
LINE
  5
245
330
1F
100
AcDbEntity
  8
0
100
AcDbLine
 10
-1019.190210892309
 20
226.0243860178389
 30
0.0
 11
-1021.016697425793
 21
225.7729944456043
 31
0.0
  0
LINE
  5
246
330
1F
100
AcDbEntity
  8
0
100
AcDbLine
 10
-1021.016697425793
 20
225.7729944456043
 30
0.0
 11
-1014.959596905637
 21
224.4336166606359
 31
0.0
  0
LINE
  5
247
330
1F
100
AcDbEntity
  8
0
100
AcDbLine
 10
-1114.521963319407
 20
225.7729915719224
 30
0.0
 11
-1021.016697425793
 21
225.7729944456043
 31
0.0
  0
LINE
  5
248
330
1F
100
AcDbEntity
  8
0
100
AcDbLine
 10
-1019.190203169285
 20
291.9215590286598
 30
0.0
 11
-1013.143938759043
 21
290.189759090148
 31
0.0
  0
LINE
  5
249
330
1F
100
AcDbEntity
  8
0
100
AcDbLine
 10
-1019.190203169285
 20
291.9215590286598
 30
0.0
 11
-1017.488188618049
 21
291.1845161917889
 31
0.0
  0
LINE
  5
24A
330
1F
100
AcDbEntity
  8
0
100
AcDbLine
 10
-1017.488188618049
 20
291.1845161917889
 30
0.0
 11
-1016.026635559333
 21
290.0120503633578
 31
0.0
  0
LINE
  5
24B
330
1F
100
AcDbEntity
  8
0
100
AcDbLine
 10
-1016.026635559333
 20
290.0120503633578
 30
0.0
 11
-1014.90514641873
 21
288.484063152144
 31
0.0
  0
LINE
  5
24C
330
1F
100
AcDbEntity
  8
0
100
AcDbLine
 10
-1407.387552679758
 20
211.0174332630391
 30
0.0
 11
-1128.635966479504
 21
211.0174414608159
 31
0.0
  0
LINE
  5
24D
330
1F
100
AcDbEntity
  8
0
100
AcDbLine
 10
-1407.387552679758
 20
211.0174332630391
 30
0.0
 11
-1399.038336702672
 21
209.7655941871967
 31
0.0
  0
LINE
  5
24E
330
1F
100
AcDbEntity
  8
0
100
AcDbLine
 10
-1128.635966479504
 20
211.0174414608159
 30
0.0
 11
-1114.521963319407
 21
225.7729915719224
 31
0.0
  0
LINE
  5
24F
330
1F
100
AcDbEntity
  8
0
100
AcDbLine
 10
-1128.635966479504
 20
211.0174414608159
 30
0.0
 11
-1121.940422702302
 21
209.76559877063
 31
0.0
  0
LINE
  5
250
330
1F
100
AcDbEntity
  8
0
100
AcDbLine
 10
-1114.521963319407
 20
225.7729915719224
 30
0.0
 11
-1107.910149759171
 21
224.4336127328057
 31
0.0
  0
LINE
  5
251
330
1F
100
AcDbEntity
  8
0
100
AcDbLine
 10
-618.4320581808481
 20
375.209953206454
 30
0.0
 11
21.35754368662653
 21
375.4136645743553
 31
0.0
  0
LINE
  5
252
330
1F
100
AcDbEntity
  8
0
100
AcDbLine
 10
34.2375067941433
 20
348.4384792109728
 30
0.0
 11
29.55700011386337
 21
350.465331355398
 31
0.0
  0
LINE
  5
253
330
1F
100
AcDbEntity
  8
0
100
AcDbLine
 10
-601.5294905874273
 20
343.1078363107972
 30
0.0
 11
-602.0899312710744
 21
343.8714155258848
 31
0.0
  0
LINE
  5
254
330
1F
100
AcDbEntity
  8
0
100
AcDbLine
 10
-599.0358192424574
 20
353.0886343124226
 30
0.0
 11
26.04791029474849
 21
353.280341158839
 31
0.0
  0
LINE
  5
255
330
1F
100
AcDbEntity
  8
0
100
AcDbLine
 10
-602.44225043515
 20
385.3163820260967
 30
0.0
 11
-602.5624162657809
 21
386.2706186343912
 31
0.0
  0
LINE
  5
256
330
1F
100
AcDbEntity
  8
0
100
AcDbLine
 10
-602.0899425782042
 20
384.4271751217544
 30
0.0
 11
-602.44225043515
 21
385.3163820260967
 31
0.0
  0
LINE
  5
257
330
1F
100
AcDbEntity
  8
0
100
AcDbLine
 10
-602.4422519952778
 20
390.9117425455709
 30
0.0
 11
-602.0899446340459
 21
391.800949614544
 31
0.0
  0
LINE
  5
258
330
1F
100
AcDbEntity
  8
0
100
AcDbLine
 10
-602.5624172938044
 20
389.9575058808339
 30
0.0
 11
-602.4422519952778
 21
390.9117425455709
 31
0.0
  0
LINE
  5
259
330
1F
100
AcDbEntity
  8
0
100
AcDbLine
 10
-602.5624059855462
 20
349.4017462580208
 30
0.0
 11
-602.4422406873065
 21
350.3559829183336
 31
0.0
  0
LINE
  5
25A
330
1F
100
AcDbEntity
  8
0
100
AcDbLine
 10
-602.5624172938044
 20
389.9575058808339
 30
0.0
 11
-602.5624162657809
 21
386.2706186343912
 31
0.0
  0
LINE
  5
25B
330
1F
100
AcDbEntity
  8
0
100
AcDbLine
 10
-619.3448062271809
 20
375.084325357396
 30
0.0
 11
-618.4320581808481
 21
375.209953206454
 31
0.0
  0
LINE
  5
25C
330
1F
100
AcDbEntity
  8
0
100
AcDbLine
 10
-620.1953519322534
 20
374.7160035659325
 30
0.0
 11
-619.3448062271809
 21
375.084325357396
 31
0.0
  0
LINE
  5
25D
330
1F
100
AcDbEntity
  8
0
100
AcDbLine
 10
-620.9257320118181
 20
374.1300883534877
 30
0.0
 11
-620.1953519322534
 21
374.7160035659325
 31
0.0
  0
LINE
  5
25E
330
1F
100
AcDbEntity
  8
0
100
AcDbLine
 10
-602.0899446340459
 20
391.800949614544
 30
0.0
 11
-601.5295043745455
 21
392.5645290954447
 31
0.0
  0
LINE
  5
25F
330
1F
100
AcDbEntity
  8
0
100
AcDbLine
 10
-600.7991242942971
 20
393.1504443084793
 30
0.0
 11
-599.948578588787
 21
393.5187661001155
 31
0.0
  0
LINE
  5
260
330
1F
100
AcDbEntity
  8
0
100
AcDbLine
 10
-601.5295043745455
 20
392.5645290954447
 30
0.0
 11
-600.7991242942971
 21
393.1504443084793
 31
0.0
  0
LINE
  5
261
330
1F
100
AcDbEntity
  8
0
100
AcDbLine
 10
-621.8384796306447
 20
372.4773018058595
 30
0.0
 11
-621.4861722704353
 21
373.3665088735542
 31
0.0
  0
LINE
  5
262
330
1F
100
AcDbEntity
  8
0
100
AcDbLine
 10
-621.9586449280788
 20
371.5230651426249
 30
0.0
 11
-621.8384796306447
 21
372.4773018058595
 31
0.0
  0
LINE
  5
263
330
1F
100
AcDbEntity
  8
0
100
AcDbLine
 10
-621.958642863609
 20
364.1492906634209
 30
0.0
 11
-621.9586449280788
 21
371.5230651426249
 31
0.0
  0
LINE
  5
264
330
1F
100
AcDbEntity
  8
0
100
AcDbLine
 10
-621.8384770319163
 20
363.1950540571771
 30
0.0
 11
-621.958642863609
 21
364.1492906634209
 31
0.0
  0
LINE
  5
265
330
1F
100
AcDbEntity
  8
0
100
AcDbLine
 10
-621.4861691740383
 20
362.3058471548919
 30
0.0
 11
-621.8384770319163
 21
363.1950540571771
 31
0.0
  0
LINE
  5
266
330
1F
100
AcDbEntity
  8
0
100
AcDbLine
 10
-620.9257284883134
 20
361.5422679374556
 30
0.0
 11
-621.4861691740383
 21
362.3058471548919
 31
0.0
  0
LINE
  5
267
330
1F
100
AcDbEntity
  8
0
100
AcDbLine
 10
-620.331119764167
 20
361.0652697999507
 30
0.0
 11
-620.9257284883134
 21
361.5422679374556
 31
0.0
  0
LINE
  5
268
330
1F
100
AcDbEntity
  8
0
100
AcDbLine
 10
-621.4861722704353
 20
373.3665088735542
 30
0.0
 11
-620.9257320118181
 21
374.1300883534877
 31
0.0
  0
LINE
  5
269
330
1F
100
AcDbEntity
  8
0
100
AcDbLine
 10
-600.9201341644423
 20
342.6190074945363
 30
0.0
 11
-601.5294905874273
 21
343.1078363107972
 31
0.0
  0
LINE
  5
26A
330
1F
100
AcDbEntity
  8
0
100
AcDbLine
 10
39.260308794504
 20
347.747158491048
 30
0.0
 11
34.2375067941433
 21
348.4384792109728
 31
0.0
  0
LINE
  5
26B
330
1F
100
AcDbEntity
  8
0
100
AcDbLine
 10
-601.5295018932187
 20
383.6635959023949
 30
0.0
 11
-602.0899425782042
 21
384.4271751217544
 31
0.0
  0
LINE
  5
26C
330
1F
100
AcDbEntity
  8
0
100
AcDbLine
 10
26.04790315858922
 20
382.7914405163518
 30
0.0
 11
29.55699162355531
 21
385.6064519673898
 31
0.0
  0
LINE
  5
26D
330
1F
100
AcDbEntity
  8
0
100
AcDbLine
 10
-599.948578588787
 20
393.5187661001155
 30
0.0
 11
-599.0358305422927
 21
393.644393948917
 31
0.0
  0
LINE
  5
26E
330
1F
100
AcDbEntity
  8
0
100
AcDbLine
 10
21.35754725878196
 20
360.6581148936971
 30
0.0
 11
20.51495350718678
 21
362.7847784004165
 31
0.0
  0
LINE
  5
26F
330
1F
100
AcDbEntity
  8
0
100
AcDbLine
 10
-601.5294930687542
 20
352.0087694613295
 30
0.0
 11
-600.7991129902503
 21
352.5946846723795
 31
0.0
  0
LINE
  5
270
330
1F
100
AcDbEntity
  8
0
100
AcDbLine
 10
20.51495350718678
 20
362.7847784004165
 30
0.0
 11
19.85368782802839
 21
368.0358893800698
 31
0.0
  0
LINE
  5
271
330
1F
100
AcDbEntity
  8
0
100
AcDbLine
 10
19.85368782802839
 20
368.0358893800698
 30
0.0
 11
20.51495096419383
 21
373.2870006714296
 31
0.0
  0
LINE
  5
272
330
1F
100
AcDbEntity
  8
0
100
AcDbLine
 10
20.51495096419383
 20
373.2870006714296
 30
0.0
 11
21.35754368662653
 21
375.4136645743553
 31
0.0
  0
LINE
  5
273
330
1F
100
AcDbEntity
  8
0
100
AcDbLine
 10
-602.5624049575229
 20
345.7148590291894
 30
0.0
 11
-602.5624059855462
 21
349.4017462580208
 31
0.0
  0
LINE
  5
274
330
1F
100
AcDbEntity
  8
0
100
AcDbLine
 10
-602.4422391271786
 20
344.7606224255869
 30
0.0
 11
-602.5624049575229
 21
345.7148590291894
 31
0.0
  0
LINE
  5
275
330
1F
100
AcDbEntity
  8
0
100
AcDbLine
 10
-602.0899312710744
 20
343.8714155258848
 30
0.0
 11
-602.4422391271786
 21
344.7606224255869
 31
0.0
  0
LINE
  5
276
330
1F
100
AcDbEntity
  8
0
100
AcDbLine
 10
-602.089933326916
 20
351.2451899834517
 30
0.0
 11
-601.5294930687542
 21
352.0087694613295
 31
0.0
  0
LINE
  5
277
330
1F
100
AcDbEntity
  8
0
100
AcDbLine
 10
-602.4422406873065
 20
350.3559829183336
 30
0.0
 11
-602.089933326916
 21
351.2451899834517
 31
0.0
  0
LINE
  5
278
330
1F
100
AcDbEntity
  8
0
100
AcDbLine
 10
29.55699162355531
 20
385.6064519673898
 30
0.0
 11
34.23749733523892
 21
387.6333063039961
 31
0.0
  0
LINE
  5
279
330
1F
100
AcDbEntity
  8
0
100
AcDbLine
 10
34.23749733523892
 20
387.6333063039961
 30
0.0
 11
39.26029901392837
 21
388.3246293701467
 31
0.0
  0
LINE
  5
27A
330
1F
100
AcDbEntity
  8
0
100
AcDbLine
 10
-599.9485672867715
 20
352.9630064632038
 30
0.0
 11
-599.0358192424574
 21
353.0886343124226
 31
0.0
  0
LINE
  5
27B
330
1F
100
AcDbEntity
  8
0
100
AcDbLine
 10
29.55700011386337
 20
350.465331355398
 30
0.0
 11
26.04791029474849
 21
353.280341158839
 31
0.0
  0
LINE
  5
27C
330
1F
100
AcDbEntity
  8
0
100
AcDbLine
 10
-600.7991129902503
 20
352.5946846723795
 30
0.0
 11
-599.9485672867715
 21
352.9630064632038
 31
0.0
  0
LINE
  5
27D
330
1F
100
AcDbEntity
  8
0
100
AcDbLine
 10
26.04791029474849
 20
353.280341158839
 30
0.0
 11
25.53775754855248
 21
353.6895883014945
 31
0.0
  0
LINE
  5
27E
330
1F
100
AcDbEntity
  8
0
100
AcDbLine
 10
25.53775754855248
 20
353.6895883014945
 30
0.0
 11
22.45368383713108
 21
357.8915222680782
 31
0.0
  0
LINE
  5
27F
330
1F
100
AcDbEntity
  8
0
100
AcDbLine
 10
22.45368383713108
 20
357.8915222680782
 30
0.0
 11
21.35754725878196
 21
360.6581148936971
 31
0.0
  0
LINE
  5
280
330
1F
100
AcDbEntity
  8
0
100
AcDbLine
 10
21.35754368662653
 20
375.4136645743553
 30
0.0
 11
22.45367892676218
 21
378.1802577169967
 31
0.0
  0
LINE
  5
281
330
1F
100
AcDbEntity
  8
0
100
AcDbLine
 10
22.45367892676218
 20
378.1802577169967
 30
0.0
 11
25.53775060945357
 21
382.3821931343235
 31
0.0
  0
LINE
  5
282
330
1F
100
AcDbEntity
  8
0
100
AcDbLine
 10
25.53775060945357
 20
382.3821931343235
 30
0.0
 11
26.04790315858922
 21
382.7914405163518
 31
0.0
  0
LINE
  5
283
330
1F
100
AcDbEntity
  8
0
100
AcDbLine
 10
39.26029901392837
 20
388.3246293701467
 30
0.0
 11
44.28310102449634
 21
387.6333086415648
 31
0.0
  0
LINE
  5
284
330
1F
100
AcDbEntity
  8
0
100
AcDbLine
 10
44.28310102449634
 20
387.6333086415648
 30
0.0
 11
48.96360770947586
 21
385.6064564843066
 31
0.0
  0
LINE
  5
285
330
1F
100
AcDbEntity
  8
0
100
AcDbLine
 10
48.96360770947586
 20
385.6064564843066
 30
0.0
 11
52.98285027271903
 21
382.38219952464
 31
0.0
  0
LINE
  5
286
330
1F
100
AcDbEntity
  8
0
100
AcDbLine
 10
52.98285027271903
 20
382.38219952464
 30
0.0
 11
56.06692397585972
 21
378.1802655473849
 31
0.0
  0
LINE
  5
287
330
1F
100
AcDbEntity
  8
0
100
AcDbLine
 10
56.06692397585972
 20
378.1802655473849
 30
0.0
 11
58.00565429352911
 21
373.2870094101334
 31
0.0
  0
LINE
  5
288
330
1F
100
AcDbEntity
  8
0
100
AcDbLine
 10
58.00565429352911
 20
373.2870094101334
 30
0.0
 11
58.66691995970731
 21
368.0358984326418
 31
0.0
  0
LINE
  5
289
330
1F
100
AcDbEntity
  8
0
100
AcDbLine
 10
58.66691995970731
 20
368.0358984326418
 30
0.0
 11
58.00565681333448
 21
362.7847871499391
 31
0.0
  0
LINE
  5
28A
330
1F
100
AcDbEntity
  8
0
100
AcDbLine
 10
58.00565681333448
 20
362.7847871499391
 30
0.0
 11
56.06692884606655
 21
357.8915301172049
 31
0.0
  0
LINE
  5
28B
330
1F
100
AcDbEntity
  8
0
100
AcDbLine
 10
56.06692884606655
 20
357.8915301172049
 30
0.0
 11
52.98285716544277
 21
353.6895947134483
 31
0.0
  0
LINE
  5
28C
330
1F
100
AcDbEntity
  8
0
100
AcDbLine
 10
52.98285716544277
 20
353.6895947134483
 30
0.0
 11
48.96361615962184
 21
350.4653358910534
 31
0.0
  0
LINE
  5
28D
330
1F
100
AcDbEntity
  8
0
100
AcDbLine
 10
48.96361615962184
 20
350.4653358910534
 30
0.0
 11
44.28311046021314
 21
348.4384815593602
 31
0.0
  0
LINE
  5
28E
330
1F
100
AcDbEntity
  8
0
100
AcDbLine
 10
44.28311046021314
 20
348.4384815593602
 30
0.0
 11
39.260308794504
 21
347.747158491048
 31
0.0
  0
LINE
  5
28F
330
1F
100
AcDbEntity
  8
0
100
AcDbLine
 10
129.2746329674478
 20
375.9368332364562
 30
0.0
 11
156.5682657579427
 21
375.9368395963387
 31
0.0
  0
LINE
  5
290
330
1F
100
AcDbEntity
  8
0
100
AcDbLine
 10
21.35754725878196
 20
360.6581148936971
 30
0.0
 11
-618.7675716424766
 21
360.6579654648779
 31
0.0
  0
LINE
  5
291
330
1F
100
AcDbEntity
  8
0
100
AcDbLine
 10
-599.3608137965581
 20
353.2801950385865
 30
0.0
 11
26.04791029474849
 21
353.280341158839
 31
0.0
  0
LINE
  5
292
330
1F
100
AcDbEntity
  8
0
100
AcDbLine
 10
-599.3608220196436
 20
382.7912949032302
 30
0.0
 11
26.04790315858922
 21
382.7914405163518
 31
0.0
  0
LINE
  5
293
330
1F
100
AcDbEntity
  8
0
100
AcDbLine
 10
-654.0525957400141
 20
408.6134946739293
 30
0.0
 11
-654.052572865138
 21
327.4579699242003
 31
0.0
  0
LINE
  5
294
330
1F
100
AcDbEntity
  8
0
100
AcDbLine
 10
-654.052572865138
 20
327.4579699242003
 30
0.0
 11
-650.172458181744
 21
325.5153544861319
 31
0.0
  0
LINE
  5
295
330
1F
100
AcDbEntity
  8
0
100
AcDbLine
 10
-654.052572865138
 20
327.4579699242003
 30
0.0
 11
150.4456497955856
 21
327.4581584586722
 31
0.0
  0
LINE
  5
296
330
1F
100
AcDbEntity
  8
0
100
AcDbLine
 10
157.5026444716153
 20
357.8914809189677
 30
0.0
 11
129.2746372213447
 21
357.8914743292603
 31
0.0
  0
LINE
  5
297
330
1F
100
AcDbEntity
  8
0
100
AcDbLine
 10
157.5026397234076
 20
378.1803616565277
 30
0.0
 11
157.5026342533973
 21
401.5553762441071
 31
0.0
  0
LINE
  5
298
330
1F
100
AcDbEntity
  8
0
100
AcDbLine
 10
129.2746324385743
 20
378.18035508066
 30
0.0
 11
157.5026397234076
 21
378.1803616565277
 31
0.0
  0
LINE
  5
299
330
1F
100
AcDbEntity
  8
0
100
AcDbLine
 10
157.5026397234076
 20
378.1803616565277
 30
0.0
 11
156.5682657579427
 21
375.9368395963387
 31
0.0
  0
LINE
  5
29A
330
1F
100
AcDbEntity
  8
0
100
AcDbLine
 10
-602.8893127889352
 20
345.90241926334
 30
0.0
 11
-602.5624049575229
 21
345.7148590291894
 31
0.0
  0
LINE
  5
29B
330
1F
100
AcDbEntity
  8
0
100
AcDbLine
 10
-602.8893127889352
 20
345.90241926334
 30
0.0
 11
-602.8893138175875
 21
349.591306737963
 31
0.0
  0
LINE
  5
29C
330
1F
100
AcDbEntity
  8
0
100
AcDbLine
 10
-602.7690817650421
 20
344.9476649580468
 30
0.0
 11
-602.8893127889352
 21
345.90241926334
 31
0.0
  0
LINE
  5
29D
330
1F
100
AcDbEntity
  8
0
100
AcDbLine
 10
-602.8893138175875
 20
349.591306737963
 30
0.0
 11
-602.5624059855462
 21
349.4017462580208
 31
0.0
  0
LINE
  5
29E
330
1F
100
AcDbEntity
  8
0
100
AcDbLine
 10
-602.8893138175875
 20
349.591306737963
 30
0.0
 11
-602.7690833261242
 21
350.5460610999964
 31
0.0
  0
LINE
  5
29F
330
1F
100
AcDbEntity
  8
0
100
AcDbLine
 10
-602.7690833261242
 20
350.5460610999964
 30
0.0
 11
-602.4165848285479
 21
351.4357505863478
 31
0.0
  0
LINE
  5
2A0
330
1F
100
AcDbEntity
  8
0
100
AcDbLine
 10
-602.4165848285479
 20
351.4357505863478
 30
0.0
 11
-601.8558405149214
 21
352.1997443287615
 31
0.0
  0
LINE
  5
2A1
330
1F
100
AcDbEntity
  8
0
100
AcDbLine
 10
-601.8558405149214
 20
352.1997443287615
 30
0.0
 11
-601.1250641835516
 21
352.7859774162066
 31
0.0
  0
LINE
  5
2A2
330
1F
100
AcDbEntity
  8
0
100
AcDbLine
 10
-601.1250641835516
 20
352.7859774162066
 30
0.0
 11
-600.274057033783
 21
353.1544990325342
 31
0.0
  0
LINE
  5
2A3
330
1F
100
AcDbEntity
  8
0
100
AcDbLine
 10
-600.274057033783
 20
353.1544990325342
 30
0.0
 11
-599.3608137965581
 21
353.2801950385865
 31
0.0
  0
LINE
  5
2A4
330
1F
100
AcDbEntity
  8
0
100
AcDbLine
 10
-599.3608137965581
 20
353.2801950385865
 30
0.0
 11
-599.0358192424574
 21
353.0886343124226
 31
0.0
  0
LINE
  5
2A5
330
1F
100
AcDbEntity
  8
0
100
AcDbLine
 10
-618.7675716424766
 20
360.6579654648779
 30
0.0
 11
-619.6808149512782
 21
360.7836610445535
 31
0.0
  0
LINE
  5
2A6
330
1F
100
AcDbEntity
  8
0
100
AcDbLine
 10
-620.5318223082065
 20
361.1521822639395
 30
0.0
 11
-621.2625989682585
 21
361.7384150109866
 31
0.0
  0
LINE
  5
2A7
330
1F
100
AcDbEntity
  8
0
100
AcDbLine
 10
-621.2625989682585
 20
361.7384150109866
 30
0.0
 11
-621.8233437097105
 21
362.5024084928243
 31
0.0
  0
LINE
  5
2A8
330
1F
100
AcDbEntity
  8
0
100
AcDbLine
 10
-621.8233437097105
 20
362.5024084928243
 30
0.0
 11
-622.1758427050793
 21
363.3920978162591
 31
0.0
  0
LINE
  5
2A9
330
1F
100
AcDbEntity
  8
0
100
AcDbLine
 10
-622.1758427050793
 20
363.3920978162591
 30
0.0
 11
-622.2960737303224
 21
364.3468521241966
 31
0.0
  0
LINE
  5
2AA
330
1F
100
AcDbEntity
  8
0
100
AcDbLine
 10
-622.2960737303224
 20
364.3468521241966
 30
0.0
 11
-622.2960757960589
 21
371.724627095007
 31
0.0
  0
LINE
  5
2AB
330
1F
100
AcDbEntity
  8
0
100
AcDbLine
 10
-622.2960737303224
 20
364.3468521241966
 30
0.0
 11
-621.958642863609
 21
364.1492906634209
 31
0.0
  0
LINE
  5
2AC
330
1F
100
AcDbEntity
  8
0
100
AcDbLine
 10
-622.2960757960589
 20
371.724627095007
 30
0.0
 11
-622.1758453054018
 21
372.6793814599654
 31
0.0
  0
LINE
  5
2AD
330
1F
100
AcDbEntity
  8
0
100
AcDbLine
 10
-622.2960757960589
 20
371.724627095007
 30
0.0
 11
-621.9586449280788
 21
371.5230651426249
 31
0.0
  0
LINE
  5
2AE
330
1F
100
AcDbEntity
  8
0
100
AcDbLine
 10
-622.1758453054018
 20
372.6793814599654
 30
0.0
 11
-621.823346808007
 21
373.5690709488961
 31
0.0
  0
LINE
  5
2AF
330
1F
100
AcDbEntity
  8
0
100
AcDbLine
 10
-621.823346808007
 20
373.5690709488961
 30
0.0
 11
-621.2626024939248
 21
374.3330646933679
 31
0.0
  0
LINE
  5
2B0
330
1F
100
AcDbEntity
  8
0
100
AcDbLine
 10
-621.2626024939248
 20
374.3330646933679
 30
0.0
 11
-620.5318261614927
 21
374.9192977822092
 31
0.0
  0
LINE
  5
2B1
330
1F
100
AcDbEntity
  8
0
100
AcDbLine
 10
-620.5318261614927
 20
374.9192977822092
 30
0.0
 11
-619.680819010129
 21
375.2878193991767
 31
0.0
  0
LINE
  5
2B2
330
1F
100
AcDbEntity
  8
0
100
AcDbLine
 10
-619.680819010129
 20
375.2878193991767
 30
0.0
 11
-618.7675757708832
 21
375.4135154050681
 31
0.0
  0
LINE
  5
2B3
330
1F
100
AcDbEntity
  8
0
100
AcDbLine
 10
-618.7675757708832
 20
375.4135154050681
 30
0.0
 11
21.35754368662653
 21
375.4136645743553
 31
0.0
  0
LINE
  5
2B4
330
1F
100
AcDbEntity
  8
0
100
AcDbLine
 10
-618.7675757708832
 20
375.4135154050681
 30
0.0
 11
-618.4320581808481
 21
375.209953206454
 31
0.0
  0
LINE
  5
2B5
330
1F
100
AcDbEntity
  8
0
100
AcDbLine
 10
-599.3608220196436
 20
382.7912949032302
 30
0.0
 11
-600.2740653285181
 21
382.9169904837219
 31
0.0
  0
LINE
  5
2B6
330
1F
100
AcDbEntity
  8
0
100
AcDbLine
 10
-601.8558493447822
 20
383.8717444530969
 30
0.0
 11
-602.4165940854937
 21
384.6357379368598
 31
0.0
  0
LINE
  5
2B7
330
1F
100
AcDbEntity
  8
0
100
AcDbLine
 10
-602.4165940854937
 20
384.6357379368598
 30
0.0
 11
-602.7690930799293
 21
385.5254272623539
 31
0.0
  0
LINE
  5
2B8
330
1F
100
AcDbEntity
  8
0
100
AcDbLine
 10
-602.7690930799293
 20
385.5254272623539
 30
0.0
 11
-602.8893241041097
 21
386.4801815723444
 31
0.0
  0
LINE
  5
2B9
330
1F
100
AcDbEntity
  8
0
100
AcDbLine
 10
-602.8893241041097
 20
386.4801815723444
 30
0.0
 11
-602.5624162657809
 21
386.2706186343912
 31
0.0
  0
LINE
  5
2BA
330
1F
100
AcDbEntity
  8
0
100
AcDbLine
 10
-602.889325132762
 20
390.1690690645978
 30
0.0
 11
-602.8893241041097
 21
386.4801815723444
 31
0.0
  0
LINE
  5
2BB
330
1F
100
AcDbEntity
  8
0
100
AcDbLine
 10
-602.889325132762
 20
390.1690690645978
 30
0.0
 11
-602.5624172938044
 21
389.9575058808339
 31
0.0
  0
LINE
  5
2BC
330
1F
100
AcDbEntity
  8
0
100
AcDbLine
 10
-602.889325132762
 20
390.1690690645978
 30
0.0
 11
-602.7690946410115
 21
391.1238234310602
 31
0.0
  0
LINE
  5
2BD
330
1F
100
AcDbEntity
  8
0
100
AcDbLine
 10
-602.7690946410115
 20
391.1238234310602
 30
0.0
 11
-602.4165961425929
 21
392.0135129212707
 31
0.0
  0
LINE
  5
2BE
330
1F
100
AcDbEntity
  8
0
100
AcDbLine
 10
-602.4165961425929
 20
392.0135129212707
 30
0.0
 11
-601.8558518276263
 21
392.7775066667106
 31
0.0
  0
LINE
  5
2BF
330
1F
100
AcDbEntity
  8
0
100
AcDbLine
 10
-601.8558518276263
 20
392.7775066667106
 30
0.0
 11
-601.1250754945099
 21
393.3637397561425
 31
0.0
  0
LINE
  5
2C0
330
1F
100
AcDbEntity
  8
0
100
AcDbLine
 10
-601.1250754945099
 20
393.3637397561425
 30
0.0
 11
-600.2740683427081
 21
393.7322613732828
 31
0.0
  0
LINE
  5
2C1
330
1F
100
AcDbEntity
  8
0
100
AcDbLine
 10
-600.2740683427081
 20
393.7322613732828
 30
0.0
 11
-599.3608251033008
 21
393.8579573789174
 31
0.0
  0
LINE
  5
2C2
330
1F
100
AcDbEntity
  8
0
100
AcDbLine
 10
39.26029768016892
 20
393.8581058740729
 30
0.0
 11
-599.3608251033008
 21
393.8579573789174
 31
0.0
  0
LINE
  5
2C3
330
1F
100
AcDbEntity
  8
0
100
AcDbLine
 10
-599.3608251033008
 20
393.8579573789174
 30
0.0
 11
-599.0358305422927
 21
393.644393948917
 31
0.0
  0
LINE
  5
2C4
330
1F
100
AcDbEntity
  8
0
100
AcDbLine
 10
39.26029901392837
 20
388.3246293701467
 30
0.0
 11
39.26029768016892
 21
393.8581058740729
 31
0.0
  0
LINE
  5
2C5
330
1F
100
AcDbEntity
  8
0
100
AcDbLine
 10
39.26029768016892
 20
393.8581058740729
 30
0.0
 11
-599.0358305422927
 21
393.644393948917
 31
0.0
  0
LINE
  5
2C6
330
1F
100
AcDbEntity
  8
0
100
AcDbLine
 10
39.260308794504
 20
347.747158491048
 30
0.0
 11
39.26031012826345
 21
342.2136820171744
 31
0.0
  0
LINE
  5
2C7
330
1F
100
AcDbEntity
  8
0
100
AcDbLine
 10
39.26031012826345
 20
342.2136820171744
 30
0.0
 11
-599.3608107129011
 21
342.2135326157904
 31
0.0
  0
LINE
  5
2C8
330
1F
100
AcDbEntity
  8
0
100
AcDbLine
 10
-599.3608107129011
 20
342.2135326157904
 30
0.0
 11
-600.2740540195931
 21
342.3392281946632
 31
0.0
  0
LINE
  5
2C9
330
1F
100
AcDbEntity
  8
0
100
AcDbLine
 10
-601.1250613742684
 20
342.7077494126207
 30
0.0
 11
-601.8558380320773
 21
343.2939821577115
 31
0.0
  0
LINE
  5
2CA
330
1F
100
AcDbEntity
  8
0
100
AcDbLine
 10
-601.8558380320773
 20
343.2939821577115
 30
0.0
 11
-602.4165827714489
 21
344.0579756371978
 31
0.0
  0
LINE
  5
2CB
330
1F
100
AcDbEntity
  8
0
100
AcDbLine
 10
-602.4165827714489
 20
344.0579756371978
 30
0.0
 11
-602.7690817650421
 21
344.9476649580468
 31
0.0
  0
LINE
  5
2CC
330
1F
100
AcDbEntity
  8
0
100
AcDbLine
 10
157.2621888617978
 20
332.6896426017718
 30
0.0
 11
156.5571917992323
 21
330.9873132715197
 31
0.0
  0
LINE
  5
2CD
330
1F
100
AcDbEntity
  8
0
100
AcDbLine
 10
157.5026499392921
 20
334.5164668749415
 30
0.0
 11
157.2621888617978
 21
332.6896426017718
 31
0.0
  0
LINE
  5
2CE
330
1F
100
AcDbEntity
  8
0
100
AcDbLine
 10
153.9741504723085
 20
328.4037930838128
 30
0.0
 11
152.2721362055657
 21
327.6986648573881
 31
0.0
  0
LINE
  5
2CF
330
1F
100
AcDbEntity
  8
0
100
AcDbLine
 10
156.5571917992323
 20
330.9873132715197
 30
0.0
 11
155.4357031364042
 21
329.5254898146522
 31
0.0
  0
LINE
  5
2D0
330
1F
100
AcDbEntity
  8
0
100
AcDbLine
 10
152.2721362055657
 20
327.6986648573881
 30
0.0
 11
150.4456497955856
 21
327.4581584586722
 31
0.0
  0
LINE
  5
2D1
330
1F
100
AcDbEntity
  8
0
100
AcDbLine
 10
155.4357031364042
 20
329.5254898146522
 30
0.0
 11
153.9741504723085
 21
328.4037930838128
 31
0.0
  0
LINE
  5
2D2
330
1F
100
AcDbEntity
  8
0
100
AcDbLine
 10
157.5026499392921
 20
334.5164668749415
 30
0.0
 11
157.5026444716153
 21
357.8914809189677
 31
0.0
  0
LINE
  5
2D3
330
1F
100
AcDbEntity
  8
0
100
AcDbLine
 10
150.4456307716437
 20
408.6136814308625
 30
0.0
 11
152.272117303154
 21
408.3731758818495
 31
0.0
  0
LINE
  5
2D4
330
1F
100
AcDbEntity
  8
0
100
AcDbLine
 10
152.272117303154
 20
408.3731758818495
 30
0.0
 11
153.9741319084175
 21
407.6680484426572
 31
0.0
  0
LINE
  5
2D5
330
1F
100
AcDbEntity
  8
0
100
AcDbLine
 10
153.9741319084175
 20
407.6680484426572
 30
0.0
 11
155.4356851047398
 21
406.546352383146
 31
0.0
  0
LINE
  5
2D6
330
1F
100
AcDbEntity
  8
0
100
AcDbLine
 10
155.4356851047398
 20
406.546352383146
 30
0.0
 11
156.5571744571513
 21
405.0845294362468
 31
0.0
  0
LINE
  5
2D7
330
1F
100
AcDbEntity
  8
0
100
AcDbLine
 10
156.5571744571513
 20
405.0845294362468
 30
0.0
 11
157.2621723197418
 21
403.3822004201427
 31
0.0
  0
LINE
  5
2D8
330
1F
100
AcDbEntity
  8
0
100
AcDbLine
 10
157.2621723197418
 20
403.3822004201427
 30
0.0
 11
157.5026342533973
 21
401.5553762441071
 31
0.0
  0
LINE
  5
2D9
330
1F
100
AcDbEntity
  8
0
100
AcDbLine
 10
150.4456307716437
 20
408.6136814308625
 30
0.0
 11
-654.0525957400141
 21
408.6134946739293
 31
0.0
  0
LINE
  5
2DA
330
1F
100
AcDbEntity
  8
0
100
AcDbLine
 10
155.6284266128349
 20
329.0237603488223
 30
0.0
 11
154.513591094842
 21
327.5706090466997
 31
0.0
  0
LINE
  5
2DB
330
1F
100
AcDbEntity
  8
0
100
AcDbLine
 10
154.513591094842
 20
327.5706090466997
 30
0.0
 11
153.0607089789494
 21
326.4555666950419
 31
0.0
  0
LINE
  5
2DC
330
1F
100
AcDbEntity
  8
0
100
AcDbLine
 10
153.0607089789494
 20
326.4555666950419
 30
0.0
 11
151.3687917802475
 21
325.7546215872932
 31
0.0
  0
LINE
  5
2DD
330
1F
100
AcDbEntity
  8
0
100
AcDbLine
 10
151.3687917802475
 20
325.7546215872932
 30
0.0
 11
149.5531408596473
 21
325.5155419741234
 31
0.0
  0
LINE
  5
2DE
330
1F
100
AcDbEntity
  8
0
100
AcDbLine
 10
156.5571917992323
 20
330.9873132715197
 30
0.0
 11
155.6284266128349
 21
329.0237603488223
 31
0.0
  0
LINE
  5
2DF
330
1F
100
AcDbEntity
  8
0
100
AcDbLine
 10
150.4456497955856
 20
327.4581584586722
 30
0.0
 11
149.5531408596473
 21
325.5155419741234
 31
0.0
  0
LINE
  5
2E0
330
1F
100
AcDbEntity
  8
0
100
AcDbLine
 10
149.5531408596473
 20
325.5155419741234
 30
0.0
 11
-650.172458181744
 21
325.5153544861319
 31
0.0
  0
LINE
  5
2E1
330
1F
100
AcDbEntity
  8
0
100
AcDbLine
 10
-1527.395054564038
 20
420.2196928843377
 30
0.0
 11
1166.41744144167
 21
420.2196928843377
 31
0.0
  0
LINE
  5
2E2
330
1F
100
AcDbEntity
  8
0
100
AcDbLine
 10
-1527.395054564038
 20
195.7353182171953
 30
0.0
 11
-1527.395054564038
 21
420.2196928843377
 31
0.0
  0
LINE
  5
2E3
330
1F
100
AcDbEntity
  8
0
100
AcDbLine
 10
1166.41744144167
 20
195.7353182171953
 30
0.0
 11
-1527.395054564038
 21
195.7353182171953
 31
0.0
  0
LINE
  5
2E4
330
1F
100
AcDbEntity
  8
0
100
AcDbLine
 10
1166.41744144167
 20
420.2196928843377
 30
0.0
 11
1166.41744144167
 21
195.7353182171953
 31
0.0
  0
LINE
  5
2E5
330
1F
100
AcDbEntity
  8
0
100
AcDbLine
 10
1121.801079141016
 20
326.0901690133447
 30
0.0
 11
1119.985428083329
 21
325.8402683752392
 31
0.0
  0
LINE
  5
2E6
330
1F
100
AcDbEntity
  8
0
100
AcDbLine
 10
1119.985428083329
 20
325.8402683752392
 30
0.0
 11
986.3502457860341
 21
325.8402826329001
 31
0.0
  0
LINE
  5
2E7
330
1F
100
AcDbEntity
  8
0
100
AcDbLine
 10
986.3502457860341
 20
325.8402826329001
 30
0.0
 11
993.1472327040926
 21
328.0857258834876
 31
0.0
  0
LINE
  5
2E8
330
1F
100
AcDbEntity
  8
0
100
AcDbLine
 10
985.8963330203363
 20
325.9027577917622
 30
0.0
 11
986.3502457860341
 21
325.8402826329001
 31
0.0
  0
LINE
  5
2E9
330
1F
100
AcDbEntity
  8
0
100
AcDbLine
 10
551.7593199699542
 20
333.1743020309997
 30
0.0
 11
551.7593202150674
 21
384.5124180381511
 31
0.0
  0
LINE
  5
2EA
330
1F
100
AcDbEntity
  8
0
100
AcDbLine
 10
551.9983549743578
 20
331.2761182423018
 30
0.0
 11
551.7593199699542
 21
333.1743020309997
 31
0.0
  0
LINE
  5
2EB
330
1F
100
AcDbEntity
  8
0
100
AcDbLine
 10
551.7593202150674
 20
384.5124180381511
 30
0.0
 11
551.9983552075778
 21
386.4106018300631
 31
0.0
  0
LINE
  5
2EC
330
1F
100
AcDbEntity
  8
0
100
AcDbLine
 10
552.6991701304116
 20
329.5072925421397
 30
0.0
 11
551.9983549743578
 21
331.2761182423018
 31
0.0
  0
LINE
  5
2ED
330
1F
100
AcDbEntity
  8
0
100
AcDbLine
 10
551.9983552075778
 20
386.4106018300631
 30
0.0
 11
552.699170353033
 21
388.1794275340243
 31
0.0
  0
LINE
  5
2EE
330
1F
100
AcDbEntity
  8
0
100
AcDbLine
 10
553.8140060433998
 20
327.988367478869
 30
0.0
 11
552.6991701304116
 21
329.5072925421397
 31
0.0
  0
LINE
  5
2EF
330
1F
100
AcDbEntity
  8
0
100
AcDbLine
 10
558.7744569830334
 20
325.8402830560914
 30
0.0
 11
556.9588059272456
 21
326.0901836917259
 31
0.0
  0
LINE
  5
2F0
330
1F
100
AcDbEntity
  8
0
100
AcDbLine
 10
692.4095254846501
 20
325.8402822967335
 30
0.0
 11
558.7744569830334
 21
325.8402830560914
 31
0.0
  0
LINE
  5
2F1
330
1F
100
AcDbEntity
  8
0
100
AcDbLine
 10
556.9588059272456
 20
326.0901836917259
 30
0.0
 11
555.2668884882156
 21
326.8228552854292
 31
0.0
  0
LINE
  5
2F2
330
1F
100
AcDbEntity
  8
0
100
AcDbLine
 10
555.2668884882156
 20
326.8228552854292
 30
0.0
 11
553.8140060433998
 21
327.988367478869
 31
0.0
  0
LINE
  5
2F3
330
1F
100
AcDbEntity
  8
0
100
AcDbLine
 10
553.8140062574207
 20
389.6983526014455
 30
0.0
 11
555.2668886962159
 21
390.8638647991362
 31
0.0
  0
LINE
  5
2F4
330
1F
100
AcDbEntity
  8
0
100
AcDbLine
 10
552.699170353033
 20
388.1794275340243
 30
0.0
 11
553.8140062574207
 21
389.6983526014455
 31
0.0
  0
LINE
  5
2F5
330
1F
100
AcDbEntity
  8
0
100
AcDbLine
 10
695.9215306517231
 20
394.5466588277459
 30
0.0
 11
707.9266762632893
 21
405.9774537207335
 31
0.0
  0
LINE
  5
2F6
330
1F
100
AcDbEntity
  8
0
100
AcDbLine
 10
708.2898968738488
 20
406.2688317706679
 30
0.0
 11
707.9266762632893
 21
405.9774537207335
 31
0.0
  0
LINE
  5
2F7
330
1F
100
AcDbEntity
  8
0
100
AcDbLine
 10
707.9266762632893
 20
405.9774537207335
 30
0.0
 11
712.8050011094779
 21
408.7750812366763
 31
0.0
  0
LINE
  5
2F8
330
1F
100
AcDbEntity
  8
0
100
AcDbLine
 10
708.2898968738488
 20
406.2688317706679
 30
0.0
 11
713.1707246803246
 21
409.0684671784151
 31
0.0
  0
LINE
  5
2F9
330
1F
100
AcDbEntity
  8
0
100
AcDbLine
 10
692.4095254846501
 20
325.8402822967335
 30
0.0
 11
692.8634382491992
 21
325.9027574566407
 31
0.0
  0
LINE
  5
2FA
330
1F
100
AcDbEntity
  8
0
100
AcDbLine
 10
692.4095254846501
 20
325.8402822967335
 30
0.0
 11
697.180942130236
 21
328.085630362309
 31
0.0
  0
LINE
  5
2FB
330
1F
100
AcDbEntity
  8
0
100
AcDbLine
 10
692.8634382491992
 20
325.9027574566407
 30
0.0
 11
693.2864176089162
 21
326.0859253563349
 31
0.0
  0
LINE
  5
2FC
330
1F
100
AcDbEntity
  8
0
100
AcDbLine
 10
712.6803854085632
 20
342.1953832943186
 30
0.0
 11
714.0536712755209
 21
342.8547703736658
 31
0.0
  0
LINE
  5
2FD
330
1F
100
AcDbEntity
  8
0
100
AcDbLine
 10
969.5929819846045
 20
340.5083197783333
 30
0.0
 11
710.9085585944097
 21
340.5083201966568
 31
0.0
  0
LINE
  5
2FE
330
1F
100
AcDbEntity
  8
0
100
AcDbLine
 10
970.0468947486056
 20
340.4458446188902
 30
0.0
 11
970.4698741078664
 21
340.2626767194321
 31
0.0
  0
LINE
  5
2FF
330
1F
100
AcDbEntity
  8
0
100
AcDbLine
 10
969.5929819846045
 20
340.5083197783333
 30
0.0
 11
970.0468947486056
 21
340.4458446188902
 31
0.0
  0
LINE
  5
300
330
1F
100
AcDbEntity
  8
0
100
AcDbLine
 10
970.4698741078664
 20
340.2626767194321
 30
0.0
 11
970.8330947180597
 21
339.9712986696076
 31
0.0
  0
LINE
  5
301
330
1F
100
AcDbEntity
  8
0
100
AcDbLine
 10
969.5929819846045
 20
340.5083197783333
 30
0.0
 11
976.2744668422027
 21
342.8547705807698
 31
0.0
  0
LINE
  5
302
330
1F
100
AcDbEntity
  8
0
100
AcDbLine
 10
970.8330947180597
 20
339.9712986696076
 30
0.0
 11
977.5231252170328
 21
342.314048848962
 31
0.0
  0
LINE
  5
303
330
1F
100
AcDbEntity
  8
0
100
AcDbLine
 10
985.1101330479543
 20
326.3773037400033
 30
0.0
 11
970.8330947180597
 21
339.9712986696076
 31
0.0
  0
LINE
  5
304
330
1F
100
AcDbEntity
  8
0
100
AcDbLine
 10
714.0536712755209
 20
342.8547703736658
 30
0.0
 11
976.2744668422027
 21
342.8547705807698
 31
0.0
  0
LINE
  5
305
330
1F
100
AcDbEntity
  8
0
100
AcDbLine
 10
713.5966305903846
 20
342.7918646967596
 30
0.0
 11
714.0536712755209
 21
342.8547703736658
 31
0.0
  0
LINE
  5
306
330
1F
100
AcDbEntity
  8
0
100
AcDbLine
 10
976.2744668422027
 20
342.8547705807698
 30
0.0
 11
976.7315075280388
 21
342.7918649037674
 31
0.0
  0
LINE
  5
307
330
1F
100
AcDbEntity
  8
0
100
AcDbLine
 10
976.7315075280388
 20
342.7918649037674
 30
0.0
 11
977.1574016464302
 21
342.6074347906911
 31
0.0
  0
LINE
  5
308
330
1F
100
AcDbEntity
  8
0
100
AcDbLine
 10
977.1574016464302
 20
342.6074347906911
 30
0.0
 11
977.5231252170328
 21
342.314048848962
 31
0.0
  0
LINE
  5
309
330
1F
100
AcDbEntity
  8
0
100
AcDbLine
 10
991.8985743245001
 20
328.6264476136825
 30
0.0
 11
977.5231252170328
 21
342.314048848962
 31
0.0
  0
LINE
  5
30A
330
1F
100
AcDbEntity
  8
0
100
AcDbLine
 10
991.8985743245001
 20
328.6264476136825
 30
0.0
 11
992.2642978964939
 21
328.3330616724311
 31
0.0
  0
LINE
  5
30B
330
1F
100
AcDbEntity
  8
0
100
AcDbLine
 10
992.2642978964939
 20
328.3330616724311
 30
0.0
 11
992.6901920165097
 21
328.1486315599047
 31
0.0
  0
LINE
  5
30C
330
1F
100
AcDbEntity
  8
0
100
AcDbLine
 10
992.6901920165097
 20
328.1486315599047
 30
0.0
 11
993.1472327040926
 21
328.0857258834876
 31
0.0
  0
LINE
  5
30D
330
1F
100
AcDbEntity
  8
0
100
AcDbLine
 10
993.1472327040926
 20
328.0857258834876
 30
0.0
 11
1127.703254135346
 21
328.0856533690626
 31
0.0
  0
LINE
  5
30E
330
1F
100
AcDbEntity
  8
0
100
AcDbLine
 10
1127.703254135346
 20
328.0856533690626
 30
0.0
 11
1119.985428083329
 21
325.8402683752392
 31
0.0
  0
LINE
  5
30F
330
1F
100
AcDbEntity
  8
0
100
AcDbLine
 10
1129.531416876175
 20
328.3372760768296
 30
0.0
 11
1127.703254135346
 21
328.0856533690626
 31
0.0
  0
LINE
  5
310
330
1F
100
AcDbEntity
  8
0
100
AcDbLine
 10
1131.234993342094
 20
329.0749965264876
 30
0.0
 11
1129.531416876175
 21
328.3372760768296
 31
0.0
  0
LINE
  5
311
330
1F
100
AcDbEntity
  8
0
100
AcDbLine
 10
1129.531416876175
 20
328.3372760768296
 30
0.0
 11
1121.801079141016
 21
326.0901690133447
 31
0.0
  0
LINE
  5
312
330
1F
100
AcDbEntity
  8
0
100
AcDbLine
 10
1132.697887612223
 20
330.2485402885177
 30
0.0
 11
1131.234993342094
 21
329.0749965264876
 31
0.0
  0
LINE
  5
313
330
1F
100
AcDbEntity
  8
0
100
AcDbLine
 10
1133.820405859592
 20
331.7779322948859
 30
0.0
 11
1132.697887612223
 21
330.2485402885177
 31
0.0
  0
LINE
  5
314
330
1F
100
AcDbEntity
  8
0
100
AcDbLine
 10
1134.526050320691
 20
333.5589470077717
 30
0.0
 11
1133.820405859592
 21
331.7779322948859
 31
0.0
  0
LINE
  5
315
330
1F
100
AcDbEntity
  8
0
100
AcDbLine
 10
1134.766732491647
 20
335.4702112177359
 30
0.0
 11
1134.526050320691
 21
333.5589470077717
 31
0.0
  0
LINE
  5
316
330
1F
100
AcDbEntity
  8
0
100
AcDbLine
 10
1134.766732432041
 20
387.1621010488073
 30
0.0
 11
1134.766732491647
 21
335.4702112177359
 31
0.0
  0
LINE
  5
317
330
1F
100
AcDbEntity
  8
0
100
AcDbLine
 10
1134.526050276293
 20
389.0733649251683
 30
0.0
 11
1134.766732432041
 21
387.1621010488073
 31
0.0
  0
LINE
  5
318
330
1F
100
AcDbEntity
  8
0
100
AcDbLine
 10
1133.820405913473
 20
390.8543793262957
 30
0.0
 11
1134.526050276293
 21
389.0733649251683
 31
0.0
  0
LINE
  5
319
330
1F
100
AcDbEntity
  8
0
100
AcDbLine
 10
1132.697887840785
 20
392.3837710640187
 30
0.0
 11
1133.820405913473
 21
390.8543793262957
 31
0.0
  0
LINE
  5
31A
330
1F
100
AcDbEntity
  8
0
100
AcDbLine
 10
1131.234993809845
 20
393.5573146188572
 30
0.0
 11
1132.697887840785
 21
392.3837710640187
 31
0.0
  0
LINE
  5
31B
330
1F
100
AcDbEntity
  8
0
100
AcDbLine
 10
1129.53141763132
 20
394.2950349369318
 30
0.0
 11
1131.234993809845
 21
393.5573146188572
 31
0.0
  0
LINE
  5
31C
330
1F
100
AcDbEntity
  8
0
100
AcDbLine
 10
1127.703255206482
 20
394.546657597718
 30
0.0
 11
1129.53141763132
 21
394.2950349369318
 31
0.0
  0
LINE
  5
31D
330
1F
100
AcDbEntity
  8
0
100
AcDbLine
 10
1127.703255206482
 20
394.546657597718
 30
0.0
 11
993.1472053909514
 21
394.5466603391609
 31
0.0
  0
LINE
  5
31E
330
1F
100
AcDbEntity
  8
0
100
AcDbLine
 10
993.1472053909514
 20
394.5466603391609
 30
0.0
 11
992.6901647049737
 21
394.6095660161829
 31
0.0
  0
LINE
  5
31F
330
1F
100
AcDbEntity
  8
0
100
AcDbLine
 10
992.6901647049737
 20
394.6095660161829
 30
0.0
 11
992.2642705864502
 21
394.7939961293163
 31
0.0
  0
LINE
  5
320
330
1F
100
AcDbEntity
  8
0
100
AcDbLine
 10
992.2642705864502
 20
394.7939961293163
 30
0.0
 11
991.8985470157345
 21
395.0873820711363
 31
0.0
  0
LINE
  5
321
330
1F
100
AcDbEntity
  8
0
100
AcDbLine
 10
991.8985470157345
 20
395.0873820711363
 30
0.0
 11
977.5231239959113
 21
408.7750513986062
 31
0.0
  0
LINE
  5
322
330
1F
100
AcDbEntity
  8
0
100
AcDbLine
 10
977.5231239959113
 20
408.7750513986062
 30
0.0
 11
977.1574004237715
 21
409.0684373396405
 31
0.0
  0
LINE
  5
323
330
1F
100
AcDbEntity
  8
0
100
AcDbLine
 10
977.1574004237715
 20
409.0684373396405
 30
0.0
 11
976.7315063037138
 21
409.2528674519765
 31
0.0
  0
LINE
  5
324
330
1F
100
AcDbEntity
  8
0
100
AcDbLine
 10
976.7315063037138
 20
409.2528674519765
 30
0.0
 11
976.2744656161975
 21
409.3157731282445
 31
0.0
  0
LINE
  5
325
330
1F
100
AcDbEntity
  8
0
100
AcDbLine
 10
976.2744656161975
 20
409.3157731282445
 30
0.0
 11
714.0536594854129
 21
409.3158029693909
 31
0.0
  0
LINE
  5
326
330
1F
100
AcDbEntity
  8
0
100
AcDbLine
 10
714.0536594854129
 20
409.3158029693909
 30
0.0
 11
713.5966187990931
 21
409.2528972918007
 31
0.0
  0
LINE
  5
327
330
1F
100
AcDbEntity
  8
0
100
AcDbLine
 10
713.5966187990931
 20
409.2528972918007
 30
0.0
 11
713.1707246803246
 21
409.0684671784151
 31
0.0
  0
LINE
  5
328
330
1F
100
AcDbEntity
  8
0
100
AcDbLine
 10
713.1707246803246
 20
409.0684671784151
 30
0.0
 11
712.8050011094779
 21
408.7750812366763
 31
0.0
  0
LINE
  5
329
330
1F
100
AcDbEntity
  8
0
100
AcDbLine
 10
712.8050011094779
 20
408.7750812366763
 30
0.0
 11
698.4295907203633
 21
395.0873805578254
 31
0.0
  0
LINE
  5
32A
330
1F
100
AcDbEntity
  8
0
100
AcDbLine
 10
698.4295907203633
 20
395.0873805578254
 30
0.0
 11
698.0638671497974
 21
394.7939946172812
 31
0.0
  0
LINE
  5
32B
330
1F
100
AcDbEntity
  8
0
100
AcDbLine
 10
698.0638671497974
 20
394.7939946172812
 30
0.0
 11
697.6379730317341
 21
394.6095645053396
 31
0.0
  0
LINE
  5
32C
330
1F
100
AcDbEntity
  8
0
100
AcDbLine
 10
560.7968200966011
 20
394.2950359490148
 30
0.0
 11
562.6249828398436
 21
394.5466586585688
 31
0.0
  0
LINE
  5
32D
330
1F
100
AcDbEntity
  8
0
100
AcDbLine
 10
559.0932436241718
 20
393.5573154967871
 30
0.0
 11
560.7968200966011
 21
394.2950359490148
 31
0.0
  0
LINE
  5
32E
330
1F
100
AcDbEntity
  8
0
100
AcDbLine
 10
557.6303493438455
 20
392.3837717315627
 30
0.0
 11
559.0932436241718
 21
393.5573154967871
 31
0.0
  0
LINE
  5
32F
330
1F
100
AcDbEntity
  8
0
100
AcDbLine
 10
559.0932436241718
 20
393.5573154967871
 30
0.0
 11
555.2668886962159
 21
390.8638647991362
 31
0.0
  0
LINE
  5
330
330
1F
100
AcDbEntity
  8
0
100
AcDbLine
 10
556.5078310832691
 20
390.8543797215614
 30
0.0
 11
557.6303493438455
 21
392.3837717315627
 31
0.0
  0
LINE
  5
331
330
1F
100
AcDbEntity
  8
0
100
AcDbLine
 10
555.8021866068461
 20
389.0733650048128
 30
0.0
 11
556.5078310832691
 21
390.8543797215614
 31
0.0
  0
LINE
  5
332
330
1F
100
AcDbEntity
  8
0
100
AcDbLine
 10
555.5615044195132
 20
387.1621007909839
 30
0.0
 11
555.8021866068461
 21
389.0733650048128
 31
0.0
  0
LINE
  5
333
330
1F
100
AcDbEntity
  8
0
100
AcDbLine
 10
555.5615044195132
 20
387.1621007909839
 30
0.0
 11
551.7593202150674
 21
384.5124180381511
 31
0.0
  0
LINE
  5
334
330
1F
100
AcDbEntity
  8
0
100
AcDbLine
 10
555.5615044195132
 20
387.1621007909839
 30
0.0
 11
555.5615047651288
 21
335.470213511536
 31
0.0
  0
LINE
  5
335
330
1F
100
AcDbEntity
  8
0
100
AcDbLine
 10
555.5615047651288
 20
335.470213511536
 30
0.0
 11
551.7593199699542
 21
333.1743020309997
 31
0.0
  0
LINE
  5
336
330
1F
100
AcDbEntity
  8
0
100
AcDbLine
 10
555.8021869647306
 20
333.5589492992855
 30
0.0
 11
555.5615047651288
 21
335.470213511536
 31
0.0
  0
LINE
  5
337
330
1F
100
AcDbEntity
  8
0
100
AcDbLine
 10
556.5078314525188
 20
331.7779345848225
 30
0.0
 11
555.8021869647306
 21
333.5589492992855
 31
0.0
  0
LINE
  5
338
330
1F
100
AcDbEntity
  8
0
100
AcDbLine
 10
557.6303497228013
 20
330.2485425776842
 30
0.0
 11
556.5078314525188
 21
331.7779345848225
 31
0.0
  0
LINE
  5
339
330
1F
100
AcDbEntity
  8
0
100
AcDbLine
 10
559.0932440105173
 20
329.0749988157376
 30
0.0
 11
557.6303497228013
 21
330.2485425776842
 31
0.0
  0
LINE
  5
33A
330
1F
100
AcDbEntity
  8
0
100
AcDbLine
 10
560.7968204875049
 20
328.3372783670093
 30
0.0
 11
559.0932440105173
 21
329.0749988157376
 31
0.0
  0
LINE
  5
33B
330
1F
100
AcDbEntity
  8
0
100
AcDbLine
 10
562.6249832321388
 20
328.0856556609585
 30
0.0
 11
560.7968204875049
 21
328.3372783670093
 31
0.0
  0
LINE
  5
33C
330
1F
100
AcDbEntity
  8
0
100
AcDbLine
 10
562.6249832321388
 20
328.0856556609585
 30
0.0
 11
558.7744569830334
 21
325.8402830560914
 31
0.0
  0
LINE
  5
33D
330
1F
100
AcDbEntity
  8
0
100
AcDbLine
 10
562.6249832321388
 20
328.0856556609585
 30
0.0
 11
697.180942130236
 21
328.085630362309
 31
0.0
  0
LINE
  5
33E
330
1F
100
AcDbEntity
  8
0
100
AcDbLine
 10
697.180942130236
 20
328.085630362309
 30
0.0
 11
697.6379828165321
 21
328.1485360397691
 31
0.0
  0
LINE
  5
33F
330
1F
100
AcDbEntity
  8
0
100
AcDbLine
 10
697.6379828165321
 20
328.1485360397691
 30
0.0
 11
698.0638769352972
 21
328.3329661530461
 31
0.0
  0
LINE
  5
340
330
1F
100
AcDbEntity
  8
0
100
AcDbLine
 10
698.0638769352972
 20
328.3329661530461
 30
0.0
 11
698.4296005061602
 21
328.6263520947061
 31
0.0
  0
LINE
  5
341
330
1F
100
AcDbEntity
  8
0
100
AcDbLine
 10
712.8050129026025
 20
342.3140486426857
 30
0.0
 11
713.1707364726449
 21
342.6074345839657
 31
0.0
  0
LINE
  5
342
330
1F
100
AcDbEntity
  8
0
100
AcDbLine
 10
713.1707364726449
 20
342.6074345839657
 30
0.0
 11
713.5966305903846
 21
342.7918646967596
 31
0.0
  0
LINE
  5
343
330
1F
100
AcDbEntity
  8
0
100
AcDbLine
 10
985.1101330479543
 20
326.3773037400033
 30
0.0
 11
991.8985743245001
 21
328.6264476136825
 31
0.0
  0
LINE
  5
344
330
1F
100
AcDbEntity
  8
0
100
AcDbLine
 10
985.1101330479543
 20
326.3773037400033
 30
0.0
 11
985.4733536594986
 21
326.085925690667
 31
0.0
  0
LINE
  5
345
330
1F
100
AcDbEntity
  8
0
100
AcDbLine
 10
985.4733536594986
 20
326.085925690667
 30
0.0
 11
985.8963330203363
 21
325.9027577917622
 31
0.0
  0
LINE
  5
346
330
1F
100
AcDbEntity
  8
0
100
AcDbLine
 10
-619.6808138970748
 20
244.3431393054769
 30
0.0
 11
-620.1953470432115
 21
244.5789695142209
 31
0.0
  0
LINE
  5
347
330
1F
100
AcDbEntity
  8
0
100
AcDbLine
 10
-600.2740523799204
 20
225.8987060877196
 30
0.0
 11
-600.7991085597317
 21
226.1445375220485
 31
0.0
  0
LINE
  5
348
330
1F
100
AcDbEntity
  8
0
100
AcDbLine
 10
129.2746608702739
 20
241.4509549152419
 30
0.0
 11
129.2746564535382
 21
260.187088630014
 31
0.0
  0
LINE
  5
349
330
1F
100
AcDbEntity
  8
0
100
AcDbLine
 10
129.2746564535382
 20
260.187088630014
 30
0.0
 11
129.2746560875035
 21
261.7398361395955
 31
0.0
  0
LINE
  5
34A
330
1F
100
AcDbEntity
  8
0
100
AcDbLine
 10
-620.1953470432115
 20
244.5789695142209
 30
0.0
 11
-620.5318212796765
 21
244.7116605307307
 31
0.0
  0
LINE
  5
34B
330
1F
100
AcDbEntity
  8
0
100
AcDbLine
 10
-600.2740636888457
 20
266.4764693226862
 30
0.0
 11
-600.8087150714626
 21
266.7079953791809
 31
0.0
  0
LINE
  5
34C
330
1F
100
AcDbEntity
  8
0
100
AcDbLine
 10
-600.8087150714626
 20
266.7079953791809
 30
0.0
 11
-601.125071071228
 21
266.8449905492217
 31
0.0
  0
LINE
  5
34D
330
1F
100
AcDbEntity
  8
0
100
AcDbLine
 10
-600.7991085597317
 20
226.1445375220485
 30
0.0
 11
-601.1250597602691
 21
226.2672273115448
 31
0.0
  0
LINE
  5
34E
330
1F
100
AcDbEntity
  8
0
100
AcDbLine
 10
155.6284509118016
 20
213.2740147421737
 30
0.0
 11
155.4357275745687
 21
213.0849698264887
 31
0.0
  0
LINE
  5
34F
330
1F
100
AcDbEntity
  8
0
100
AcDbLine
 10
155.4357275745687
 20
213.0849698264887
 30
0.0
 11
154.5136153603755
 21
211.8208634028364
 31
0.0
  0
LINE
  5
350
330
1F
100
AcDbEntity
  8
0
100
AcDbLine
 10
-1128.635970466211
 20
393.8579416516816
 30
0.0
 11
-1401.273281546172
 21
393.8579442533396
 31
0.0
  0
LINE
  5
351
330
1F
100
AcDbEntity
  8
0
100
AcDbLine
 10
-1401.273281546172
 20
393.8579442533396
 30
0.0
 11
-1407.38755831295
 21
393.8579443116855
 31
0.0
  0
LINE
  5
352
330
1F
100
AcDbEntity
  8
0
100
AcDbLine
 10
-1421.501558783098
 20
342.2135234394122
 30
0.0
 11
-1419.559676032668
 21
340.1833735975497
 31
0.0
  0
LINE
  5
353
330
1F
100
AcDbEntity
  8
0
100
AcDbLine
 10
-1419.559676032668
 20
340.1833735975497
 30
0.0
 11
-1407.387552679758
 21
327.45797383046
 31
0.0
  0
LINE
  5
354
330
1F
100
AcDbEntity
  8
0
100
AcDbLine
 10
527.3408547671636
 20
211.5576695110604
 30
0.0
 11
539.6569753849558
 21
224.4336163847737
 31
0.0
  0
LINE
  5
355
330
1F
100
AcDbEntity
  8
0
100
AcDbLine
 10
539.6569753849558
 20
224.4336163847737
 30
0.0
 11
540.42138505335
 21
225.2327721080279
 31
0.0
  0
LINE
  5
356
330
1F
100
AcDbEntity
  8
0
100
AcDbLine
 10
540.42138505335
 20
225.2327721080279
 30
0.0
 11
540.4739261378527
 21
225.27492086328
 31
0.0
  0
LINE
  5
357
330
1F
100
AcDbEntity
  8
0
100
AcDbLine
 10
540.4739261378527
 20
225.27492086328
 30
0.0
 11
540.7867733005577
 21
225.5258886272118
 31
0.0
  0
LINE
  5
358
330
1F
100
AcDbEntity
  8
0
100
AcDbLine
 10
1034.928266874318
 20
211.017444309642
 30
0.0
 11
1034.92826699469
 21
239.1016331152584
 31
0.0
  0
LINE
  5
359
330
1F
100
AcDbEntity
  8
0
100
AcDbLine
 10
1034.92826699469
 20
239.1016331152584
 30
0.0
 11
1034.928267000806
 21
240.5285501741003
 31
0.0
  0
LINE
  5
35A
330
1F
100
AcDbEntity
  8
0
100
AcDbLine
 10
436.8473413955016
 20
211.0174443096423
 30
0.0
 11
436.8473413252811
 21
239.1016331552484
 31
0.0
  0
LINE
  5
35B
330
1F
100
AcDbEntity
  8
0
100
AcDbLine
 10
436.8473413252811
 20
239.1016331552484
 30
0.0
 11
436.8473413217134
 21
240.5285502475892
 31
0.0
  0
LINE
  5
35C
330
1F
100
AcDbEntity
  8
0
100
AcDbLine
 10
-1128.635970466211
 20
277.4174015128745
 30
0.0
 11
-1400.612540656419
 21
277.4174032418969
 31
0.0
  0
LINE
  5
35D
330
1F
100
AcDbEntity
  8
0
100
AcDbLine
 10
-1400.612540656419
 20
277.4174032418969
 30
0.0
 11
-1407.38755831295
 21
277.4174032849673
 31
0.0
  0
LINE
  5
35E
330
1F
100
AcDbEntity
  8
0
100
AcDbLine
 10
-1515.006839965729
 20
225.7729831657417
 30
0.0
 11
-1507.834832320423
 21
224.6835056769892
 31
0.0
  0
LINE
  5
35F
330
1F
100
AcDbEntity
  8
0
100
AcDbLine
 10
-1421.501558783098
 20
225.7729826976241
 30
0.0
 11
-1420.220416899781
 21
224.4336073102545
 31
0.0
  0
LINE
  5
360
330
1F
100
AcDbEntity
  8
0
100
AcDbLine
 10
-1420.220416899781
 20
224.4336073102545
 30
0.0
 11
-1407.387552679758
 21
211.0174332630391
 31
0.0
  0
LINE
  5
361
330
1F
100
AcDbEntity
  8
0
100
AcDbLine
 10
-601.125072685227
 20
383.2855117043896
 30
0.0
 11
-601.5295018932187
 21
383.6635959023949
 31
0.0
  0
LINE
  5
362
330
1F
100
AcDbEntity
  8
0
100
AcDbLine
 10
129.2746372213447
 20
357.8914743292603
 30
0.0
 11
129.2746329674478
 21
375.9368332364562
 31
0.0
  0
LINE
  5
363
330
1F
100
AcDbEntity
  8
0
100
AcDbLine
 10
129.2746329674478
 20
375.9368332364562
 30
0.0
 11
129.2746324385743
 21
378.18035508066
 31
0.0
  0
LINE
  5
364
330
1F
100
AcDbEntity
  8
0
100
AcDbLine
 10
-619.6808149512782
 20
360.7836610445535
 30
0.0
 11
-620.331119764167
 21
361.0652697999507
 31
0.0
  0
LINE
  5
365
330
1F
100
AcDbEntity
  8
0
100
AcDbLine
 10
-620.331119764167
 20
361.0652697999507
 30
0.0
 11
-620.5318223082065
 21
361.1521822639395
 31
0.0
  0
LINE
  5
366
330
1F
100
AcDbEntity
  8
0
100
AcDbLine
 10
-601.5295018932187
 20
383.6635959023949
 30
0.0
 11
-601.8558493447822
 21
383.8717444530969
 31
0.0
  0
LINE
  5
367
330
1F
100
AcDbEntity
  8
0
100
AcDbLine
 10
-600.2740540195931
 20
342.3392281946632
 30
0.0
 11
-600.9201341644423
 21
342.6190074945363
 31
0.0
  0
LINE
  5
368
330
1F
100
AcDbEntity
  8
0
100
AcDbLine
 10
-600.9201341644423
 20
342.6190074945363
 30
0.0
 11
-601.1250613742684
 21
342.7077494126207
 31
0.0
  0
LINE
  5
369
330
1F
100
AcDbEntity
  8
0
100
AcDbLine
 10
697.6379730317341
 20
394.6095645053396
 30
0.0
 11
698.4295907203633
 21
395.0873805578254
 31
0.0
  0
LINE
  5
36A
330
1F
100
AcDbEntity
  8
0
100
AcDbLine
 10
693.2864176089162
 20
326.0859253563349
 30
0.0
 11
697.6379828165321
 21
328.1485360397691
 31
0.0
  0
LINE
  5
36B
330
1F
100
AcDbEntity
  8
0
100
AcDbLine
 10
697.1809323464962
 20
394.5466588293443
 30
0.0
 11
695.9215306517231
 21
394.5466588277459
 31
0.0
  0
LINE
  5
36C
330
1F
100
AcDbEntity
  8
0
100
AcDbLine
 10
695.9215306517231
 20
394.5466588277459
 30
0.0
 11
562.6249828398436
 21
394.5466586585688
 31
0.0
  0
LINE
  5
36D
330
1F
100
AcDbEntity
  8
0
100
AcDbLine
 10
712.6803854085632
 20
342.1953832943186
 30
0.0
 11
712.8050129026025
 21
342.3140486426857
 31
0.0
  0
LINE
  5
36E
330
1F
100
AcDbEntity
  8
0
100
AcDbLine
 10
698.4296005061602
 20
328.6263520947061
 30
0.0
 11
710.9085585944097
 21
340.5083201966568
 31
0.0
  0
LINE
  5
36F
330
1F
100
AcDbEntity
  8
0
100
AcDbLine
 10
710.9085585944097
 20
340.5083201966568
 30
0.0
 11
712.6803854085632
 21
342.1953832943186
 31
0.0
  0
LINE
  5
370
330
1F
100
AcDbEntity
  8
0
100
AcDbLine
 10
-619.6808138970748
 20
244.3431393054769
 30
0.0
 11
-618.7675705607221
 21
244.217443725793
 31
0.0
  0
LINE
  5
371
330
1F
100
AcDbEntity
  8
0
100
AcDbLine
 10
-600.2740523799204
 20
225.8987060877196
 30
0.0
 11
-599.3608090456773
 21
225.7730105088384
 31
0.0
  0
LINE
  5
372
330
1F
100
AcDbEntity
  8
0
100
AcDbLine
 10
-601.125072685227
 20
383.2855117043896
 30
0.0
 11
-600.2740653285181
 21
382.9169904837219
 31
0.0
  0
LINE
  5
373
330
1F
100
AcDbEntity
  8
0
100
AcDbLine
 10
697.6379730317341
 20
394.6095645053396
 30
0.0
 11
697.1809323464962
 21
394.5466588293443
 31
0.0
  0
ENDSEC
  0
SECTION
  2
OBJECTS
  0
DICTIONARY
  5
C
330
0
100
AcDbDictionary
  3
ACAD_GROUP
350
D
  3
ACAD_LAYOUT
350
1A
  3
ACAD_MATERIAL
350
43
  3
ACAD_MLEADERSTYLE
350
6B
  3
ACAD_MLINESTYLE
350
17
  3
ACAD_PLOTSETTINGS
350
19
  3
ACAD_SCALELIST
350
47
  3
ACAD_VISUALSTYLE
350
2A
  3
ACDBHEADERROUNDTRIPXREC
350
374
  3
ACDBVARIABLEDICTIONARY
350
395
  0
DICTIONARY
  5
39C
330
8
100
AcDbDictionary
280
     1
  3
ACAD_XREC_ROUNDTRIP
360
39D
  0
DICTIONARY
  5
D
102
{ACAD_REACTORS
330
C
102
}
330
C
100
AcDbDictionary
  0
DICTIONARY
  5
1A
102
{ACAD_REACTORS
330
C
102
}
330
C
100
AcDbDictionary
  0
DICTIONARY
  5
43
102
{ACAD_REACTORS
330
C
102
}
330
C
100
AcDbDictionary
  3
BYBLOCK
350
45
  3
BYLAYER
350
44
  3
GLOBAL
350
46
  0
DICTIONARY
  5
6B
102
{ACAD_REACTORS
330
C
102
}
330
C
100
AcDbDictionary
  3
STANDARD
350
6C
  0
DICTIONARY
  5
17
102
{ACAD_REACTORS
330
C
102
}
330
C
100
AcDbDictionary
  3
STANDARD
350
18
  0
DICTIONARY
  5
19
102
{ACAD_REACTORS
330
C
102
}
330
C
100
AcDbDictionary
  0
DICTIONARY
  5
47
102
{ACAD_REACTORS
330
C
102
}
330
C
100
AcDbDictionary
  3
A0
350
48
  3
A1
350
49
  3
A2
350
4A
  3
A3
350
4B
  3
A4
350
4C
  3
A5
350
4D
  3
A6
350
4E
  3
A7
350
4F
  3
A8
350
50
  3
A9
350
51
  3
B0
350
52
  3
B1
350
53
  3
B2
350
54
  3
B3
350
55
  3
B4
350
56
  3
B5
350
57
  3
B6
350
58
  3
B7
350
59
  3
B8
350
5A
  3
B9
350
5B
  3
C0
350
5C
  3
C1
350
5D
  3
C2
350
5E
  3
C3
350
5F
  3
C4
350
60
  3
C5
350
61
  3
C6
350
62
  3
C7
350
63
  3
C8
350
64
  3
C9
350
65
  3
D0
350
66
  3
D1
350
67
  3
D2
350
68
  0
DICTIONARY
  5
2A
102
{ACAD_REACTORS
330
C
102
}
330
C
100
AcDbDictionary
  3
2DWIREFRAME
350
2F
  3
BASIC
350
32
  3
BRIGHTEN
350
36
  3
COLORCHANGE
350
3A
  3
CONCEPTUAL
350
34
  3
DIM
350
35
  3
EDGECOLOROFF
350
3D
  3
FACEPATTERN
350
39
  3
FLAT
350
2B
  3
FLATWITHEDGES
350
2C
  3
GOURAUD
350
2D
  3
GOURAUDWITHEDGES
350
2E
  3
HIDDEN
350
31
  3
JITTEROFF
350
3B
  3
LINEPATTERN
350
38
  3
OVERHANGOFF
350
3C
  3
REALISTIC
350
33
  3
SHADED
350
42
  3
SHADED_WITH_EDGES
350
41
  3
SHADES_OF_GRAY
350
3E
  3
SKETCHY
350
3F
  3
THICKEN
350
37
  3
WIREFRAME
350
30
  3
X-RAY
350
40
  0
DICTIONARY
  5
374
102
{ACAD_REACTORS
330
C
102
}
330
C
100
AcDbDictionary
  3
CEPSNID
350
37E
  3
CEPSNTYPE
350
37D
  3
DIMSTYLEDATA
350
394
  3
FINGERPRINTGUID
350
37F
  3
HYPERLINKBASE
350
377
  3
INSUNITS
350
37C
  3
LAYOUTDICT
350
379
  3
LWETCUNION
350
37B
  3
PLOTSETDICT
350
37A
  3
PSVPSCALE
350
381
  3
PUCSBASE
350
384
  3
PUCSORGBACK
350
38A
  3
PUCSORGBOTTOM
350
386
  3
PUCSORGFRONT
350
389
  3
PUCSORGLEFT
350
387
  3
PUCSORGRIGHT
350
388
  3
PUCSORGTOP
350
385
  3
PUCSORTHOREF
350
382
  3
PUCSORTHOVIEW
350
383
  3
STYLESHEET
350
378
  3
TSTACKALIGN
350
375
  3
TSTACKSIZE
350
376
  3
UCSBASE
350
38D
  3
UCSORGBACK
350
393
  3
UCSORGBOTTOM
350
38F
  3
UCSORGFRONT
350
392
  3
UCSORGLEFT
350
390
  3
UCSORGRIGHT
350
391
  3
UCSORGTOP
350
38E
  3
UCSORTHOREF
350
38B
  3
UCSORTHOVIEW
350
38C
  3
VERSIONGUID
350
380
  0
DICTIONARY
  5
395
102
{ACAD_REACTORS
330
C
102
}
330
C
100
AcDbDictionary
  3
CANNOSCALE
350
39E
  3
CMLEADERSTYLE
350
397
  3
CTABLESTYLE
350
396
  3
DIMASSOC
350
39A
  3
HIDETEXT
350
39B
  3
MSLTSCALE
350
39F
  0
XRECORD
  5
39D
102
{ACAD_REACTORS
330
39C
102
}
330
39C
100
AcDbXrecord
102
VTR_0.000_0.000_1.000_1.000_VISUALSTYLE
340
2F
102
VTR_0.000_0.000_1.000_1.000_GRIDDISPLAY
 70
     3
102
VTR_0.000_0.000_1.000_1.000_GRIDMAJOR
 70
     5
102
VTR_0.000_0.000_1.000_1.000_DEFAULTLIGHTING
280
     1
102
VTR_0.000_0.000_1.000_1.000_DEFAULTLIGHTINGTYPE
 70
     1
102
VTR_0.000_0.000_1.000_1.000_BRIGHTNESS
141
0.0
102
VTR_0.000_0.000_1.000_1.000_CONTRAST
142
0.0
  0
MATERIAL
  5
45
102
{ACAD_REACTORS
330
43
102
}
102
{ACAD_XDICTIONARY
360
3A2
102
}
330
43
100
AcDbMaterial
  1
BYBLOCK
  0
MATERIAL
  5
44
102
{ACAD_REACTORS
330
43
102
}
102
{ACAD_XDICTIONARY
360
3A0
102
}
330
43
100
AcDbMaterial
  1
BYLAYER
  0
MATERIAL
  5
46
102
{ACAD_REACTORS
330
43
102
}
102
{ACAD_XDICTIONARY
360
3A4
102
}
330
43
100
AcDbMaterial
  1
GLOBAL
  0
ACAD_PROXY_OBJECT
  5
6C
102
{ACAD_REACTORS
330
6B
102
}
330
6B
100
AcDbProxyObject
 90
      499
 91
      505
 93
      610
310
40901902A4063FBFFFFFE056BD1B81E855B9FC0AD7A3703D0AD73F4214DD185B99185C9900AD7A3703D0AC73F90141901A02B5E8DC0F42B1CFC02B5E8DC0F42B1CFE5764000000000000300FC0
340
14
340
0
340
11
340
0
 94
        0
1001
ACAD_MLEADERVER
1070
     2
  0
MLINESTYLE
  5
18
102
{ACAD_REACTORS
330
17
102
}
330
17
100
AcDbMlineStyle
  2
Standard
 70
     0
  3

 62
   256
 51
90.0
 52
90.0
 71
     2
 49
0.5
 62
   256
  6
BYLAYER
 49
-0.5
 62
   256
  6
BYLAYER
  0
ACAD_PROXY_OBJECT
  5
48
102
{ACAD_REACTORS
330
47
102
}
330
47
100
AcDbProxyObject
 90
      499
 91
      503
 93
       41
310
903313A31580
  0
ACAD_PROXY_OBJECT
  5
49
102
{ACAD_REACTORS
330
47
102
}
330
47
100
AcDbProxyObject
 90
      499
 91
      503
 93
      105
310
903313A324000000000000004000
  0
ACAD_PROXY_OBJECT
  5
4A
102
{ACAD_REACTORS
330
47
102
}
330
47
100
AcDbProxyObject
 90
      499
 91
      503
 93
      105
310
903313A344000000000000104000
  0
ACAD_PROXY_OBJECT
  5
4B
102
{ACAD_REACTORS
330
47
102
}
330
47
100
AcDbProxyObject
 90
      499
 91
      503
 93
      105
310
903313A354000000000000144000
  0
ACAD_PROXY_OBJECT
  5
4C
102
{ACAD_REACTORS
330
47
102
}
330
47
100
AcDbProxyObject
 90
      499
 91
      503
 93
      105
310
903313A384000000000000204000
  0
ACAD_PROXY_OBJECT
  5
4D
102
{ACAD_REACTORS
330
47
102
}
330
47
100
AcDbProxyObject
 90
      499
 91
      503
 93
      113
310
904313A31304000000000000244000
  0
ACAD_PROXY_OBJECT
  5
4E
102
{ACAD_REACTORS
330
47
102
}
330
47
100
AcDbProxyObject
 90
      499
 91
      503
 93
      113
310
904313A31364000000000000304000
  0
ACAD_PROXY_OBJECT
  5
4F
102
{ACAD_REACTORS
330
47
102
}
330
47
100
AcDbProxyObject
 90
      499
 91
      503
 93
      113
310
904313A32304000000000000344000
  0
ACAD_PROXY_OBJECT
  5
50
102
{ACAD_REACTORS
330
47
102
}
330
47
100
AcDbProxyObject
 90
      499
 91
      503
 93
      113
310
904313A333040000000000003E4000
  0
ACAD_PROXY_OBJECT
  5
51
102
{ACAD_REACTORS
330
47
102
}
330
47
100
AcDbProxyObject
 90
      499
 91
      503
 93
      113
310
904313A34304000000000000444000
  0
ACAD_PROXY_OBJECT
  5
52
102
{ACAD_REACTORS
330
47
102
}
330
47
100
AcDbProxyObject
 90
      499
 91
      503
 93
      113
310
904313A35304000000000000494000
  0
ACAD_PROXY_OBJECT
  5
53
102
{ACAD_REACTORS
330
47
102
}
330
47
100
AcDbProxyObject
 90
      499
 91
      503
 93
      121
310
905313A3130304000000000000594000
  0
ACAD_PROXY_OBJECT
  5
54
102
{ACAD_REACTORS
330
47
102
}
330
47
100
AcDbProxyObject
 90
      499
 91
      503
 93
      105
310
903323A310000000000000010100
  0
ACAD_PROXY_OBJECT
  5
55
102
{ACAD_REACTORS
330
47
102
}
330
47
100
AcDbProxyObject
 90
      499
 91
      503
 93
      105
310
903343A310000000000000410100
  0
ACAD_PROXY_OBJECT
  5
56
102
{ACAD_REACTORS
330
47
102
}
330
47
100
AcDbProxyObject
 90
      499
 91
      503
 93
      105
310
903383A310000000000000810100
  0
ACAD_PROXY_OBJECT
  5
57
102
{ACAD_REACTORS
330
47
102
}
330
47
100
AcDbProxyObject
 90
      499
 91
      503
 93
      113
310
90431303A310000000000000910100
  0
ACAD_PROXY_OBJECT
  5
58
102
{ACAD_REACTORS
330
47
102
}
330
47
100
AcDbProxyObject
 90
      499
 91
      503
 93
      121
310
9053130303A310000000000001650100
  0
ACAD_PROXY_OBJECT
  5
59
102
{ACAD_REACTORS
330
47
102
}
330
47
100
AcDbProxyObject
 90
      499
 91
      503
 93
      257
310
90E312F31323822203D2031272D3022000000000000200FC000000000000284000
  0
ACAD_PROXY_OBJECT
  5
5A
102
{ACAD_REACTORS
330
47
102
}
330
47
100
AcDbProxyObject
 90
      499
 91
      503
 93
      249
310
90D312F363422203D2031272D3022000000000000240FC000000000000284000
  0
ACAD_PROXY_OBJECT
  5
5B
102
{ACAD_REACTORS
330
47
102
}
330
47
100
AcDbProxyObject
 90
      499
 91
      503
 93
      249
310
90D312F333222203D2031272D3022000000000000280FC000000000000284000
  0
ACAD_PROXY_OBJECT
  5
5C
102
{ACAD_REACTORS
330
47
102
}
330
47
100
AcDbProxyObject
 90
      499
 91
      503
 93
      249
310
90D312F313622203D2031272D30220000000000002C0FC000000000000284000
  0
ACAD_PROXY_OBJECT
  5
5D
102
{ACAD_REACTORS
330
47
102
}
330
47
100
AcDbProxyObject
 90
      499
 91
      503
 93
      249
310
90D332F333222203D2031272D30220000000000002E0FC000000000000284000
  0
ACAD_PROXY_OBJECT
  5
5E
102
{ACAD_REACTORS
330
47
102
}
330
47
100
AcDbProxyObject
 90
      499
 91
      503
 93
      241
310
90C312F3822203D2031272D3022000000000000300FC000000000000284000
  0
ACAD_PROXY_OBJECT
  5
5F
102
{ACAD_REACTORS
330
47
102
}
330
47
100
AcDbProxyObject
 90
      499
 91
      503
 93
      249
310
90D332F313622203D2031272D3022000000000000320FC000000000000284000
  0
ACAD_PROXY_OBJECT
  5
60
102
{ACAD_REACTORS
330
47
102
}
330
47
100
AcDbProxyObject
 90
      499
 91
      503
 93
      241
310
90C312F3422203D2031272D3022000000000000340FC000000000000284000
  0
ACAD_PROXY_OBJECT
  5
61
102
{ACAD_REACTORS
330
47
102
}
330
47
100
AcDbProxyObject
 90
      499
 91
      503
 93
      241
310
90C332F3822203D2031272D3022000000000000360FC000000000000284000
  0
ACAD_PROXY_OBJECT
  5
62
102
{ACAD_REACTORS
330
47
102
}
330
47
100
AcDbProxyObject
 90
      499
 91
      503
 93
      241
310
90C312F3222203D2031272D3022000000000000380FC000000000000284000
  0
ACAD_PROXY_OBJECT
  5
63
102
{ACAD_REACTORS
330
47
102
}
330
47
100
AcDbProxyObject
 90
      499
 91
      503
 93
      241
310
90C332F3422203D2031272D30220000000000003A0FC000000000000284000
  0
ACAD_PROXY_OBJECT
  5
64
102
{ACAD_REACTORS
330
47
102
}
330
47
100
AcDbProxyObject
 90
      499
 91
      503
 93
      161
310
90A3122203D2031272D30224000000000000284000
  0
ACAD_PROXY_OBJECT
  5
65
102
{ACAD_REACTORS
330
47
102
}
330
47
100
AcDbProxyObject
 90
      499
 91
      503
 93
      257
310
90E312D312F3222203D2031272D30220000000000003E0FC000000000000284000
  0
ACAD_PROXY_OBJECT
  5
66
102
{ACAD_REACTORS
330
47
102
}
330
47
100
AcDbProxyObject
 90
      499
 91
      503
 93
      225
310
90A3322203D2031272D302200000000000002100000000000000284000
  0
ACAD_PROXY_OBJECT
  5
67
102
{ACAD_REACTORS
330
47
102
}
330
47
100
AcDbProxyObject
 90
      499
 91
      503
 93
      225
310
90A3622203D2031272D302200000000000006100000000000000284000
  0
ACAD_PROXY_OBJECT
  5
68
102
{ACAD_REACTORS
330
47
102
}
330
47
100
AcDbProxyObject
 90
      499
 91
      503
 93
      249
310
90D31272D3022203D2031272D30220000000000000A100000000000000284000
  0
ACAD_PROXY_OBJECT
  5
2F
102
{ACAD_REACTORS
330
2A
102
}
330
2A
100
AcDbProxyObject
 90
      499
 91
      501
 93
      436
310
42CC9915DA5C99599C985B595049028333333333333E33F0000000000000F90107901411070040501600405405064090741402480A0340
1001
ACAD
1000
AcDbSavedByObjectVersion
1070
     0
  0
ACAD_PROXY_OBJECT
  5
32
102
{ACAD_REACTORS
330
2A
102
}
330
2A
100
AcDbProxyObject
 90
      499
 91
      501
 93
      388
310
4150985CDA58D07406404333333333333E33F0000000000000F90107A41107004050150841D405064090741402480A0350
1001
ACAD
1000
AcDbSavedByObjectVersion
1070
     0
  0
ACAD_PROXY_OBJECT
  5
36
102
{ACAD_REACTORS
330
2A
102
}
330
2A
100
AcDbProxyObject
 90
      499
 91
      501
 93
      428
310
42109C9A59DA1D195B90C409028333333333333E33F0000000000000F9010790141107004050150841D405064090741402480A029950
1001
ACAD
1000
AcDbSavedByObjectVersion
1070
     0
  0
ACAD_PROXY_OBJECT
  5
3A
102
{ACAD_REACTORS
330
2A
102
}
330
2A
100
AcDbProxyObject
 90
      499
 91
      501
 93
      452
310
42D0DBDB1BDC90DA185B99D95104090240C333333333333E33F0000000000000F90108901411070040501508421405064090741402480A0350
1001
ACAD
1000
AcDbSavedByObjectVersion
1070
     0
  0
ACAD_PROXY_OBJECT
  5
34
102
{ACAD_REACTORS
330
2A
102
}
330
2A
100
AcDbProxyObject
 90
      499
 91
      501
 93
      500
310
4290DBDB98D95C1D1D585B10940D028333333333333E33F0000000000000F90107902409070040501000000000018199010841D405064090740C02480A0340
1001
ACAD
1000
AcDbSavedByObjectVersion
1070
     0
  0
ACAD_PROXY_OBJECT
  5
35
102
{ACAD_REACTORS
330
2A
102
}
330
2A
100
AcDbProxyObject
 90
      499
 91
      501
 93
      412
310
40D11A5B50B409028333333333333E33F0000000000000F9010790141107004050150841D405064090741402480A02677FFFFFD0
1001
ACAD
1000
AcDbSavedByObjectVersion
1070
     0
  0
ACAD_PROXY_OBJECT
  5
3D
102
{ACAD_REACTORS
330
2A
102
}
330
2A
100
AcDbProxyObject
 90
      499
 91
      501
 93
      452
310
43115919D950DBDB1BDC93D999916409028333333333333E33F0000000000000F9010790141107004050150841D405064090741402480A0350
1001
ACAD
1000
AcDbSavedByObjectVersion
1070
     0
  0
ACAD_PROXY_OBJECT
  5
39
102
{ACAD_REACTORS
330
2A
102
}
330
2A
100
AcDbProxyObject
 90
      499
 91
      501
 93
      444
310
42D19858D95C185D1D195C9B90F409028333333333333E33F0000000000000F9010790141107004050150841D405064090741402480A0350
1001
ACAD
1000
AcDbSavedByObjectVersion
1070
     0
  0
ACAD_PROXY_OBJECT
  5
2B
102
{ACAD_REACTORS
330
2A
102
}
330
2A
100
AcDbProxyObject
 90
      499
 91
      501
 93
      380
310
41119B185D240901404333333333333E33F0000000000000F9010740A907004050150841D405064090741402480A1B50
1001
ACAD
1000
AcDbSavedByObjectVersion
1070
     0
  0
ACAD_PROXY_OBJECT
  5
2C
102
{ACAD_REACTORS
330
2A
102
}
330
2A
100
AcDbProxyObject
 90
      499
 91
      501
 93
      468
310
43519B185D15DA5D1A115919D95CD0140901404333333333333E33F0000000000000F90107409019070040501600405405064090741402480A1B50
1001
ACAD
1000
AcDbSavedByObjectVersion
1070
     0
  0
ACAD_PROXY_OBJECT
  5
2D
102
{ACAD_REACTORS
330
2A
102
}
330
2A
100
AcDbProxyObject
 90
      499
 91
      501
 93
      404
310
41D1DBDD5C985D5910240902404333333333333E33F0000000000000F9010740A9070040501641D405064090741402480A1B50
1001
ACAD
1000
AcDbSavedByObjectVersion
1070
     0
  0
ACAD_PROXY_OBJECT
  5
2E
102
{ACAD_REACTORS
330
2A
102
}
330
2A
100
AcDbProxyObject
 90
      499
 91
      501
 93
      492
310
4411DBDD5C985D5915DA5D1A115919D95CD0340902404333333333333E33F0000000000000F90107409019070040501600405405064090741402480A1B50
1001
ACAD
1000
AcDbSavedByObjectVersion
1070
     0
  0
ACAD_PROXY_OBJECT
  5
31
102
{ACAD_REACTORS
330
2A
102
}
330
2A
100
AcDbProxyObject
 90
      499
 91
      501
 93
      476
310
41921A5919195B90640502408333333333333E33F0000000000000F901079024090700405020000000000001110200405405064090740C02480A0340
1001
ACAD
1000
AcDbSavedByObjectVersion
1070
     0
  0
ACAD_PROXY_OBJECT
  5
3B
102
{ACAD_REACTORS
330
2A
102
}
330
2A
100
AcDbProxyObject
 90
      499
 91
      501
 93
      428
310
42529A5D1D195C93D999914409028333333333333E33F0000000000000F9010790141107004050150A41D405064090741402480A0350
1001
ACAD
1000
AcDbSavedByObjectVersion
1070
     0
  0
ACAD_PROXY_OBJECT
  5
38
102
{ACAD_REACTORS
330
2A
102
}
330
2A
100
AcDbProxyObject
 90
      499
 91
      501
 93
      444
310
42D31A5B995C185D1D195C9B90E409028333333333333E33F0000000000000F9010790141107004050750841D405064090741402483A0350
1001
ACAD
1000
AcDbSavedByObjectVersion
1070
     0
  0
ACAD_PROXY_OBJECT
  5
3C
102
{ACAD_REACTORS
330
2A
102
}
330
2A
100
AcDbProxyObject
 90
      499
 91
      501
 93
      444
310
42D3DD995C9A185B99D3D999915409028333333333333E33F0000000000000F9010790141107004050150941D405064090741402480A0350
1001
ACAD
1000
AcDbSavedByObjectVersion
1070
     0
  0
ACAD_PROXY_OBJECT
  5
33
102
{ACAD_REACTORS
330
2A
102
}
330
2A
100
AcDbProxyObject
 90
      499
 91
      501
 93
      428
310
425499585B1A5CDD1A58D08409038333333333333E33F0000000000000F9010740A907004050150800405405064090740C02480A1B40
1001
ACAD
1000
AcDbSavedByObjectVersion
1070
     0
  0
ACAD_PROXY_OBJECT
  5
42
102
{ACAD_REACTORS
330
2A
102
}
330
2A
100
AcDbProxyObject
 90
      499
 91
      501
 93
      420
310
4194DA1859195911B40902404333333333333E33F0000000000000F9010740A41107004050150800405405064090840C02480A0B40
1001
ACAD
1000
AcDbSavedByObjectVersion
1070
     0
  0
ACAD_PROXY_OBJECT
  5
41
102
{ACAD_REACTORS
330
2A
102
}
330
2A
100
AcDbProxyObject
 90
      499
 91
      501
 93
      516
310
4454DA18591959081DDA5D1A08195919D95CD1A40902404333333333333E33F0000000000000F901074090142907004050250800405405064090740C02480A0B40
1001
ACAD
1000
AcDbSavedByObjectVersion
1070
     0
  0
ACAD_PROXY_OBJECT
  5
3E
102
{ACAD_REACTORS
330
2A
102
}
330
2A
100
AcDbProxyObject
 90
      499
 91
      501
 93
      532
310
4394DA1859195CC81BD98811DC985E5174090240C333333333333E33F0000000000000F901079024090741D01000000000000111010841D405064090740C02480A0340
1001
ACAD
1000
AcDbSavedByObjectVersion
1070
     0
  0
ACAD_PROXY_OBJECT
  5
3F
102
{ACAD_REACTORS
330
2A
102
}
330
2A
100
AcDbProxyObject
 90
      499
 91
      501
 93
      476
310
41D4DAD95D18DA1E51840502408333333333333E33F0000000000000F901079024090741D01000000000000111010B41D405064090741802480A0340
1001
ACAD
1000
AcDbSavedByObjectVersion
1070
     0
  0
ACAD_PROXY_OBJECT
  5
37
102
{ACAD_REACTORS
330
2A
102
}
330
2A
100
AcDbProxyObject
 90
      499
 91
      501
 93
      412
310
41D51A1A58DAD95B90D409028333333333333E33F0000000000000F9010790141107004050150C41D405064090741402480A0350
1001
ACAD
1000
AcDbSavedByObjectVersion
1070
     0
  0
ACAD_PROXY_OBJECT
  5
30
102
{ACAD_REACTORS
330
2A
102
}
330
2A
100
AcDbProxyObject
 90
      499
 91
      501
 93
      420
310
4255DA5C99599C985B595059028333333333333E33F0000000000000F90107901411070040501600405405064090740C02480A0340
1001
ACAD
1000
AcDbSavedByObjectVersion
1070
     0
  0
ACAD_PROXY_OBJECT
  5
40
102
{ACAD_REACTORS
330
2A
102
}
330
2A
100
AcDbProxyObject
 90
      499
 91
      501
 93
      404
310
41560B54985E51940902404000000000000E03F0000000000000F9010740501907004050150841D405064090740C02480A1B40
1001
ACAD
1000
AcDbSavedByObjectVersion
1070
     0
  0
XRECORD
  5
37E
102
{ACAD_REACTORS
330
374
102
}
330
374
100
AcDbXrecord
340
0
  0
XRECORD
  5
37D
102
{ACAD_REACTORS
330
374
102
}
330
374
100
AcDbXrecord
 90
        0
  0
XRECORD
  5
394
102
{ACAD_REACTORS
330
374
102
}
330
374
100
AcDbXrecord
1000
DSTYLE
1002
{
1070
   171
 70
     2
1070
   143
 40
25.4
1070
   274
 70
     2
1070
    41
 40
0.18
1070
   141
 40
0.09
1070
   271
 70
     4
1070
    43
 40
0.38
1070
   278
 70
    46
1070
    44
 40
0.18
1070
    42
 40
0.0625
1070
   147
 40
0.09
1070
    77
 70
     0
1070
   272
 70
     4
1070
    73
 70
     1
1070
   172
 70
     0
1070
    74
 70
     1
1070
   283
 70
     1
1070
   340
340
11
1070
   140
 40
0.18
1070
   284
 70
     0
1070
    78
 70
     0
1002
}
  0
XRECORD
  5
37F
102
{ACAD_REACTORS
330
374
102
}
330
374
100
AcDbXrecord
  1
{d38a66a3-b162-4a47-93ae-31e31efa2fd7}
  0
XRECORD
  5
377
102
{ACAD_REACTORS
330
374
102
}
330
374
100
AcDbXrecord
  1

  0
XRECORD
  5
37C
102
{ACAD_REACTORS
330
374
102
}
330
374
100
AcDbXrecord
 90
        4
  0
XRECORD
  5
379
102
{ACAD_REACTORS
330
374
102
}
330
374
100
AcDbXrecord
340
1A
  0
XRECORD
  5
37B
102
{ACAD_REACTORS
330
374
102
}
330
374
100
AcDbXrecord
 90
    10781
  0
XRECORD
  5
37A
102
{ACAD_REACTORS
330
374
102
}
330
374
100
AcDbXrecord
340
19
  0
XRECORD
  5
381
102
{ACAD_REACTORS
330
374
102
}
330
374
100
AcDbXrecord
 40
0.0
  0
XRECORD
  5
384
102
{ACAD_REACTORS
330
374
102
}
330
374
100
AcDbXrecord
340
0
  0
XRECORD
  5
38A
102
{ACAD_REACTORS
330
374
102
}
330
374
100
AcDbXrecord
 10
0.0
 20
0.0
 30
0.0
  0
XRECORD
  5
386
102
{ACAD_REACTORS
330
374
102
}
330
374
100
AcDbXrecord
 10
0.0
 20
0.0
 30
0.0
  0
XRECORD
  5
389
102
{ACAD_REACTORS
330
374
102
}
330
374
100
AcDbXrecord
 10
0.0
 20
0.0
 30
0.0
  0
XRECORD
  5
387
102
{ACAD_REACTORS
330
374
102
}
330
374
100
AcDbXrecord
 10
0.0
 20
0.0
 30
0.0
  0
XRECORD
  5
388
102
{ACAD_REACTORS
330
374
102
}
330
374
100
AcDbXrecord
 10
0.0
 20
0.0
 30
0.0
  0
XRECORD
  5
385
102
{ACAD_REACTORS
330
374
102
}
330
374
100
AcDbXrecord
 10
0.0
 20
0.0
 30
0.0
  0
XRECORD
  5
382
102
{ACAD_REACTORS
330
374
102
}
330
374
100
AcDbXrecord
340
0
  0
XRECORD
  5
383
102
{ACAD_REACTORS
330
374
102
}
330
374
100
AcDbXrecord
 70
     0
  0
XRECORD
  5
378
102
{ACAD_REACTORS
330
374
102
}
330
374
100
AcDbXrecord
  1

  0
XRECORD
  5
375
102
{ACAD_REACTORS
330
374
102
}
330
374
100
AcDbXrecord
 90
        1
  0
XRECORD
  5
376
102
{ACAD_REACTORS
330
374
102
}
330
374
100
AcDbXrecord
 90
       70
  0
XRECORD
  5
38D
102
{ACAD_REACTORS
330
374
102
}
330
374
100
AcDbXrecord
340
0
  0
XRECORD
  5
393
102
{ACAD_REACTORS
330
374
102
}
330
374
100
AcDbXrecord
 10
0.0
 20
0.0
 30
0.0
  0
XRECORD
  5
38F
102
{ACAD_REACTORS
330
374
102
}
330
374
100
AcDbXrecord
 10
0.0
 20
0.0
 30
0.0
  0
XRECORD
  5
392
102
{ACAD_REACTORS
330
374
102
}
330
374
100
AcDbXrecord
 10
0.0
 20
0.0
 30
0.0
  0
XRECORD
  5
390
102
{ACAD_REACTORS
330
374
102
}
330
374
100
AcDbXrecord
 10
0.0
 20
0.0
 30
0.0
  0
XRECORD
  5
391
102
{ACAD_REACTORS
330
374
102
}
330
374
100
AcDbXrecord
 10
0.0
 20
0.0
 30
0.0
  0
XRECORD
  5
38E
102
{ACAD_REACTORS
330
374
102
}
330
374
100
AcDbXrecord
 10
0.0
 20
0.0
 30
0.0
  0
XRECORD
  5
38B
102
{ACAD_REACTORS
330
374
102
}
330
374
100
AcDbXrecord
340
0
  0
XRECORD
  5
38C
102
{ACAD_REACTORS
330
374
102
}
330
374
100
AcDbXrecord
 70
     0
  0
XRECORD
  5
380
102
{ACAD_REACTORS
330
374
102
}
330
374
100
AcDbXrecord
  1
{FAEB1C32-E019-11D5-929B-00C0DF256EC4}
  0
DICTIONARYVAR
  5
39E
102
{ACAD_REACTORS
330
395
102
}
330
395
100
DictionaryVariables
280
     0
  1
1:1
  0
DICTIONARYVAR
  5
397
102
{ACAD_REACTORS
330
395
102
}
330
395
100
DictionaryVariables
280
     0
  1
Standard
  0
DICTIONARYVAR
  5
396
102
{ACAD_REACTORS
330
395
102
}
330
395
100
DictionaryVariables
280
     0
  1
Standard
  0
DICTIONARYVAR
  5
39A
102
{ACAD_REACTORS
330
395
102
}
330
395
100
DictionaryVariables
280
     0
  1
2
  0
DICTIONARYVAR
  5
39B
102
{ACAD_REACTORS
330
395
102
}
330
395
100
DictionaryVariables
280
     0
  1
1
  0
DICTIONARYVAR
  5
39F
102
{ACAD_REACTORS
330
395
102
}
330
395
100
DictionaryVariables
280
     0
  1
1
  0
DICTIONARY
  5
3A2
330
45
100
AcDbDictionary
280
     1
  3
ACAD_XREC_ROUNDTRIP
360
3A3
  0
DICTIONARY
  5
3A0
330
44
100
AcDbDictionary
280
     1
  3
ACAD_XREC_ROUNDTRIP
360
3A1
  0
DICTIONARY
  5
3A4
330
46
100
AcDbDictionary
280
     1
  3
ACAD_XREC_ROUNDTRIP
360
3A5
  0
XRECORD
  5
3A3
102
{ACAD_REACTORS
330
3A2
102
}
330
3A2
100
AcDbXrecord
102
MATERIAL
148
0.0
149
0.0
149
0.0
 93
        0
 94
      127
282
     0
 72
     1
 77
     1
171
     1
175
     1
179
     1
273
     0
  0
XRECORD
  5
3A1
102
{ACAD_REACTORS
330
3A0
102
}
330
3A0
100
AcDbXrecord
102
MATERIAL
148
0.0
149
0.0
149
0.0
 93
        0
 94
      127
282
     0
 72
     1
 77
     1
171
     1
175
     1
179
     1
273
     0
  0
XRECORD
  5
3A5
102
{ACAD_REACTORS
330
3A4
102
}
330
3A4
100
AcDbXrecord
102
MATERIAL
148
0.0
149
0.0
149
0.0
 93
        0
 94
      127
282
     0
 72
     1
 77
     1
171
     1
175
     1
179
     1
273
     0
  0
ENDSEC
  0
EOF
