  0
SECTION
  2
HEADER
  9
$ACADVER
  1
AC1014
  9
$ACADMAINTVER
 70
     9
  9
$DWGCODEPAGE
  3
MAC-ROMAN
  9
$INSBASE
 10
0.0
 20
0.0
 30
0.0
  9
$EXTMIN
 10
1.000000000000000E+20
 20
1.000000000000000E+20
 30
1.000000000000000E+20
  9
$EXTMAX
 10
-1.000000000000000E+20
 20
-1.000000000000000E+20
 30
-1.000000000000000E+20
  9
$LIMMIN
 10
0.0
 20
0.0
  9
$LIMMAX
 10
12.0
 20
9.0
  9
$ORTHOMODE
 70
     0
  9
$REGENMODE
 70
     1
  9
$FILLMODE
 70
     1
  9
$QTEXTMODE
 70
     0
  9
$MIRRTEXT
 70
     1
  9
$DRAGMODE
 70
     2
  9
$LTSCALE
 40
1.0
  9
$OSMODE
 70
    37
  9
$ATTMODE
 70
     1
  9
$TEXTSIZE
 40
0.2
  9
$TRACEWID
 40
0.05
  9
$TEXTSTYLE
  7
STANDARD
  9
$CLAYER
  8
0
  9
$CELTYPE
  6
BYLAYER
  9
$CECOLOR
 62
   256
  9
$CELTSCALE
 40
1.0
  9
$DELOBJ
 70
     1
  9
$DISPSILH
 70
     0
  9
$DIMSCALE
 40
1.0
  9
$DIMASZ
 40
0.18
  9
$DIMEXO
 40
0.0625
  9
$DIMDLI
 40
0.38
  9
$DIMRND
 40
0.0
  9
$DIMDLE
 40
0.0
  9
$DIMEXE
 40
0.18
  9
$DIMTP
 40
0.0
  9
$DIMTM
 40
0.0
  9
$DIMTXT
 40
0.18
  9
$DIMCEN
 40
0.09
  9
$DIMTSZ
 40
0.0
  9
$DIMTOL
 70
     0
  9
$DIMLIM
 70
     0
  9
$DIMTIH
 70
     1
  9
$DIMTOH
 70
     1
  9
$DIMSE1
 70
     0
  9
$DIMSE2
 70
     0
  9
$DIMTAD
 70
     0
  9
$DIMZIN
 70
     0
  9
$DIMBLK
  1

  9
$DIMASO
 70
     1
  9
$DIMSHO
 70
     1
  9
$DIMPOST
  1

  9
$DIMAPOST
  1

  9
$DIMALT
 70
     0
  9
$DIMALTD
 70
     2
  9
$DIMALTF
 40
25.4
  9
$DIMLFAC
 40
1.0
  9
$DIMTOFL
 70
     0
  9
$DIMTVP
 40
0.0
  9
$DIMTIX
 70
     0
  9
$DIMSOXD
 70
     0
  9
$DIMSAH
 70
     0
  9
$DIMBLK1
  1

  9
$DIMBLK2
  1

  9
$DIMSTYLE
  2
STANDARD
  9
$DIMCLRD
 70
     0
  9
$DIMCLRE
 70
     0
  9
$DIMCLRT
 70
     0
  9
$DIMTFAC
 40
1.0
  9
$DIMGAP
 40
0.09
  9
$DIMJUST
 70
     0
  9
$DIMSD1
 70
     0
  9
$DIMSD2
 70
     0
  9
$DIMTOLJ
 70
     1
  9
$DIMTZIN
 70
     0
  9
$DIMALTZ
 70
     0
  9
$DIMALTTZ
 70
     0
  9
$DIMFIT
 70
     3
  9
$DIMUPT
 70
     0
  9
$DIMUNIT
 70
     2
  9
$DIMDEC
 70
     4
  9
$DIMTDEC
 70
     4
  9
$DIMALTU
 70
     2
  9
$DIMALTTD
 70
     2
  9
$DIMTXSTY
  7
STANDARD
  9
$DIMAUNIT
 70
     0
  9
$LUNITS
 70
     2
  9
$LUPREC
 70
     4
  9
$SKETCHINC
 40
0.1
  9
$FILLETRAD
 40
0.5
  9
$AUNITS
 70
     0
  9
$AUPREC
 70
     0
  9
$MENU
  1
.
  9
$ELEVATION
 40
0.0
  9
$PELEVATION
 40
0.0
  9
$THICKNESS
 40
0.0
  9
$LIMCHECK
 70
     0
  9
$CHAMFERA
 40
0.0
  9
$CHAMFERB
 40
0.0
  9
$CHAMFERC
 40
0.0
  9
$CHAMFERD
 40
0.0
  9
$SKPOLY
 70
     0
  9
$TDCREATE
 40
2459527.512194248
  9
$TDUPDATE
 40
2459527.512194352
  9
$TDINDWG
 40
0.0000000116
  9
$TDUSRTIMER
 40
0.0000000116
  9
$USRTIMER
 70
     1
  9
$ANGBASE
 50
0.0
  9
$ANGDIR
 70
     0
  9
$PDMODE
 70
     0
  9
$PDSIZE
 40
0.0
  9
$PLINEWID
 40
0.0
  9
$COORDS
 70
     1
  9
$SPLFRAME
 70
     0
  9
$SPLINETYPE
 70
     6
  9
$SPLINESEGS
 70
     8
  9
$ATTDIA
 70
     0
  9
$ATTREQ
 70
     1
  9
$HANDLING
 70
     1
  9
$HANDSEED
  5
1C7
  9
$SURFTAB1
 70
     6
  9
$SURFTAB2
 70
     6
  9
$SURFTYPE
 70
     6
  9
$SURFU
 70
     6
  9
$SURFV
 70
     6
  9
$UCSNAME
  2

  9
$UCSORG
 10
0.0
 20
0.0
 30
0.0
  9
$UCSXDIR
 10
1.0
 20
0.0
 30
0.0
  9
$UCSYDIR
 10
0.0
 20
1.0
 30
0.0
  9
$PUCSNAME
  2

  9
$PUCSORG
 10
0.0
 20
0.0
 30
0.0
  9
$PUCSXDIR
 10
1.0
 20
0.0
 30
0.0
  9
$PUCSYDIR
 10
0.0
 20
1.0
 30
0.0
  9
$USERI1
 70
     0
  9
$USERI2
 70
     0
  9
$USERI3
 70
     0
  9
$USERI4
 70
     0
  9
$USERI5
 70
     0
  9
$USERR1
 40
0.0
  9
$USERR2
 40
0.0
  9
$USERR3
 40
0.0
  9
$USERR4
 40
0.0
  9
$USERR5
 40
0.0
  9
$WORLDVIEW
 70
     1
  9
$SHADEDGE
 70
     3
  9
$SHADEDIF
 70
    70
  9
$TILEMODE
 70
     1
  9
$MAXACTVP
 70
    64
  9
$PINSBASE
 10
0.0
 20
0.0
 30
0.0
  9
$PLIMCHECK
 70
     0
  9
$PEXTMIN
 10
1.000000000000000E+20
 20
1.000000000000000E+20
 30
1.000000000000000E+20
  9
$PEXTMAX
 10
-1.000000000000000E+20
 20
-1.000000000000000E+20
 30
-1.000000000000000E+20
  9
$PLIMMIN
 10
0.0
 20
0.0
  9
$PLIMMAX
 10
12.0
 20
9.0
  9
$UNITMODE
 70
     0
  9
$VISRETAIN
 70
     1
  9
$PLINEGEN
 70
     0
  9
$PSLTSCALE
 70
     1
  9
$TREEDEPTH
 70
  3020
  9
$PICKSTYLE
 70
     1
  9
$CMLSTYLE
  2
STANDARD
  9
$CMLJUST
 70
     0
  9
$CMLSCALE
 40
1.0
  9
$PROXYGRAPHICS
 70
     1
  9
$MEASUREMENT
 70
     0
  0
ENDSEC
  0
SECTION
  2
CLASSES
  0
CLASS
  1
ACDBDICTIONARYWDFLT
  2
AcDbDictionaryWithDefault
  3
ObjectDBX Classes
 90
        0
280
     0
281
     0
  0
CLASS
  1
VISUALSTYLE
  2
AcDbVisualStyle
  3
ObjectDBX Classes
 90
     4095
280
     0
281
     0
  0
CLASS
  1
MATERIAL
  2
AcDbMaterial
  3
ObjectDBX Classes
 90
     1153
280
     0
281
     0
  0
CLASS
  1
SCALE
  2
AcDbScale
  3
ObjectDBX Classes
 90
     1153
280
     0
281
     0
  0
CLASS
  1
TABLESTYLE
  2
AcDbTableStyle
  3
ObjectDBX Classes
 90
     4095
280
     0
281
     0
  0
CLASS
  1
MLEADERSTYLE
  2
AcDbMLeaderStyle
  3
ACDB_MLEADERSTYLE_CLASS
 90
     4095
280
     0
281
     0
  0
CLASS
  1
SUN
  2
AcDbSun
  3
SCENEOE
 90
     1153
280
     0
281
     0
  0
CLASS
  1
DICTIONARYVAR
  2
AcDbDictionaryVar
  3
ObjectDBX Classes
 90
        0
280
     0
281
     0
  0
CLASS
  1
XRECORD
  2
AcDbXrecord
  3
ObjectDBX Classes
 90
        0
280
     0
281
     0
  0
CLASS
  1
LWPOLYLINE
  2
AcDbPolyline
  3
ObjectDBX Classes
 90
        0
280
     0
281
     1
  0
CLASS
  1
HATCH
  2
AcDbHatch
  3
ObjectDBX Classes
 90
        0
280
     0
281
     1
  0
CLASS
  1
ACDBPLACEHOLDER
  2
AcDbPlaceHolder
  3
ObjectDBX Classes
 90
        0
280
     0
281
     0
  0
CLASS
  1
LAYOUT
  2
AcDbLayout
  3
ObjectDBX Classes
 90
        0
280
     0
281
     0
  0
ENDSEC
  0
SECTION
  2
TABLES
  0
TABLE
  2
VPORT
  5
8
102
{ACAD_XDICTIONARY
360
1BC
102
}
330
0
100
AcDbSymbolTable
 70
     1
  0
VPORT
  5
29
330
8
100
AcDbSymbolTableRecord
100
AcDbViewportTableRecord
  2
*ACTIVE
 70
     0
 10
0.0
 20
0.0
 11
1.0
 21
1.0
 12
0.0
 22
0.0
 13
0.0
 23
0.0
 14
0.5
 24
0.5
 15
0.5
 25
0.5
 16
0.0
 26
0.0
 36
1.0
 17
0.0
 27
0.0
 37
-1000.0
 40
46.86789506545489
 41
1.543323139653415
 42
50.0
 43
74.32298619365058
 44
96.03523626140954
 50
0.0
 51
0.0
 71
     0
 72
   100
 73
     1
 74
     3
 75
     0
 76
     0
 77
     0
 78
     0
  0
ENDTAB
  0
TABLE
  2
LTYPE
  5
5
330
0
100
AcDbSymbolTable
 70
     1
  0
LTYPE
  5
14
330
5
100
AcDbSymbolTableRecord
100
AcDbLinetypeTableRecord
  2
BYBLOCK
 70
     0
  3

 72
    65
 73
     0
 40
0.0
  0
LTYPE
  5
15
330
5
100
AcDbSymbolTableRecord
100
AcDbLinetypeTableRecord
  2
BYLAYER
 70
     0
  3

 72
    65
 73
     0
 40
0.0
  0
LTYPE
  5
16
330
5
100
AcDbSymbolTableRecord
100
AcDbLinetypeTableRecord
  2
CONTINUOUS
 70
     0
  3
Solid line
 72
    65
 73
     0
 40
0.0
  0
ENDTAB
  0
TABLE
  2
LAYER
  5
2
330
0
100
AcDbSymbolTable
 70
     3
  0
LAYER
  5
10
330
2
100
AcDbSymbolTableRecord
100
AcDbLayerTableRecord
  2
0
 70
     0
 62
     7
  6
CONTINUOUS
  0
LAYER
  5
6E
330
2
100
AcDbSymbolTableRecord
100
AcDbLayerTableRecord
  2
PROFILEEDGES
 70
     0
 62
     7
  6
CONTINUOUS
  0
LAYER
  5
6F
330
2
100
AcDbSymbolTableRecord
100
AcDbLayerTableRecord
  2
SECTIONCUTEDGES
 70
     0
 62
     7
  6
CONTINUOUS
  0
ENDTAB
  0
TABLE
  2
STYLE
  5
3
330
0
100
AcDbSymbolTable
 70
     1
  0
STYLE
  5
11
330
3
100
AcDbSymbolTableRecord
100
AcDbTextStyleTableRecord
  2
STANDARD
 70
     0
 40
0.0
 41
1.0
 50
0.0
 71
     0
 42
0.2
  3
txt
  4

  0
ENDTAB
  0
TABLE
  2
VIEW
  5
6
330
0
100
AcDbSymbolTable
 70
     0
  0
ENDTAB
  0
TABLE
  2
UCS
  5
7
330
0
100
AcDbSymbolTable
 70
     0
  0
ENDTAB
  0
TABLE
  2
APPID
  5
9
330
0
100
AcDbSymbolTable
 70
     2
  0
APPID
  5
12
330
9
100
AcDbSymbolTableRecord
100
AcDbRegAppTableRecord
  2
ACAD
 70
     0
  0
APPID
  5
1C6
330
9
100
AcDbSymbolTableRecord
100
AcDbRegAppTableRecord
  2
ACAD_MLEADERVER
 70
     0
  0
ENDTAB
  0
TABLE
  2
DIMSTYLE
  5
A
330
0
100
AcDbSymbolTable
 70
     1
  0
DIMSTYLE
105
27
330
A
100
AcDbSymbolTableRecord
100
AcDbDimStyleTableRecord
  2
STANDARD
 70
     0
  3

  4

  5

  6

  7

 40
1.0
 41
0.18
 42
0.0625
 43
0.38
 44
0.18
 45
0.0
 46
0.0
 47
0.0
 48
0.0
140
0.18
141
0.09
142
0.0
143
25.4
144
1.0
145
0.0
146
1.0
147
0.09
 71
     0
 72
     0
 73
     1
 74
     1
 75
     0
 76
     0
 77
     0
 78
     0
170
     0
171
     2
172
     0
173
     0
174
     0
175
     0
176
     0
177
     0
178
     0
270
     2
271
     4
272
     4
273
     2
274
     2
340
11
275
     0
280
     0
281
     0
282
     0
283
     1
284
     0
285
     0
286
     0
287
     3
288
     0
  0
ENDTAB
  0
TABLE
  2
BLOCK_RECORD
  5
1
330
0
100
AcDbSymbolTable
 70
     0
  0
BLOCK_RECORD
  5
1F
330
1
100
AcDbSymbolTableRecord
100
AcDbBlockTableRecord
  2
*MODEL_SPACE
  0
BLOCK_RECORD
  5
1B
330
1
100
AcDbSymbolTableRecord
100
AcDbBlockTableRecord
  2
*PAPER_SPACE
  0
ENDTAB
  0
ENDSEC
  0
SECTION
  2
BLOCKS
  0
BLOCK
  5
20
330
1F
100
AcDbEntity
  8
0
100
AcDbBlockBegin
  2
*MODEL_SPACE
 70
     0
 10
0.0
 20
0.0
 30
0.0
  3
*MODEL_SPACE
  1

  0
ENDBLK
  5
21
330
1F
100
AcDbEntity
  8
0
100
AcDbBlockEnd
  0
BLOCK
  5
1C
330
1B
100
AcDbEntity
 67
     1
  8
0
100
AcDbBlockBegin
  2
*PAPER_SPACE
 70
     0
 10
0.0
 20
0.0
 30
0.0
  3
*PAPER_SPACE
  1

  0
ENDBLK
  5
1D
330
1B
100
AcDbEntity
 67
     1
  8
0
100
AcDbBlockEnd
  0
ENDSEC
  0
SECTION
  2
ENTITIES
  0
LINE
  5
70
330
1F
100
AcDbEntity
  8
0
100
AcDbLine
 10
-1.470718214827187
 20
-1.61062815281677
 30
0.0
 11
-2.539099723209826
 21
-5.768100860694488
 31
0.0
  0
LINE
  5
71
330
1F
100
AcDbEntity
  8
0
100
AcDbLine
 10
-2.539099723209826
 20
-5.768100860694488
 30
0.0
 11
15.38030399800024
 21
-9.84800250235918
 31
0.0
  0
LINE
  5
72
330
1F
100
AcDbEntity
  8
0
100
AcDbLine
 10
15.38030399800024
 20
-9.84800250235918
 30
0.0
 11
16.09716471133881
 21
-5.524288586631027
 31
0.0
  0
LINE
  5
73
330
1F
100
AcDbEntity
  8
0
100
AcDbLine
 10
16.09716471133881
 20
-5.524288586631027
 30
0.0
 11
-1.470718214827187
 21
-1.61062815281677
 31
0.0
  0
LINE
  5
74
330
1F
100
AcDbEntity
  8
0
100
AcDbLine
 10
-1.160106961671005
 20
-4.626726873200826
 30
0.0
 11
-1.214045019326928
 21
-4.607096930782377
 31
0.0
  0
LINE
  5
75
330
1F
100
AcDbEntity
  8
0
100
AcDbLine
 10
-1.214045019326928
 20
-4.607096930782377
 30
0.0
 11
-1.260750085546079
 21
-4.574739957758084
 31
0.0
  0
LINE
  5
76
330
1F
100
AcDbEntity
  8
0
100
AcDbLine
 10
-1.260750085546079
 20
-4.574739957758084
 30
0.0
 11
-1.297035563259644
 21
-4.531871904756086
 31
0.0
  0
LINE
  5
77
330
1F
100
AcDbEntity
  8
0
100
AcDbLine
 10
-1.297035563259644
 20
-4.531871904756086
 30
0.0
 11
-1.320431126870387
 21
-4.481425383856697
 31
0.0
  0
LINE
  5
78
330
1F
100
AcDbEntity
  8
0
100
AcDbLine
 10
-1.320431126870387
 20
-4.481425383856697
 30
0.0
 11
-1.329350402321221
 21
-4.426846804786353
 31
0.0
  0
LINE
  5
79
330
1F
100
AcDbEntity
  8
0
100
AcDbLine
 10
-1.329350402321221
 20
-4.426846804786353
 30
0.0
 11
-1.323196926372812
 21
-4.37185921560617
 31
0.0
  0
LINE
  5
7A
330
1F
100
AcDbEntity
  8
0
100
AcDbLine
 10
-1.323196926372812
 20
-4.37185921560617
 30
0.0
 11
-1.302401744346336
 21
-4.320207622811988
 31
0.0
  0
LINE
  5
7B
330
1F
100
AcDbEntity
  8
0
100
AcDbLine
 10
-1.302401744346336
 20
-4.320207622811988
 30
0.0
 11
-1.268390903452343
 21
-4.275404400390731
 31
0.0
  0
LINE
  5
7C
330
1F
100
AcDbEntity
  8
0
100
AcDbLine
 10
-1.268390903452343
 20
-4.275404400390731
 30
0.0
 11
-1.223485894737982
 21
-4.240491966235679
 31
0.0
  0
LINE
  5
7D
330
1F
100
AcDbEntity
  8
0
100
AcDbLine
 10
-1.223485894737982
 20
-4.240491966235679
 30
0.0
 11
-1.170744460868845
 21
-4.217838350845538
 31
0.0
  0
LINE
  5
7E
330
1F
100
AcDbEntity
  8
0
100
AcDbLine
 10
-1.170744460868845
 20
-4.217838350845538
 30
0.0
 11
-1.113752878516563
 21
-4.208978812996538
 31
0.0
  0
LINE
  5
7F
330
1F
100
AcDbEntity
  8
0
100
AcDbLine
 10
-1.113752878516563
 20
-4.208978812996538
 30
0.0
 11
-1.056383691415709
 21
-4.214513497803659
 31
0.0
  0
LINE
  5
80
330
1F
100
AcDbEntity
  8
0
100
AcDbLine
 10
-1.056383691415709
 20
-4.214513497803659
 30
0.0
 11
-1.002534834292941
 21
-4.234067503820148
 31
0.0
  0
LINE
  5
81
330
1F
100
AcDbEntity
  8
0
100
AcDbLine
 10
-1.002534834292941
 20
-4.234067503820148
 30
0.0
 11
-0.9558671176227249
 21
-4.266315823670402
 31
0.0
  0
LINE
  5
82
330
1F
100
AcDbEntity
  8
0
100
AcDbLine
 10
-0.9558671176227249
 20
-4.266315823670402
 30
0.0
 11
-0.9195571307294769
 21
-4.309071620283134
 31
0.0
  0
LINE
  5
83
330
1F
100
AcDbEntity
  8
0
100
AcDbLine
 10
-0.9195571307294769
 20
-4.309071620283134
 30
0.0
 11
-0.8960817664677823
 21
-4.359432360569564
 31
0.0
  0
LINE
  5
84
330
1F
100
AcDbEntity
  8
0
100
AcDbLine
 10
-0.8960817664677823
 20
-4.359432360569564
 30
0.0
 11
-0.8870487814200727
 21
-4.413974619605305
 31
0.0
  0
LINE
  5
85
330
1F
100
AcDbEntity
  8
0
100
AcDbLine
 10
-0.8870487814200727
 20
-4.413974619605305
 30
0.0
 11
-0.8930851071832572
 21
-4.468985081226573
 31
0.0
  0
LINE
  5
86
330
1F
100
AcDbEntity
  8
0
100
AcDbLine
 10
-0.8930851071832572
 20
-4.468985081226573
 30
0.0
 11
-0.9137910886912392
 21
-4.520712610302725
 31
0.0
  0
LINE
  5
87
330
1F
100
AcDbEntity
  8
0
100
AcDbLine
 10
-0.9137910886912392
 20
-4.520712610302725
 30
0.0
 11
-0.9477645799349965
 21
-4.565624485825323
 31
0.0
  0
LINE
  5
88
330
1F
100
AcDbEntity
  8
0
100
AcDbLine
 10
-0.9477645799349965
 20
-4.565624485825323
 30
0.0
 11
-0.9926940977130772
 21
-4.600649176416942
 31
0.0
  0
LINE
  5
89
330
1F
100
AcDbEntity
  8
0
100
AcDbLine
 10
-0.9926940977130772
 20
-4.600649176416942
 30
0.0
 11
-1.045515332218503
 21
-4.623388572540032
 31
0.0
  0
LINE
  5
8A
330
1F
100
AcDbEntity
  8
0
100
AcDbLine
 10
-1.045515332218503
 20
-4.623388572540032
 30
0.0
 11
-1.102620624268963
 21
-4.632284430496333
 31
0.0
  0
LINE
  5
8B
330
1F
100
AcDbEntity
  8
0
100
AcDbLine
 10
-1.102620624268963
 20
-4.632284430496333
 30
0.0
 11
-1.160106961671005
 21
-4.626726873200826
 31
0.0
  0
LINE
  5
8C
330
1F
100
AcDbEntity
  8
0
100
AcDbLine
 10
0.2088954666356471
 20
-4.936201408154629
 30
0.0
 11
0.1547423954893621
 21
-4.916511512761634
 31
0.0
  0
LINE
  5
8D
330
1F
100
AcDbEntity
  8
0
100
AcDbLine
 10
0.1547423954893621
 20
-4.916511512761634
 30
0.0
 11
0.1077473329046396
 21
-4.884055729077663
 31
0.0
  0
LINE
  5
8E
330
1F
100
AcDbEntity
  8
0
100
AcDbLine
 10
0.1077473329046396
 20
-4.884055729077663
 30
0.0
 11
0.0711167237234547
 21
-4.84105679136451
 31
0.0
  0
LINE
  5
8F
330
1F
100
AcDbEntity
  8
0
100
AcDbLine
 10
0.0711167237234547
 20
-4.84105679136451
 30
0.0
 11
0.0473444821237789
 21
-4.79045628270973
 31
0.0
  0
LINE
  5
90
330
1F
100
AcDbEntity
  8
0
100
AcDbLine
 10
0.0473444821237789
 20
-4.79045628270973
 30
0.0
 11
0.0380426856974776
 21
-4.735711146059862
 31
0.0
  0
LINE
  5
91
330
1F
100
AcDbEntity
  8
0
100
AcDbLine
 10
0.0380426856974776
 20
-4.735711146059862
 30
0.0
 11
0.0438338555770094
 21
-4.680555796594796
 31
0.0
  0
LINE
  5
92
330
1F
100
AcDbEntity
  8
0
100
AcDbLine
 10
0.0438338555770094
 20
-4.680555796594796
 30
0.0
 11
0.0643115857043645
 21
-4.628746662797121
 31
0.0
  0
LINE
  5
93
330
1F
100
AcDbEntity
  8
0
100
AcDbLine
 10
0.0643115857043645
 20
-4.628746662797121
 30
0.0
 11
0.0980713841584974
 21
-4.583806820001511
 31
0.0
  0
LINE
  5
94
330
1F
100
AcDbEntity
  8
0
100
AcDbLine
 10
0.0980713841584974
 20
-4.583806820001511
 30
0.0
 11
0.1428087832854386
 21
-4.548787946879038
 31
0.0
  0
LINE
  5
95
330
1F
100
AcDbEntity
  8
0
100
AcDbLine
 10
0.1428087832854386
 20
-4.548787946879038
 30
0.0
 11
0.1954773944569478
 21
-4.526065276326598
 31
0.0
  0
LINE
  5
96
330
1F
100
AcDbEntity
  8
0
100
AcDbLine
 10
0.1954773944569478
 20
-4.526065276326598
 30
0.0
 11
0.2524958701597574
 21
-4.517178733998255
 31
0.0
  0
LINE
  5
97
330
1F
100
AcDbEntity
  8
0
100
AcDbLine
 10
0.2524958701597574
 20
-4.517178733998255
 30
0.0
 11
0.3099898439881059
 21
-4.522730288765596
 31
0.0
  0
LINE
  5
98
330
1F
100
AcDbEntity
  8
0
100
AcDbLine
 10
0.3099898439881059
 20
-4.522730288765596
 30
0.0
 11
0.3640529282373237
 21
-4.542343899946258
 31
0.0
  0
LINE
  5
99
330
1F
100
AcDbEntity
  8
0
100
AcDbLine
 10
0.3640529282373237
 20
-4.542343899946258
 30
0.0
 11
0.4110097915785266
 21
-4.574690532793825
 31
0.0
  0
LINE
  5
9A
330
1F
100
AcDbEntity
  8
0
100
AcDbLine
 10
0.4110097915785266
 20
-4.574690532793825
 30
0.0
 11
0.4476642245890673
 21
-4.617576699951789
 31
0.0
  0
LINE
  5
9B
330
1F
100
AcDbEntity
  8
0
100
AcDbLine
 10
0.4476642245890673
 20
-4.617576699951789
 30
0.0
 11
0.4715159294723147
 21
-4.668091035094339
 31
0.0
  0
LINE
  5
9C
330
1F
100
AcDbEntity
  8
0
100
AcDbLine
 10
0.4715159294723147
 20
-4.668091035094339
 30
0.0
 11
0.4809315365080447
 21
-4.722799685353689
 31
0.0
  0
LINE
  5
9D
330
1F
100
AcDbEntity
  8
0
100
AcDbLine
 10
0.4809315365080447
 20
-4.722799685353689
 30
0.0
 11
0.4752580291400369
 21
-4.777978012022014
 31
0.0
  0
LINE
  5
9E
330
1F
100
AcDbEntity
  8
0
100
AcDbLine
 10
0.4752580291400369
 20
-4.777978012022014
 30
0.0
 11
0.4548702858941809
 21
-4.829863429911113
 31
0.0
  0
LINE
  5
9F
330
1F
100
AcDbEntity
  8
0
100
AcDbLine
 10
0.4548702858941809
 20
-4.829863429911113
 30
0.0
 11
0.4211486867849946
 21
-4.874912423469872
 31
0.0
  0
LINE
  5
A0
330
1F
100
AcDbEntity
  8
0
100
AcDbLine
 10
0.4211486867849946
 20
-4.874912423469872
 30
0.0
 11
0.3763874639456909
 21
-4.910044067195193
 31
0.0
  0
LINE
  5
A1
330
1F
100
AcDbEntity
  8
0
100
AcDbLine
 10
0.3763874639456909
 20
-4.910044067195193
 30
0.0
 11
0.3236393895061772
 21
-4.932852911380774
 31
0.0
  0
LINE
  5
A2
330
1F
100
AcDbEntity
  8
0
100
AcDbLine
 10
0.3236393895061772
 20
-4.932852911380774
 30
0.0
 11
0.2665071030925125
 21
-4.941775940172886
 31
0.0
  0
LINE
  5
A3
330
1F
100
AcDbEntity
  8
0
100
AcDbLine
 10
0.2665071030925125
 20
-4.941775940172886
 30
0.0
 11
0.2088954666356471
 21
-4.936201408154629
 31
0.0
  0
LINE
  5
A4
330
1F
100
AcDbEntity
  8
0
100
AcDbLine
 10
1.582082447164506
 20
-5.246621896399804
 30
0.0
 11
1.527713299097224
 21
-5.226871772953333
 31
0.0
  0
LINE
  5
A5
330
1F
100
AcDbEntity
  8
0
100
AcDbLine
 10
1.527713299097224
 20
-5.226871772953333
 30
0.0
 11
1.480426684382761
 21
-5.194316725300512
 31
0.0
  0
LINE
  5
A6
330
1F
100
AcDbEntity
  8
0
100
AcDbLine
 10
1.480426684382761
 20
-5.194316725300512
 30
0.0
 11
1.443449002387143
 21
-5.151186302534165
 31
0.0
  0
LINE
  5
A7
330
1F
100
AcDbEntity
  8
0
100
AcDbLine
 10
1.443449002387143
 20
-5.151186302534165
 30
0.0
 11
1.419297888831393
 21
-5.100431099976078
 31
0.0
  0
LINE
  5
A8
330
1F
100
AcDbEntity
  8
0
100
AcDbLine
 10
1.419297888831393
 20
-5.100431099976078
 30
0.0
 11
1.409611274777062
 21
-5.045518642155463
 31
0.0
  0
LINE
  5
A9
330
1F
100
AcDbEntity
  8
0
100
AcDbLine
 10
1.409611274777062
 20
-5.045518642155463
 30
0.0
 11
1.415037895827356
 21
-4.990194763509159
 31
0.0
  0
LINE
  5
AA
330
1F
100
AcDbEntity
  8
0
100
AcDbLine
 10
1.415037895827356
 20
-4.990194763509159
 30
0.0
 11
1.435196137720593
 21
-4.938227366840482
 31
0.0
  0
LINE
  5
AB
330
1F
100
AcDbEntity
  8
0
100
AcDbLine
 10
1.435196137720593
 20
-4.938227366840482
 30
0.0
 11
1.468703202001896
 21
-4.893150277812921
 31
0.0
  0
LINE
  5
AC
330
1F
100
AcDbEntity
  8
0
100
AcDbLine
 10
1.468703202001896
 20
-4.893150277812921
 30
0.0
 11
1.513271758973971
 21
-4.858024478222734
 31
0.0
  0
LINE
  5
AD
330
1F
100
AcDbEntity
  8
0
100
AcDbLine
 10
1.513271758973971
 20
-4.858024478222734
 30
0.0
 11
1.565866857382901
 21
-4.835232436274119
 31
0.0
  0
LINE
  5
AE
330
1F
100
AcDbEntity
  8
0
100
AcDbLine
 10
1.565866857382901
 20
-4.835232436274119
 30
0.0
 11
1.622912125481298
 21
-4.826318765810742
 31
0.0
  0
LINE
  5
AF
330
1F
100
AcDbEntity
  8
0
100
AcDbLine
 10
1.622912125481298
 20
-4.826318765810742
 30
0.0
 11
1.680531381005877
 21
-4.831887267786574
 31
0.0
  0
LINE
  5
B0
330
1F
100
AcDbEntity
  8
0
100
AcDbLine
 10
1.680531381005877
 20
-4.831887267786574
 30
0.0
 11
1.734809749847093
 21
-4.851560757082999
 31
0.0
  0
LINE
  5
B1
330
1F
100
AcDbEntity
  8
0
100
AcDbLine
 10
1.734809749847093
 20
-4.851560757082999
 30
0.0
 11
1.782057308351035
 21
-4.884006153193165
 31
0.0
  0
LINE
  5
B2
330
1F
100
AcDbEntity
  8
0
100
AcDbLine
 10
1.782057308351035
 20
-4.884006153193165
 30
0.0
 11
1.819058122194576
 21
-4.927023288093562
 31
0.0
  0
LINE
  5
B3
330
1F
100
AcDbEntity
  8
0
100
AcDbLine
 10
1.819058122194576
 20
-4.927023288093562
 30
0.0
 11
1.843288357453519
 21
-4.977691921837026
 31
0.0
  0
LINE
  5
B4
330
1F
100
AcDbEntity
  8
0
100
AcDbLine
 10
1.843288357453519
 20
-4.977691921837026
 30
0.0
 11
1.853088882463805
 21
-5.032567725893715
 31
0.0
  0
LINE
  5
B5
330
1F
100
AcDbEntity
  8
0
100
AcDbLine
 10
1.853088882463805
 20
-5.032567725893715
 30
0.0
 11
1.847780439310741
 21
-5.087914687146217
 31
0.0
  0
LINE
  5
B6
330
1F
100
AcDbEntity
  8
0
100
AcDbLine
 10
1.847780439310741
 20
-5.087914687146217
 30
0.0
 11
1.827712976627085
 21
-5.139958717843104
 31
0.0
  0
LINE
  5
B7
330
1F
100
AcDbEntity
  8
0
100
AcDbLine
 10
1.827712976627085
 20
-5.139958717843104
 30
0.0
 11
1.794244968657852
 21
-5.185145458339508
 31
0.0
  0
LINE
  5
B8
330
1F
100
AcDbEntity
  8
0
100
AcDbLine
 10
1.794244968657852
 20
-5.185145458339508
 30
0.0
 11
1.749653279955887
 21
-5.220384545843666
 31
0.0
  0
LINE
  5
B9
330
1F
100
AcDbEntity
  8
0
100
AcDbLine
 10
1.749653279955887
 20
-5.220384545843666
 30
0.0
 11
1.696979059860249
 21
-5.24326315672874
 31
0.0
  0
LINE
  5
BA
330
1F
100
AcDbEntity
  8
0
100
AcDbLine
 10
1.696979059860249
 20
-5.24326315672874
 30
0.0
 11
1.639819880704348
 21
-5.252213481029856
 31
0.0
  0
LINE
  5
BB
330
1F
100
AcDbEntity
  8
0
100
AcDbLine
 10
1.639819880704348
 20
-5.252213481029856
 30
0.0
 11
1.582082447164506
 21
-5.246621896399804
 31
0.0
  0
LINE
  5
BC
330
1F
100
AcDbEntity
  8
0
100
AcDbLine
 10
2.959473195308705
 20
-5.557992681737895
 30
0.0
 11
2.904886900138546
 21
-5.538182053473601
 31
0.0
  0
LINE
  5
BD
330
1F
100
AcDbEntity
  8
0
100
AcDbLine
 10
2.904886900138546
 20
-5.538182053473601
 30
0.0
 11
2.85730716730888
 21
-5.505527285765667
 31
0.0
  0
LINE
  5
BE
330
1F
100
AcDbEntity
  8
0
100
AcDbLine
 10
2.85730716730888
 20
-5.505527285765667
 30
0.0
 11
2.819980458163774
 21
-5.462264773926938
 31
0.0
  0
LINE
  5
BF
330
1F
100
AcDbEntity
  8
0
100
AcDbLine
 10
2.819980458163774
 20
-5.462264773926938
 30
0.0
 11
2.795448263820937
 21
-5.411354166993405
 31
0.0
  0
LINE
  5
C0
330
1F
100
AcDbEntity
  8
0
100
AcDbLine
 10
2.795448263820937
 20
-5.411354166993405
 30
0.0
 11
2.785374519763669
 21
-5.356273619736047
 31
0.0
  0
LINE
  5
C1
330
1F
100
AcDbEntity
  8
0
100
AcDbLine
 10
2.785374519763669
 20
-5.356273619736047
 30
0.0
 11
2.790434333716062
 21
-5.300780438306179
 31
0.0
  0
LINE
  5
C2
330
1F
100
AcDbEntity
  8
0
100
AcDbLine
 10
2.790434333716062
 20
-5.300780438306179
 30
0.0
 11
2.810271036800474
 21
-5.24865405248203
 31
0.0
  0
LINE
  5
C3
330
1F
100
AcDbEntity
  8
0
100
AcDbLine
 10
2.810271036800474
 20
-5.24865405248203
 30
0.0
 11
2.843523663170168
 21
-5.203439087536338
 31
0.0
  0
LINE
  5
C4
330
1F
100
AcDbEntity
  8
0
100
AcDbLine
 10
2.843523663170168
 20
-5.203439087536338
 30
0.0
 11
2.887922136459698
 21
-5.168205870996529
 31
0.0
  0
LINE
  5
C5
330
1F
100
AcDbEntity
  8
0
100
AcDbLine
 10
2.887922136459698
 20
-5.168205870996529
 30
0.0
 11
2.940443026730892
 21
-5.145344139484014
 31
0.0
  0
LINE
  5
C6
330
1F
100
AcDbEntity
  8
0
100
AcDbLine
 10
2.940443026730892
 20
-5.145344139484014
 30
0.0
 11
2.997514984967454
 21
-5.136403216473789
 31
0.0
  0
LINE
  5
C7
330
1F
100
AcDbEntity
  8
0
100
AcDbLine
 10
2.997514984967454
 20
-5.136403216473789
 30
0.0
 11
3.055260019949906
 21
-5.141988743378733
 31
0.0
  0
LINE
  5
C8
330
1F
100
AcDbEntity
  8
0
100
AcDbLine
 10
3.055260019949906
 20
-5.141988743378733
 30
0.0
 11
3.109754737548928
 21
-5.161722385411638
 31
0.0
  0
LINE
  5
C9
330
1F
100
AcDbEntity
  8
0
100
AcDbLine
 10
3.109754737548928
 20
-5.161722385411638
 30
0.0
 11
3.157294549863435
 21
-5.194266997803457
 31
0.0
  0
LINE
  5
CA
330
1F
100
AcDbEntity
  8
0
100
AcDbLine
 10
3.157294549863435
 20
-5.194266997803457
 30
0.0
 11
3.194643692181944
 21
-5.237415701296568
 31
0.0
  0
LINE
  5
CB
330
1F
100
AcDbEntity
  8
0
100
AcDbLine
 10
3.194643692181944
 20
-5.237415701296568
 30
0.0
 11
3.219254662392463
 21
-5.288239341691565
 31
0.0
  0
LINE
  5
CC
330
1F
100
AcDbEntity
  8
0
100
AcDbLine
 10
3.219254662392463
 20
-5.288239341691565
 30
0.0
 11
3.229442417075189
 21
-5.3432830667863
 31
0.0
  0
LINE
  5
CD
330
1F
100
AcDbEntity
  8
0
100
AcDbLine
 10
3.074522895739358
 20
-5.554623652098812
 30
0.0
 11
3.017336926775669
 21
-5.563601397346038
 31
0.0
  0
LINE
  5
CE
330
1F
100
AcDbEntity
  8
0
100
AcDbLine
 10
3.127122561860817
 20
-5.531674953924989
 30
0.0
 11
3.074522895739358
 21
-5.554623652098812
 31
0.0
  0
LINE
  5
CF
330
1F
100
AcDbEntity
  8
0
100
AcDbLine
 10
3.171543468204666
 20
-5.49632792899117
 30
0.0
 11
3.127122561860817
 21
-5.531674953924989
 31
0.0
  0
LINE
  5
D0
330
1F
100
AcDbEntity
  8
0
100
AcDbLine
 10
3.204756173957533
 20
-5.451002808803743
 30
0.0
 11
3.171543468204666
 21
-5.49632792899117
 31
0.0
  0
LINE
  5
D1
330
1F
100
AcDbEntity
  8
0
100
AcDbLine
 10
3.224501299488221
 20
-5.398799436870976
 30
0.0
 11
3.204756173957533
 21
-5.451002808803743
 31
0.0
  0
LINE
  5
D2
330
1F
100
AcDbEntity
  8
0
100
AcDbLine
 10
3.229442417075189
 20
-5.3432830667863
 30
0.0
 11
3.224501299488221
 21
-5.398799436870976
 31
0.0
  0
LINE
  5
D3
330
1F
100
AcDbEntity
  8
0
100
AcDbLine
 10
3.017336926775669
 20
-5.563601397346038
 30
0.0
 11
2.959473195308705
 21
-5.557992681737895
 31
0.0
  0
LINE
  5
D4
330
1F
100
AcDbEntity
  8
0
100
AcDbLine
 10
4.399077577365489
 20
-5.875944060040213
 30
0.0
 11
4.341087044290748
 21
-5.870318134606759
 31
0.0
  0
LINE
  5
D5
330
1F
100
AcDbEntity
  8
0
100
AcDbLine
 10
4.456290231875775
 20
-5.866938767639986
 30
0.0
 11
4.399077577365489
 21
-5.875944060040213
 31
0.0
  0
LINE
  5
D6
330
1F
100
AcDbEntity
  8
0
100
AcDbLine
 10
4.553063505661267
 20
-5.808464200577887
 30
0.0
 11
4.508814638994307
 21
-5.843919659620939
 31
0.0
  0
LINE
  5
D7
330
1F
100
AcDbEntity
  8
0
100
AcDbLine
 10
4.508814638994307
 20
-5.843919659620939
 30
0.0
 11
4.456290231875775
 21
-5.866938767639986
 31
0.0
  0
LINE
  5
D8
330
1F
100
AcDbEntity
  8
0
100
AcDbLine
 10
4.586019185950113
 20
-5.763000064064639
 30
0.0
 11
4.553063505661267
 21
-5.808464200577887
 31
0.0
  0
LINE
  5
D9
330
1F
100
AcDbEntity
  8
0
100
AcDbLine
 10
4.60543990332861
 20
-5.710636618000657
 30
0.0
 11
4.586019185950113
 21
-5.763000064064639
 31
0.0
  0
LINE
  5
DA
330
1F
100
AcDbEntity
  8
0
100
AcDbLine
 10
4.610011418339714
 20
-5.654950060088832
 30
0.0
 11
4.60543990332861
 21
-5.710636618000657
 31
0.0
  0
LINE
  5
DB
330
1F
100
AcDbEntity
  8
0
100
AcDbLine
 10
4.599434106447302
 20
-5.599737642012602
 30
0.0
 11
4.610011418339714
 21
-5.654950060088832
 31
0.0
  0
LINE
  5
DC
330
1F
100
AcDbEntity
  8
0
100
AcDbLine
 10
4.574440181767522
 20
-5.548758282576651
 30
0.0
 11
4.599434106447302
 21
-5.599737642012602
 31
0.0
  0
LINE
  5
DD
330
1F
100
AcDbEntity
  8
0
100
AcDbLine
 10
4.536740750301806
 20
-5.505477405959502
 30
0.0
 11
4.574440181767522
 21
-5.548758282576651
 31
0.0
  0
LINE
  5
DE
330
1F
100
AcDbEntity
  8
0
100
AcDbLine
 10
4.48890711529193
 20
-5.472833121492119
 30
0.0
 11
4.536740750301806
 21
-5.505477405959502
 31
0.0
  0
LINE
  5
DF
330
1F
100
AcDbEntity
  8
0
100
AcDbLine
 10
4.434194978016668
 20
-5.45303905042011
 30
0.0
 11
4.48890711529193
 21
-5.472833121492119
 31
0.0
  0
LINE
  5
E0
330
1F
100
AcDbEntity
  8
0
100
AcDbLine
 10
4.376323663001484
 20
-5.447436420389459
 30
0.0
 11
4.434194978016668
 21
-5.45303905042011
 31
0.0
  0
LINE
  5
E1
330
1F
100
AcDbEntity
  8
0
100
AcDbLine
 10
4.319225118199782
 20
-5.456404721120268
 30
0.0
 11
4.376323663001484
 21
-5.447436420389459
 31
0.0
  0
LINE
  5
E2
330
1F
100
AcDbEntity
  8
0
100
AcDbLine
 10
4.266779136797345
 20
-5.479336462313061
 30
0.0
 11
4.319225118199782
 21
-5.456404721120268
 31
0.0
  0
LINE
  5
E3
330
1F
100
AcDbEntity
  8
0
100
AcDbLine
 10
4.222551997753414
 20
-5.514677589288842
 30
0.0
 11
4.266779136797345
 21
-5.479336462313061
 31
0.0
  0
LINE
  5
E4
330
1F
100
AcDbEntity
  8
0
100
AcDbLine
 10
4.189555525139468
 20
-5.560031063696747
 30
0.0
 11
4.222551997753414
 21
-5.514677589288842
 31
0.0
  0
LINE
  5
E5
330
1F
100
AcDbEntity
  8
0
100
AcDbLine
 10
4.170042425795562
 20
-5.612317169411637
 30
0.0
 11
4.189555525139468
 21
-5.560031063696747
 31
0.0
  0
LINE
  5
E6
330
1F
100
AcDbEntity
  8
0
100
AcDbLine
 10
4.165351692845047
 20
-5.667980431969424
 30
0.0
 11
4.170042425795562
 21
-5.612317169411637
 31
0.0
  0
LINE
  5
E7
330
1F
100
AcDbEntity
  8
0
100
AcDbLine
 10
4.17581489513066
 20
-5.723229841640121
 30
0.0
 11
4.165351692845047
 21
-5.667980431969424
 31
0.0
  0
LINE
  5
E8
330
1F
100
AcDbEntity
  8
0
100
AcDbLine
 10
4.200730394075985
 20
-5.774296567778612
 30
0.0
 11
4.17581489513066
 21
-5.723229841640121
 31
0.0
  0
LINE
  5
E9
330
1F
100
AcDbEntity
  8
0
100
AcDbLine
 10
4.238408097798525
 20
-5.817691776414268
 30
0.0
 11
4.200730394075985
 21
-5.774296567778612
 31
0.0
  0
LINE
  5
EA
330
1F
100
AcDbEntity
  8
0
100
AcDbLine
 10
4.286282525031718
 20
-5.850446723061947
 30
0.0
 11
4.238408097798525
 21
-5.817691776414268
 31
0.0
  0
LINE
  5
EB
330
1F
100
AcDbEntity
  8
0
100
AcDbLine
 10
4.341087044290748
 20
-5.870318134606759
 30
0.0
 11
4.286282525031718
 21
-5.850446723061947
 31
0.0
  0
LINE
  5
EC
330
1F
100
AcDbEntity
  8
0
100
AcDbLine
 10
5.560417189169714
 20
-6.036062508538983
 30
0.0
 11
5.549562184450489
 21
-5.980643458731594
 31
0.0
  0
LINE
  5
ED
330
1F
100
AcDbEntity
  8
0
100
AcDbLine
 10
5.549562184450489
 20
-5.980643458731594
 30
0.0
 11
5.553881546731584
 21
-5.924809331923115
 31
0.0
  0
LINE
  5
EE
330
1F
100
AcDbEntity
  8
0
100
AcDbLine
 10
5.585718231638998
 20
-6.087286073102779
 30
0.0
 11
5.560417189169714
 21
-6.036062508538983
 31
0.0
  0
LINE
  5
EF
330
1F
100
AcDbEntity
  8
0
100
AcDbLine
 10
5.623748910565444
 20
-6.130814589993711
 30
0.0
 11
5.585718231638998
 21
-6.087286073102779
 31
0.0
  0
LINE
  5
F0
330
1F
100
AcDbEntity
  8
0
100
AcDbLine
 10
5.671919618875689
 20
-6.163670177285645
 30
0.0
 11
5.623748910565444
 21
-6.130814589993711
 31
0.0
  0
LINE
  5
F1
330
1F
100
AcDbEntity
  8
0
100
AcDbLine
 10
5.726943446067058
 20
-6.18360265228506
 30
0.0
 11
5.671919618875689
 21
-6.163670177285645
 31
0.0
  0
LINE
  5
F2
330
1F
100
AcDbEntity
  8
0
100
AcDbLine
 10
5.983846069916569
 20
-5.912191196818373
 30
0.0
 11
5.994815282524501
 21
-5.967573084558365
 31
0.0
  0
LINE
  5
F3
330
1F
100
AcDbEntity
  8
0
100
AcDbLine
 10
5.994815282524501
 20
-5.967573084558365
 30
0.0
 11
5.990615662886094
 21
-6.023430614075734
 31
0.0
  0
LINE
  5
F4
330
1F
100
AcDbEntity
  8
0
100
AcDbLine
 10
5.990615662886094
 20
-6.023430614075734
 30
0.0
 11
5.971521439186365
 21
-6.075954871667797
 31
0.0
  0
LINE
  5
F5
330
1F
100
AcDbEntity
  8
0
100
AcDbLine
 10
5.971521439186365
 20
-6.075954871667797
 30
0.0
 11
5.938824519881633
 21
-6.121558665052898
 31
0.0
  0
LINE
  5
F6
330
1F
100
AcDbEntity
  8
0
100
AcDbLine
 10
5.938824519881633
 20
-6.121558665052898
 30
0.0
 11
5.894748959384843
 21
-6.157123057936763
 31
0.0
  0
LINE
  5
F7
330
1F
100
AcDbEntity
  8
0
100
AcDbLine
 10
5.894748959384843
 20
-6.157123057936763
 30
0.0
 11
5.842300521743007
 21
-6.180212900339853
 31
0.0
  0
LINE
  5
F8
330
1F
100
AcDbEntity
  8
0
100
AcDbLine
 10
5.842300521743007
 20
-6.180212900339853
 30
0.0
 11
5.785061287287442
 21
-6.189245866875657
 31
0.0
  0
LINE
  5
F9
330
1F
100
AcDbEntity
  8
0
100
AcDbLine
 10
5.785061287287442
 20
-6.189245866875657
 30
0.0
 11
5.726943446067058
 21
-6.18360265228506
 31
0.0
  0
LINE
  5
FA
330
1F
100
AcDbEntity
  8
0
100
AcDbLine
 10
5.958466956186813
 20
-5.861055401579955
 30
0.0
 11
5.983846069916569
 21
-5.912191196818373
 31
0.0
  0
LINE
  5
FB
330
1F
100
AcDbEntity
  8
0
100
AcDbLine
 10
5.605807553736116
 20
-5.826870149795578
 30
0.0
 11
5.649862098860149
 21
-5.791420615869989
 31
0.0
  0
LINE
  5
FC
330
1F
100
AcDbEntity
  8
0
100
AcDbLine
 10
5.573068962927949
 20
-5.87236277109727
 30
0.0
 11
5.605807553736116
 21
-5.826870149795578
 31
0.0
  0
LINE
  5
FD
330
1F
100
AcDbEntity
  8
0
100
AcDbLine
 10
5.920415261766394
 20
-5.817641743598162
 30
0.0
 11
5.958466956186813
 21
-5.861055401579955
 31
0.0
  0
LINE
  5
FE
330
1F
100
AcDbEntity
  8
0
100
AcDbLine
 10
5.702232465260833
 20
-5.768418542916944
 30
0.0
 11
5.759357491725792
 21
-5.759422738524062
 31
0.0
  0
LINE
  5
FF
330
1F
100
AcDbEntity
  8
0
100
AcDbLine
 10
5.553881546731584
 20
-5.924809331923115
 30
0.0
 11
5.573068962927949
 21
-5.87236277109727
 31
0.0
  0
LINE
  5
100
330
1F
100
AcDbEntity
  8
0
100
AcDbLine
 10
5.872286224857683
 20
-5.784897328465165
 30
0.0
 11
5.920415261766394
 21
-5.817641743598162
 31
0.0
  0
LINE
  5
101
330
1F
100
AcDbEntity
  8
0
100
AcDbLine
 10
5.649862098860149
 20
-5.791420615869989
 30
0.0
 11
5.702232465260833
 21
-5.768418542916944
 31
0.0
  0
LINE
  5
102
330
1F
100
AcDbEntity
  8
0
100
AcDbLine
 10
5.759357491725792
 20
-5.759422738524062
 30
0.0
 11
5.817355590182267
 21
-5.765042550356629
 31
0.0
  0
LINE
  5
103
330
1F
100
AcDbEntity
  8
0
100
AcDbLine
 10
5.817355590182267
 20
-5.765042550356629
 30
0.0
 11
5.872286224857683
 21
-5.784897328465165
 31
0.0
  0
LINE
  5
104
330
1F
100
AcDbEntity
  8
0
100
AcDbLine
 10
7.117061972240894
 20
-6.497850659098636
 30
0.0
 11
7.061817746362375
 21
-6.477856838745974
 31
0.0
  0
LINE
  5
105
330
1F
100
AcDbEntity
  8
0
100
AcDbLine
 10
7.061817746362375
 20
-6.477856838745974
 30
0.0
 11
7.013349159833221
 21
-6.444900146263703
 31
0.0
  0
LINE
  5
106
330
1F
100
AcDbEntity
  8
0
100
AcDbLine
 10
7.013349159833221
 20
-6.444900146263703
 30
0.0
 11
6.974963511771227
 21
-6.401237705896621
 31
0.0
  0
LINE
  5
107
330
1F
100
AcDbEntity
  8
0
100
AcDbLine
 10
6.974963511771227
 20
-6.401237705896621
 30
0.0
 11
6.949274671627608
 21
-6.349856579262577
 31
0.0
  0
LINE
  5
108
330
1F
100
AcDbEntity
  8
0
100
AcDbLine
 10
6.949274671627608
 20
-6.349856579262577
 30
0.0
 11
6.938025504159024
 21
-6.294267106811893
 31
0.0
  0
LINE
  5
109
330
1F
100
AcDbEntity
  8
0
100
AcDbLine
 10
6.938025504159024
 20
-6.294267106811893
 30
0.0
 11
6.941971190210133
 21
-6.238261327814807
 31
0.0
  0
LINE
  5
10A
330
1F
100
AcDbEntity
  8
0
100
AcDbLine
 10
6.941971190210133
 20
-6.238261327814807
 30
0.0
 11
6.960830829257029
 21
-6.185653572138385
 31
0.0
  0
LINE
  5
10B
330
1F
100
AcDbEntity
  8
0
100
AcDbLine
 10
6.960830829257029
 20
-6.185653572138385
 30
0.0
 11
6.993309797902
 21
-6.140021162593973
 31
0.0
  0
LINE
  5
10C
330
1F
100
AcDbEntity
  8
0
100
AcDbLine
 10
6.993309797902
 20
-6.140021162593973
 30
0.0
 11
7.037190480243993
 21
-6.10446272215401
 31
0.0
  0
LINE
  5
10D
330
1F
100
AcDbEntity
  8
0
100
AcDbLine
 10
7.037190480243993
 20
-6.10446272215401
 30
0.0
 11
7.089484520061371
 21
-6.081389993382057
 31
0.0
  0
LINE
  5
10E
330
1F
100
AcDbEntity
  8
0
100
AcDbLine
 10
7.089484520061371
 20
-6.081389993382057
 30
0.0
 11
7.146635921945452
 21
-6.072366558611967
 31
0.0
  0
LINE
  5
10F
330
1F
100
AcDbEntity
  8
0
100
AcDbLine
 10
7.146635921945452
 20
-6.072366558611967
 30
0.0
 11
7.204761310106139
 21
-6.078003631405958
 31
0.0
  0
LINE
  5
110
330
1F
100
AcDbEntity
  8
0
100
AcDbLine
 10
7.204761310106139
 20
-6.078003631405958
 30
0.0
 11
7.259911526764465
 21
-6.097919396256256
 31
0.0
  0
LINE
  5
111
330
1F
100
AcDbEntity
  8
0
100
AcDbLine
 10
7.259911526764465
 20
-6.097919396256256
 30
0.0
 11
7.308337555176579
 21
-6.13076440346253
 31
0.0
  0
LINE
  5
112
330
1F
100
AcDbEntity
  8
0
100
AcDbLine
 10
7.308337555176579
 20
-6.13076440346253
 30
0.0
 11
7.346743499600443
 21
-6.174311454787346
 31
0.0
  0
LINE
  5
113
330
1F
100
AcDbEntity
  8
0
100
AcDbLine
 10
7.346743499600443
 20
-6.174311454787346
 30
0.0
 11
7.372510052146304
 21
-6.225604406995425
 31
0.0
  0
LINE
  5
114
330
1F
100
AcDbEntity
  8
0
100
AcDbLine
 10
7.372510052146304
 20
-6.225604406995425
 30
0.0
 11
7.383873525074652
 21
-6.281156545856692
 31
0.0
  0
LINE
  5
115
330
1F
100
AcDbEntity
  8
0
100
AcDbLine
 10
7.383873525074652
 20
-6.281156545856692
 30
0.0
 11
7.380048109522531
 21
-6.337185835578182
 31
0.0
  0
LINE
  5
116
330
1F
100
AcDbEntity
  8
0
100
AcDbLine
 10
7.380048109522531
 20
-6.337185835578182
 30
0.0
 11
7.361282479675537
 21
-6.389871646631344
 31
0.0
  0
LINE
  5
117
330
1F
100
AcDbEntity
  8
0
100
AcDbLine
 10
7.361282479675537
 20
-6.389871646631344
 30
0.0
 11
7.328846069249614
 21
-6.435615741375645
 31
0.0
  0
LINE
  5
118
330
1F
100
AcDbEntity
  8
0
100
AcDbLine
 10
7.328846069249614
 20
-6.435615741375645
 30
0.0
 11
7.284945090668053
 21
-6.47128957090739
 31
0.0
  0
LINE
  5
119
330
1F
100
AcDbEntity
  8
0
100
AcDbLine
 10
7.284945090668053
 20
-6.47128957090739
 30
0.0
 11
7.232573338468724
 21
-6.494450474230933
 31
0.0
  0
LINE
  5
11A
330
1F
100
AcDbEntity
  8
0
100
AcDbLine
 10
7.232573338468724
 20
-6.494450474230933
 30
0.0
 11
7.175307631022871
 21
-6.503511242666551
 31
0.0
  0
LINE
  5
11B
330
1F
100
AcDbEntity
  8
0
100
AcDbLine
 10
7.175307631022871
 20
-6.503511242666551
 30
0.0
 11
7.117061972240894
 21
-6.497850659098636
 31
0.0
  0
LINE
  5
11C
330
1F
100
AcDbEntity
  8
0
100
AcDbLine
 10
8.511462314983657
 20
-6.813066606628771
 30
0.0
 11
8.45599659269747
 21
-6.793011157286369
 31
0.0
  0
LINE
  5
11D
330
1F
100
AcDbEntity
  8
0
100
AcDbLine
 10
8.45599659269747
 20
-6.793011157286369
 30
0.0
 11
8.407228520255325
 21
-6.759952892204217
 31
0.0
  0
LINE
  5
11E
330
1F
100
AcDbEntity
  8
0
100
AcDbLine
 10
8.407228520255325
 20
-6.759952892204217
 30
0.0
 11
8.368485895713302
 21
-6.7161559093486
 31
0.0
  0
LINE
  5
11F
330
1F
100
AcDbEntity
  8
0
100
AcDbLine
 10
8.368485895713302
 20
-6.7161559093486
 30
0.0
 11
8.342406988392057
 21
-6.664616492540693
 31
0.0
  0
LINE
  5
120
330
1F
100
AcDbEntity
  8
0
100
AcDbLine
 10
8.342406988392057
 20
-6.664616492540693
 30
0.0
 11
8.330761281616022
 21
-6.608855810120026
 31
0.0
  0
LINE
  5
121
330
1F
100
AcDbEntity
  8
0
100
AcDbLine
 10
8.330761281616022
 20
-6.608855810120026
 30
0.0
 11
8.334330969852823
 21
-6.552677586144209
 31
0.0
  0
LINE
  5
122
330
1F
100
AcDbEntity
  8
0
100
AcDbLine
 10
8.334330969852823
 20
-6.552677586144209
 30
0.0
 11
8.352860723032746
 21
-6.4999078913234
 31
0.0
  0
LINE
  5
123
330
1F
100
AcDbEntity
  8
0
100
AcDbLine
 10
8.352860723032746
 20
-6.4999078913234
 30
0.0
 11
8.38507831674724
 21
-6.454135048239841
 31
0.0
  0
LINE
  5
124
330
1F
100
AcDbEntity
  8
0
100
AcDbLine
 10
8.38507831674724
 20
-6.454135048239841
 30
0.0
 11
8.428783858179836
 21
-6.418467198646732
 31
0.0
  0
LINE
  5
125
330
1F
100
AcDbEntity
  8
0
100
AcDbLine
 10
8.428783858179836
 20
-6.418467198646732
 30
0.0
 11
8.481000854336788
 21
-6.395323488003331
 31
0.0
  0
LINE
  5
126
330
1F
100
AcDbEntity
  8
0
100
AcDbLine
 10
8.481000854336788
 20
-6.395323488003331
 30
0.0
 11
8.538178524040047
 21
-6.386272295361289
 31
0.0
  0
LINE
  5
127
330
1F
100
AcDbEntity
  8
0
100
AcDbLine
 10
8.538178524040047
 20
-6.386272295361289
 30
0.0
 11
8.596431711043097
 21
-6.391926708763229
 31
0.0
  0
LINE
  5
128
330
1F
100
AcDbEntity
  8
0
100
AcDbLine
 10
8.596431711043097
 20
-6.391926708763229
 30
0.0
 11
8.651802601179767
 21
-6.411903741781482
 31
0.0
  0
LINE
  5
129
330
1F
100
AcDbEntity
  8
0
100
AcDbLine
 10
8.651802601179767
 20
-6.411903741781482
 30
0.0
 11
8.700527221184183
 21
-6.444849805307973
 31
0.0
  0
LINE
  5
12A
330
1F
100
AcDbEntity
  8
0
100
AcDbLine
 10
8.700527221184183
 20
-6.444849805307973
 30
0.0
 11
8.739289416008491
 21
-6.488530865720723
 31
0.0
  0
LINE
  5
12B
330
1F
100
AcDbEntity
  8
0
100
AcDbLine
 10
8.739289416008491
 20
-6.488530865720723
 30
0.0
 11
8.765445672445539
 21
-6.539981700505241
 31
0.0
  0
LINE
  5
12C
330
1F
100
AcDbEntity
  8
0
100
AcDbLine
 10
8.765445672445539
 20
-6.539981700505241
 30
0.0
 11
8.777205781529988
 21
-6.595704876757293
 31
0.0
  0
LINE
  5
12D
330
1F
100
AcDbEntity
  8
0
100
AcDbLine
 10
8.777205781529988
 20
-6.595704876757293
 30
0.0
 11
8.773756894825427
 21
-6.651906720138783
 31
0.0
  0
LINE
  5
12E
330
1F
100
AcDbEntity
  8
0
100
AcDbLine
 10
8.773756894825427
 20
-6.651906720138783
 30
0.0
 11
8.755321973773748
 21
-6.70475483115715
 31
0.0
  0
LINE
  5
12F
330
1F
100
AcDbEntity
  8
0
100
AcDbLine
 10
8.755321973773748
 20
-6.70475483115715
 30
0.0
 11
8.723147832599096
 21
-6.750639875719671
 31
0.0
  0
LINE
  5
130
330
1F
100
AcDbEntity
  8
0
100
AcDbLine
 10
8.723147832599096
 20
-6.750639875719671
 30
0.0
 11
8.679422721007612
 21
-6.786423647805549
 31
0.0
  0
LINE
  5
131
330
1F
100
AcDbEntity
  8
0
100
AcDbLine
 10
8.679422721007612
 20
-6.786423647805549
 30
0.0
 11
8.627128375756136
 21
-6.809655940598931
 31
0.0
  0
LINE
  5
132
330
1F
100
AcDbEntity
  8
0
100
AcDbLine
 10
8.627128375756136
 20
-6.809655940598931
 30
0.0
 11
8.569836303642354
 21
-6.818744639486289
 31
0.0
  0
LINE
  5
133
330
1F
100
AcDbEntity
  8
0
100
AcDbLine
 10
8.569836303642354
 20
-6.818744639486289
 30
0.0
 11
8.511462314983657
 21
-6.813066606628771
 31
0.0
  0
LINE
  5
134
330
1F
100
AcDbEntity
  8
0
100
AcDbLine
 10
9.910164287964783
 20
-7.129254973922404
 30
0.0
 11
9.854475964529815
 21
-7.109137610202502
 31
0.0
  0
LINE
  5
135
330
1F
100
AcDbEntity
  8
0
100
AcDbLine
 10
9.854475964529815
 20
-7.109137610202502
 30
0.0
 11
9.80540678784366
 21
-7.075977302225371
 31
0.0
  0
LINE
  5
136
330
1F
100
AcDbEntity
  8
0
100
AcDbLine
 10
9.80540678784366
 20
-7.075977302225371
 30
0.0
 11
9.766305165955602
 21
-7.032045154048064
 31
0.0
  0
LINE
  5
137
330
1F
100
AcDbEntity
  8
0
100
AcDbLine
 10
9.766305165955602
 20
-7.032045154048064
 30
0.0
 11
9.739833906475315
 21
-6.980346714469615
 31
0.0
  0
LINE
  5
138
330
1F
100
AcDbEntity
  8
0
100
AcDbLine
 10
9.739833906475315
 20
-6.980346714469615
 30
0.0
 11
9.727789267458249
 21
-6.924414029895025
 31
0.0
  0
LINE
  5
139
330
1F
100
AcDbEntity
  8
0
100
AcDbLine
 10
9.727789267458249
 20
-6.924414029895025
 30
0.0
 11
9.730980620140691
 21
-6.868062563260732
 31
0.0
  0
LINE
  5
13A
330
1F
100
AcDbEntity
  8
0
100
AcDbLine
 10
9.730980620140691
 20
-6.868062563260732
 30
0.0
 11
9.749178363898706
 21
-6.815130180412442
 31
0.0
  0
LINE
  5
13B
330
1F
100
AcDbEntity
  8
0
100
AcDbLine
 10
9.749178363898706
 20
-6.815130180412442
 30
0.0
 11
9.781132817402112
 21
-6.7692162545154
 31
0.0
  0
LINE
  5
13C
330
1F
100
AcDbEntity
  8
0
100
AcDbLine
 10
9.781132817402112
 20
-6.7692162545154
 30
0.0
 11
9.824661930454626
 21
-6.733438490032486
 31
0.0
  0
LINE
  5
13D
330
1F
100
AcDbEntity
  8
0
100
AcDbLine
 10
9.824661930454626
 20
-6.733438490032486
 30
0.0
 11
9.876801160330958
 21
-6.710223469455842
 31
0.0
  0
LINE
  5
13E
330
1F
100
AcDbEntity
  8
0
100
AcDbLine
 10
9.876801160330958
 20
-6.710223469455842
 30
0.0
 11
9.93400498888396
 21
-6.701144390661498
 31
0.0
  0
LINE
  5
13F
330
1F
100
AcDbEntity
  8
0
100
AcDbLine
 10
9.93400498888396
 20
-6.701144390661498
 30
0.0
 11
9.992386486763786
 21
-6.70681622480868
 31
0.0
  0
LINE
  5
140
330
1F
100
AcDbEntity
  8
0
100
AcDbLine
 10
9.992386486763786
 20
-6.70681622480868
 30
0.0
 11
10.04797914884128
 21
-6.726854809155285
 31
0.0
  0
LINE
  5
141
330
1F
100
AcDbEntity
  8
0
100
AcDbLine
 10
10.04797914884128
 20
-6.726854809155285
 30
0.0
 11
10.09700397109524
 21
-6.759902396110091
 31
0.0
  0
LINE
  5
142
330
1F
100
AcDbEntity
  8
0
100
AcDbLine
 10
10.09700397109524
 20
-6.759902396110091
 30
0.0
 11
10.13612443017326
 21
-6.803718085151237
 31
0.0
  0
LINE
  5
143
330
1F
100
AcDbEntity
  8
0
100
AcDbLine
 10
10.13612443017326
 20
-6.803718085151237
 30
0.0
 11
10.16267267101026
 21
-6.855327532592771
 31
0.0
  0
LINE
  5
144
330
1F
100
AcDbEntity
  8
0
100
AcDbLine
 10
10.16267267101026
 20
-6.855327532592771
 30
0.0
 11
10.17483180845027
 21
-6.911222537354212
 31
0.0
  0
LINE
  5
145
330
1F
100
AcDbEntity
  8
0
100
AcDbLine
 10
10.17483180845027
 20
-6.911222537354212
 30
0.0
 11
10.17176179153446
 21
-6.96759773274634
 31
0.0
  0
LINE
  5
146
330
1F
100
AcDbEntity
  8
0
100
AcDbLine
 10
10.17176179153446
 20
-6.96759773274634
 30
0.0
 11
10.15365970911165
 21
-7.020608894840354
 31
0.0
  0
LINE
  5
147
330
1F
100
AcDbEntity
  8
0
100
AcDbLine
 10
10.15365970911165
 20
-7.020608894840354
 30
0.0
 11
10.12174961014265
 21
-7.066635541682434
 31
0.0
  0
LINE
  5
148
330
1F
100
AcDbEntity
  8
0
100
AcDbLine
 10
10.12174961014265
 20
-7.066635541682434
 30
0.0
 11
10.07820166002467
 21
-7.102529765351792
 31
0.0
  0
LINE
  5
149
330
1F
100
AcDbEntity
  8
0
100
AcDbLine
 10
10.07820166002467
 20
-7.102529765351792
 30
0.0
 11
10.0259854488139
 21
-7.125833778192926
 31
0.0
  0
LINE
  5
14A
330
1F
100
AcDbEntity
  8
0
100
AcDbLine
 10
10.0259854488139
 20
-7.125833778192926
 30
0.0
 11
9.968667121735734
 21
-7.134950536877708
 31
0.0
  0
LINE
  5
14B
330
1F
100
AcDbEntity
  8
0
100
AcDbLine
 10
9.968667121735734
 20
-7.134950536877708
 30
0.0
 11
9.910164287964783
 21
-7.129254973922404
 31
0.0
  0
LINE
  5
14C
330
1F
100
AcDbEntity
  8
0
100
AcDbLine
 10
11.31318782729019
 20
-7.44642026770427
 30
0.0
 11
11.25727579088936
 21
-7.426240702454318
 31
0.0
  0
LINE
  5
14D
330
1F
100
AcDbEntity
  8
0
100
AcDbLine
 10
11.25727579088936
 20
-7.426240702454318
 30
0.0
 11
11.20790388090572
 21
-7.392977878379239
 31
0.0
  0
LINE
  5
14E
330
1F
100
AcDbEntity
  8
0
100
AcDbLine
 10
11.20790388090572
 20
-7.392977878379239
 30
0.0
 11
11.16844122717436
 21
-7.348909938196806
 31
0.0
  0
LINE
  5
14F
330
1F
100
AcDbEntity
  8
0
100
AcDbLine
 10
11.16844122717436
 20
-7.348909938196806
 30
0.0
 11
11.14157531494909
 21
-7.297051738723352
 31
0.0
  0
LINE
  5
150
330
1F
100
AcDbEntity
  8
0
100
AcDbLine
 10
11.14157531494909
 20
-7.297051738723352
 30
0.0
 11
11.12912933424752
 21
-7.240946254916135
 31
0.0
  0
LINE
  5
151
330
1F
100
AcDbEntity
  8
0
100
AcDbLine
 10
11.12912933424752
 20
-7.240946254916135
 30
0.0
 11
11.13193999734657
 21
-7.184420743016252
 31
0.0
  0
LINE
  5
152
330
1F
100
AcDbEntity
  8
0
100
AcDbLine
 10
11.13193999734657
 20
-7.184420743016252
 30
0.0
 11
11.14980359316727
 21
-7.131324918632673
 31
0.0
  0
LINE
  5
153
330
1F
100
AcDbEntity
  8
0
100
AcDbLine
 10
11.14980359316727
 20
-7.131324918632673
 30
0.0
 11
11.18149312856114
 21
-7.085269256639192
 31
0.0
  0
LINE
  5
154
330
1F
100
AcDbEntity
  8
0
100
AcDbLine
 10
11.18149312856114
 20
-7.085269256639192
 30
0.0
 11
11.22484451634069
 21
-7.04938106840803
 31
0.0
  0
LINE
  5
155
330
1F
100
AcDbEntity
  8
0
100
AcDbLine
 10
11.22484451634069
 20
-7.04938106840803
 30
0.0
 11
11.27690525172516
 21
-7.02609440781159
 31
0.0
  0
LINE
  5
156
330
1F
100
AcDbEntity
  8
0
100
AcDbLine
 10
11.27690525172516
 20
-7.02609440781159
 30
0.0
 11
11.33413512877516
 21
-7.016987313792931
 31
0.0
  0
LINE
  5
157
330
1F
100
AcDbEntity
  8
0
100
AcDbLine
 10
11.33413512877516
 20
-7.016987313792931
 30
0.0
 11
11.39264545248366
 21
-7.022676649317203
 31
0.0
  0
LINE
  5
158
330
1F
100
AcDbEntity
  8
0
100
AcDbLine
 10
11.39264545248366
 20
-7.022676649317203
 30
0.0
 11
11.44846099198634
 21
-7.042777069900138
 31
0.0
  0
LINE
  5
159
330
1F
100
AcDbEntity
  8
0
100
AcDbLine
 10
11.44846099198634
 20
-7.042777069900138
 30
0.0
 11
11.49778763780026
 21
-7.075926650274593
 31
0.0
  0
LINE
  5
15A
330
1F
100
AcDbEntity
  8
0
100
AcDbLine
 10
11.49778763780026
 20
-7.075926650274593
 30
0.0
 11
11.5372683885506
 21
-7.119877591309438
 31
0.0
  0
LINE
  5
15B
330
1F
100
AcDbEntity
  8
0
100
AcDbLine
 10
11.5372683885506
 20
-7.119877591309438
 30
0.0
 11
11.56421090985596
 21
-7.1716463859969
 31
0.0
  0
LINE
  5
15C
330
1F
100
AcDbEntity
  8
0
100
AcDbLine
 10
11.56421090985596
 20
-7.1716463859969
 30
0.0
 11
11.57677148434904
 21
-7.227714015272869
 31
0.0
  0
LINE
  5
15D
330
1F
100
AcDbEntity
  8
0
100
AcDbLine
 10
11.57677148434904
 20
-7.227714015272869
 30
0.0
 11
11.57408269447651
 21
-7.284263365958823
 31
0.0
  0
LINE
  5
15E
330
1F
100
AcDbEntity
  8
0
100
AcDbLine
 10
11.57408269447651
 20
-7.284263365958823
 30
0.0
 11
11.55631559553066
 21
-7.337438334880861
 31
0.0
  0
LINE
  5
15F
330
1F
100
AcDbEntity
  8
0
100
AcDbLine
 10
11.55631559553066
 20
-7.337438334880861
 30
0.0
 11
11.52467132440883
 21
-7.383607240497078
 31
0.0
  0
LINE
  5
160
330
1F
100
AcDbEntity
  8
0
100
AcDbLine
 10
11.52467132440883
 20
-7.383607240497078
 30
0.0
 11
11.48130183973591
 21
-7.419612427926502
 31
0.0
  0
LINE
  5
161
330
1F
100
AcDbEntity
  8
0
100
AcDbLine
 10
11.48130183973591
 20
-7.419612427926502
 30
0.0
 11
11.42916449529465
 21
-7.442988493437496
 31
0.0
  0
LINE
  5
162
330
1F
100
AcDbEntity
  8
0
100
AcDbLine
 10
11.42916449529465
 20
-7.442988493437496
 30
0.0
 11
11.37182002435081
 21
-7.452133442065286
 31
0.0
  0
LINE
  5
163
330
1F
100
AcDbEntity
  8
0
100
AcDbLine
 10
11.37182002435081
 20
-7.452133442065286
 30
0.0
 11
11.31318782729019
 21
-7.44642026770427
 31
0.0
  0
LINE
  5
164
330
1F
100
AcDbEntity
  8
0
100
AcDbLine
 10
12.72055299244951
 20
-7.764567022591033
 30
0.0
 11
12.66441612413383
 21
-7.744324966880013
 31
0.0
  0
LINE
  5
165
330
1F
100
AcDbEntity
  8
0
100
AcDbLine
 10
12.66441612413383
 20
-7.744324966880013
 30
0.0
 11
12.61473984099045
 21
-7.710959150573652
 31
0.0
  0
LINE
  5
166
330
1F
100
AcDbEntity
  8
0
100
AcDbLine
 10
12.61473984099045
 20
-7.710959150573652
 30
0.0
 11
12.57491410717648
 21
-7.666754787822564
 31
0.0
  0
LINE
  5
167
330
1F
100
AcDbEntity
  8
0
100
AcDbLine
 10
12.57491410717648
 20
-7.666754787822564
 30
0.0
 11
12.54765122588813
 21
-7.614736086766833
 31
0.0
  0
LINE
  5
168
330
1F
100
AcDbEntity
  8
0
100
AcDbLine
 10
12.54765122588813
 20
-7.614736086766833
 30
0.0
 11
12.53480147741298
 21
-7.558457001715659
 31
0.0
  0
LINE
  5
169
330
1F
100
AcDbEntity
  8
0
100
AcDbLine
 10
12.53480147741298
 20
-7.558457001715659
 30
0.0
 11
12.53722908047605
 21
-7.501756636977592
 31
0.0
  0
LINE
  5
16A
330
1F
100
AcDbEntity
  8
0
100
AcDbLine
 10
12.53722908047605
 20
-7.501756636977592
 30
0.0
 11
12.55475637475934
 21
-7.448496612890446
 31
0.0
  0
LINE
  5
16B
330
1F
100
AcDbEntity
  8
0
100
AcDbLine
 10
12.55475637475934
 20
-7.448496612890446
 30
0.0
 11
12.58617920142192
 21
-7.402298557477976
 31
0.0
  0
LINE
  5
16C
330
1F
100
AcDbEntity
  8
0
100
AcDbLine
 10
12.58617920142192
 20
-7.402298557477976
 30
0.0
 11
12.62935155753377
 21
-7.366299433494205
 31
0.0
  0
LINE
  5
16D
330
1F
100
AcDbEntity
  8
0
100
AcDbLine
 10
12.62935155753377
 20
-7.366299433494205
 30
0.0
 11
12.68133306457565
 21
-7.342940800751022
 31
0.0
  0
LINE
  5
16E
330
1F
100
AcDbEntity
  8
0
100
AcDbLine
 10
12.68133306457565
 20
-7.342940800751022
 30
0.0
 11
12.73858887837259
 21
-7.333805561638254
 31
0.0
  0
LINE
  5
16F
330
1F
100
AcDbEntity
  8
0
100
AcDbLine
 10
12.73858887837259
 20
-7.333805561638254
 30
0.0
 11
12.79722854580056
 21
-7.339512479669833
 31
0.0
  0
LINE
  5
170
330
1F
100
AcDbEntity
  8
0
100
AcDbLine
 10
12.79722854580056
 20
-7.339512479669833
 30
0.0
 11
12.85326807529009
 21
-7.359675023158166
 31
0.0
  0
LINE
  5
171
330
1F
100
AcDbEntity
  8
0
100
AcDbLine
 10
12.85326807529009
 20
-7.359675023158166
 30
0.0
 11
12.90289817671317
 21
-7.392927069849117
 31
0.0
  0
LINE
  5
172
330
1F
100
AcDbEntity
  8
0
100
AcDbLine
 10
12.90289817671317
 20
-7.392927069849117
 30
0.0
 11
12.94274126022986
 21
-7.437013890097369
 31
0.0
  0
LINE
  5
173
330
1F
100
AcDbEntity
  8
0
100
AcDbLine
 10
12.94274126022986
 20
-7.437013890097369
 30
0.0
 11
12.97008037375872
 21
-7.488942771162856
 31
0.0
  0
LINE
  5
174
330
1F
100
AcDbEntity
  8
0
100
AcDbLine
 10
12.97008037375872
 20
-7.488942771162856
 30
0.0
 11
12.983044810636
 21
-7.545183825882811
 31
0.0
  0
LINE
  5
175
330
1F
100
AcDbEntity
  8
0
100
AcDbLine
 10
12.983044810636
 20
-7.545183825882811
 30
0.0
 11
12.98073962150943
 21
-7.601908140116492
 31
0.0
  0
LINE
  5
176
330
1F
100
AcDbEntity
  8
0
100
AcDbLine
 10
12.98073962150943
 20
-7.601908140116492
 30
0.0
 11
12.96330966602797
 21
-7.655247676296767
 31
0.0
  0
LINE
  5
177
330
1F
100
AcDbEntity
  8
0
100
AcDbLine
 10
12.96330966602797
 20
-7.655247676296767
 30
0.0
 11
12.93193302118811
 21
-7.701559501246158
 31
0.0
  0
LINE
  5
178
330
1F
100
AcDbEntity
  8
0
100
AcDbLine
 10
12.93193302118811
 20
-7.701559501246158
 30
0.0
 11
12.88874331550029
 21
-7.737676167783833
 31
0.0
  0
LINE
  5
179
330
1F
100
AcDbEntity
  8
0
100
AcDbLine
 10
12.88874331550029
 20
-7.737676167783833
 30
0.0
 11
12.83668557624221
 21
-7.761124620646814
 31
0.0
  0
LINE
  5
17A
330
1F
100
AcDbEntity
  8
0
100
AcDbLine
 10
12.83668557624221
 20
-7.761124620646814
 30
0.0
 11
12.77931507394072
 21
-7.770297890169292
 31
0.0
  0
LINE
  5
17B
330
1F
100
AcDbEntity
  8
0
100
AcDbLine
 10
12.77931507394072
 20
-7.770297890169292
 30
0.0
 11
12.72055299244951
 21
-7.764567022591033
 31
0.0
  0
LINE
  5
17C
330
1F
100
AcDbEntity
  8
0
100
AcDbLine
 10
14.13227996727204
 20
-8.083699801307391
 30
0.0
 11
14.07591714090419
 21
-8.063394964412035
 31
0.0
  0
LINE
  5
17D
330
1F
100
AcDbEntity
  8
0
100
AcDbLine
 10
14.07591714090419
 20
-8.063394964412035
 30
0.0
 11
14.02593483384289
 21
-8.029925676787967
 31
0.0
  0
LINE
  5
17E
330
1F
100
AcDbEntity
  8
0
100
AcDbLine
 10
14.02593483384289
 20
-8.029925676787967
 30
0.0
 11
13.98574395785312
 21
-7.985584256994533
 31
0.0
  0
LINE
  5
17F
330
1F
100
AcDbEntity
  8
0
100
AcDbLine
 10
13.98574395785312
 20
-7.985584256994533
 30
0.0
 11
13.9580817753226
 21
-7.933404308071086
 31
0.0
  0
LINE
  5
180
330
1F
100
AcDbEntity
  8
0
100
AcDbLine
 10
13.9580817753226
 20
-7.933404308071086
 30
0.0
 11
13.94482581620213
 21
-7.876950814793769
 31
0.0
  0
LINE
  5
181
330
1F
100
AcDbEntity
  8
0
100
AcDbLine
 10
13.94482581620213
 20
-7.876950814793769
 30
0.0
 11
13.94686797221726
 21
-7.820074784640989
 31
0.0
  0
LINE
  5
182
330
1F
100
AcDbEntity
  8
0
100
AcDbLine
 10
13.94686797221726
 20
-7.820074784640989
 30
0.0
 11
13.96405679615292
 21
-7.766649797985442
 31
0.0
  0
LINE
  5
183
330
1F
100
AcDbEntity
  8
0
100
AcDbLine
 10
13.96405679615292
 20
-7.766649797985442
 30
0.0
 11
13.99521111063259
 21
-7.720308687760565
 31
0.0
  0
LINE
  5
184
330
1F
100
AcDbEntity
  8
0
100
AcDbLine
 10
13.99521111063259
 20
-7.720308687760565
 30
0.0
 11
14.03820311909971
 21
-7.684198112849564
 31
0.0
  0
LINE
  5
185
330
1F
100
AcDbEntity
  8
0
100
AcDbLine
 10
14.03820311909971
 20
-7.684198112849564
 30
0.0
 11
14.09010465825987
 21
-7.660767173776504
 31
0.0
  0
LINE
  5
186
330
1F
100
AcDbEntity
  8
0
100
AcDbLine
 10
14.09010465825987
 20
-7.660767173776504
 30
0.0
 11
14.14738629564225
 21
-7.651603658895868
 31
0.0
  0
LINE
  5
187
330
1F
100
AcDbEntity
  8
0
100
AcDbLine
 10
14.14738629564225
 20
-7.651603658895868
 30
0.0
 11
14.20615582764102
 21
-7.657328241067208
 31
0.0
  0
LINE
  5
188
330
1F
100
AcDbEntity
  8
0
100
AcDbLine
 10
14.20615582764102
 20
-7.657328241067208
 30
0.0
 11
14.26242046681222
 21
-7.677553195904729
 31
0.0
  0
LINE
  5
189
330
1F
100
AcDbEntity
  8
0
100
AcDbLine
 10
14.26242046681222
 20
-7.677553195904729
 30
0.0
 11
14.31235566671886
 21
-7.710908184737015
 31
0.0
  0
LINE
  5
18A
330
1F
100
AcDbEntity
  8
0
100
AcDbLine
 10
14.31235566671886
 20
-7.710908184737015
 30
0.0
 11
14.35256313788251
 21
-7.755131515302624
 31
0.0
  0
LINE
  5
18B
330
1F
100
AcDbEntity
  8
0
100
AcDbLine
 10
14.35256313788251
 20
-7.755131515302624
 30
0.0
 11
14.38030117120517
 21
-7.807221226456596
 31
0.0
  0
LINE
  5
18C
330
1F
100
AcDbEntity
  8
0
100
AcDbLine
 10
14.38030117120517
 20
-7.807221226456596
 30
0.0
 11
14.39367191256827
 21
-7.863636512512457
 31
0.0
  0
LINE
  5
18D
330
1F
100
AcDbEntity
  8
0
100
AcDbLine
 10
14.39367191256827
 20
-7.863636512512457
 30
0.0
 11
14.39175271447457
 21
-7.920536603556986
 31
0.0
  0
LINE
  5
18E
330
1F
100
AcDbEntity
  8
0
100
AcDbLine
 10
14.39175271447457
 20
-7.920536603556986
 30
0.0
 11
14.37466207771019
 21
-7.974041472139803
 31
0.0
  0
LINE
  5
18F
330
1F
100
AcDbEntity
  8
0
100
AcDbLine
 10
14.37466207771019
 20
-7.974041472139803
 30
0.0
 11
14.34355487048769
 21
-8.020496881077364
 31
0.0
  0
LINE
  5
190
330
1F
100
AcDbEntity
  8
0
100
AcDbLine
 10
14.34355487048769
 20
-8.020496881077364
 30
0.0
 11
14.30054626697459
 21
-8.056725545267653
 31
0.0
  0
LINE
  5
191
330
1F
100
AcDbEntity
  8
0
100
AcDbLine
 10
14.30054626697459
 20
-8.056725545267653
 30
0.0
 11
14.24856887704765
 21
-8.080246722240748
 31
0.0
  0
LINE
  5
192
330
1F
100
AcDbEntity
  8
0
100
AcDbLine
 10
14.24856887704765
 20
-8.080246722240748
 30
0.0
 11
14.19117245732012
 21
-8.089448444421938
 31
0.0
  0
LINE
  5
193
330
1F
100
AcDbEntity
  8
0
100
AcDbLine
 10
14.19117245732012
 20
-8.089448444421938
 30
0.0
 11
14.13227996727204
 21
-8.083699801307391
 31
0.0
  0
ENDSEC
  0
SECTION
  2
OBJECTS
  0
DICTIONARY
  5
C
330
0
100
AcDbDictionary
  3
ACAD_GROUP
350
D
  3
ACAD_LAYOUT
350
1A
  3
ACAD_MATERIAL
350
43
  3
ACAD_MLEADERSTYLE
350
6B
  3
ACAD_MLINESTYLE
350
17
  3
ACAD_PLOTSETTINGS
350
19
  3
ACAD_SCALELIST
350
47
  3
ACAD_VISUALSTYLE
350
2A
  3
ACDBHEADERROUNDTRIPXREC
350
194
  3
ACDBVARIABLEDICTIONARY
350
1B5
  0
DICTIONARY
  5
1BC
330
8
100
AcDbDictionary
280
     1
  3
ACAD_XREC_ROUNDTRIP
360
1BD
  0
DICTIONARY
  5
D
102
{ACAD_REACTORS
330
C
102
}
330
C
100
AcDbDictionary
  0
DICTIONARY
  5
1A
102
{ACAD_REACTORS
330
C
102
}
330
C
100
AcDbDictionary
  0
DICTIONARY
  5
43
102
{ACAD_REACTORS
330
C
102
}
330
C
100
AcDbDictionary
  3
BYBLOCK
350
45
  3
BYLAYER
350
44
  3
GLOBAL
350
46
  0
DICTIONARY
  5
6B
102
{ACAD_REACTORS
330
C
102
}
330
C
100
AcDbDictionary
  3
STANDARD
350
6C
  0
DICTIONARY
  5
17
102
{ACAD_REACTORS
330
C
102
}
330
C
100
AcDbDictionary
  3
STANDARD
350
18
  0
DICTIONARY
  5
19
102
{ACAD_REACTORS
330
C
102
}
330
C
100
AcDbDictionary
  0
DICTIONARY
  5
47
102
{ACAD_REACTORS
330
C
102
}
330
C
100
AcDbDictionary
  3
A0
350
48
  3
A1
350
49
  3
A2
350
4A
  3
A3
350
4B
  3
A4
350
4C
  3
A5
350
4D
  3
A6
350
4E
  3
A7
350
4F
  3
A8
350
50
  3
A9
350
51
  3
B0
350
52
  3
B1
350
53
  3
B2
350
54
  3
B3
350
55
  3
B4
350
56
  3
B5
350
57
  3
B6
350
58
  3
B7
350
59
  3
B8
350
5A
  3
B9
350
5B
  3
C0
350
5C
  3
C1
350
5D
  3
C2
350
5E
  3
C3
350
5F
  3
C4
350
60
  3
C5
350
61
  3
C6
350
62
  3
C7
350
63
  3
C8
350
64
  3
C9
350
65
  3
D0
350
66
  3
D1
350
67
  3
D2
350
68
  0
DICTIONARY
  5
2A
102
{ACAD_REACTORS
330
C
102
}
330
C
100
AcDbDictionary
  3
2DWIREFRAME
350
2F
  3
BASIC
350
32
  3
BRIGHTEN
350
36
  3
COLORCHANGE
350
3A
  3
CONCEPTUAL
350
34
  3
DIM
350
35
  3
EDGECOLOROFF
350
3D
  3
FACEPATTERN
350
39
  3
FLAT
350
2B
  3
FLATWITHEDGES
350
2C
  3
GOURAUD
350
2D
  3
GOURAUDWITHEDGES
350
2E
  3
HIDDEN
350
31
  3
JITTEROFF
350
3B
  3
LINEPATTERN
350
38
  3
OVERHANGOFF
350
3C
  3
REALISTIC
350
33
  3
SHADED
350
42
  3
SHADED_WITH_EDGES
350
41
  3
SHADES_OF_GRAY
350
3E
  3
SKETCHY
350
3F
  3
THICKEN
350
37
  3
WIREFRAME
350
30
  3
X-RAY
350
40
  0
DICTIONARY
  5
194
102
{ACAD_REACTORS
330
C
102
}
330
C
100
AcDbDictionary
  3
CEPSNID
350
19E
  3
CEPSNTYPE
350
19D
  3
DIMSTYLEDATA
350
1B4
  3
FINGERPRINTGUID
350
19F
  3
HYPERLINKBASE
350
197
  3
INSUNITS
350
19C
  3
LAYOUTDICT
350
199
  3
LWETCUNION
350
19B
  3
PLOTSETDICT
350
19A
  3
PSVPSCALE
350
1A1
  3
PUCSBASE
350
1A4
  3
PUCSORGBACK
350
1AA
  3
PUCSORGBOTTOM
350
1A6
  3
PUCSORGFRONT
350
1A9
  3
PUCSORGLEFT
350
1A7
  3
PUCSORGRIGHT
350
1A8
  3
PUCSORGTOP
350
1A5
  3
PUCSORTHOREF
350
1A2
  3
PUCSORTHOVIEW
350
1A3
  3
STYLESHEET
350
198
  3
TSTACKALIGN
350
195
  3
TSTACKSIZE
350
196
  3
UCSBASE
350
1AD
  3
UCSORGBACK
350
1B3
  3
UCSORGBOTTOM
350
1AF
  3
UCSORGFRONT
350
1B2
  3
UCSORGLEFT
350
1B0
  3
UCSORGRIGHT
350
1B1
  3
UCSORGTOP
350
1AE
  3
UCSORTHOREF
350
1AB
  3
UCSORTHOVIEW
350
1AC
  3
VERSIONGUID
350
1A0
  0
DICTIONARY
  5
1B5
102
{ACAD_REACTORS
330
C
102
}
330
C
100
AcDbDictionary
  3
CANNOSCALE
350
1BE
  3
CMLEADERSTYLE
350
1B7
  3
CTABLESTYLE
350
1B6
  3
DIMASSOC
350
1BA
  3
HIDETEXT
350
1BB
  3
MSLTSCALE
350
1BF
  0
XRECORD
  5
1BD
102
{ACAD_REACTORS
330
1BC
102
}
330
1BC
100
AcDbXrecord
102
VTR_0.000_0.000_1.000_1.000_VISUALSTYLE
340
2F
102
VTR_0.000_0.000_1.000_1.000_GRIDDISPLAY
 70
     3
102
VTR_0.000_0.000_1.000_1.000_GRIDMAJOR
 70
     5
102
VTR_0.000_0.000_1.000_1.000_DEFAULTLIGHTING
280
     1
102
VTR_0.000_0.000_1.000_1.000_DEFAULTLIGHTINGTYPE
 70
     1
102
VTR_0.000_0.000_1.000_1.000_BRIGHTNESS
141
0.0
102
VTR_0.000_0.000_1.000_1.000_CONTRAST
142
0.0
  0
MATERIAL
  5
45
102
{ACAD_REACTORS
330
43
102
}
102
{ACAD_XDICTIONARY
360
1C2
102
}
330
43
100
AcDbMaterial
  1
BYBLOCK
  0
MATERIAL
  5
44
102
{ACAD_REACTORS
330
43
102
}
102
{ACAD_XDICTIONARY
360
1C0
102
}
330
43
100
AcDbMaterial
  1
BYLAYER
  0
MATERIAL
  5
46
102
{ACAD_REACTORS
330
43
102
}
102
{ACAD_XDICTIONARY
360
1C4
102
}
330
43
100
AcDbMaterial
  1
GLOBAL
  0
ACAD_PROXY_OBJECT
  5
6C
102
{ACAD_REACTORS
330
6B
102
}
330
6B
100
AcDbProxyObject
 90
      499
 91
      505
 93
      610
310
40901902A4063FBFFFFFE056BD1B81E855B9FC0AD7A3703D0AD73F4214DD185B99185C9900AD7A3703D0AC73F90141901A02B5E8DC0F42B1CFC02B5E8DC0F42B1CFE5764000000000000300FC0
340
14
340
0
340
11
340
0
 94
        0
1001
ACAD_MLEADERVER
1070
     2
  0
MLINESTYLE
  5
18
102
{ACAD_REACTORS
330
17
102
}
330
17
100
AcDbMlineStyle
  2
Standard
 70
     0
  3

 62
   256
 51
90.0
 52
90.0
 71
     2
 49
0.5
 62
   256
  6
BYLAYER
 49
-0.5
 62
   256
  6
BYLAYER
  0
ACAD_PROXY_OBJECT
  5
48
102
{ACAD_REACTORS
330
47
102
}
330
47
100
AcDbProxyObject
 90
      499
 91
      503
 93
       41
310
903313A31580
  0
ACAD_PROXY_OBJECT
  5
49
102
{ACAD_REACTORS
330
47
102
}
330
47
100
AcDbProxyObject
 90
      499
 91
      503
 93
      105
310
903313A324000000000000004000
  0
ACAD_PROXY_OBJECT
  5
4A
102
{ACAD_REACTORS
330
47
102
}
330
47
100
AcDbProxyObject
 90
      499
 91
      503
 93
      105
310
903313A344000000000000104000
  0
ACAD_PROXY_OBJECT
  5
4B
102
{ACAD_REACTORS
330
47
102
}
330
47
100
AcDbProxyObject
 90
      499
 91
      503
 93
      105
310
903313A354000000000000144000
  0
ACAD_PROXY_OBJECT
  5
4C
102
{ACAD_REACTORS
330
47
102
}
330
47
100
AcDbProxyObject
 90
      499
 91
      503
 93
      105
310
903313A384000000000000204000
  0
ACAD_PROXY_OBJECT
  5
4D
102
{ACAD_REACTORS
330
47
102
}
330
47
100
AcDbProxyObject
 90
      499
 91
      503
 93
      113
310
904313A31304000000000000244000
  0
ACAD_PROXY_OBJECT
  5
4E
102
{ACAD_REACTORS
330
47
102
}
330
47
100
AcDbProxyObject
 90
      499
 91
      503
 93
      113
310
904313A31364000000000000304000
  0
ACAD_PROXY_OBJECT
  5
4F
102
{ACAD_REACTORS
330
47
102
}
330
47
100
AcDbProxyObject
 90
      499
 91
      503
 93
      113
310
904313A32304000000000000344000
  0
ACAD_PROXY_OBJECT
  5
50
102
{ACAD_REACTORS
330
47
102
}
330
47
100
AcDbProxyObject
 90
      499
 91
      503
 93
      113
310
904313A333040000000000003E4000
  0
ACAD_PROXY_OBJECT
  5
51
102
{ACAD_REACTORS
330
47
102
}
330
47
100
AcDbProxyObject
 90
      499
 91
      503
 93
      113
310
904313A34304000000000000444000
  0
ACAD_PROXY_OBJECT
  5
52
102
{ACAD_REACTORS
330
47
102
}
330
47
100
AcDbProxyObject
 90
      499
 91
      503
 93
      113
310
904313A35304000000000000494000
  0
ACAD_PROXY_OBJECT
  5
53
102
{ACAD_REACTORS
330
47
102
}
330
47
100
AcDbProxyObject
 90
      499
 91
      503
 93
      121
310
905313A3130304000000000000594000
  0
ACAD_PROXY_OBJECT
  5
54
102
{ACAD_REACTORS
330
47
102
}
330
47
100
AcDbProxyObject
 90
      499
 91
      503
 93
      105
310
903323A310000000000000010100
  0
ACAD_PROXY_OBJECT
  5
55
102
{ACAD_REACTORS
330
47
102
}
330
47
100
AcDbProxyObject
 90
      499
 91
      503
 93
      105
310
903343A310000000000000410100
  0
ACAD_PROXY_OBJECT
  5
56
102
{ACAD_REACTORS
330
47
102
}
330
47
100
AcDbProxyObject
 90
      499
 91
      503
 93
      105
310
903383A310000000000000810100
  0
ACAD_PROXY_OBJECT
  5
57
102
{ACAD_REACTORS
330
47
102
}
330
47
100
AcDbProxyObject
 90
      499
 91
      503
 93
      113
310
90431303A310000000000000910100
  0
ACAD_PROXY_OBJECT
  5
58
102
{ACAD_REACTORS
330
47
102
}
330
47
100
AcDbProxyObject
 90
      499
 91
      503
 93
      121
310
9053130303A310000000000001650100
  0
ACAD_PROXY_OBJECT
  5
59
102
{ACAD_REACTORS
330
47
102
}
330
47
100
AcDbProxyObject
 90
      499
 91
      503
 93
      257
310
90E312F31323822203D2031272D3022000000000000200FC000000000000284000
  0
ACAD_PROXY_OBJECT
  5
5A
102
{ACAD_REACTORS
330
47
102
}
330
47
100
AcDbProxyObject
 90
      499
 91
      503
 93
      249
310
90D312F363422203D2031272D3022000000000000240FC000000000000284000
  0
ACAD_PROXY_OBJECT
  5
5B
102
{ACAD_REACTORS
330
47
102
}
330
47
100
AcDbProxyObject
 90
      499
 91
      503
 93
      249
310
90D312F333222203D2031272D3022000000000000280FC000000000000284000
  0
ACAD_PROXY_OBJECT
  5
5C
102
{ACAD_REACTORS
330
47
102
}
330
47
100
AcDbProxyObject
 90
      499
 91
      503
 93
      249
310
90D312F313622203D2031272D30220000000000002C0FC000000000000284000
  0
ACAD_PROXY_OBJECT
  5
5D
102
{ACAD_REACTORS
330
47
102
}
330
47
100
AcDbProxyObject
 90
      499
 91
      503
 93
      249
310
90D332F333222203D2031272D30220000000000002E0FC000000000000284000
  0
ACAD_PROXY_OBJECT
  5
5E
102
{ACAD_REACTORS
330
47
102
}
330
47
100
AcDbProxyObject
 90
      499
 91
      503
 93
      241
310
90C312F3822203D2031272D3022000000000000300FC000000000000284000
  0
ACAD_PROXY_OBJECT
  5
5F
102
{ACAD_REACTORS
330
47
102
}
330
47
100
AcDbProxyObject
 90
      499
 91
      503
 93
      249
310
90D332F313622203D2031272D3022000000000000320FC000000000000284000
  0
ACAD_PROXY_OBJECT
  5
60
102
{ACAD_REACTORS
330
47
102
}
330
47
100
AcDbProxyObject
 90
      499
 91
      503
 93
      241
310
90C312F3422203D2031272D3022000000000000340FC000000000000284000
  0
ACAD_PROXY_OBJECT
  5
61
102
{ACAD_REACTORS
330
47
102
}
330
47
100
AcDbProxyObject
 90
      499
 91
      503
 93
      241
310
90C332F3822203D2031272D3022000000000000360FC000000000000284000
  0
ACAD_PROXY_OBJECT
  5
62
102
{ACAD_REACTORS
330
47
102
}
330
47
100
AcDbProxyObject
 90
      499
 91
      503
 93
      241
310
90C312F3222203D2031272D3022000000000000380FC000000000000284000
  0
ACAD_PROXY_OBJECT
  5
63
102
{ACAD_REACTORS
330
47
102
}
330
47
100
AcDbProxyObject
 90
      499
 91
      503
 93
      241
310
90C332F3422203D2031272D30220000000000003A0FC000000000000284000
  0
ACAD_PROXY_OBJECT
  5
64
102
{ACAD_REACTORS
330
47
102
}
330
47
100
AcDbProxyObject
 90
      499
 91
      503
 93
      161
310
90A3122203D2031272D30224000000000000284000
  0
ACAD_PROXY_OBJECT
  5
65
102
{ACAD_REACTORS
330
47
102
}
330
47
100
AcDbProxyObject
 90
      499
 91
      503
 93
      257
310
90E312D312F3222203D2031272D30220000000000003E0FC000000000000284000
  0
ACAD_PROXY_OBJECT
  5
66
102
{ACAD_REACTORS
330
47
102
}
330
47
100
AcDbProxyObject
 90
      499
 91
      503
 93
      225
310
90A3322203D2031272D302200000000000002100000000000000284000
  0
ACAD_PROXY_OBJECT
  5
67
102
{ACAD_REACTORS
330
47
102
}
330
47
100
AcDbProxyObject
 90
      499
 91
      503
 93
      225
310
90A3622203D2031272D302200000000000006100000000000000284000
  0
ACAD_PROXY_OBJECT
  5
68
102
{ACAD_REACTORS
330
47
102
}
330
47
100
AcDbProxyObject
 90
      499
 91
      503
 93
      249
310
90D31272D3022203D2031272D30220000000000000A100000000000000284000
  0
ACAD_PROXY_OBJECT
  5
2F
102
{ACAD_REACTORS
330
2A
102
}
330
2A
100
AcDbProxyObject
 90
      499
 91
      501
 93
      436
310
42CC9915DA5C99599C985B595049028333333333333E33F0000000000000F90107901411070040501600405405064090741402480A0340
1001
ACAD
1000
AcDbSavedByObjectVersion
1070
     0
  0
ACAD_PROXY_OBJECT
  5
32
102
{ACAD_REACTORS
330
2A
102
}
330
2A
100
AcDbProxyObject
 90
      499
 91
      501
 93
      388
310
4150985CDA58D07406404333333333333E33F0000000000000F90107A41107004050150841D405064090741402480A0350
1001
ACAD
1000
AcDbSavedByObjectVersion
1070
     0
  0
ACAD_PROXY_OBJECT
  5
36
102
{ACAD_REACTORS
330
2A
102
}
330
2A
100
AcDbProxyObject
 90
      499
 91
      501
 93
      428
310
42109C9A59DA1D195B90C409028333333333333E33F0000000000000F9010790141107004050150841D405064090741402480A029950
1001
ACAD
1000
AcDbSavedByObjectVersion
1070
     0
  0
ACAD_PROXY_OBJECT
  5
3A
102
{ACAD_REACTORS
330
2A
102
}
330
2A
100
AcDbProxyObject
 90
      499
 91
      501
 93
      452
310
42D0DBDB1BDC90DA185B99D95104090240C333333333333E33F0000000000000F90108901411070040501508421405064090741402480A0350
1001
ACAD
1000
AcDbSavedByObjectVersion
1070
     0
  0
ACAD_PROXY_OBJECT
  5
34
102
{ACAD_REACTORS
330
2A
102
}
330
2A
100
AcDbProxyObject
 90
      499
 91
      501
 93
      500
310
4290DBDB98D95C1D1D585B10940D028333333333333E33F0000000000000F90107902409070040501000000000018199010841D405064090740C02480A0340
1001
ACAD
1000
AcDbSavedByObjectVersion
1070
     0
  0
ACAD_PROXY_OBJECT
  5
35
102
{ACAD_REACTORS
330
2A
102
}
330
2A
100
AcDbProxyObject
 90
      499
 91
      501
 93
      412
310
40D11A5B50B409028333333333333E33F0000000000000F9010790141107004050150841D405064090741402480A02677FFFFFD0
1001
ACAD
1000
AcDbSavedByObjectVersion
1070
     0
  0
ACAD_PROXY_OBJECT
  5
3D
102
{ACAD_REACTORS
330
2A
102
}
330
2A
100
AcDbProxyObject
 90
      499
 91
      501
 93
      452
310
43115919D950DBDB1BDC93D999916409028333333333333E33F0000000000000F9010790141107004050150841D405064090741402480A0350
1001
ACAD
1000
AcDbSavedByObjectVersion
1070
     0
  0
ACAD_PROXY_OBJECT
  5
39
102
{ACAD_REACTORS
330
2A
102
}
330
2A
100
AcDbProxyObject
 90
      499
 91
      501
 93
      444
310
42D19858D95C185D1D195C9B90F409028333333333333E33F0000000000000F9010790141107004050150841D405064090741402480A0350
1001
ACAD
1000
AcDbSavedByObjectVersion
1070
     0
  0
ACAD_PROXY_OBJECT
  5
2B
102
{ACAD_REACTORS
330
2A
102
}
330
2A
100
AcDbProxyObject
 90
      499
 91
      501
 93
      380
310
41119B185D240901404333333333333E33F0000000000000F9010740A907004050150841D405064090741402480A1B50
1001
ACAD
1000
AcDbSavedByObjectVersion
1070
     0
  0
ACAD_PROXY_OBJECT
  5
2C
102
{ACAD_REACTORS
330
2A
102
}
330
2A
100
AcDbProxyObject
 90
      499
 91
      501
 93
      468
310
43519B185D15DA5D1A115919D95CD0140901404333333333333E33F0000000000000F90107409019070040501600405405064090741402480A1B50
1001
ACAD
1000
AcDbSavedByObjectVersion
1070
     0
  0
ACAD_PROXY_OBJECT
  5
2D
102
{ACAD_REACTORS
330
2A
102
}
330
2A
100
AcDbProxyObject
 90
      499
 91
      501
 93
      404
310
41D1DBDD5C985D5910240902404333333333333E33F0000000000000F9010740A9070040501641D405064090741402480A1B50
1001
ACAD
1000
AcDbSavedByObjectVersion
1070
     0
  0
ACAD_PROXY_OBJECT
  5
2E
102
{ACAD_REACTORS
330
2A
102
}
330
2A
100
AcDbProxyObject
 90
      499
 91
      501
 93
      492
310
4411DBDD5C985D5915DA5D1A115919D95CD0340902404333333333333E33F0000000000000F90107409019070040501600405405064090741402480A1B50
1001
ACAD
1000
AcDbSavedByObjectVersion
1070
     0
  0
ACAD_PROXY_OBJECT
  5
31
102
{ACAD_REACTORS
330
2A
102
}
330
2A
100
AcDbProxyObject
 90
      499
 91
      501
 93
      476
310
41921A5919195B90640502408333333333333E33F0000000000000F901079024090700405020000000000001110200405405064090740C02480A0340
1001
ACAD
1000
AcDbSavedByObjectVersion
1070
     0
  0
ACAD_PROXY_OBJECT
  5
3B
102
{ACAD_REACTORS
330
2A
102
}
330
2A
100
AcDbProxyObject
 90
      499
 91
      501
 93
      428
310
42529A5D1D195C93D999914409028333333333333E33F0000000000000F9010790141107004050150A41D405064090741402480A0350
1001
ACAD
1000
AcDbSavedByObjectVersion
1070
     0
  0
ACAD_PROXY_OBJECT
  5
38
102
{ACAD_REACTORS
330
2A
102
}
330
2A
100
AcDbProxyObject
 90
      499
 91
      501
 93
      444
310
42D31A5B995C185D1D195C9B90E409028333333333333E33F0000000000000F9010790141107004050750841D405064090741402483A0350
1001
ACAD
1000
AcDbSavedByObjectVersion
1070
     0
  0
ACAD_PROXY_OBJECT
  5
3C
102
{ACAD_REACTORS
330
2A
102
}
330
2A
100
AcDbProxyObject
 90
      499
 91
      501
 93
      444
310
42D3DD995C9A185B99D3D999915409028333333333333E33F0000000000000F9010790141107004050150941D405064090741402480A0350
1001
ACAD
1000
AcDbSavedByObjectVersion
1070
     0
  0
ACAD_PROXY_OBJECT
  5
33
102
{ACAD_REACTORS
330
2A
102
}
330
2A
100
AcDbProxyObject
 90
      499
 91
      501
 93
      428
310
425499585B1A5CDD1A58D08409038333333333333E33F0000000000000F9010740A907004050150800405405064090740C02480A1B40
1001
ACAD
1000
AcDbSavedByObjectVersion
1070
     0
  0
ACAD_PROXY_OBJECT
  5
42
102
{ACAD_REACTORS
330
2A
102
}
330
2A
100
AcDbProxyObject
 90
      499
 91
      501
 93
      420
310
4194DA1859195911B40902404333333333333E33F0000000000000F9010740A41107004050150800405405064090840C02480A0B40
1001
ACAD
1000
AcDbSavedByObjectVersion
1070
     0
  0
ACAD_PROXY_OBJECT
  5
41
102
{ACAD_REACTORS
330
2A
102
}
330
2A
100
AcDbProxyObject
 90
      499
 91
      501
 93
      516
310
4454DA18591959081DDA5D1A08195919D95CD1A40902404333333333333E33F0000000000000F901074090142907004050250800405405064090740C02480A0B40
1001
ACAD
1000
AcDbSavedByObjectVersion
1070
     0
  0
ACAD_PROXY_OBJECT
  5
3E
102
{ACAD_REACTORS
330
2A
102
}
330
2A
100
AcDbProxyObject
 90
      499
 91
      501
 93
      532
310
4394DA1859195CC81BD98811DC985E5174090240C333333333333E33F0000000000000F901079024090741D01000000000000111010841D405064090740C02480A0340
1001
ACAD
1000
AcDbSavedByObjectVersion
1070
     0
  0
ACAD_PROXY_OBJECT
  5
3F
102
{ACAD_REACTORS
330
2A
102
}
330
2A
100
AcDbProxyObject
 90
      499
 91
      501
 93
      476
310
41D4DAD95D18DA1E51840502408333333333333E33F0000000000000F901079024090741D01000000000000111010B41D405064090741802480A0340
1001
ACAD
1000
AcDbSavedByObjectVersion
1070
     0
  0
ACAD_PROXY_OBJECT
  5
37
102
{ACAD_REACTORS
330
2A
102
}
330
2A
100
AcDbProxyObject
 90
      499
 91
      501
 93
      412
310
41D51A1A58DAD95B90D409028333333333333E33F0000000000000F9010790141107004050150C41D405064090741402480A0350
1001
ACAD
1000
AcDbSavedByObjectVersion
1070
     0
  0
ACAD_PROXY_OBJECT
  5
30
102
{ACAD_REACTORS
330
2A
102
}
330
2A
100
AcDbProxyObject
 90
      499
 91
      501
 93
      420
310
4255DA5C99599C985B595059028333333333333E33F0000000000000F90107901411070040501600405405064090740C02480A0340
1001
ACAD
1000
AcDbSavedByObjectVersion
1070
     0
  0
ACAD_PROXY_OBJECT
  5
40
102
{ACAD_REACTORS
330
2A
102
}
330
2A
100
AcDbProxyObject
 90
      499
 91
      501
 93
      404
310
41560B54985E51940902404000000000000E03F0000000000000F9010740501907004050150841D405064090740C02480A1B40
1001
ACAD
1000
AcDbSavedByObjectVersion
1070
     0
  0
XRECORD
  5
19E
102
{ACAD_REACTORS
330
194
102
}
330
194
100
AcDbXrecord
340
0
  0
XRECORD
  5
19D
102
{ACAD_REACTORS
330
194
102
}
330
194
100
AcDbXrecord
 90
        0
  0
XRECORD
  5
1B4
102
{ACAD_REACTORS
330
194
102
}
330
194
100
AcDbXrecord
1000
DSTYLE
1002
{
1070
   340
340
11
1002
}
  0
XRECORD
  5
19F
102
{ACAD_REACTORS
330
194
102
}
330
194
100
AcDbXrecord
  1
{c0c85271-916e-914c-8cc2-bed37e9628e0}
  0
XRECORD
  5
197
102
{ACAD_REACTORS
330
194
102
}
330
194
100
AcDbXrecord
  1

  0
XRECORD
  5
19C
102
{ACAD_REACTORS
330
194
102
}
330
194
100
AcDbXrecord
 90
        1
  0
XRECORD
  5
199
102
{ACAD_REACTORS
330
194
102
}
330
194
100
AcDbXrecord
340
1A
  0
XRECORD
  5
19B
102
{ACAD_REACTORS
330
194
102
}
330
194
100
AcDbXrecord
 90
    10781
  0
XRECORD
  5
19A
102
{ACAD_REACTORS
330
194
102
}
330
194
100
AcDbXrecord
340
19
  0
XRECORD
  5
1A1
102
{ACAD_REACTORS
330
194
102
}
330
194
100
AcDbXrecord
 40
0.0
  0
XRECORD
  5
1A4
102
{ACAD_REACTORS
330
194
102
}
330
194
100
AcDbXrecord
340
0
  0
XRECORD
  5
1AA
102
{ACAD_REACTORS
330
194
102
}
330
194
100
AcDbXrecord
 10
0.0
 20
0.0
 30
0.0
  0
XRECORD
  5
1A6
102
{ACAD_REACTORS
330
194
102
}
330
194
100
AcDbXrecord
 10
0.0
 20
0.0
 30
0.0
  0
XRECORD
  5
1A9
102
{ACAD_REACTORS
330
194
102
}
330
194
100
AcDbXrecord
 10
0.0
 20
0.0
 30
0.0
  0
XRECORD
  5
1A7
102
{ACAD_REACTORS
330
194
102
}
330
194
100
AcDbXrecord
 10
0.0
 20
0.0
 30
0.0
  0
XRECORD
  5
1A8
102
{ACAD_REACTORS
330
194
102
}
330
194
100
AcDbXrecord
 10
0.0
 20
0.0
 30
0.0
  0
XRECORD
  5
1A5
102
{ACAD_REACTORS
330
194
102
}
330
194
100
AcDbXrecord
 10
0.0
 20
0.0
 30
0.0
  0
XRECORD
  5
1A2
102
{ACAD_REACTORS
330
194
102
}
330
194
100
AcDbXrecord
340
0
  0
XRECORD
  5
1A3
102
{ACAD_REACTORS
330
194
102
}
330
194
100
AcDbXrecord
 70
     0
  0
XRECORD
  5
198
102
{ACAD_REACTORS
330
194
102
}
330
194
100
AcDbXrecord
  1

  0
XRECORD
  5
195
102
{ACAD_REACTORS
330
194
102
}
330
194
100
AcDbXrecord
 90
        1
  0
XRECORD
  5
196
102
{ACAD_REACTORS
330
194
102
}
330
194
100
AcDbXrecord
 90
       70
  0
XRECORD
  5
1AD
102
{ACAD_REACTORS
330
194
102
}
330
194
100
AcDbXrecord
340
0
  0
XRECORD
  5
1B3
102
{ACAD_REACTORS
330
194
102
}
330
194
100
AcDbXrecord
 10
0.0
 20
0.0
 30
0.0
  0
XRECORD
  5
1AF
102
{ACAD_REACTORS
330
194
102
}
330
194
100
AcDbXrecord
 10
0.0
 20
0.0
 30
0.0
  0
XRECORD
  5
1B2
102
{ACAD_REACTORS
330
194
102
}
330
194
100
AcDbXrecord
 10
0.0
 20
0.0
 30
0.0
  0
XRECORD
  5
1B0
102
{ACAD_REACTORS
330
194
102
}
330
194
100
AcDbXrecord
 10
0.0
 20
0.0
 30
0.0
  0
XRECORD
  5
1B1
102
{ACAD_REACTORS
330
194
102
}
330
194
100
AcDbXrecord
 10
0.0
 20
0.0
 30
0.0
  0
XRECORD
  5
1AE
102
{ACAD_REACTORS
330
194
102
}
330
194
100
AcDbXrecord
 10
0.0
 20
0.0
 30
0.0
  0
XRECORD
  5
1AB
102
{ACAD_REACTORS
330
194
102
}
330
194
100
AcDbXrecord
340
0
  0
XRECORD
  5
1AC
102
{ACAD_REACTORS
330
194
102
}
330
194
100
AcDbXrecord
 70
     0
  0
XRECORD
  5
1A0
102
{ACAD_REACTORS
330
194
102
}
330
194
100
AcDbXrecord
  1
{FAEB1C32-E019-11D5-929B-00C0DF256EC4}
  0
DICTIONARYVAR
  5
1BE
102
{ACAD_REACTORS
330
1B5
102
}
330
1B5
100
DictionaryVariables
280
     0
  1
1:1
  0
DICTIONARYVAR
  5
1B7
102
{ACAD_REACTORS
330
1B5
102
}
330
1B5
100
DictionaryVariables
280
     0
  1
Standard
  0
DICTIONARYVAR
  5
1B6
102
{ACAD_REACTORS
330
1B5
102
}
330
1B5
100
DictionaryVariables
280
     0
  1
Standard
  0
DICTIONARYVAR
  5
1BA
102
{ACAD_REACTORS
330
1B5
102
}
330
1B5
100
DictionaryVariables
280
     0
  1
2
  0
DICTIONARYVAR
  5
1BB
102
{ACAD_REACTORS
330
1B5
102
}
330
1B5
100
DictionaryVariables
280
     0
  1
1
  0
DICTIONARYVAR
  5
1BF
102
{ACAD_REACTORS
330
1B5
102
}
330
1B5
100
DictionaryVariables
280
     0
  1
1
  0
DICTIONARY
  5
1C2
330
45
100
AcDbDictionary
280
     1
  3
ACAD_XREC_ROUNDTRIP
360
1C3
  0
DICTIONARY
  5
1C0
330
44
100
AcDbDictionary
280
     1
  3
ACAD_XREC_ROUNDTRIP
360
1C1
  0
DICTIONARY
  5
1C4
330
46
100
AcDbDictionary
280
     1
  3
ACAD_XREC_ROUNDTRIP
360
1C5
  0
XRECORD
  5
1C3
102
{ACAD_REACTORS
330
1C2
102
}
330
1C2
100
AcDbXrecord
102
MATERIAL
148
0.0
149
0.0
149
0.0
 93
        0
 94
      127
282
     0
 72
     1
 77
     1
171
     1
175
     1
179
     1
273
     0
  0
XRECORD
  5
1C1
102
{ACAD_REACTORS
330
1C0
102
}
330
1C0
100
AcDbXrecord
102
MATERIAL
148
0.0
149
0.0
149
0.0
 93
        0
 94
      127
282
     0
 72
     1
 77
     1
171
     1
175
     1
179
     1
273
     0
  0
XRECORD
  5
1C5
102
{ACAD_REACTORS
330
1C4
102
}
330
1C4
100
AcDbXrecord
102
MATERIAL
148
0.0
149
0.0
149
0.0
 93
        0
 94
      127
282
     0
 72
     1
 77
     1
171
     1
175
     1
179
     1
273
     0
  0
ENDSEC
  0
EOF
